<?xml version="1.0" encoding="UTF-8" standalone="no"?>
<!DOCTYPE svg PUBLIC "-//W3C//DTD SVG 1.1//EN"
 "http://www.w3.org/Graphics/SVG/1.1/DTD/svg11.dtd">
<!-- Generated by graphviz version 2.38.0 (20140413.2041)
 -->
<!-- Title: controllers_diagram Pages: 1 -->
<svg width="869pt" height="849pt"
 viewBox="0.00 0.00 869.42 849.00" xmlns="http://www.w3.org/2000/svg" xmlns:xlink="http://www.w3.org/1999/xlink">
<g id="graph0" class="graph" transform="scale(1 1) rotate(0) translate(394.6 505.5)">
<title>controllers_diagram</title>
<polygon fill="white" stroke="none" points="-394.6,343.5 -394.6,-505.5 474.821,-505.5 474.821,343.5 -394.6,343.5"/>
<!-- _diagram_info -->
<g id="node1" class="node"><title>_diagram_info</title>
<text text-anchor="start" x="-127.688" y="144.9" font-family="Times,serif" font-size="13.00">Controllers diagram</text>
<text text-anchor="start" x="-127.688" y="157.9" font-family="Times,serif" font-size="13.00">Date: Aug 17 2015 &#45; 12:21</text>
<text text-anchor="start" x="-127.688" y="170.9" font-family="Times,serif" font-size="13.00">Migration version: 20150813065851</text>
<text text-anchor="start" x="-127.688" y="183.9" font-family="Times,serif" font-size="13.00">Generated by RailRoady 1.3.0</text>
<text text-anchor="start" x="-127.688" y="196.9" font-family="Times,serif" font-size="13.00">http://railroady.prestonlee.com</text>
</g>
<!-- AccountsController -->
<g id="node2" class="node"><title>AccountsController</title>
<path fill="none" stroke="black" d="M198.79,-375C198.79,-375 301.21,-375 301.21,-375 307.21,-375 313.21,-381 313.21,-387 313.21,-387 313.21,-453 313.21,-453 313.21,-459 307.21,-465 301.21,-465 301.21,-465 198.79,-465 198.79,-465 192.79,-465 186.79,-459 186.79,-453 186.79,-453 186.79,-387 186.79,-387 186.79,-381 192.79,-375 198.79,-375"/>
<text text-anchor="middle" x="250" y="-449.8" font-family="Times,serif" font-size="14.00">AccountsController</text>
<polyline fill="none" stroke="black" points="186.79,-443 313.21,-443 "/>
<text text-anchor="start" x="194.79" y="-427.8" font-family="Times,serif" font-size="14.00">index</text>
<polyline fill="none" stroke="black" points="186.79,-421 313.21,-421 "/>
<polyline fill="none" stroke="black" points="186.79,-397 313.21,-397 "/>
<text text-anchor="start" x="194.79" y="-381.8" font-family="Times,serif" font-size="14.00">_layout</text>
</g>
<!-- ApplicationController -->
<g id="node3" class="node"><title>ApplicationController</title>
<path fill="none" stroke="black" d="M-89.9658,101C-89.9658,101 83.9658,101 83.9658,101 89.9658,101 95.9658,95 95.9658,89 95.9658,89 95.9658,-61 95.9658,-61 95.9658,-67 89.9658,-73 83.9658,-73 83.9658,-73 -89.9658,-73 -89.9658,-73 -95.9658,-73 -101.966,-67 -101.966,-61 -101.966,-61 -101.966,89 -101.966,89 -101.966,95 -95.9658,101 -89.9658,101"/>
<text text-anchor="middle" x="-3" y="-57.8" font-family="Times,serif" font-size="14.00">ApplicationController</text>
<polyline fill="none" stroke="black" points="-101.966,-51 95.9658,-51 "/>
<polyline fill="none" stroke="black" points="-101.966,-27 95.9658,-27 "/>
<text text-anchor="start" x="-93.9658" y="-11.8" font-family="Times,serif" font-size="14.00">after_sign_in_path_for</text>
<text text-anchor="start" x="-93.9658" y="2.2" font-family="Times,serif" font-size="14.00">after_sign_out_path_for</text>
<text text-anchor="start" x="-93.9658" y="16.2" font-family="Times,serif" font-size="14.00">android_request?</text>
<text text-anchor="start" x="-93.9658" y="30.2" font-family="Times,serif" font-size="14.00">configure_permitted_parameters</text>
<text text-anchor="start" x="-93.9658" y="44.2" font-family="Times,serif" font-size="14.00">ios_request?</text>
<text text-anchor="start" x="-93.9658" y="58.2" font-family="Times,serif" font-size="14.00">mobile_request?</text>
<text text-anchor="start" x="-93.9658" y="72.2" font-family="Times,serif" font-size="14.00">set_device</text>
<polyline fill="none" stroke="black" points="-101.966,79 95.9658,79 "/>
<text text-anchor="start" x="-93.9658" y="94.2" font-family="Times,serif" font-size="14.00">_layout</text>
</g>
<!-- CategoriesController -->
<g id="node4" class="node"><title>CategoriesController</title>
<path fill="none" stroke="black" d="M267.293,-103C267.293,-103 376.707,-103 376.707,-103 382.707,-103 388.707,-109 388.707,-115 388.707,-115 388.707,-293 388.707,-293 388.707,-299 382.707,-305 376.707,-305 376.707,-305 267.293,-305 267.293,-305 261.293,-305 255.293,-299 255.293,-293 255.293,-293 255.293,-115 255.293,-115 255.293,-109 261.293,-103 267.293,-103"/>
<text text-anchor="middle" x="322" y="-289.8" font-family="Times,serif" font-size="14.00">CategoriesController</text>
<polyline fill="none" stroke="black" points="255.293,-283 388.707,-283 "/>
<text text-anchor="start" x="263.293" y="-267.8" font-family="Times,serif" font-size="14.00">create</text>
<text text-anchor="start" x="263.293" y="-253.8" font-family="Times,serif" font-size="14.00">destroy</text>
<text text-anchor="start" x="263.293" y="-239.8" font-family="Times,serif" font-size="14.00">edit</text>
<text text-anchor="start" x="263.293" y="-225.8" font-family="Times,serif" font-size="14.00">index</text>
<text text-anchor="start" x="263.293" y="-211.8" font-family="Times,serif" font-size="14.00">new</text>
<text text-anchor="start" x="263.293" y="-197.8" font-family="Times,serif" font-size="14.00">show</text>
<text text-anchor="start" x="263.293" y="-183.8" font-family="Times,serif" font-size="14.00">update</text>
<polyline fill="none" stroke="black" points="255.293,-177 388.707,-177 "/>
<polyline fill="none" stroke="black" points="255.293,-153 388.707,-153 "/>
<text text-anchor="start" x="263.293" y="-137.8" font-family="Times,serif" font-size="14.00">_layout</text>
<text text-anchor="start" x="263.293" y="-123.8" font-family="Times,serif" font-size="14.00">category_params</text>
<text text-anchor="start" x="263.293" y="-109.8" font-family="Times,serif" font-size="14.00">set_category</text>
</g>
<!-- ContractsController -->
<g id="node5" class="node"><title>ContractsController</title>
<path fill="none" stroke="black" d="M114.4,-103C114.4,-103 217.6,-103 217.6,-103 223.6,-103 229.6,-109 229.6,-115 229.6,-115 229.6,-321 229.6,-321 229.6,-327 223.6,-333 217.6,-333 217.6,-333 114.4,-333 114.4,-333 108.4,-333 102.4,-327 102.4,-321 102.4,-321 102.4,-115 102.4,-115 102.4,-109 108.4,-103 114.4,-103"/>
<text text-anchor="middle" x="166" y="-317.8" font-family="Times,serif" font-size="14.00">ContractsController</text>
<polyline fill="none" stroke="black" points="102.4,-311 229.6,-311 "/>
<text text-anchor="start" x="110.4" y="-295.8" font-family="Times,serif" font-size="14.00">create</text>
<text text-anchor="start" x="110.4" y="-281.8" font-family="Times,serif" font-size="14.00">destroy</text>
<text text-anchor="start" x="110.4" y="-267.8" font-family="Times,serif" font-size="14.00">edit</text>
<text text-anchor="start" x="110.4" y="-253.8" font-family="Times,serif" font-size="14.00">index</text>
<text text-anchor="start" x="110.4" y="-239.8" font-family="Times,serif" font-size="14.00">new</text>
<text text-anchor="start" x="110.4" y="-225.8" font-family="Times,serif" font-size="14.00">show</text>
<text text-anchor="start" x="110.4" y="-211.8" font-family="Times,serif" font-size="14.00">update</text>
<polyline fill="none" stroke="black" points="102.4,-205 229.6,-205 "/>
<polyline fill="none" stroke="black" points="102.4,-181 229.6,-181 "/>
<text text-anchor="start" x="110.4" y="-165.8" font-family="Times,serif" font-size="14.00">_layout</text>
<text text-anchor="start" x="110.4" y="-151.8" font-family="Times,serif" font-size="14.00">entry_params</text>
<text text-anchor="start" x="110.4" y="-137.8" font-family="Times,serif" font-size="14.00">notify_create</text>
<text text-anchor="start" x="110.4" y="-123.8" font-family="Times,serif" font-size="14.00">notify_update</text>
<text text-anchor="start" x="110.4" y="-109.8" font-family="Times,serif" font-size="14.00">set_entry</text>
</g>
<!-- EntriesController -->
<g id="node6" class="node"><title>EntriesController</title>
<path fill="none" stroke="black" d="M-378.6,-392C-378.6,-392 -289.4,-392 -289.4,-392 -283.4,-392 -277.4,-398 -277.4,-404 -277.4,-404 -277.4,-484 -277.4,-484 -277.4,-490 -283.4,-496 -289.4,-496 -289.4,-496 -378.6,-496 -378.6,-496 -384.6,-496 -390.6,-490 -390.6,-484 -390.6,-484 -390.6,-404 -390.6,-404 -390.6,-398 -384.6,-392 -378.6,-392"/>
<text text-anchor="middle" x="-334" y="-480.8" font-family="Times,serif" font-size="14.00">EntriesController</text>
<polyline fill="none" stroke="black" points="-390.6,-474 -277.4,-474 "/>
<text text-anchor="start" x="-382.6" y="-458.8" font-family="Times,serif" font-size="14.00">create</text>
<text text-anchor="start" x="-382.6" y="-444.8" font-family="Times,serif" font-size="14.00">destroy</text>
<polyline fill="none" stroke="black" points="-390.6,-438 -277.4,-438 "/>
<polyline fill="none" stroke="black" points="-390.6,-414 -277.4,-414 "/>
<text text-anchor="start" x="-382.6" y="-398.8" font-family="Times,serif" font-size="14.00">_layout</text>
</g>
<!-- EntrustsController -->
<g id="node7" class="node"><title>EntrustsController</title>
<path fill="none" stroke="black" d="M148.283,169C148.283,169 243.717,169 243.717,169 249.717,169 255.717,163 255.717,157 255.717,157 255.717,-49 255.717,-49 255.717,-55 249.717,-61 243.717,-61 243.717,-61 148.283,-61 148.283,-61 142.283,-61 136.283,-55 136.283,-49 136.283,-49 136.283,157 136.283,157 136.283,163 142.283,169 148.283,169"/>
<text text-anchor="middle" x="196" y="-45.8" font-family="Times,serif" font-size="14.00">EntrustsController</text>
<polyline fill="none" stroke="black" points="136.283,-39 255.717,-39 "/>
<text text-anchor="start" x="144.283" y="-23.8" font-family="Times,serif" font-size="14.00">create</text>
<text text-anchor="start" x="144.283" y="-9.8" font-family="Times,serif" font-size="14.00">destroy</text>
<text text-anchor="start" x="144.283" y="4.2" font-family="Times,serif" font-size="14.00">edit</text>
<text text-anchor="start" x="144.283" y="18.2" font-family="Times,serif" font-size="14.00">index</text>
<text text-anchor="start" x="144.283" y="32.2" font-family="Times,serif" font-size="14.00">new</text>
<text text-anchor="start" x="144.283" y="46.2" font-family="Times,serif" font-size="14.00">show</text>
<text text-anchor="start" x="144.283" y="60.2" font-family="Times,serif" font-size="14.00">update</text>
<polyline fill="none" stroke="black" points="136.283,67 255.717,67 "/>
<polyline fill="none" stroke="black" points="136.283,91 255.717,91 "/>
<text text-anchor="start" x="144.283" y="106.2" font-family="Times,serif" font-size="14.00">_layout</text>
<text text-anchor="start" x="144.283" y="120.2" font-family="Times,serif" font-size="14.00">entry_params</text>
<text text-anchor="start" x="144.283" y="134.2" font-family="Times,serif" font-size="14.00">notify_create</text>
<text text-anchor="start" x="144.283" y="148.2" font-family="Times,serif" font-size="14.00">notify_update</text>
<text text-anchor="start" x="144.283" y="162.2" font-family="Times,serif" font-size="14.00">set_entry</text>
</g>
<!-- HomeController -->
<g id="node8" class="node"><title>HomeController</title>
<path fill="none" stroke="black" d="M301.121,288C301.121,288 384.879,288 384.879,288 390.879,288 396.879,282 396.879,276 396.879,276 396.879,112 396.879,112 396.879,106 390.879,100 384.879,100 384.879,100 301.121,100 301.121,100 295.121,100 289.121,106 289.121,112 289.121,112 289.121,276 289.121,276 289.121,282 295.121,288 301.121,288"/>
<text text-anchor="middle" x="343" y="115.2" font-family="Times,serif" font-size="14.00">HomeController</text>
<polyline fill="none" stroke="black" points="289.121,122 396.879,122 "/>
<text text-anchor="start" x="297.121" y="137.2" font-family="Times,serif" font-size="14.00">about</text>
<text text-anchor="start" x="297.121" y="151.2" font-family="Times,serif" font-size="14.00">contact</text>
<text text-anchor="start" x="297.121" y="165.2" font-family="Times,serif" font-size="14.00">detailed</text>
<text text-anchor="start" x="297.121" y="179.2" font-family="Times,serif" font-size="14.00">index</text>
<text text-anchor="start" x="297.121" y="193.2" font-family="Times,serif" font-size="14.00">need_help</text>
<text text-anchor="start" x="297.121" y="207.2" font-family="Times,serif" font-size="14.00">new_display</text>
<text text-anchor="start" x="297.121" y="221.2" font-family="Times,serif" font-size="14.00">status</text>
<text text-anchor="start" x="297.121" y="235.2" font-family="Times,serif" font-size="14.00">watch_list</text>
<polyline fill="none" stroke="black" points="289.121,242 396.879,242 "/>
<polyline fill="none" stroke="black" points="289.121,266 396.879,266 "/>
<text text-anchor="start" x="297.121" y="281.2" font-family="Times,serif" font-size="14.00">_layout</text>
</g>
<!-- NegotiationsController -->
<g id="node9" class="node"><title>NegotiationsController</title>
<path fill="none" stroke="black" d="M-123.545,339C-123.545,339 -2.45508,339 -2.45508,339 3.54492,339 9.54492,333 9.54492,327 9.54492,327 9.54492,247 9.54492,247 9.54492,241 3.54492,235 -2.45508,235 -2.45508,235 -123.545,235 -123.545,235 -129.545,235 -135.545,241 -135.545,247 -135.545,247 -135.545,327 -135.545,327 -135.545,333 -129.545,339 -123.545,339"/>
<text text-anchor="middle" x="-63" y="250.2" font-family="Times,serif" font-size="14.00">NegotiationsController</text>
<polyline fill="none" stroke="black" points="-135.545,257 9.54492,257 "/>
<text text-anchor="start" x="-127.545" y="272.2" font-family="Times,serif" font-size="14.00">create</text>
<polyline fill="none" stroke="black" points="-135.545,279 9.54492,279 "/>
<polyline fill="none" stroke="black" points="-135.545,303 9.54492,303 "/>
<text text-anchor="start" x="-127.545" y="318.2" font-family="Times,serif" font-size="14.00">_layout</text>
<text text-anchor="start" x="-127.545" y="332.2" font-family="Times,serif" font-size="14.00">negotiation_params</text>
</g>
<!-- NotificationsController -->
<g id="node10" class="node"><title>NotificationsController</title>
<path fill="none" stroke="black" d="M-225.938,-239C-225.938,-239 -104.062,-239 -104.062,-239 -98.062,-239 -92.062,-245 -92.062,-251 -92.062,-251 -92.062,-429 -92.062,-429 -92.062,-435 -98.062,-441 -104.062,-441 -104.062,-441 -225.938,-441 -225.938,-441 -231.938,-441 -237.938,-435 -237.938,-429 -237.938,-429 -237.938,-251 -237.938,-251 -237.938,-245 -231.938,-239 -225.938,-239"/>
<text text-anchor="middle" x="-165" y="-425.8" font-family="Times,serif" font-size="14.00">NotificationsController</text>
<polyline fill="none" stroke="black" points="-237.938,-419 -92.062,-419 "/>
<text text-anchor="start" x="-229.938" y="-403.8" font-family="Times,serif" font-size="14.00">create</text>
<text text-anchor="start" x="-229.938" y="-389.8" font-family="Times,serif" font-size="14.00">destroy</text>
<text text-anchor="start" x="-229.938" y="-375.8" font-family="Times,serif" font-size="14.00">edit</text>
<text text-anchor="start" x="-229.938" y="-361.8" font-family="Times,serif" font-size="14.00">index</text>
<text text-anchor="start" x="-229.938" y="-347.8" font-family="Times,serif" font-size="14.00">new</text>
<text text-anchor="start" x="-229.938" y="-333.8" font-family="Times,serif" font-size="14.00">show</text>
<text text-anchor="start" x="-229.938" y="-319.8" font-family="Times,serif" font-size="14.00">update</text>
<polyline fill="none" stroke="black" points="-237.938,-313 -92.062,-313 "/>
<polyline fill="none" stroke="black" points="-237.938,-289 -92.062,-289 "/>
<text text-anchor="start" x="-229.938" y="-273.8" font-family="Times,serif" font-size="14.00">_layout</text>
<text text-anchor="start" x="-229.938" y="-259.8" font-family="Times,serif" font-size="14.00">notification_params</text>
<text text-anchor="start" x="-229.938" y="-245.8" font-family="Times,serif" font-size="14.00">set_notification</text>
</g>
<!-- OfferingsController -->
<g id="node11" class="node"><title>OfferingsController</title>
<path fill="none" stroke="black" d="M-39.4736,-103C-39.4736,-103 63.4736,-103 63.4736,-103 69.4736,-103 75.4736,-109 75.4736,-115 75.4736,-115 75.4736,-307 75.4736,-307 75.4736,-313 69.4736,-319 63.4736,-319 63.4736,-319 -39.4736,-319 -39.4736,-319 -45.4736,-319 -51.4736,-313 -51.4736,-307 -51.4736,-307 -51.4736,-115 -51.4736,-115 -51.4736,-109 -45.4736,-103 -39.4736,-103"/>
<text text-anchor="middle" x="12" y="-303.8" font-family="Times,serif" font-size="14.00">OfferingsController</text>
<polyline fill="none" stroke="black" points="-51.4736,-297 75.4736,-297 "/>
<text text-anchor="start" x="-43.4736" y="-281.8" font-family="Times,serif" font-size="14.00">create</text>
<text text-anchor="start" x="-43.4736" y="-267.8" font-family="Times,serif" font-size="14.00">destroy</text>
<text text-anchor="start" x="-43.4736" y="-253.8" font-family="Times,serif" font-size="14.00">edit</text>
<text text-anchor="start" x="-43.4736" y="-239.8" font-family="Times,serif" font-size="14.00">index</text>
<text text-anchor="start" x="-43.4736" y="-225.8" font-family="Times,serif" font-size="14.00">new</text>
<text text-anchor="start" x="-43.4736" y="-211.8" font-family="Times,serif" font-size="14.00">show</text>
<text text-anchor="start" x="-43.4736" y="-197.8" font-family="Times,serif" font-size="14.00">update</text>
<polyline fill="none" stroke="black" points="-51.4736,-191 75.4736,-191 "/>
<polyline fill="none" stroke="black" points="-51.4736,-167 75.4736,-167 "/>
<text text-anchor="start" x="-43.4736" y="-151.8" font-family="Times,serif" font-size="14.00">_layout</text>
<text text-anchor="start" x="-43.4736" y="-137.8" font-family="Times,serif" font-size="14.00">offering_params</text>
<text text-anchor="start" x="-43.4736" y="-123.8" font-family="Times,serif" font-size="14.00">set_offering</text>
<text text-anchor="start" x="-43.4736" y="-109.8" font-family="Times,serif" font-size="14.00">update_hire</text>
</g>
<!-- PaymentsController -->
<g id="node12" class="node"><title>PaymentsController</title>
<path fill="none" stroke="black" d="M352.007,-341C352.007,-341 455.993,-341 455.993,-341 461.993,-341 467.993,-347 467.993,-353 467.993,-353 467.993,-489 467.993,-489 467.993,-495 461.993,-501 455.993,-501 455.993,-501 352.007,-501 352.007,-501 346.007,-501 340.007,-495 340.007,-489 340.007,-489 340.007,-353 340.007,-353 340.007,-347 346.007,-341 352.007,-341"/>
<text text-anchor="middle" x="404" y="-485.8" font-family="Times,serif" font-size="14.00">PaymentsController</text>
<polyline fill="none" stroke="black" points="340.007,-479 467.993,-479 "/>
<text text-anchor="start" x="348.007" y="-463.8" font-family="Times,serif" font-size="14.00">create</text>
<text text-anchor="start" x="348.007" y="-449.8" font-family="Times,serif" font-size="14.00">index</text>
<text text-anchor="start" x="348.007" y="-435.8" font-family="Times,serif" font-size="14.00">new</text>
<text text-anchor="start" x="348.007" y="-421.8" font-family="Times,serif" font-size="14.00">show</text>
<polyline fill="none" stroke="black" points="340.007,-415 467.993,-415 "/>
<polyline fill="none" stroke="black" points="340.007,-391 467.993,-391 "/>
<text text-anchor="start" x="348.007" y="-375.8" font-family="Times,serif" font-size="14.00">_layout</text>
<text text-anchor="start" x="348.007" y="-361.8" font-family="Times,serif" font-size="14.00">payment_params</text>
<text text-anchor="start" x="348.007" y="-347.8" font-family="Times,serif" font-size="14.00">set_payment</text>
</g>
<!-- RelationshipsController -->
<g id="node13" class="node"><title>RelationshipsController</title>
<path fill="none" stroke="black" d="M114.117,305C114.117,305 239.883,305 239.883,305 245.883,305 251.883,299 251.883,293 251.883,293 251.883,213 251.883,213 251.883,207 245.883,201 239.883,201 239.883,201 114.117,201 114.117,201 108.117,201 102.117,207 102.117,213 102.117,213 102.117,293 102.117,293 102.117,299 108.117,305 114.117,305"/>
<text text-anchor="middle" x="177" y="216.2" font-family="Times,serif" font-size="14.00">RelationshipsController</text>
<polyline fill="none" stroke="black" points="102.117,223 251.883,223 "/>
<text text-anchor="start" x="110.117" y="238.2" font-family="Times,serif" font-size="14.00">create</text>
<text text-anchor="start" x="110.117" y="252.2" font-family="Times,serif" font-size="14.00">destroy</text>
<polyline fill="none" stroke="black" points="102.117,259 251.883,259 "/>
<polyline fill="none" stroke="black" points="102.117,283 251.883,283 "/>
<text text-anchor="start" x="110.117" y="298.2" font-family="Times,serif" font-size="14.00">_layout</text>
</g>
<!-- TalksController -->
<g id="node14" class="node"><title>TalksController</title>
<path fill="none" stroke="black" d="M-21.8354,-358C-21.8354,-358 57.8354,-358 57.8354,-358 63.8354,-358 69.8354,-364 69.8354,-370 69.8354,-370 69.8354,-478 69.8354,-478 69.8354,-484 63.8354,-490 57.8354,-490 57.8354,-490 -21.8354,-490 -21.8354,-490 -27.8354,-490 -33.8354,-484 -33.8354,-478 -33.8354,-478 -33.8354,-370 -33.8354,-370 -33.8354,-364 -27.8354,-358 -21.8354,-358"/>
<text text-anchor="middle" x="18" y="-474.8" font-family="Times,serif" font-size="14.00">TalksController</text>
<polyline fill="none" stroke="black" points="-33.8354,-468 69.8354,-468 "/>
<text text-anchor="start" x="-25.8354" y="-452.8" font-family="Times,serif" font-size="14.00">create</text>
<text text-anchor="start" x="-25.8354" y="-438.8" font-family="Times,serif" font-size="14.00">index</text>
<text text-anchor="start" x="-25.8354" y="-424.8" font-family="Times,serif" font-size="14.00">new</text>
<polyline fill="none" stroke="black" points="-33.8354,-418 69.8354,-418 "/>
<polyline fill="none" stroke="black" points="-33.8354,-394 69.8354,-394 "/>
<text text-anchor="start" x="-25.8354" y="-378.8" font-family="Times,serif" font-size="14.00">_layout</text>
<text text-anchor="start" x="-25.8354" y="-364.8" font-family="Times,serif" font-size="14.00">talk_params</text>
</g>
<!-- User::RegistrationsController -->
<g id="node15" class="node"><title>User::RegistrationsController</title>
<path fill="none" stroke="black" d="M301.179,67C301.179,67 458.821,67 458.821,67 464.821,67 470.821,61 470.821,55 470.821,55 470.821,-11 470.821,-11 470.821,-17 464.821,-23 458.821,-23 458.821,-23 301.179,-23 301.179,-23 295.179,-23 289.179,-17 289.179,-11 289.179,-11 289.179,55 289.179,55 289.179,61 295.179,67 301.179,67"/>
<text text-anchor="middle" x="380" y="-7.8" font-family="Times,serif" font-size="14.00">User::RegistrationsController</text>
<polyline fill="none" stroke="black" points="289.179,-1 470.821,-1 "/>
<text text-anchor="start" x="297.179" y="14.2" font-family="Times,serif" font-size="14.00">create</text>
<polyline fill="none" stroke="black" points="289.179,21 470.821,21 "/>
<polyline fill="none" stroke="black" points="289.179,45 470.821,45 "/>
<text text-anchor="start" x="297.179" y="60.2" font-family="Times,serif" font-size="14.00">_layout</text>
</g>
<!-- UsersController -->
<g id="node16" class="node"><title>UsersController</title>
<path fill="none" stroke="black" d="M-225.714,16C-225.714,16 -144.286,16 -144.286,16 -138.286,16 -132.286,10 -132.286,4 -132.286,4 -132.286,-188 -132.286,-188 -132.286,-194 -138.286,-200 -144.286,-200 -144.286,-200 -225.714,-200 -225.714,-200 -231.714,-200 -237.714,-194 -237.714,-188 -237.714,-188 -237.714,4 -237.714,4 -237.714,10 -231.714,16 -225.714,16"/>
<text text-anchor="middle" x="-185" y="-184.8" font-family="Times,serif" font-size="14.00">UsersController</text>
<polyline fill="none" stroke="black" points="-237.714,-178 -132.286,-178 "/>
<text text-anchor="start" x="-229.714" y="-162.8" font-family="Times,serif" font-size="14.00">contracts</text>
<text text-anchor="start" x="-229.714" y="-148.8" font-family="Times,serif" font-size="14.00">entries</text>
<text text-anchor="start" x="-229.714" y="-134.8" font-family="Times,serif" font-size="14.00">entrusts</text>
<text text-anchor="start" x="-229.714" y="-120.8" font-family="Times,serif" font-size="14.00">followers</text>
<text text-anchor="start" x="-229.714" y="-106.8" font-family="Times,serif" font-size="14.00">following</text>
<text text-anchor="start" x="-229.714" y="-92.8" font-family="Times,serif" font-size="14.00">index</text>
<text text-anchor="start" x="-229.714" y="-78.8" font-family="Times,serif" font-size="14.00">offerings</text>
<text text-anchor="start" x="-229.714" y="-64.8" font-family="Times,serif" font-size="14.00">show</text>
<text text-anchor="start" x="-229.714" y="-50.8" font-family="Times,serif" font-size="14.00">talks</text>
<text text-anchor="start" x="-229.714" y="-36.8" font-family="Times,serif" font-size="14.00">wants</text>
<polyline fill="none" stroke="black" points="-237.714,-30 -132.286,-30 "/>
<polyline fill="none" stroke="black" points="-237.714,-6 -132.286,-6 "/>
<text text-anchor="start" x="-229.714" y="9.2" font-family="Times,serif" font-size="14.00">_layout</text>
</g>
<!-- WantsController -->
<g id="node17" class="node"><title>WantsController</title>
<path fill="none" stroke="black" d="M-260.098,271C-260.098,271 -175.902,271 -175.902,271 -169.902,271 -163.902,265 -163.902,259 -163.902,259 -163.902,67 -163.902,67 -163.902,61 -169.902,55 -175.902,55 -175.902,55 -260.098,55 -260.098,55 -266.098,55 -272.098,61 -272.098,67 -272.098,67 -272.098,259 -272.098,259 -272.098,265 -266.098,271 -260.098,271"/>
<text text-anchor="middle" x="-218" y="70.2" font-family="Times,serif" font-size="14.00">WantsController</text>
<polyline fill="none" stroke="black" points="-272.098,77 -163.902,77 "/>
<text text-anchor="start" x="-264.098" y="92.2" font-family="Times,serif" font-size="14.00">create</text>
<text text-anchor="start" x="-264.098" y="106.2" font-family="Times,serif" font-size="14.00">destroy</text>
<text text-anchor="start" x="-264.098" y="120.2" font-family="Times,serif" font-size="14.00">edit</text>
<text text-anchor="start" x="-264.098" y="134.2" font-family="Times,serif" font-size="14.00">index</text>
<text text-anchor="start" x="-264.098" y="148.2" font-family="Times,serif" font-size="14.00">new</text>
<text text-anchor="start" x="-264.098" y="162.2" font-family="Times,serif" font-size="14.00">show</text>
<text text-anchor="start" x="-264.098" y="176.2" font-family="Times,serif" font-size="14.00">update</text>
<polyline fill="none" stroke="black" points="-272.098,183 -163.902,183 "/>
<polyline fill="none" stroke="black" points="-272.098,207 -163.902,207 "/>
<text text-anchor="start" x="-264.098" y="222.2" font-family="Times,serif" font-size="14.00">_layout</text>
<text text-anchor="start" x="-264.098" y="236.2" font-family="Times,serif" font-size="14.00">set_want</text>
<text text-anchor="start" x="-264.098" y="250.2" font-family="Times,serif" font-size="14.00">update_hire</text>
<text text-anchor="start" x="-264.098" y="264.2" font-family="Times,serif" font-size="14.00">want_params</text>
</g>
</g>
</svg>
