<?xml version="1.0" encoding="UTF-8" standalone="no"?>
<!DOCTYPE svg PUBLIC "-//W3C//DTD SVG 1.1//EN"
 "http://www.w3.org/Graphics/SVG/1.1/DTD/svg11.dtd">
<!-- Generated by graphviz version 2.38.0 (20140413.2041)
 -->
<!-- Title: controllers_diagram Pages: 1 -->
<svg width="683pt" height="699pt"
 viewBox="0.00 0.00 682.59 699.00" xmlns="http://www.w3.org/2000/svg" xmlns:xlink="http://www.w3.org/1999/xlink">
<g id="graph0" class="graph" transform="scale(1 1) rotate(0) translate(258.99 440.5)">
<title>controllers_diagram</title>
<polygon fill="white" stroke="none" points="-258.99,258.5 -258.99,-440.5 423.6,-440.5 423.6,258.5 -258.99,258.5"/>
<!-- _diagram_info -->
<g id="node1" class="node"><title>_diagram_info</title>
<text text-anchor="start" x="-195.688" y="144.9" font-family="Times,serif" font-size="13.00">Controllers diagram</text>
<text text-anchor="start" x="-195.688" y="157.9" font-family="Times,serif" font-size="13.00">Date: Jul 07 2015 &#45; 11:02</text>
<text text-anchor="start" x="-195.688" y="170.9" font-family="Times,serif" font-size="13.00">Migration version: 20150506065801</text>
<text text-anchor="start" x="-195.688" y="183.9" font-family="Times,serif" font-size="13.00">Generated by RailRoady 1.3.0</text>
<text text-anchor="start" x="-195.688" y="196.9" font-family="Times,serif" font-size="13.00">http://railroady.prestonlee.com</text>
</g>
<!-- AccountsController -->
<g id="node2" class="node"><title>AccountsController</title>
<path fill="none" stroke="black" d="M266.79,254C266.79,254 369.21,254 369.21,254 375.21,254 381.21,248 381.21,242 381.21,242 381.21,176 381.21,176 381.21,170 375.21,164 369.21,164 369.21,164 266.79,164 266.79,164 260.79,164 254.79,170 254.79,176 254.79,176 254.79,242 254.79,242 254.79,248 260.79,254 266.79,254"/>
<text text-anchor="middle" x="318" y="179.2" font-family="Times,serif" font-size="14.00">AccountsController</text>
<polyline fill="none" stroke="black" points="254.79,186 381.21,186 "/>
<text text-anchor="start" x="262.79" y="201.2" font-family="Times,serif" font-size="14.00">index</text>
<polyline fill="none" stroke="black" points="254.79,208 381.21,208 "/>
<polyline fill="none" stroke="black" points="254.79,232 381.21,232 "/>
<text text-anchor="start" x="262.79" y="247.2" font-family="Times,serif" font-size="14.00">_layout</text>
</g>
<!-- ApplicationController -->
<g id="node3" class="node"><title>ApplicationController</title>
<path fill="none" stroke="black" d="M-89.9658,101C-89.9658,101 83.9658,101 83.9658,101 89.9658,101 95.9658,95 95.9658,89 95.9658,89 95.9658,-61 95.9658,-61 95.9658,-67 89.9658,-73 83.9658,-73 83.9658,-73 -89.9658,-73 -89.9658,-73 -95.9658,-73 -101.966,-67 -101.966,-61 -101.966,-61 -101.966,89 -101.966,89 -101.966,95 -95.9658,101 -89.9658,101"/>
<text text-anchor="middle" x="-3" y="-57.8" font-family="Times,serif" font-size="14.00">ApplicationController</text>
<polyline fill="none" stroke="black" points="-101.966,-51 95.9658,-51 "/>
<polyline fill="none" stroke="black" points="-101.966,-27 95.9658,-27 "/>
<text text-anchor="start" x="-93.9658" y="-11.8" font-family="Times,serif" font-size="14.00">after_sign_in_path_for</text>
<text text-anchor="start" x="-93.9658" y="2.2" font-family="Times,serif" font-size="14.00">after_sign_out_path_for</text>
<text text-anchor="start" x="-93.9658" y="16.2" font-family="Times,serif" font-size="14.00">android_request?</text>
<text text-anchor="start" x="-93.9658" y="30.2" font-family="Times,serif" font-size="14.00">configure_permitted_parameters</text>
<text text-anchor="start" x="-93.9658" y="44.2" font-family="Times,serif" font-size="14.00">ios_request?</text>
<text text-anchor="start" x="-93.9658" y="58.2" font-family="Times,serif" font-size="14.00">mobile_request?</text>
<text text-anchor="start" x="-93.9658" y="72.2" font-family="Times,serif" font-size="14.00">set_device</text>
<polyline fill="none" stroke="black" points="-101.966,79 95.9658,79 "/>
<text text-anchor="start" x="-93.9658" y="94.2" font-family="Times,serif" font-size="14.00">_layout</text>
</g>
<!-- CategoriesController -->
<g id="node4" class="node"><title>CategoriesController</title>
<path fill="none" stroke="black" d="M148.293,135C148.293,135 257.707,135 257.707,135 263.707,135 269.707,129 269.707,123 269.707,123 269.707,-55 269.707,-55 269.707,-61 263.707,-67 257.707,-67 257.707,-67 148.293,-67 148.293,-67 142.293,-67 136.293,-61 136.293,-55 136.293,-55 136.293,123 136.293,123 136.293,129 142.293,135 148.293,135"/>
<text text-anchor="middle" x="203" y="-51.8" font-family="Times,serif" font-size="14.00">CategoriesController</text>
<polyline fill="none" stroke="black" points="136.293,-45 269.707,-45 "/>
<text text-anchor="start" x="144.293" y="-29.8" font-family="Times,serif" font-size="14.00">create</text>
<text text-anchor="start" x="144.293" y="-15.8" font-family="Times,serif" font-size="14.00">destroy</text>
<text text-anchor="start" x="144.293" y="-1.8" font-family="Times,serif" font-size="14.00">edit</text>
<text text-anchor="start" x="144.293" y="12.2" font-family="Times,serif" font-size="14.00">index</text>
<text text-anchor="start" x="144.293" y="26.2" font-family="Times,serif" font-size="14.00">new</text>
<text text-anchor="start" x="144.293" y="40.2" font-family="Times,serif" font-size="14.00">show</text>
<text text-anchor="start" x="144.293" y="54.2" font-family="Times,serif" font-size="14.00">update</text>
<polyline fill="none" stroke="black" points="136.293,61 269.707,61 "/>
<polyline fill="none" stroke="black" points="136.293,85 269.707,85 "/>
<text text-anchor="start" x="144.293" y="100.2" font-family="Times,serif" font-size="14.00">_layout</text>
<text text-anchor="start" x="144.293" y="114.2" font-family="Times,serif" font-size="14.00">category_params</text>
<text text-anchor="start" x="144.293" y="128.2" font-family="Times,serif" font-size="14.00">set_category</text>
</g>
<!-- EntriesController -->
<g id="node5" class="node"><title>EntriesController</title>
<path fill="none" stroke="black" d="M318.4,135C318.4,135 407.6,135 407.6,135 413.6,135 419.6,129 419.6,123 419.6,123 419.6,43 419.6,43 419.6,37 413.6,31 407.6,31 407.6,31 318.4,31 318.4,31 312.4,31 306.4,37 306.4,43 306.4,43 306.4,123 306.4,123 306.4,129 312.4,135 318.4,135"/>
<text text-anchor="middle" x="363" y="46.2" font-family="Times,serif" font-size="14.00">EntriesController</text>
<polyline fill="none" stroke="black" points="306.4,53 419.6,53 "/>
<text text-anchor="start" x="314.4" y="68.2" font-family="Times,serif" font-size="14.00">create</text>
<text text-anchor="start" x="314.4" y="82.2" font-family="Times,serif" font-size="14.00">destroy</text>
<polyline fill="none" stroke="black" points="306.4,89 419.6,89 "/>
<polyline fill="none" stroke="black" points="306.4,113 419.6,113 "/>
<text text-anchor="start" x="314.4" y="128.2" font-family="Times,serif" font-size="14.00">_layout</text>
</g>
<!-- HomeController -->
<g id="node6" class="node"><title>HomeController</title>
<path fill="none" stroke="black" d="M-157.879,-171C-157.879,-171 -74.1206,-171 -74.1206,-171 -68.1206,-171 -62.1206,-177 -62.1206,-183 -62.1206,-183 -62.1206,-347 -62.1206,-347 -62.1206,-353 -68.1206,-359 -74.1206,-359 -74.1206,-359 -157.879,-359 -157.879,-359 -163.879,-359 -169.879,-353 -169.879,-347 -169.879,-347 -169.879,-183 -169.879,-183 -169.879,-177 -163.879,-171 -157.879,-171"/>
<text text-anchor="middle" x="-116" y="-343.8" font-family="Times,serif" font-size="14.00">HomeController</text>
<polyline fill="none" stroke="black" points="-169.879,-337 -62.1206,-337 "/>
<text text-anchor="start" x="-161.879" y="-321.8" font-family="Times,serif" font-size="14.00">about</text>
<text text-anchor="start" x="-161.879" y="-307.8" font-family="Times,serif" font-size="14.00">contact</text>
<text text-anchor="start" x="-161.879" y="-293.8" font-family="Times,serif" font-size="14.00">detailed</text>
<text text-anchor="start" x="-161.879" y="-279.8" font-family="Times,serif" font-size="14.00">index</text>
<text text-anchor="start" x="-161.879" y="-265.8" font-family="Times,serif" font-size="14.00">need_help</text>
<text text-anchor="start" x="-161.879" y="-251.8" font-family="Times,serif" font-size="14.00">new_display</text>
<text text-anchor="start" x="-161.879" y="-237.8" font-family="Times,serif" font-size="14.00">status</text>
<text text-anchor="start" x="-161.879" y="-223.8" font-family="Times,serif" font-size="14.00">watch_list</text>
<polyline fill="none" stroke="black" points="-169.879,-217 -62.1206,-217 "/>
<polyline fill="none" stroke="black" points="-169.879,-193 -62.1206,-193 "/>
<text text-anchor="start" x="-161.879" y="-177.8" font-family="Times,serif" font-size="14.00">_layout</text>
</g>
<!-- MessagesController -->
<g id="node7" class="node"><title>MessagesController</title>
<path fill="none" stroke="black" d="M-242.99,16C-242.99,16 -139.01,16 -139.01,16 -133.01,16 -127.01,10 -127.01,4 -127.01,4 -127.01,-132 -127.01,-132 -127.01,-138 -133.01,-144 -139.01,-144 -139.01,-144 -242.99,-144 -242.99,-144 -248.99,-144 -254.99,-138 -254.99,-132 -254.99,-132 -254.99,4 -254.99,4 -254.99,10 -248.99,16 -242.99,16"/>
<text text-anchor="middle" x="-191" y="-128.8" font-family="Times,serif" font-size="14.00">MessagesController</text>
<polyline fill="none" stroke="black" points="-254.99,-122 -127.01,-122 "/>
<text text-anchor="start" x="-246.99" y="-106.8" font-family="Times,serif" font-size="14.00">create</text>
<text text-anchor="start" x="-246.99" y="-92.8" font-family="Times,serif" font-size="14.00">destroy</text>
<text text-anchor="start" x="-246.99" y="-78.8" font-family="Times,serif" font-size="14.00">index</text>
<text text-anchor="start" x="-246.99" y="-64.8" font-family="Times,serif" font-size="14.00">new</text>
<polyline fill="none" stroke="black" points="-254.99,-58 -127.01,-58 "/>
<polyline fill="none" stroke="black" points="-254.99,-34 -127.01,-34 "/>
<text text-anchor="start" x="-246.99" y="-18.8" font-family="Times,serif" font-size="14.00">_layout</text>
<text text-anchor="start" x="-246.99" y="-4.8" font-family="Times,serif" font-size="14.00">message_params</text>
<text text-anchor="start" x="-246.99" y="9.2" font-family="Times,serif" font-size="14.00">set_message</text>
</g>
<!-- OfferingsController -->
<g id="node8" class="node"><title>OfferingsController</title>
<path fill="none" stroke="black" d="M113.526,-103C113.526,-103 216.474,-103 216.474,-103 222.474,-103 228.474,-109 228.474,-115 228.474,-115 228.474,-307 228.474,-307 228.474,-313 222.474,-319 216.474,-319 216.474,-319 113.526,-319 113.526,-319 107.526,-319 101.526,-313 101.526,-307 101.526,-307 101.526,-115 101.526,-115 101.526,-109 107.526,-103 113.526,-103"/>
<text text-anchor="middle" x="165" y="-303.8" font-family="Times,serif" font-size="14.00">OfferingsController</text>
<polyline fill="none" stroke="black" points="101.526,-297 228.474,-297 "/>
<text text-anchor="start" x="109.526" y="-281.8" font-family="Times,serif" font-size="14.00">create</text>
<text text-anchor="start" x="109.526" y="-267.8" font-family="Times,serif" font-size="14.00">destroy</text>
<text text-anchor="start" x="109.526" y="-253.8" font-family="Times,serif" font-size="14.00">edit</text>
<text text-anchor="start" x="109.526" y="-239.8" font-family="Times,serif" font-size="14.00">index</text>
<text text-anchor="start" x="109.526" y="-225.8" font-family="Times,serif" font-size="14.00">new</text>
<text text-anchor="start" x="109.526" y="-211.8" font-family="Times,serif" font-size="14.00">show</text>
<text text-anchor="start" x="109.526" y="-197.8" font-family="Times,serif" font-size="14.00">update</text>
<polyline fill="none" stroke="black" points="101.526,-191 228.474,-191 "/>
<polyline fill="none" stroke="black" points="101.526,-167 228.474,-167 "/>
<text text-anchor="start" x="109.526" y="-151.8" font-family="Times,serif" font-size="14.00">_layout</text>
<text text-anchor="start" x="109.526" y="-137.8" font-family="Times,serif" font-size="14.00">offering_params</text>
<text text-anchor="start" x="109.526" y="-123.8" font-family="Times,serif" font-size="14.00">set_offering</text>
<text text-anchor="start" x="109.526" y="-109.8" font-family="Times,serif" font-size="14.00">update_hire</text>
</g>
<!-- PaymentsController -->
<g id="node9" class="node"><title>PaymentsController</title>
<path fill="none" stroke="black" d="M267.007,-103C267.007,-103 370.993,-103 370.993,-103 376.993,-103 382.993,-109 382.993,-115 382.993,-115 382.993,-251 382.993,-251 382.993,-257 376.993,-263 370.993,-263 370.993,-263 267.007,-263 267.007,-263 261.007,-263 255.007,-257 255.007,-251 255.007,-251 255.007,-115 255.007,-115 255.007,-109 261.007,-103 267.007,-103"/>
<text text-anchor="middle" x="319" y="-247.8" font-family="Times,serif" font-size="14.00">PaymentsController</text>
<polyline fill="none" stroke="black" points="255.007,-241 382.993,-241 "/>
<text text-anchor="start" x="263.007" y="-225.8" font-family="Times,serif" font-size="14.00">create</text>
<text text-anchor="start" x="263.007" y="-211.8" font-family="Times,serif" font-size="14.00">index</text>
<text text-anchor="start" x="263.007" y="-197.8" font-family="Times,serif" font-size="14.00">new</text>
<text text-anchor="start" x="263.007" y="-183.8" font-family="Times,serif" font-size="14.00">show</text>
<polyline fill="none" stroke="black" points="255.007,-177 382.993,-177 "/>
<polyline fill="none" stroke="black" points="255.007,-153 382.993,-153 "/>
<text text-anchor="start" x="263.007" y="-137.8" font-family="Times,serif" font-size="14.00">_layout</text>
<text text-anchor="start" x="263.007" y="-123.8" font-family="Times,serif" font-size="14.00">payment_params</text>
<text text-anchor="start" x="263.007" y="-109.8" font-family="Times,serif" font-size="14.00">set_payment</text>
</g>
<!-- User::RegistrationsController -->
<g id="node10" class="node"><title>User::RegistrationsController</title>
<path fill="none" stroke="black" d="M46.1792,254C46.1792,254 203.821,254 203.821,254 209.821,254 215.821,248 215.821,242 215.821,242 215.821,176 215.821,176 215.821,170 209.821,164 203.821,164 203.821,164 46.1792,164 46.1792,164 40.1792,164 34.1792,170 34.1792,176 34.1792,176 34.1792,242 34.1792,242 34.1792,248 40.1792,254 46.1792,254"/>
<text text-anchor="middle" x="125" y="179.2" font-family="Times,serif" font-size="14.00">User::RegistrationsController</text>
<polyline fill="none" stroke="black" points="34.1792,186 215.821,186 "/>
<text text-anchor="start" x="42.1792" y="201.2" font-family="Times,serif" font-size="14.00">create</text>
<polyline fill="none" stroke="black" points="34.1792,208 215.821,208 "/>
<polyline fill="none" stroke="black" points="34.1792,232 215.821,232 "/>
<text text-anchor="start" x="42.1792" y="247.2" font-family="Times,serif" font-size="14.00">_layout</text>
</g>
<!-- UsersController -->
<g id="node11" class="node"><title>UsersController</title>
<path fill="none" stroke="black" d="M301.286,-290C301.286,-290 382.714,-290 382.714,-290 388.714,-290 394.714,-296 394.714,-302 394.714,-302 394.714,-424 394.714,-424 394.714,-430 388.714,-436 382.714,-436 382.714,-436 301.286,-436 301.286,-436 295.286,-436 289.286,-430 289.286,-424 289.286,-424 289.286,-302 289.286,-302 289.286,-296 295.286,-290 301.286,-290"/>
<text text-anchor="middle" x="342" y="-420.8" font-family="Times,serif" font-size="14.00">UsersController</text>
<polyline fill="none" stroke="black" points="289.286,-414 394.714,-414 "/>
<text text-anchor="start" x="297.286" y="-398.8" font-family="Times,serif" font-size="14.00">index</text>
<text text-anchor="start" x="297.286" y="-384.8" font-family="Times,serif" font-size="14.00">messages</text>
<text text-anchor="start" x="297.286" y="-370.8" font-family="Times,serif" font-size="14.00">offerings</text>
<text text-anchor="start" x="297.286" y="-356.8" font-family="Times,serif" font-size="14.00">show</text>
<text text-anchor="start" x="297.286" y="-342.8" font-family="Times,serif" font-size="14.00">wants</text>
<polyline fill="none" stroke="black" points="289.286,-336 394.714,-336 "/>
<polyline fill="none" stroke="black" points="289.286,-312 394.714,-312 "/>
<text text-anchor="start" x="297.286" y="-296.8" font-family="Times,serif" font-size="14.00">_layout</text>
</g>
<!-- WantsController -->
<g id="node12" class="node"><title>WantsController</title>
<path fill="none" stroke="black" d="M-22.0981,-103C-22.0981,-103 62.0981,-103 62.0981,-103 68.0981,-103 74.0981,-109 74.0981,-115 74.0981,-115 74.0981,-307 74.0981,-307 74.0981,-313 68.0981,-319 62.0981,-319 62.0981,-319 -22.0981,-319 -22.0981,-319 -28.0981,-319 -34.0981,-313 -34.0981,-307 -34.0981,-307 -34.0981,-115 -34.0981,-115 -34.0981,-109 -28.0981,-103 -22.0981,-103"/>
<text text-anchor="middle" x="20" y="-303.8" font-family="Times,serif" font-size="14.00">WantsController</text>
<polyline fill="none" stroke="black" points="-34.0981,-297 74.0981,-297 "/>
<text text-anchor="start" x="-26.0981" y="-281.8" font-family="Times,serif" font-size="14.00">create</text>
<text text-anchor="start" x="-26.0981" y="-267.8" font-family="Times,serif" font-size="14.00">destroy</text>
<text text-anchor="start" x="-26.0981" y="-253.8" font-family="Times,serif" font-size="14.00">edit</text>
<text text-anchor="start" x="-26.0981" y="-239.8" font-family="Times,serif" font-size="14.00">index</text>
<text text-anchor="start" x="-26.0981" y="-225.8" font-family="Times,serif" font-size="14.00">new</text>
<text text-anchor="start" x="-26.0981" y="-211.8" font-family="Times,serif" font-size="14.00">show</text>
<text text-anchor="start" x="-26.0981" y="-197.8" font-family="Times,serif" font-size="14.00">update</text>
<polyline fill="none" stroke="black" points="-34.0981,-191 74.0981,-191 "/>
<polyline fill="none" stroke="black" points="-34.0981,-167 74.0981,-167 "/>
<text text-anchor="start" x="-26.0981" y="-151.8" font-family="Times,serif" font-size="14.00">_layout</text>
<text text-anchor="start" x="-26.0981" y="-137.8" font-family="Times,serif" font-size="14.00">set_want</text>
<text text-anchor="start" x="-26.0981" y="-123.8" font-family="Times,serif" font-size="14.00">update_hire</text>
<text text-anchor="start" x="-26.0981" y="-109.8" font-family="Times,serif" font-size="14.00">want_params</text>
</g>
</g>
</svg>
