<?xml version="1.0" encoding="UTF-8" standalone="no"?>
<!DOCTYPE svg PUBLIC "-//W3C//DTD SVG 1.1//EN"
 "http://www.w3.org/Graphics/SVG/1.1/DTD/svg11.dtd">
<!-- Generated by graphviz version 2.38.0 (20140413.2041)
 -->
<!-- Title: controllers_diagram Pages: 1 -->
<svg width="963pt" height="643pt"
 viewBox="0.00 0.00 963.00 642.82" xmlns="http://www.w3.org/2000/svg" xmlns:xlink="http://www.w3.org/1999/xlink">
<g id="graph0" class="graph" transform="scale(1 1) rotate(0) translate(238.1 326.656)">
<title>controllers_diagram</title>
<polygon fill="white" stroke="none" points="-238.1,316.164 -238.1,-326.656 724.902,-326.656 724.902,316.164 -238.1,316.164"/>
<!-- _diagram_info -->
<g id="node1" class="node"><title>_diagram_info</title>
<text text-anchor="start" x="320.312" y="252.9" font-family="Times,serif" font-size="13.00">Controllers diagram</text>
<text text-anchor="start" x="320.312" y="265.9" font-family="Times,serif" font-size="13.00">Date: Aug 24 2014 &#45; 22:25</text>
<text text-anchor="start" x="320.312" y="278.9" font-family="Times,serif" font-size="13.00">Migration version: 20140824021649</text>
<text text-anchor="start" x="320.312" y="291.9" font-family="Times,serif" font-size="13.00">Generated by RailRoady 1.1.2</text>
<text text-anchor="start" x="320.312" y="304.9" font-family="Times,serif" font-size="13.00">http://railroady.prestonlee.com</text>
</g>
<!-- AccountsController -->
<g id="node2" class="node"><title>AccountsController</title>
<path fill="none" stroke="black" d="M-218.901,31.398C-218.901,31.398 -116.48,31.398 -116.48,31.398 -110.48,31.398 -104.48,25.398 -104.48,19.398 -104.48,19.398 -104.48,-46.602 -104.48,-46.602 -104.48,-52.602 -110.48,-58.602 -116.48,-58.602 -116.48,-58.602 -218.901,-58.602 -218.901,-58.602 -224.901,-58.602 -230.901,-52.602 -230.901,-46.602 -230.901,-46.602 -230.901,19.398 -230.901,19.398 -230.901,25.398 -224.901,31.398 -218.901,31.398"/>
<text text-anchor="middle" x="-167.69" y="-43.402" font-family="Times,serif" font-size="14.00">AccountsController</text>
<polyline fill="none" stroke="black" points="-230.901,-36.602 -104.48,-36.602 "/>
<text text-anchor="start" x="-222.901" y="-21.402" font-family="Times,serif" font-size="14.00">index</text>
<polyline fill="none" stroke="black" points="-230.901,-14.602 -104.48,-14.602 "/>
<polyline fill="none" stroke="black" points="-230.901,9.39803 -104.48,9.39803 "/>
<text text-anchor="start" x="-222.901" y="24.598" font-family="Times,serif" font-size="14.00">_layout</text>
</g>
<!-- ApplicationController -->
<g id="node3" class="node"><title>ApplicationController</title>
<path fill="none" stroke="black" d="M-85.4635,57.1549C-85.4635,57.1549 88.4681,57.1549 88.4681,57.1549 94.4681,57.1549 100.468,51.1549 100.468,45.1549 100.468,45.1549 100.468,-48.8451 100.468,-48.8451 100.468,-54.8451 94.4681,-60.8451 88.4681,-60.8451 88.4681,-60.8451 -85.4635,-60.8451 -85.4635,-60.8451 -91.4635,-60.8451 -97.4635,-54.8451 -97.4635,-48.8451 -97.4635,-48.8451 -97.4635,45.1549 -97.4635,45.1549 -97.4635,51.1549 -91.4635,57.1549 -85.4635,57.1549"/>
<text text-anchor="middle" x="1.50228" y="-45.6451" font-family="Times,serif" font-size="14.00">ApplicationController</text>
<polyline fill="none" stroke="black" points="-97.4635,-38.8451 100.468,-38.8451 "/>
<polyline fill="none" stroke="black" points="-97.4635,-14.8451 100.468,-14.8451 "/>
<text text-anchor="start" x="-89.4635" y="0.354939" font-family="Times,serif" font-size="14.00">after_sign_in_path_for</text>
<text text-anchor="start" x="-89.4635" y="14.3549" font-family="Times,serif" font-size="14.00">after_sign_out_path_for</text>
<text text-anchor="start" x="-89.4635" y="28.3549" font-family="Times,serif" font-size="14.00">configure_permitted_parameters</text>
<polyline fill="none" stroke="black" points="-97.4635,35.1549 100.468,35.1549 "/>
<text text-anchor="start" x="-89.4635" y="50.3549" font-family="Times,serif" font-size="14.00">_layout</text>
</g>
<!-- ApplicationController&#45;&gt;AccountsController -->
<g id="edge1" class="edge"><title>ApplicationController&#45;&gt;AccountsController</title>
<path fill="none" stroke="black" d="M-97.8964,-8.75211C-100.054,-8.90206 -102.199,-9.05108 -104.325,-9.19878"/>
</g>
<!-- CategoriesController -->
<g id="node4" class="node"><title>CategoriesController</title>
<path fill="none" stroke="black" d="M114.353,311.664C114.353,311.664 223.767,311.664 223.767,311.664 229.767,311.664 235.767,305.664 235.767,299.664 235.767,299.664 235.767,121.664 235.767,121.664 235.767,115.664 229.767,109.664 223.767,109.664 223.767,109.664 114.353,109.664 114.353,109.664 108.353,109.664 102.353,115.664 102.353,121.664 102.353,121.664 102.353,299.664 102.353,299.664 102.353,305.664 108.353,311.664 114.353,311.664"/>
<text text-anchor="middle" x="169.06" y="124.864" font-family="Times,serif" font-size="14.00">CategoriesController</text>
<polyline fill="none" stroke="black" points="102.353,131.664 235.767,131.664 "/>
<text text-anchor="start" x="110.353" y="146.864" font-family="Times,serif" font-size="14.00">create</text>
<text text-anchor="start" x="110.353" y="160.864" font-family="Times,serif" font-size="14.00">destroy</text>
<text text-anchor="start" x="110.353" y="174.864" font-family="Times,serif" font-size="14.00">edit</text>
<text text-anchor="start" x="110.353" y="188.864" font-family="Times,serif" font-size="14.00">index</text>
<text text-anchor="start" x="110.353" y="202.864" font-family="Times,serif" font-size="14.00">new</text>
<text text-anchor="start" x="110.353" y="216.864" font-family="Times,serif" font-size="14.00">show</text>
<text text-anchor="start" x="110.353" y="230.864" font-family="Times,serif" font-size="14.00">update</text>
<polyline fill="none" stroke="black" points="102.353,237.664 235.767,237.664 "/>
<polyline fill="none" stroke="black" points="102.353,261.664 235.767,261.664 "/>
<text text-anchor="start" x="110.353" y="276.864" font-family="Times,serif" font-size="14.00">_layout</text>
<text text-anchor="start" x="110.353" y="290.864" font-family="Times,serif" font-size="14.00">category_params</text>
<text text-anchor="start" x="110.353" y="304.864" font-family="Times,serif" font-size="14.00">set_category</text>
</g>
<!-- ApplicationController&#45;&gt;CategoriesController -->
<g id="edge2" class="edge"><title>ApplicationController&#45;&gt;CategoriesController</title>
<path fill="none" stroke="black" d="M48.1766,57.3505C64.9289,78.597 84.1616,102.989 102.286,125.976"/>
</g>
<!-- HomeController -->
<g id="node5" class="node"><title>HomeController</title>
<path fill="none" stroke="black" d="M-35.7753,-150.132C-35.7753,-150.132 47.9835,-150.132 47.9835,-150.132 53.9835,-150.132 59.9835,-156.132 59.9835,-162.132 59.9835,-162.132 59.9835,-270.132 59.9835,-270.132 59.9835,-276.132 53.9835,-282.132 47.9835,-282.132 47.9835,-282.132 -35.7753,-282.132 -35.7753,-282.132 -41.7753,-282.132 -47.7753,-276.132 -47.7753,-270.132 -47.7753,-270.132 -47.7753,-162.132 -47.7753,-162.132 -47.7753,-156.132 -41.7753,-150.132 -35.7753,-150.132"/>
<text text-anchor="middle" x="6.10411" y="-266.932" font-family="Times,serif" font-size="14.00">HomeController</text>
<polyline fill="none" stroke="black" points="-47.7753,-260.132 59.9835,-260.132 "/>
<text text-anchor="start" x="-39.7753" y="-244.932" font-family="Times,serif" font-size="14.00">about</text>
<text text-anchor="start" x="-39.7753" y="-230.932" font-family="Times,serif" font-size="14.00">contact</text>
<text text-anchor="start" x="-39.7753" y="-216.932" font-family="Times,serif" font-size="14.00">index</text>
<text text-anchor="start" x="-39.7753" y="-202.932" font-family="Times,serif" font-size="14.00">need_help</text>
<polyline fill="none" stroke="black" points="-47.7753,-196.132 59.9835,-196.132 "/>
<polyline fill="none" stroke="black" points="-47.7753,-172.132 59.9835,-172.132 "/>
<text text-anchor="start" x="-39.7753" y="-156.932" font-family="Times,serif" font-size="14.00">_layout</text>
</g>
<!-- ApplicationController&#45;&gt;HomeController -->
<g id="edge3" class="edge"><title>ApplicationController&#45;&gt;HomeController</title>
<path fill="none" stroke="black" d="M2.77193,-60.9673C3.36519,-88.593 4.07379,-121.589 4.68471,-150.037"/>
</g>
<!-- MessagesController -->
<g id="node6" class="node"><title>MessagesController</title>
<path fill="none" stroke="black" d="M121.369,-133.401C121.369,-133.401 225.348,-133.401 225.348,-133.401 231.348,-133.401 237.348,-139.401 237.348,-145.401 237.348,-145.401 237.348,-281.401 237.348,-281.401 237.348,-287.401 231.348,-293.401 225.348,-293.401 225.348,-293.401 121.369,-293.401 121.369,-293.401 115.369,-293.401 109.369,-287.401 109.369,-281.401 109.369,-281.401 109.369,-145.401 109.369,-145.401 109.369,-139.401 115.369,-133.401 121.369,-133.401"/>
<text text-anchor="middle" x="173.358" y="-278.201" font-family="Times,serif" font-size="14.00">MessagesController</text>
<polyline fill="none" stroke="black" points="109.369,-271.401 237.348,-271.401 "/>
<text text-anchor="start" x="117.369" y="-256.201" font-family="Times,serif" font-size="14.00">create</text>
<text text-anchor="start" x="117.369" y="-242.201" font-family="Times,serif" font-size="14.00">destroy</text>
<text text-anchor="start" x="117.369" y="-228.201" font-family="Times,serif" font-size="14.00">index</text>
<text text-anchor="start" x="117.369" y="-214.201" font-family="Times,serif" font-size="14.00">new</text>
<polyline fill="none" stroke="black" points="109.369,-207.401 237.348,-207.401 "/>
<polyline fill="none" stroke="black" points="109.369,-183.401 237.348,-183.401 "/>
<text text-anchor="start" x="117.369" y="-168.201" font-family="Times,serif" font-size="14.00">_layout</text>
<text text-anchor="start" x="117.369" y="-154.201" font-family="Times,serif" font-size="14.00">message_params</text>
<text text-anchor="start" x="117.369" y="-140.201" font-family="Times,serif" font-size="14.00">set_message</text>
</g>
<!-- ApplicationController&#45;&gt;MessagesController -->
<g id="edge4" class="edge"><title>ApplicationController&#45;&gt;MessagesController</title>
<path fill="none" stroke="black" d="M49.6023,-61.0566C68.0719,-83.7929 89.4547,-110.115 109.197,-134.418"/>
</g>
<!-- OfferingsController -->
<g id="node7" class="node"><title>OfferingsController</title>
<path fill="none" stroke="black" d="M-217.021,-120.156C-217.021,-120.156 -114.073,-120.156 -114.073,-120.156 -108.073,-120.156 -102.073,-126.156 -102.073,-132.156 -102.073,-132.156 -102.073,-310.156 -102.073,-310.156 -102.073,-316.156 -108.073,-322.156 -114.073,-322.156 -114.073,-322.156 -217.021,-322.156 -217.021,-322.156 -223.021,-322.156 -229.021,-316.156 -229.021,-310.156 -229.021,-310.156 -229.021,-132.156 -229.021,-132.156 -229.021,-126.156 -223.021,-120.156 -217.021,-120.156"/>
<text text-anchor="middle" x="-165.547" y="-306.956" font-family="Times,serif" font-size="14.00">OfferingsController</text>
<polyline fill="none" stroke="black" points="-229.021,-300.156 -102.073,-300.156 "/>
<text text-anchor="start" x="-221.021" y="-284.956" font-family="Times,serif" font-size="14.00">create</text>
<text text-anchor="start" x="-221.021" y="-270.956" font-family="Times,serif" font-size="14.00">destroy</text>
<text text-anchor="start" x="-221.021" y="-256.956" font-family="Times,serif" font-size="14.00">edit</text>
<text text-anchor="start" x="-221.021" y="-242.956" font-family="Times,serif" font-size="14.00">index</text>
<text text-anchor="start" x="-221.021" y="-228.956" font-family="Times,serif" font-size="14.00">new</text>
<text text-anchor="start" x="-221.021" y="-214.956" font-family="Times,serif" font-size="14.00">show</text>
<text text-anchor="start" x="-221.021" y="-200.956" font-family="Times,serif" font-size="14.00">update</text>
<polyline fill="none" stroke="black" points="-229.021,-194.156 -102.073,-194.156 "/>
<polyline fill="none" stroke="black" points="-229.021,-170.156 -102.073,-170.156 "/>
<text text-anchor="start" x="-221.021" y="-154.956" font-family="Times,serif" font-size="14.00">_layout</text>
<text text-anchor="start" x="-221.021" y="-140.956" font-family="Times,serif" font-size="14.00">offering_params</text>
<text text-anchor="start" x="-221.021" y="-126.956" font-family="Times,serif" font-size="14.00">set_offering</text>
</g>
<!-- ApplicationController&#45;&gt;OfferingsController -->
<g id="edge5" class="edge"><title>ApplicationController&#45;&gt;OfferingsController</title>
<path fill="none" stroke="black" d="M-43.4836,-60.9049C-61.4579,-84.5024 -82.4818,-112.104 -101.968,-137.686"/>
</g>
<!-- PaymentsController -->
<g id="node8" class="node"><title>PaymentsController</title>
<path fill="none" stroke="black" d="M-222.1,282.836C-222.1,282.836 -118.114,282.836 -118.114,282.836 -112.114,282.836 -106.114,276.836 -106.114,270.836 -106.114,270.836 -106.114,134.836 -106.114,134.836 -106.114,128.836 -112.114,122.836 -118.114,122.836 -118.114,122.836 -222.1,122.836 -222.1,122.836 -228.1,122.836 -234.1,128.836 -234.1,134.836 -234.1,134.836 -234.1,270.836 -234.1,270.836 -234.1,276.836 -228.1,282.836 -222.1,282.836"/>
<text text-anchor="middle" x="-170.107" y="138.036" font-family="Times,serif" font-size="14.00">PaymentsController</text>
<polyline fill="none" stroke="black" points="-234.1,144.836 -106.114,144.836 "/>
<text text-anchor="start" x="-226.1" y="160.036" font-family="Times,serif" font-size="14.00">create</text>
<text text-anchor="start" x="-226.1" y="174.036" font-family="Times,serif" font-size="14.00">index</text>
<text text-anchor="start" x="-226.1" y="188.036" font-family="Times,serif" font-size="14.00">new</text>
<text text-anchor="start" x="-226.1" y="202.036" font-family="Times,serif" font-size="14.00">show</text>
<polyline fill="none" stroke="black" points="-234.1,208.836 -106.114,208.836 "/>
<polyline fill="none" stroke="black" points="-234.1,232.836 -106.114,232.836 "/>
<text text-anchor="start" x="-226.1" y="248.036" font-family="Times,serif" font-size="14.00">_layout</text>
<text text-anchor="start" x="-226.1" y="262.036" font-family="Times,serif" font-size="14.00">payment_params</text>
<text text-anchor="start" x="-226.1" y="276.036" font-family="Times,serif" font-size="14.00">set_payment</text>
</g>
<!-- ApplicationController&#45;&gt;PaymentsController -->
<g id="edge6" class="edge"><title>ApplicationController&#45;&gt;PaymentsController</title>
<path fill="none" stroke="black" d="M-48.1342,57.3571C-66.1504,78.8452 -86.7704,103.439 -105.867,126.215"/>
</g>
<!-- UsersController -->
<g id="node10" class="node"><title>UsersController</title>
<path fill="none" stroke="black" d="M130.368,74.6319C130.368,74.6319 211.795,74.6319 211.795,74.6319 217.795,74.6319 223.795,68.6319 223.795,62.6319 223.795,62.6319 223.795,-59.3681 223.795,-59.3681 223.795,-65.3681 217.795,-71.3681 211.795,-71.3681 211.795,-71.3681 130.368,-71.3681 130.368,-71.3681 124.368,-71.3681 118.368,-65.3681 118.368,-59.3681 118.368,-59.3681 118.368,62.6319 118.368,62.6319 118.368,68.6319 124.368,74.6319 130.368,74.6319"/>
<text text-anchor="middle" x="171.082" y="-56.1681" font-family="Times,serif" font-size="14.00">UsersController</text>
<polyline fill="none" stroke="black" points="118.368,-49.3681 223.795,-49.3681 "/>
<text text-anchor="start" x="126.368" y="-34.1681" font-family="Times,serif" font-size="14.00">index</text>
<text text-anchor="start" x="126.368" y="-20.1681" font-family="Times,serif" font-size="14.00">messages</text>
<text text-anchor="start" x="126.368" y="-6.16812" font-family="Times,serif" font-size="14.00">offerings</text>
<text text-anchor="start" x="126.368" y="7.83188" font-family="Times,serif" font-size="14.00">show</text>
<text text-anchor="start" x="126.368" y="21.8319" font-family="Times,serif" font-size="14.00">wants</text>
<polyline fill="none" stroke="black" points="118.368,28.6319 223.795,28.6319 "/>
<polyline fill="none" stroke="black" points="118.368,52.6319 223.795,52.6319 "/>
<text text-anchor="start" x="126.368" y="67.8319" font-family="Times,serif" font-size="14.00">_layout</text>
</g>
<!-- ApplicationController&#45;&gt;UsersController -->
<g id="edge8" class="edge"><title>ApplicationController&#45;&gt;UsersController</title>
<path fill="none" stroke="black" d="M100.638,0.18755C106.581,0.309409 112.428,0.429283 118.056,0.54468"/>
</g>
<!-- WantsController -->
<g id="node11" class="node"><title>WantsController</title>
<path fill="none" stroke="black" d="M-44.8822,311.081C-44.8822,311.081 39.314,311.081 39.314,311.081 45.314,311.081 51.314,305.081 51.314,299.081 51.314,299.081 51.314,121.081 51.314,121.081 51.314,115.081 45.314,109.081 39.314,109.081 39.314,109.081 -44.8822,109.081 -44.8822,109.081 -50.8822,109.081 -56.8822,115.081 -56.8822,121.081 -56.8822,121.081 -56.8822,299.081 -56.8822,299.081 -56.8822,305.081 -50.8822,311.081 -44.8822,311.081"/>
<text text-anchor="middle" x="-2.7841" y="124.281" font-family="Times,serif" font-size="14.00">WantsController</text>
<polyline fill="none" stroke="black" points="-56.8822,131.081 51.314,131.081 "/>
<text text-anchor="start" x="-48.8822" y="146.281" font-family="Times,serif" font-size="14.00">create</text>
<text text-anchor="start" x="-48.8822" y="160.281" font-family="Times,serif" font-size="14.00">destroy</text>
<text text-anchor="start" x="-48.8822" y="174.281" font-family="Times,serif" font-size="14.00">edit</text>
<text text-anchor="start" x="-48.8822" y="188.281" font-family="Times,serif" font-size="14.00">index</text>
<text text-anchor="start" x="-48.8822" y="202.281" font-family="Times,serif" font-size="14.00">new</text>
<text text-anchor="start" x="-48.8822" y="216.281" font-family="Times,serif" font-size="14.00">show</text>
<text text-anchor="start" x="-48.8822" y="230.281" font-family="Times,serif" font-size="14.00">update</text>
<polyline fill="none" stroke="black" points="-56.8822,237.081 51.314,237.081 "/>
<polyline fill="none" stroke="black" points="-56.8822,261.081 51.314,261.081 "/>
<text text-anchor="start" x="-48.8822" y="276.281" font-family="Times,serif" font-size="14.00">_layout</text>
<text text-anchor="start" x="-48.8822" y="290.281" font-family="Times,serif" font-size="14.00">set_want</text>
<text text-anchor="start" x="-48.8822" y="304.281" font-family="Times,serif" font-size="14.00">want_params</text>
</g>
<!-- ApplicationController&#45;&gt;WantsController -->
<g id="edge9" class="edge"><title>ApplicationController&#45;&gt;WantsController</title>
<path fill="none" stroke="black" d="M0.308283,57.1881C-0.0162252,73.2323 -0.377116,91.0754 -0.734529,108.746"/>
</g>
<!-- User::RegistrationsController -->
<g id="node9" class="node"><title>User::RegistrationsController</title>
<path fill="none" stroke="black" d="M284.504,38.6804C284.504,38.6804 442.146,38.6804 442.146,38.6804 448.146,38.6804 454.146,32.6804 454.146,26.6804 454.146,26.6804 454.146,-39.3196 454.146,-39.3196 454.146,-45.3196 448.146,-51.3196 442.146,-51.3196 442.146,-51.3196 284.504,-51.3196 284.504,-51.3196 278.504,-51.3196 272.504,-45.3196 272.504,-39.3196 272.504,-39.3196 272.504,26.6804 272.504,26.6804 272.504,32.6804 278.504,38.6804 284.504,38.6804"/>
<text text-anchor="middle" x="363.325" y="-36.1196" font-family="Times,serif" font-size="14.00">User::RegistrationsController</text>
<polyline fill="none" stroke="black" points="272.504,-29.3196 454.146,-29.3196 "/>
<text text-anchor="start" x="280.504" y="-14.1196" font-family="Times,serif" font-size="14.00">create</text>
<polyline fill="none" stroke="black" points="272.504,-7.31959 454.146,-7.31959 "/>
<polyline fill="none" stroke="black" points="272.504,16.6804 454.146,16.6804 "/>
<text text-anchor="start" x="280.504" y="31.8804" font-family="Times,serif" font-size="14.00">_layout</text>
</g>
<!-- Devise::RegistrationsController -->
<g id="node12" class="node"><title>Devise::RegistrationsController</title>
<ellipse fill="none" stroke="black" cx="598.304" cy="-6.31951" rx="122.695" ry="18"/>
<text text-anchor="middle" x="598.304" y="-2.11951" font-family="Times,serif" font-size="14.00">Devise::RegistrationsController</text>
</g>
<!-- Devise::RegistrationsController&#45;&gt;User::RegistrationsController -->
<g id="edge7" class="edge"><title>Devise::RegistrationsController&#45;&gt;User::RegistrationsController</title>
<path fill="none" stroke="black" d="M475.653,-6.31955C468.531,-6.31956 461.435,-6.31956 454.468,-6.31956"/>
</g>
</g>
</svg>
