<?xml version="1.0" encoding="UTF-8" standalone="no"?>
<!DOCTYPE svg PUBLIC "-//W3C//DTD SVG 1.1//EN"
 "http://www.w3.org/Graphics/SVG/1.1/DTD/svg11.dtd">
<!-- Generated by graphviz version 2.38.0 (20140413.2041)
 -->
<!-- Title: controllers_diagram Pages: 1 -->
<svg width="724pt" height="838pt"
 viewBox="0.00 0.00 723.71 838.00" xmlns="http://www.w3.org/2000/svg" xmlns:xlink="http://www.w3.org/1999/xlink">
<g id="graph0" class="graph" transform="scale(1 1) rotate(0) translate(258.879 494.5)">
<title>controllers_diagram</title>
<polygon fill="none" stroke="none" points="-258.879,343.5 -258.879,-494.5 464.835,-494.5 464.835,343.5 -258.879,343.5"/>
<!-- _diagram_info -->
<g id="node1" class="node"><title>_diagram_info</title>
<text text-anchor="start" x="-110.688" y="144.9" font-family="Times,serif" font-size="13.00">Controllers diagram</text>
<text text-anchor="start" x="-110.688" y="157.9" font-family="Times,serif" font-size="13.00">Date: Aug 31 2015 &#45; 04:07</text>
<text text-anchor="start" x="-110.688" y="170.9" font-family="Times,serif" font-size="13.00">Migration version: 20150830162804</text>
<text text-anchor="start" x="-110.688" y="183.9" font-family="Times,serif" font-size="13.00">Generated by RailRoady 1.3.1</text>
<text text-anchor="start" x="-110.688" y="196.9" font-family="Times,serif" font-size="13.00">http://railroady.prestonlee.com</text>
</g>
<!-- AccountsController -->
<g id="node2" class="node"><title>AccountsController</title>
<path fill="none" stroke="black" d="M-22.2104,-358C-22.2104,-358 80.2104,-358 80.2104,-358 86.2104,-358 92.2104,-364 92.2104,-370 92.2104,-370 92.2104,-436 92.2104,-436 92.2104,-442 86.2104,-448 80.2104,-448 80.2104,-448 -22.2104,-448 -22.2104,-448 -28.2104,-448 -34.2104,-442 -34.2104,-436 -34.2104,-436 -34.2104,-370 -34.2104,-370 -34.2104,-364 -28.2104,-358 -22.2104,-358"/>
<text text-anchor="middle" x="29" y="-432.8" font-family="Times,serif" font-size="14.00">AccountsController</text>
<polyline fill="none" stroke="black" points="-34.2104,-426 92.2104,-426 "/>
<text text-anchor="start" x="-26.2104" y="-410.8" font-family="Times,serif" font-size="14.00">show</text>
<polyline fill="none" stroke="black" points="-34.2104,-404 92.2104,-404 "/>
<polyline fill="none" stroke="black" points="-34.2104,-380 92.2104,-380 "/>
<text text-anchor="start" x="-26.2104" y="-364.8" font-family="Times,serif" font-size="14.00">_layout</text>
</g>
<!-- ApplicationController -->
<g id="node3" class="node"><title>ApplicationController</title>
<path fill="none" stroke="black" d="M-89.9658,101C-89.9658,101 83.9658,101 83.9658,101 89.9658,101 95.9658,95 95.9658,89 95.9658,89 95.9658,-75 95.9658,-75 95.9658,-81 89.9658,-87 83.9658,-87 83.9658,-87 -89.9658,-87 -89.9658,-87 -95.9658,-87 -101.966,-81 -101.966,-75 -101.966,-75 -101.966,89 -101.966,89 -101.966,95 -95.9658,101 -89.9658,101"/>
<text text-anchor="middle" x="-3" y="-71.8" font-family="Times,serif" font-size="14.00">ApplicationController</text>
<polyline fill="none" stroke="black" points="-101.966,-65 95.9658,-65 "/>
<polyline fill="none" stroke="black" points="-101.966,-41 95.9658,-41 "/>
<text text-anchor="start" x="-93.9658" y="-25.8" font-family="Times,serif" font-size="14.00">after_sign_in_path_for</text>
<text text-anchor="start" x="-93.9658" y="-11.8" font-family="Times,serif" font-size="14.00">after_sign_out_path_for</text>
<text text-anchor="start" x="-93.9658" y="2.2" font-family="Times,serif" font-size="14.00">android_request?</text>
<text text-anchor="start" x="-93.9658" y="16.2" font-family="Times,serif" font-size="14.00">configure_permitted_parameters</text>
<text text-anchor="start" x="-93.9658" y="30.2" font-family="Times,serif" font-size="14.00">ios_request?</text>
<text text-anchor="start" x="-93.9658" y="44.2" font-family="Times,serif" font-size="14.00">mobile_request?</text>
<text text-anchor="start" x="-93.9658" y="58.2" font-family="Times,serif" font-size="14.00">set_device</text>
<text text-anchor="start" x="-93.9658" y="72.2" font-family="Times,serif" font-size="14.00">set_notifications_count</text>
<polyline fill="none" stroke="black" points="-101.966,79 95.9658,79 "/>
<text text-anchor="start" x="-93.9658" y="94.2" font-family="Times,serif" font-size="14.00">_layout</text>
</g>
<!-- CategoriesController -->
<g id="node4" class="node"><title>CategoriesController</title>
<path fill="none" stroke="black" d="M-225.707,-239C-225.707,-239 -116.293,-239 -116.293,-239 -110.293,-239 -104.293,-245 -104.293,-251 -104.293,-251 -104.293,-429 -104.293,-429 -104.293,-435 -110.293,-441 -116.293,-441 -116.293,-441 -225.707,-441 -225.707,-441 -231.707,-441 -237.707,-435 -237.707,-429 -237.707,-429 -237.707,-251 -237.707,-251 -237.707,-245 -231.707,-239 -225.707,-239"/>
<text text-anchor="middle" x="-171" y="-425.8" font-family="Times,serif" font-size="14.00">CategoriesController</text>
<polyline fill="none" stroke="black" points="-237.707,-419 -104.293,-419 "/>
<text text-anchor="start" x="-229.707" y="-403.8" font-family="Times,serif" font-size="14.00">create</text>
<text text-anchor="start" x="-229.707" y="-389.8" font-family="Times,serif" font-size="14.00">destroy</text>
<text text-anchor="start" x="-229.707" y="-375.8" font-family="Times,serif" font-size="14.00">edit</text>
<text text-anchor="start" x="-229.707" y="-361.8" font-family="Times,serif" font-size="14.00">index</text>
<text text-anchor="start" x="-229.707" y="-347.8" font-family="Times,serif" font-size="14.00">new</text>
<text text-anchor="start" x="-229.707" y="-333.8" font-family="Times,serif" font-size="14.00">show</text>
<text text-anchor="start" x="-229.707" y="-319.8" font-family="Times,serif" font-size="14.00">update</text>
<polyline fill="none" stroke="black" points="-237.707,-313 -104.293,-313 "/>
<polyline fill="none" stroke="black" points="-237.707,-289 -104.293,-289 "/>
<text text-anchor="start" x="-229.707" y="-273.8" font-family="Times,serif" font-size="14.00">_layout</text>
<text text-anchor="start" x="-229.707" y="-259.8" font-family="Times,serif" font-size="14.00">category_params</text>
<text text-anchor="start" x="-229.707" y="-245.8" font-family="Times,serif" font-size="14.00">set_category</text>
</g>
<!-- EntriesController -->
<g id="node5" class="node"><title>EntriesController</title>
<path fill="none" stroke="black" d="M284.4,-35C284.4,-35 373.6,-35 373.6,-35 379.6,-35 385.6,-41 385.6,-47 385.6,-47 385.6,-183 385.6,-183 385.6,-189 379.6,-195 373.6,-195 373.6,-195 284.4,-195 284.4,-195 278.4,-195 272.4,-189 272.4,-183 272.4,-183 272.4,-47 272.4,-47 272.4,-41 278.4,-35 284.4,-35"/>
<text text-anchor="middle" x="329" y="-179.8" font-family="Times,serif" font-size="14.00">EntriesController</text>
<polyline fill="none" stroke="black" points="272.4,-173 385.6,-173 "/>
<text text-anchor="start" x="280.4" y="-157.8" font-family="Times,serif" font-size="14.00">create</text>
<text text-anchor="start" x="280.4" y="-143.8" font-family="Times,serif" font-size="14.00">destroy</text>
<text text-anchor="start" x="280.4" y="-129.8" font-family="Times,serif" font-size="14.00">show</text>
<text text-anchor="start" x="280.4" y="-115.8" font-family="Times,serif" font-size="14.00">update</text>
<polyline fill="none" stroke="black" points="272.4,-109 385.6,-109 "/>
<polyline fill="none" stroke="black" points="272.4,-85 385.6,-85 "/>
<text text-anchor="start" x="280.4" y="-69.8" font-family="Times,serif" font-size="14.00">_layout</text>
<text text-anchor="start" x="280.4" y="-55.8" font-family="Times,serif" font-size="14.00">entry_params</text>
<text text-anchor="start" x="280.4" y="-41.8" font-family="Times,serif" font-size="14.00">set_entry</text>
</g>
<!-- HomeController -->
<g id="node6" class="node"><title>HomeController</title>
<path fill="none" stroke="black" d="M-242.879,254C-242.879,254 -159.121,254 -159.121,254 -153.121,254 -147.121,248 -147.121,242 -147.121,242 -147.121,64 -147.121,64 -147.121,58 -153.121,52 -159.121,52 -159.121,52 -242.879,52 -242.879,52 -248.879,52 -254.879,58 -254.879,64 -254.879,64 -254.879,242 -254.879,242 -254.879,248 -248.879,254 -242.879,254"/>
<text text-anchor="middle" x="-201" y="67.2" font-family="Times,serif" font-size="14.00">HomeController</text>
<polyline fill="none" stroke="black" points="-254.879,74 -147.121,74 "/>
<text text-anchor="start" x="-246.879" y="89.2" font-family="Times,serif" font-size="14.00">about</text>
<text text-anchor="start" x="-246.879" y="103.2" font-family="Times,serif" font-size="14.00">contact</text>
<text text-anchor="start" x="-246.879" y="117.2" font-family="Times,serif" font-size="14.00">detailed</text>
<text text-anchor="start" x="-246.879" y="131.2" font-family="Times,serif" font-size="14.00">index</text>
<text text-anchor="start" x="-246.879" y="145.2" font-family="Times,serif" font-size="14.00">need_help</text>
<text text-anchor="start" x="-246.879" y="159.2" font-family="Times,serif" font-size="14.00">new_display</text>
<text text-anchor="start" x="-246.879" y="173.2" font-family="Times,serif" font-size="14.00">search</text>
<text text-anchor="start" x="-246.879" y="187.2" font-family="Times,serif" font-size="14.00">status</text>
<text text-anchor="start" x="-246.879" y="201.2" font-family="Times,serif" font-size="14.00">watch_list</text>
<polyline fill="none" stroke="black" points="-254.879,208 -147.121,208 "/>
<polyline fill="none" stroke="black" points="-254.879,232 -147.121,232 "/>
<text text-anchor="start" x="-246.879" y="247.2" font-family="Times,serif" font-size="14.00">_layout</text>
</g>
<!-- NegotiationsController -->
<g id="node7" class="node"><title>NegotiationsController</title>
<path fill="none" stroke="black" d="M12.4551,339C12.4551,339 133.545,339 133.545,339 139.545,339 145.545,333 145.545,327 145.545,327 145.545,247 145.545,247 145.545,241 139.545,235 133.545,235 133.545,235 12.4551,235 12.4551,235 6.45508,235 0.455078,241 0.455078,247 0.455078,247 0.455078,327 0.455078,327 0.455078,333 6.45508,339 12.4551,339"/>
<text text-anchor="middle" x="73" y="250.2" font-family="Times,serif" font-size="14.00">NegotiationsController</text>
<polyline fill="none" stroke="black" points="0.455078,257 145.545,257 "/>
<text text-anchor="start" x="8.45508" y="272.2" font-family="Times,serif" font-size="14.00">create</text>
<polyline fill="none" stroke="black" points="0.455078,279 145.545,279 "/>
<polyline fill="none" stroke="black" points="0.455078,303 145.545,303 "/>
<text text-anchor="start" x="8.45508" y="318.2" font-family="Times,serif" font-size="14.00">_layout</text>
<text text-anchor="start" x="8.45508" y="332.2" font-family="Times,serif" font-size="14.00">negotiation_params</text>
</g>
<!-- NotificationsController -->
<g id="node8" class="node"><title>NotificationsController</title>
<path fill="none" stroke="black" d="M-55.938,-120C-55.938,-120 65.938,-120 65.938,-120 71.938,-120 77.938,-126 77.938,-132 77.938,-132 77.938,-310 77.938,-310 77.938,-316 71.938,-322 65.938,-322 65.938,-322 -55.938,-322 -55.938,-322 -61.938,-322 -67.938,-316 -67.938,-310 -67.938,-310 -67.938,-132 -67.938,-132 -67.938,-126 -61.938,-120 -55.938,-120"/>
<text text-anchor="middle" x="5" y="-306.8" font-family="Times,serif" font-size="14.00">NotificationsController</text>
<polyline fill="none" stroke="black" points="-67.938,-300 77.938,-300 "/>
<text text-anchor="start" x="-59.938" y="-284.8" font-family="Times,serif" font-size="14.00">create</text>
<text text-anchor="start" x="-59.938" y="-270.8" font-family="Times,serif" font-size="14.00">destroy</text>
<text text-anchor="start" x="-59.938" y="-256.8" font-family="Times,serif" font-size="14.00">edit</text>
<text text-anchor="start" x="-59.938" y="-242.8" font-family="Times,serif" font-size="14.00">index</text>
<text text-anchor="start" x="-59.938" y="-228.8" font-family="Times,serif" font-size="14.00">new</text>
<text text-anchor="start" x="-59.938" y="-214.8" font-family="Times,serif" font-size="14.00">show</text>
<text text-anchor="start" x="-59.938" y="-200.8" font-family="Times,serif" font-size="14.00">update</text>
<polyline fill="none" stroke="black" points="-67.938,-194 77.938,-194 "/>
<polyline fill="none" stroke="black" points="-67.938,-170 77.938,-170 "/>
<text text-anchor="start" x="-59.938" y="-154.8" font-family="Times,serif" font-size="14.00">_layout</text>
<text text-anchor="start" x="-59.938" y="-140.8" font-family="Times,serif" font-size="14.00">notification_params</text>
<text text-anchor="start" x="-59.938" y="-126.8" font-family="Times,serif" font-size="14.00">set_notification</text>
</g>
<!-- OfferingsController -->
<g id="node9" class="node"><title>OfferingsController</title>
<path fill="none" stroke="black" d="M130.526,-120C130.526,-120 233.474,-120 233.474,-120 239.474,-120 245.474,-126 245.474,-132 245.474,-132 245.474,-324 245.474,-324 245.474,-330 239.474,-336 233.474,-336 233.474,-336 130.526,-336 130.526,-336 124.526,-336 118.526,-330 118.526,-324 118.526,-324 118.526,-132 118.526,-132 118.526,-126 124.526,-120 130.526,-120"/>
<text text-anchor="middle" x="182" y="-320.8" font-family="Times,serif" font-size="14.00">OfferingsController</text>
<polyline fill="none" stroke="black" points="118.526,-314 245.474,-314 "/>
<text text-anchor="start" x="126.526" y="-298.8" font-family="Times,serif" font-size="14.00">create</text>
<text text-anchor="start" x="126.526" y="-284.8" font-family="Times,serif" font-size="14.00">destroy</text>
<text text-anchor="start" x="126.526" y="-270.8" font-family="Times,serif" font-size="14.00">edit</text>
<text text-anchor="start" x="126.526" y="-256.8" font-family="Times,serif" font-size="14.00">index</text>
<text text-anchor="start" x="126.526" y="-242.8" font-family="Times,serif" font-size="14.00">new</text>
<text text-anchor="start" x="126.526" y="-228.8" font-family="Times,serif" font-size="14.00">show</text>
<text text-anchor="start" x="126.526" y="-214.8" font-family="Times,serif" font-size="14.00">update</text>
<polyline fill="none" stroke="black" points="118.526,-208 245.474,-208 "/>
<polyline fill="none" stroke="black" points="118.526,-184 245.474,-184 "/>
<text text-anchor="start" x="126.526" y="-168.8" font-family="Times,serif" font-size="14.00">_layout</text>
<text text-anchor="start" x="126.526" y="-154.8" font-family="Times,serif" font-size="14.00">offering_params</text>
<text text-anchor="start" x="126.526" y="-140.8" font-family="Times,serif" font-size="14.00">set_offering</text>
<text text-anchor="start" x="126.526" y="-126.8" font-family="Times,serif" font-size="14.00">update_hire</text>
</g>
<!-- PaymentsController -->
<g id="node10" class="node"><title>PaymentsController</title>
<path fill="none" stroke="black" d="M284.007,271C284.007,271 387.993,271 387.993,271 393.993,271 399.993,265 399.993,259 399.993,259 399.993,123 399.993,123 399.993,117 393.993,111 387.993,111 387.993,111 284.007,111 284.007,111 278.007,111 272.007,117 272.007,123 272.007,123 272.007,259 272.007,259 272.007,265 278.007,271 284.007,271"/>
<text text-anchor="middle" x="336" y="126.2" font-family="Times,serif" font-size="14.00">PaymentsController</text>
<polyline fill="none" stroke="black" points="272.007,133 399.993,133 "/>
<text text-anchor="start" x="280.007" y="148.2" font-family="Times,serif" font-size="14.00">create</text>
<text text-anchor="start" x="280.007" y="162.2" font-family="Times,serif" font-size="14.00">index</text>
<text text-anchor="start" x="280.007" y="176.2" font-family="Times,serif" font-size="14.00">new</text>
<text text-anchor="start" x="280.007" y="190.2" font-family="Times,serif" font-size="14.00">show</text>
<polyline fill="none" stroke="black" points="272.007,197 399.993,197 "/>
<polyline fill="none" stroke="black" points="272.007,221 399.993,221 "/>
<text text-anchor="start" x="280.007" y="236.2" font-family="Times,serif" font-size="14.00">_layout</text>
<text text-anchor="start" x="280.007" y="250.2" font-family="Times,serif" font-size="14.00">payment_params</text>
<text text-anchor="start" x="280.007" y="264.2" font-family="Times,serif" font-size="14.00">set_payment</text>
</g>
<!-- RelationshipsController -->
<g id="node11" class="node"><title>RelationshipsController</title>
<path fill="none" stroke="black" d="M284.117,-222C284.117,-222 409.883,-222 409.883,-222 415.883,-222 421.883,-228 421.883,-234 421.883,-234 421.883,-314 421.883,-314 421.883,-320 415.883,-326 409.883,-326 409.883,-326 284.117,-326 284.117,-326 278.117,-326 272.117,-320 272.117,-314 272.117,-314 272.117,-234 272.117,-234 272.117,-228 278.117,-222 284.117,-222"/>
<text text-anchor="middle" x="347" y="-310.8" font-family="Times,serif" font-size="14.00">RelationshipsController</text>
<polyline fill="none" stroke="black" points="272.117,-304 421.883,-304 "/>
<text text-anchor="start" x="280.117" y="-288.8" font-family="Times,serif" font-size="14.00">create</text>
<text text-anchor="start" x="280.117" y="-274.8" font-family="Times,serif" font-size="14.00">destroy</text>
<polyline fill="none" stroke="black" points="272.117,-268 421.883,-268 "/>
<polyline fill="none" stroke="black" points="272.117,-244 421.883,-244 "/>
<text text-anchor="start" x="280.117" y="-228.8" font-family="Times,serif" font-size="14.00">_layout</text>
</g>
<!-- TalksController -->
<g id="node12" class="node"><title>TalksController</title>
<path fill="none" stroke="black" d="M369.165,-358C369.165,-358 448.835,-358 448.835,-358 454.835,-358 460.835,-364 460.835,-370 460.835,-370 460.835,-478 460.835,-478 460.835,-484 454.835,-490 448.835,-490 448.835,-490 369.165,-490 369.165,-490 363.165,-490 357.165,-484 357.165,-478 357.165,-478 357.165,-370 357.165,-370 357.165,-364 363.165,-358 369.165,-358"/>
<text text-anchor="middle" x="409" y="-474.8" font-family="Times,serif" font-size="14.00">TalksController</text>
<polyline fill="none" stroke="black" points="357.165,-468 460.835,-468 "/>
<text text-anchor="start" x="365.165" y="-452.8" font-family="Times,serif" font-size="14.00">create</text>
<text text-anchor="start" x="365.165" y="-438.8" font-family="Times,serif" font-size="14.00">index</text>
<text text-anchor="start" x="365.165" y="-424.8" font-family="Times,serif" font-size="14.00">new</text>
<polyline fill="none" stroke="black" points="357.165,-418 460.835,-418 "/>
<polyline fill="none" stroke="black" points="357.165,-394 460.835,-394 "/>
<text text-anchor="start" x="365.165" y="-378.8" font-family="Times,serif" font-size="14.00">_layout</text>
<text text-anchor="start" x="365.165" y="-364.8" font-family="Times,serif" font-size="14.00">talk_params</text>
</g>
<!-- User::RegistrationsController -->
<g id="node13" class="node"><title>User::RegistrationsController</title>
<path fill="none" stroke="black" d="M284.179,84C284.179,84 441.821,84 441.821,84 447.821,84 453.821,78 453.821,72 453.821,72 453.821,6 453.821,6 453.821,-0 447.821,-6 441.821,-6 441.821,-6 284.179,-6 284.179,-6 278.179,-6 272.179,-0 272.179,6 272.179,6 272.179,72 272.179,72 272.179,78 278.179,84 284.179,84"/>
<text text-anchor="middle" x="363" y="9.2" font-family="Times,serif" font-size="14.00">User::RegistrationsController</text>
<polyline fill="none" stroke="black" points="272.179,16 453.821,16 "/>
<text text-anchor="start" x="280.179" y="31.2" font-family="Times,serif" font-size="14.00">create</text>
<polyline fill="none" stroke="black" points="272.179,38 453.821,38 "/>
<polyline fill="none" stroke="black" points="272.179,62 453.821,62 "/>
<text text-anchor="start" x="280.179" y="77.2" font-family="Times,serif" font-size="14.00">_layout</text>
</g>
<!-- UsersController -->
<g id="node14" class="node"><title>UsersController</title>
<path fill="none" stroke="black" d="M-225.714,16C-225.714,16 -144.286,16 -144.286,16 -138.286,16 -132.286,10 -132.286,4 -132.286,4 -132.286,-188 -132.286,-188 -132.286,-194 -138.286,-200 -144.286,-200 -144.286,-200 -225.714,-200 -225.714,-200 -231.714,-200 -237.714,-194 -237.714,-188 -237.714,-188 -237.714,4 -237.714,4 -237.714,10 -231.714,16 -225.714,16"/>
<text text-anchor="middle" x="-185" y="-184.8" font-family="Times,serif" font-size="14.00">UsersController</text>
<polyline fill="none" stroke="black" points="-237.714,-178 -132.286,-178 "/>
<text text-anchor="start" x="-229.714" y="-162.8" font-family="Times,serif" font-size="14.00">contracts</text>
<text text-anchor="start" x="-229.714" y="-148.8" font-family="Times,serif" font-size="14.00">entries</text>
<text text-anchor="start" x="-229.714" y="-134.8" font-family="Times,serif" font-size="14.00">entrusts</text>
<text text-anchor="start" x="-229.714" y="-120.8" font-family="Times,serif" font-size="14.00">followers</text>
<text text-anchor="start" x="-229.714" y="-106.8" font-family="Times,serif" font-size="14.00">following</text>
<text text-anchor="start" x="-229.714" y="-92.8" font-family="Times,serif" font-size="14.00">index</text>
<text text-anchor="start" x="-229.714" y="-78.8" font-family="Times,serif" font-size="14.00">offerings</text>
<text text-anchor="start" x="-229.714" y="-64.8" font-family="Times,serif" font-size="14.00">show</text>
<text text-anchor="start" x="-229.714" y="-50.8" font-family="Times,serif" font-size="14.00">talks</text>
<text text-anchor="start" x="-229.714" y="-36.8" font-family="Times,serif" font-size="14.00">wants</text>
<polyline fill="none" stroke="black" points="-237.714,-30 -132.286,-30 "/>
<polyline fill="none" stroke="black" points="-237.714,-6 -132.286,-6 "/>
<text text-anchor="start" x="-229.714" y="9.2" font-family="Times,serif" font-size="14.00">_layout</text>
</g>
<!-- WantsController -->
<g id="node15" class="node"><title>WantsController</title>
<path fill="none" stroke="black" d="M147.902,135C147.902,135 232.098,135 232.098,135 238.098,135 244.098,129 244.098,123 244.098,123 244.098,-69 244.098,-69 244.098,-75 238.098,-81 232.098,-81 232.098,-81 147.902,-81 147.902,-81 141.902,-81 135.902,-75 135.902,-69 135.902,-69 135.902,123 135.902,123 135.902,129 141.902,135 147.902,135"/>
<text text-anchor="middle" x="190" y="-65.8" font-family="Times,serif" font-size="14.00">WantsController</text>
<polyline fill="none" stroke="black" points="135.902,-59 244.098,-59 "/>
<text text-anchor="start" x="143.902" y="-43.8" font-family="Times,serif" font-size="14.00">create</text>
<text text-anchor="start" x="143.902" y="-29.8" font-family="Times,serif" font-size="14.00">destroy</text>
<text text-anchor="start" x="143.902" y="-15.8" font-family="Times,serif" font-size="14.00">edit</text>
<text text-anchor="start" x="143.902" y="-1.8" font-family="Times,serif" font-size="14.00">index</text>
<text text-anchor="start" x="143.902" y="12.2" font-family="Times,serif" font-size="14.00">new</text>
<text text-anchor="start" x="143.902" y="26.2" font-family="Times,serif" font-size="14.00">show</text>
<text text-anchor="start" x="143.902" y="40.2" font-family="Times,serif" font-size="14.00">update</text>
<polyline fill="none" stroke="black" points="135.902,47 244.098,47 "/>
<polyline fill="none" stroke="black" points="135.902,71 244.098,71 "/>
<text text-anchor="start" x="143.902" y="86.2" font-family="Times,serif" font-size="14.00">_layout</text>
<text text-anchor="start" x="143.902" y="100.2" font-family="Times,serif" font-size="14.00">set_want</text>
<text text-anchor="start" x="143.902" y="114.2" font-family="Times,serif" font-size="14.00">update_hire</text>
<text text-anchor="start" x="143.902" y="128.2" font-family="Times,serif" font-size="14.00">want_params</text>
</g>
</g>
</svg>
