<?xml version="1.0" encoding="UTF-8" standalone="no"?>
<!DOCTYPE svg PUBLIC "-//W3C//DTD SVG 1.1//EN"
 "http://www.w3.org/Graphics/SVG/1.1/DTD/svg11.dtd">
<!-- Generated by graphviz version 2.38.0 (20140413.2041)
 -->
<!-- Title: controllers_diagram Pages: 1 -->
<svg width="836pt" height="827pt"
 viewBox="0.00 0.00 835.81 827.00" xmlns="http://www.w3.org/2000/svg" xmlns:xlink="http://www.w3.org/1999/xlink">
<g id="graph0" class="graph" transform="scale(1 1) rotate(0) translate(344.21 483.5)">
<title>controllers_diagram</title>
<polygon fill="none" stroke="none" points="-344.21,343.5 -344.21,-483.5 491.6,-483.5 491.6,343.5 -344.21,343.5"/>
<!-- _diagram_info -->
<g id="node1" class="node"><title>_diagram_info</title>
<text text-anchor="start" x="-144.688" y="144.9" font-family="Times,serif" font-size="13.00">Controllers diagram</text>
<text text-anchor="start" x="-144.688" y="157.9" font-family="Times,serif" font-size="13.00">Date: Aug 30 2015 &#45; 12:02</text>
<text text-anchor="start" x="-144.688" y="170.9" font-family="Times,serif" font-size="13.00">Migration version: 20150813065851</text>
<text text-anchor="start" x="-144.688" y="183.9" font-family="Times,serif" font-size="13.00">Generated by RailRoady 1.3.1</text>
<text text-anchor="start" x="-144.688" y="196.9" font-family="Times,serif" font-size="13.00">http://railroady.prestonlee.com</text>
</g>
<!-- AccountsController -->
<g id="node2" class="node"><title>AccountsController</title>
<path fill="none" stroke="black" d="M-328.21,-205C-328.21,-205 -225.79,-205 -225.79,-205 -219.79,-205 -213.79,-211 -213.79,-217 -213.79,-217 -213.79,-283 -213.79,-283 -213.79,-289 -219.79,-295 -225.79,-295 -225.79,-295 -328.21,-295 -328.21,-295 -334.21,-295 -340.21,-289 -340.21,-283 -340.21,-283 -340.21,-217 -340.21,-217 -340.21,-211 -334.21,-205 -328.21,-205"/>
<text text-anchor="middle" x="-277" y="-279.8" font-family="Times,serif" font-size="14.00">AccountsController</text>
<polyline fill="none" stroke="black" points="-340.21,-273 -213.79,-273 "/>
<text text-anchor="start" x="-332.21" y="-257.8" font-family="Times,serif" font-size="14.00">show</text>
<polyline fill="none" stroke="black" points="-340.21,-251 -213.79,-251 "/>
<polyline fill="none" stroke="black" points="-340.21,-227 -213.79,-227 "/>
<text text-anchor="start" x="-332.21" y="-211.8" font-family="Times,serif" font-size="14.00">_layout</text>
</g>
<!-- ApplicationController -->
<g id="node3" class="node"><title>ApplicationController</title>
<path fill="none" stroke="black" d="M-89.9658,101C-89.9658,101 83.9658,101 83.9658,101 89.9658,101 95.9658,95 95.9658,89 95.9658,89 95.9658,-75 95.9658,-75 95.9658,-81 89.9658,-87 83.9658,-87 83.9658,-87 -89.9658,-87 -89.9658,-87 -95.9658,-87 -101.966,-81 -101.966,-75 -101.966,-75 -101.966,89 -101.966,89 -101.966,95 -95.9658,101 -89.9658,101"/>
<text text-anchor="middle" x="-3" y="-71.8" font-family="Times,serif" font-size="14.00">ApplicationController</text>
<polyline fill="none" stroke="black" points="-101.966,-65 95.9658,-65 "/>
<polyline fill="none" stroke="black" points="-101.966,-41 95.9658,-41 "/>
<text text-anchor="start" x="-93.9658" y="-25.8" font-family="Times,serif" font-size="14.00">after_sign_in_path_for</text>
<text text-anchor="start" x="-93.9658" y="-11.8" font-family="Times,serif" font-size="14.00">after_sign_out_path_for</text>
<text text-anchor="start" x="-93.9658" y="2.2" font-family="Times,serif" font-size="14.00">android_request?</text>
<text text-anchor="start" x="-93.9658" y="16.2" font-family="Times,serif" font-size="14.00">configure_permitted_parameters</text>
<text text-anchor="start" x="-93.9658" y="30.2" font-family="Times,serif" font-size="14.00">ios_request?</text>
<text text-anchor="start" x="-93.9658" y="44.2" font-family="Times,serif" font-size="14.00">mobile_request?</text>
<text text-anchor="start" x="-93.9658" y="58.2" font-family="Times,serif" font-size="14.00">set_device</text>
<text text-anchor="start" x="-93.9658" y="72.2" font-family="Times,serif" font-size="14.00">set_notifications_count</text>
<polyline fill="none" stroke="black" points="-101.966,79 95.9658,79 "/>
<text text-anchor="start" x="-93.9658" y="94.2" font-family="Times,serif" font-size="14.00">_layout</text>
</g>
<!-- CategoriesController -->
<g id="node4" class="node"><title>CategoriesController</title>
<path fill="none" stroke="black" d="M148.293,135C148.293,135 257.707,135 257.707,135 263.707,135 269.707,129 269.707,123 269.707,123 269.707,-55 269.707,-55 269.707,-61 263.707,-67 257.707,-67 257.707,-67 148.293,-67 148.293,-67 142.293,-67 136.293,-61 136.293,-55 136.293,-55 136.293,123 136.293,123 136.293,129 142.293,135 148.293,135"/>
<text text-anchor="middle" x="203" y="-51.8" font-family="Times,serif" font-size="14.00">CategoriesController</text>
<polyline fill="none" stroke="black" points="136.293,-45 269.707,-45 "/>
<text text-anchor="start" x="144.293" y="-29.8" font-family="Times,serif" font-size="14.00">create</text>
<text text-anchor="start" x="144.293" y="-15.8" font-family="Times,serif" font-size="14.00">destroy</text>
<text text-anchor="start" x="144.293" y="-1.8" font-family="Times,serif" font-size="14.00">edit</text>
<text text-anchor="start" x="144.293" y="12.2" font-family="Times,serif" font-size="14.00">index</text>
<text text-anchor="start" x="144.293" y="26.2" font-family="Times,serif" font-size="14.00">new</text>
<text text-anchor="start" x="144.293" y="40.2" font-family="Times,serif" font-size="14.00">show</text>
<text text-anchor="start" x="144.293" y="54.2" font-family="Times,serif" font-size="14.00">update</text>
<polyline fill="none" stroke="black" points="136.293,61 269.707,61 "/>
<polyline fill="none" stroke="black" points="136.293,85 269.707,85 "/>
<text text-anchor="start" x="144.293" y="100.2" font-family="Times,serif" font-size="14.00">_layout</text>
<text text-anchor="start" x="144.293" y="114.2" font-family="Times,serif" font-size="14.00">category_params</text>
<text text-anchor="start" x="144.293" y="128.2" font-family="Times,serif" font-size="14.00">set_category</text>
</g>
<!-- ContractsController -->
<g id="node5" class="node"><title>ContractsController</title>
<path fill="none" stroke="black" d="M-174.6,-188C-174.6,-188 -71.3999,-188 -71.3999,-188 -65.3999,-188 -59.3999,-194 -59.3999,-200 -59.3999,-200 -59.3999,-378 -59.3999,-378 -59.3999,-384 -65.3999,-390 -71.3999,-390 -71.3999,-390 -174.6,-390 -174.6,-390 -180.6,-390 -186.6,-384 -186.6,-378 -186.6,-378 -186.6,-200 -186.6,-200 -186.6,-194 -180.6,-188 -174.6,-188"/>
<text text-anchor="middle" x="-123" y="-374.8" font-family="Times,serif" font-size="14.00">ContractsController</text>
<polyline fill="none" stroke="black" points="-186.6,-368 -59.3999,-368 "/>
<text text-anchor="start" x="-178.6" y="-352.8" font-family="Times,serif" font-size="14.00">create</text>
<text text-anchor="start" x="-178.6" y="-338.8" font-family="Times,serif" font-size="14.00">destroy</text>
<text text-anchor="start" x="-178.6" y="-324.8" font-family="Times,serif" font-size="14.00">edit</text>
<text text-anchor="start" x="-178.6" y="-310.8" font-family="Times,serif" font-size="14.00">index</text>
<text text-anchor="start" x="-178.6" y="-296.8" font-family="Times,serif" font-size="14.00">new</text>
<text text-anchor="start" x="-178.6" y="-282.8" font-family="Times,serif" font-size="14.00">show</text>
<text text-anchor="start" x="-178.6" y="-268.8" font-family="Times,serif" font-size="14.00">update</text>
<polyline fill="none" stroke="black" points="-186.6,-262 -59.3999,-262 "/>
<polyline fill="none" stroke="black" points="-186.6,-238 -59.3999,-238 "/>
<text text-anchor="start" x="-178.6" y="-222.8" font-family="Times,serif" font-size="14.00">_layout</text>
<text text-anchor="start" x="-178.6" y="-208.8" font-family="Times,serif" font-size="14.00">entry_params</text>
<text text-anchor="start" x="-178.6" y="-194.8" font-family="Times,serif" font-size="14.00">set_entry</text>
</g>
<!-- EntriesController -->
<g id="node6" class="node"><title>EntriesController</title>
<path fill="none" stroke="black" d="M386.4,-375C386.4,-375 475.6,-375 475.6,-375 481.6,-375 487.6,-381 487.6,-387 487.6,-387 487.6,-467 487.6,-467 487.6,-473 481.6,-479 475.6,-479 475.6,-479 386.4,-479 386.4,-479 380.4,-479 374.4,-473 374.4,-467 374.4,-467 374.4,-387 374.4,-387 374.4,-381 380.4,-375 386.4,-375"/>
<text text-anchor="middle" x="431" y="-463.8" font-family="Times,serif" font-size="14.00">EntriesController</text>
<polyline fill="none" stroke="black" points="374.4,-457 487.6,-457 "/>
<text text-anchor="start" x="382.4" y="-441.8" font-family="Times,serif" font-size="14.00">create</text>
<text text-anchor="start" x="382.4" y="-427.8" font-family="Times,serif" font-size="14.00">destroy</text>
<polyline fill="none" stroke="black" points="374.4,-421 487.6,-421 "/>
<polyline fill="none" stroke="black" points="374.4,-397 487.6,-397 "/>
<text text-anchor="start" x="382.4" y="-381.8" font-family="Times,serif" font-size="14.00">_layout</text>
</g>
<!-- EntrustsController -->
<g id="node7" class="node"><title>EntrustsController</title>
<path fill="none" stroke="black" d="M-293.717,305C-293.717,305 -198.283,305 -198.283,305 -192.283,305 -186.283,299 -186.283,293 -186.283,293 -186.283,115 -186.283,115 -186.283,109 -192.283,103 -198.283,103 -198.283,103 -293.717,103 -293.717,103 -299.717,103 -305.717,109 -305.717,115 -305.717,115 -305.717,293 -305.717,293 -305.717,299 -299.717,305 -293.717,305"/>
<text text-anchor="middle" x="-246" y="118.2" font-family="Times,serif" font-size="14.00">EntrustsController</text>
<polyline fill="none" stroke="black" points="-305.717,125 -186.283,125 "/>
<text text-anchor="start" x="-297.717" y="140.2" font-family="Times,serif" font-size="14.00">create</text>
<text text-anchor="start" x="-297.717" y="154.2" font-family="Times,serif" font-size="14.00">destroy</text>
<text text-anchor="start" x="-297.717" y="168.2" font-family="Times,serif" font-size="14.00">edit</text>
<text text-anchor="start" x="-297.717" y="182.2" font-family="Times,serif" font-size="14.00">index</text>
<text text-anchor="start" x="-297.717" y="196.2" font-family="Times,serif" font-size="14.00">new</text>
<text text-anchor="start" x="-297.717" y="210.2" font-family="Times,serif" font-size="14.00">show</text>
<text text-anchor="start" x="-297.717" y="224.2" font-family="Times,serif" font-size="14.00">update</text>
<polyline fill="none" stroke="black" points="-305.717,231 -186.283,231 "/>
<polyline fill="none" stroke="black" points="-305.717,255 -186.283,255 "/>
<text text-anchor="start" x="-297.717" y="270.2" font-family="Times,serif" font-size="14.00">_layout</text>
<text text-anchor="start" x="-297.717" y="284.2" font-family="Times,serif" font-size="14.00">entry_params</text>
<text text-anchor="start" x="-297.717" y="298.2" font-family="Times,serif" font-size="14.00">set_entry</text>
</g>
<!-- HomeController -->
<g id="node8" class="node"><title>HomeController</title>
<path fill="none" stroke="black" d="M318.121,50C318.121,50 401.879,50 401.879,50 407.879,50 413.879,44 413.879,38 413.879,38 413.879,-140 413.879,-140 413.879,-146 407.879,-152 401.879,-152 401.879,-152 318.121,-152 318.121,-152 312.121,-152 306.121,-146 306.121,-140 306.121,-140 306.121,38 306.121,38 306.121,44 312.121,50 318.121,50"/>
<text text-anchor="middle" x="360" y="-136.8" font-family="Times,serif" font-size="14.00">HomeController</text>
<polyline fill="none" stroke="black" points="306.121,-130 413.879,-130 "/>
<text text-anchor="start" x="314.121" y="-114.8" font-family="Times,serif" font-size="14.00">about</text>
<text text-anchor="start" x="314.121" y="-100.8" font-family="Times,serif" font-size="14.00">contact</text>
<text text-anchor="start" x="314.121" y="-86.8" font-family="Times,serif" font-size="14.00">detailed</text>
<text text-anchor="start" x="314.121" y="-72.8" font-family="Times,serif" font-size="14.00">index</text>
<text text-anchor="start" x="314.121" y="-58.8" font-family="Times,serif" font-size="14.00">need_help</text>
<text text-anchor="start" x="314.121" y="-44.8" font-family="Times,serif" font-size="14.00">new_display</text>
<text text-anchor="start" x="314.121" y="-30.8" font-family="Times,serif" font-size="14.00">search</text>
<text text-anchor="start" x="314.121" y="-16.8" font-family="Times,serif" font-size="14.00">status</text>
<text text-anchor="start" x="314.121" y="-2.8" font-family="Times,serif" font-size="14.00">watch_list</text>
<polyline fill="none" stroke="black" points="306.121,4 413.879,4 "/>
<polyline fill="none" stroke="black" points="306.121,28 413.879,28 "/>
<text text-anchor="start" x="314.121" y="43.2" font-family="Times,serif" font-size="14.00">_layout</text>
</g>
<!-- NegotiationsController -->
<g id="node9" class="node"><title>NegotiationsController</title>
<path fill="none" stroke="black" d="M131.455,-358C131.455,-358 252.545,-358 252.545,-358 258.545,-358 264.545,-364 264.545,-370 264.545,-370 264.545,-450 264.545,-450 264.545,-456 258.545,-462 252.545,-462 252.545,-462 131.455,-462 131.455,-462 125.455,-462 119.455,-456 119.455,-450 119.455,-450 119.455,-370 119.455,-370 119.455,-364 125.455,-358 131.455,-358"/>
<text text-anchor="middle" x="192" y="-446.8" font-family="Times,serif" font-size="14.00">NegotiationsController</text>
<polyline fill="none" stroke="black" points="119.455,-440 264.545,-440 "/>
<text text-anchor="start" x="127.455" y="-424.8" font-family="Times,serif" font-size="14.00">create</text>
<polyline fill="none" stroke="black" points="119.455,-418 264.545,-418 "/>
<polyline fill="none" stroke="black" points="119.455,-394 264.545,-394 "/>
<text text-anchor="start" x="127.455" y="-378.8" font-family="Times,serif" font-size="14.00">_layout</text>
<text text-anchor="start" x="127.455" y="-364.8" font-family="Times,serif" font-size="14.00">negotiation_params</text>
</g>
<!-- NotificationsController -->
<g id="node10" class="node"><title>NotificationsController</title>
<path fill="none" stroke="black" d="M131.062,-120C131.062,-120 252.938,-120 252.938,-120 258.938,-120 264.938,-126 264.938,-132 264.938,-132 264.938,-310 264.938,-310 264.938,-316 258.938,-322 252.938,-322 252.938,-322 131.062,-322 131.062,-322 125.062,-322 119.062,-316 119.062,-310 119.062,-310 119.062,-132 119.062,-132 119.062,-126 125.062,-120 131.062,-120"/>
<text text-anchor="middle" x="192" y="-306.8" font-family="Times,serif" font-size="14.00">NotificationsController</text>
<polyline fill="none" stroke="black" points="119.062,-300 264.938,-300 "/>
<text text-anchor="start" x="127.062" y="-284.8" font-family="Times,serif" font-size="14.00">create</text>
<text text-anchor="start" x="127.062" y="-270.8" font-family="Times,serif" font-size="14.00">destroy</text>
<text text-anchor="start" x="127.062" y="-256.8" font-family="Times,serif" font-size="14.00">edit</text>
<text text-anchor="start" x="127.062" y="-242.8" font-family="Times,serif" font-size="14.00">index</text>
<text text-anchor="start" x="127.062" y="-228.8" font-family="Times,serif" font-size="14.00">new</text>
<text text-anchor="start" x="127.062" y="-214.8" font-family="Times,serif" font-size="14.00">show</text>
<text text-anchor="start" x="127.062" y="-200.8" font-family="Times,serif" font-size="14.00">update</text>
<polyline fill="none" stroke="black" points="119.062,-194 264.938,-194 "/>
<polyline fill="none" stroke="black" points="119.062,-170 264.938,-170 "/>
<text text-anchor="start" x="127.062" y="-154.8" font-family="Times,serif" font-size="14.00">_layout</text>
<text text-anchor="start" x="127.062" y="-140.8" font-family="Times,serif" font-size="14.00">notification_params</text>
<text text-anchor="start" x="127.062" y="-126.8" font-family="Times,serif" font-size="14.00">set_notification</text>
</g>
<!-- OfferingsController -->
<g id="node11" class="node"><title>OfferingsController</title>
<path fill="none" stroke="black" d="M-22.4736,-120C-22.4736,-120 80.4736,-120 80.4736,-120 86.4736,-120 92.4736,-126 92.4736,-132 92.4736,-132 92.4736,-324 92.4736,-324 92.4736,-330 86.4736,-336 80.4736,-336 80.4736,-336 -22.4736,-336 -22.4736,-336 -28.4736,-336 -34.4736,-330 -34.4736,-324 -34.4736,-324 -34.4736,-132 -34.4736,-132 -34.4736,-126 -28.4736,-120 -22.4736,-120"/>
<text text-anchor="middle" x="29" y="-320.8" font-family="Times,serif" font-size="14.00">OfferingsController</text>
<polyline fill="none" stroke="black" points="-34.4736,-314 92.4736,-314 "/>
<text text-anchor="start" x="-26.4736" y="-298.8" font-family="Times,serif" font-size="14.00">create</text>
<text text-anchor="start" x="-26.4736" y="-284.8" font-family="Times,serif" font-size="14.00">destroy</text>
<text text-anchor="start" x="-26.4736" y="-270.8" font-family="Times,serif" font-size="14.00">edit</text>
<text text-anchor="start" x="-26.4736" y="-256.8" font-family="Times,serif" font-size="14.00">index</text>
<text text-anchor="start" x="-26.4736" y="-242.8" font-family="Times,serif" font-size="14.00">new</text>
<text text-anchor="start" x="-26.4736" y="-228.8" font-family="Times,serif" font-size="14.00">show</text>
<text text-anchor="start" x="-26.4736" y="-214.8" font-family="Times,serif" font-size="14.00">update</text>
<polyline fill="none" stroke="black" points="-34.4736,-208 92.4736,-208 "/>
<polyline fill="none" stroke="black" points="-34.4736,-184 92.4736,-184 "/>
<text text-anchor="start" x="-26.4736" y="-168.8" font-family="Times,serif" font-size="14.00">_layout</text>
<text text-anchor="start" x="-26.4736" y="-154.8" font-family="Times,serif" font-size="14.00">offering_params</text>
<text text-anchor="start" x="-26.4736" y="-140.8" font-family="Times,serif" font-size="14.00">set_offering</text>
<text text-anchor="start" x="-26.4736" y="-126.8" font-family="Times,serif" font-size="14.00">update_hire</text>
</g>
<!-- PaymentsController -->
<g id="node12" class="node"><title>PaymentsController</title>
<path fill="none" stroke="black" d="M318.007,-188C318.007,-188 421.993,-188 421.993,-188 427.993,-188 433.993,-194 433.993,-200 433.993,-200 433.993,-336 433.993,-336 433.993,-342 427.993,-348 421.993,-348 421.993,-348 318.007,-348 318.007,-348 312.007,-348 306.007,-342 306.007,-336 306.007,-336 306.007,-200 306.007,-200 306.007,-194 312.007,-188 318.007,-188"/>
<text text-anchor="middle" x="370" y="-332.8" font-family="Times,serif" font-size="14.00">PaymentsController</text>
<polyline fill="none" stroke="black" points="306.007,-326 433.993,-326 "/>
<text text-anchor="start" x="314.007" y="-310.8" font-family="Times,serif" font-size="14.00">create</text>
<text text-anchor="start" x="314.007" y="-296.8" font-family="Times,serif" font-size="14.00">index</text>
<text text-anchor="start" x="314.007" y="-282.8" font-family="Times,serif" font-size="14.00">new</text>
<text text-anchor="start" x="314.007" y="-268.8" font-family="Times,serif" font-size="14.00">show</text>
<polyline fill="none" stroke="black" points="306.007,-262 433.993,-262 "/>
<polyline fill="none" stroke="black" points="306.007,-238 433.993,-238 "/>
<text text-anchor="start" x="314.007" y="-222.8" font-family="Times,serif" font-size="14.00">_layout</text>
<text text-anchor="start" x="314.007" y="-208.8" font-family="Times,serif" font-size="14.00">payment_params</text>
<text text-anchor="start" x="314.007" y="-194.8" font-family="Times,serif" font-size="14.00">set_payment</text>
</g>
<!-- RelationshipsController -->
<g id="node13" class="node"><title>RelationshipsController</title>
<path fill="none" stroke="black" d="M-140.883,339C-140.883,339 -15.1172,339 -15.1172,339 -9.11719,339 -3.11719,333 -3.11719,327 -3.11719,327 -3.11719,247 -3.11719,247 -3.11719,241 -9.11719,235 -15.1172,235 -15.1172,235 -140.883,235 -140.883,235 -146.883,235 -152.883,241 -152.883,247 -152.883,247 -152.883,327 -152.883,327 -152.883,333 -146.883,339 -140.883,339"/>
<text text-anchor="middle" x="-78" y="250.2" font-family="Times,serif" font-size="14.00">RelationshipsController</text>
<polyline fill="none" stroke="black" points="-152.883,257 -3.11719,257 "/>
<text text-anchor="start" x="-144.883" y="272.2" font-family="Times,serif" font-size="14.00">create</text>
<text text-anchor="start" x="-144.883" y="286.2" font-family="Times,serif" font-size="14.00">destroy</text>
<polyline fill="none" stroke="black" points="-152.883,293 -3.11719,293 "/>
<polyline fill="none" stroke="black" points="-152.883,317 -3.11719,317 "/>
<text text-anchor="start" x="-144.883" y="332.2" font-family="Times,serif" font-size="14.00">_layout</text>
</g>
<!-- TalksController -->
<g id="node14" class="node"><title>TalksController</title>
<path fill="none" stroke="black" d="M-310.835,-324C-310.835,-324 -231.165,-324 -231.165,-324 -225.165,-324 -219.165,-330 -219.165,-336 -219.165,-336 -219.165,-444 -219.165,-444 -219.165,-450 -225.165,-456 -231.165,-456 -231.165,-456 -310.835,-456 -310.835,-456 -316.835,-456 -322.835,-450 -322.835,-444 -322.835,-444 -322.835,-336 -322.835,-336 -322.835,-330 -316.835,-324 -310.835,-324"/>
<text text-anchor="middle" x="-271" y="-440.8" font-family="Times,serif" font-size="14.00">TalksController</text>
<polyline fill="none" stroke="black" points="-322.835,-434 -219.165,-434 "/>
<text text-anchor="start" x="-314.835" y="-418.8" font-family="Times,serif" font-size="14.00">create</text>
<text text-anchor="start" x="-314.835" y="-404.8" font-family="Times,serif" font-size="14.00">index</text>
<text text-anchor="start" x="-314.835" y="-390.8" font-family="Times,serif" font-size="14.00">new</text>
<polyline fill="none" stroke="black" points="-322.835,-384 -219.165,-384 "/>
<polyline fill="none" stroke="black" points="-322.835,-360 -219.165,-360 "/>
<text text-anchor="start" x="-314.835" y="-344.8" font-family="Times,serif" font-size="14.00">_layout</text>
<text text-anchor="start" x="-314.835" y="-330.8" font-family="Times,serif" font-size="14.00">talk_params</text>
</g>
<!-- User::RegistrationsController -->
<g id="node15" class="node"><title>User::RegistrationsController</title>
<path fill="none" stroke="black" d="M97.1792,254C97.1792,254 254.821,254 254.821,254 260.821,254 266.821,248 266.821,242 266.821,242 266.821,176 266.821,176 266.821,170 260.821,164 254.821,164 254.821,164 97.1792,164 97.1792,164 91.1792,164 85.1792,170 85.1792,176 85.1792,176 85.1792,242 85.1792,242 85.1792,248 91.1792,254 97.1792,254"/>
<text text-anchor="middle" x="176" y="179.2" font-family="Times,serif" font-size="14.00">User::RegistrationsController</text>
<polyline fill="none" stroke="black" points="85.1792,186 266.821,186 "/>
<text text-anchor="start" x="93.1792" y="201.2" font-family="Times,serif" font-size="14.00">create</text>
<polyline fill="none" stroke="black" points="85.1792,208 266.821,208 "/>
<polyline fill="none" stroke="black" points="85.1792,232 266.821,232 "/>
<text text-anchor="start" x="93.1792" y="247.2" font-family="Times,serif" font-size="14.00">_layout</text>
</g>
<!-- UsersController -->
<g id="node16" class="node"><title>UsersController</title>
<path fill="none" stroke="black" d="M-225.714,67C-225.714,67 -144.286,67 -144.286,67 -138.286,67 -132.286,61 -132.286,55 -132.286,55 -132.286,-137 -132.286,-137 -132.286,-143 -138.286,-149 -144.286,-149 -144.286,-149 -225.714,-149 -225.714,-149 -231.714,-149 -237.714,-143 -237.714,-137 -237.714,-137 -237.714,55 -237.714,55 -237.714,61 -231.714,67 -225.714,67"/>
<text text-anchor="middle" x="-185" y="-133.8" font-family="Times,serif" font-size="14.00">UsersController</text>
<polyline fill="none" stroke="black" points="-237.714,-127 -132.286,-127 "/>
<text text-anchor="start" x="-229.714" y="-111.8" font-family="Times,serif" font-size="14.00">contracts</text>
<text text-anchor="start" x="-229.714" y="-97.8" font-family="Times,serif" font-size="14.00">entries</text>
<text text-anchor="start" x="-229.714" y="-83.8" font-family="Times,serif" font-size="14.00">entrusts</text>
<text text-anchor="start" x="-229.714" y="-69.8" font-family="Times,serif" font-size="14.00">followers</text>
<text text-anchor="start" x="-229.714" y="-55.8" font-family="Times,serif" font-size="14.00">following</text>
<text text-anchor="start" x="-229.714" y="-41.8" font-family="Times,serif" font-size="14.00">index</text>
<text text-anchor="start" x="-229.714" y="-27.8" font-family="Times,serif" font-size="14.00">offerings</text>
<text text-anchor="start" x="-229.714" y="-13.8" font-family="Times,serif" font-size="14.00">show</text>
<text text-anchor="start" x="-229.714" y="0.2" font-family="Times,serif" font-size="14.00">talks</text>
<text text-anchor="start" x="-229.714" y="14.2" font-family="Times,serif" font-size="14.00">wants</text>
<polyline fill="none" stroke="black" points="-237.714,21 -132.286,21 "/>
<polyline fill="none" stroke="black" points="-237.714,45 -132.286,45 "/>
<text text-anchor="start" x="-229.714" y="60.2" font-family="Times,serif" font-size="14.00">_layout</text>
</g>
<!-- WantsController -->
<g id="node17" class="node"><title>WantsController</title>
<path fill="none" stroke="black" d="M317.902,305C317.902,305 402.098,305 402.098,305 408.098,305 414.098,299 414.098,293 414.098,293 414.098,101 414.098,101 414.098,95 408.098,89 402.098,89 402.098,89 317.902,89 317.902,89 311.902,89 305.902,95 305.902,101 305.902,101 305.902,293 305.902,293 305.902,299 311.902,305 317.902,305"/>
<text text-anchor="middle" x="360" y="104.2" font-family="Times,serif" font-size="14.00">WantsController</text>
<polyline fill="none" stroke="black" points="305.902,111 414.098,111 "/>
<text text-anchor="start" x="313.902" y="126.2" font-family="Times,serif" font-size="14.00">create</text>
<text text-anchor="start" x="313.902" y="140.2" font-family="Times,serif" font-size="14.00">destroy</text>
<text text-anchor="start" x="313.902" y="154.2" font-family="Times,serif" font-size="14.00">edit</text>
<text text-anchor="start" x="313.902" y="168.2" font-family="Times,serif" font-size="14.00">index</text>
<text text-anchor="start" x="313.902" y="182.2" font-family="Times,serif" font-size="14.00">new</text>
<text text-anchor="start" x="313.902" y="196.2" font-family="Times,serif" font-size="14.00">show</text>
<text text-anchor="start" x="313.902" y="210.2" font-family="Times,serif" font-size="14.00">update</text>
<polyline fill="none" stroke="black" points="305.902,217 414.098,217 "/>
<polyline fill="none" stroke="black" points="305.902,241 414.098,241 "/>
<text text-anchor="start" x="313.902" y="256.2" font-family="Times,serif" font-size="14.00">_layout</text>
<text text-anchor="start" x="313.902" y="270.2" font-family="Times,serif" font-size="14.00">set_want</text>
<text text-anchor="start" x="313.902" y="284.2" font-family="Times,serif" font-size="14.00">update_hire</text>
<text text-anchor="start" x="313.902" y="298.2" font-family="Times,serif" font-size="14.00">want_params</text>
</g>
</g>
</svg>
