<?xml version="1.0" encoding="UTF-8" standalone="no"?>
<!DOCTYPE svg PUBLIC "-//W3C//DTD SVG 1.1//EN"
 "http://www.w3.org/Graphics/SVG/1.1/DTD/svg11.dtd">
<!-- Generated by graphviz version 2.38.0 (20140413.2041)
 -->
<!-- Title: controllers_diagram Pages: 1 -->
<svg width="753pt" height="838pt"
 viewBox="0.00 0.00 752.76 838.00" xmlns="http://www.w3.org/2000/svg" xmlns:xlink="http://www.w3.org/1999/xlink">
<g id="graph0" class="graph" transform="scale(1 1) rotate(0) translate(258.879 494.5)">
<title>controllers_diagram</title>
<polygon fill="none" stroke="none" points="-258.879,343.5 -258.879,-494.5 493.883,-494.5 493.883,343.5 -258.879,343.5"/>
<!-- _diagram_info -->
<g id="node1" class="node"><title>_diagram_info</title>
<text text-anchor="start" x="-110.688" y="144.9" font-family="Times,serif" font-size="13.00">Controllers diagram</text>
<text text-anchor="start" x="-110.688" y="157.9" font-family="Times,serif" font-size="13.00">Date: Sep 15 2015 &#45; 10:08</text>
<text text-anchor="start" x="-110.688" y="170.9" font-family="Times,serif" font-size="13.00">Migration version: 20150909010032</text>
<text text-anchor="start" x="-110.688" y="183.9" font-family="Times,serif" font-size="13.00">Generated by RailRoady 1.3.1</text>
<text text-anchor="start" x="-110.688" y="196.9" font-family="Times,serif" font-size="13.00">http://railroady.prestonlee.com</text>
</g>
<!-- AccountsController -->
<g id="node2" class="node"><title>AccountsController</title>
<path fill="none" stroke="black" d="M-107.21,322C-107.21,322 -4.78955,322 -4.78955,322 1.21045,322 7.21045,316 7.21045,310 7.21045,310 7.21045,244 7.21045,244 7.21045,238 1.21045,232 -4.78955,232 -4.78955,232 -107.21,232 -107.21,232 -113.21,232 -119.21,238 -119.21,244 -119.21,244 -119.21,310 -119.21,310 -119.21,316 -113.21,322 -107.21,322"/>
<text text-anchor="middle" x="-56" y="247.2" font-family="Times,serif" font-size="14.00">AccountsController</text>
<polyline fill="none" stroke="black" points="-119.21,254 7.21045,254 "/>
<text text-anchor="start" x="-111.21" y="269.2" font-family="Times,serif" font-size="14.00">show</text>
<polyline fill="none" stroke="black" points="-119.21,276 7.21045,276 "/>
<polyline fill="none" stroke="black" points="-119.21,300 7.21045,300 "/>
<text text-anchor="start" x="-111.21" y="315.2" font-family="Times,serif" font-size="14.00">_layout</text>
</g>
<!-- ApplicationController -->
<g id="node3" class="node"><title>ApplicationController</title>
<path fill="none" stroke="black" d="M-89.9658,101C-89.9658,101 83.9658,101 83.9658,101 89.9658,101 95.9658,95 95.9658,89 95.9658,89 95.9658,-75 95.9658,-75 95.9658,-81 89.9658,-87 83.9658,-87 83.9658,-87 -89.9658,-87 -89.9658,-87 -95.9658,-87 -101.966,-81 -101.966,-75 -101.966,-75 -101.966,89 -101.966,89 -101.966,95 -95.9658,101 -89.9658,101"/>
<text text-anchor="middle" x="-3" y="-71.8" font-family="Times,serif" font-size="14.00">ApplicationController</text>
<polyline fill="none" stroke="black" points="-101.966,-65 95.9658,-65 "/>
<polyline fill="none" stroke="black" points="-101.966,-41 95.9658,-41 "/>
<text text-anchor="start" x="-93.9658" y="-25.8" font-family="Times,serif" font-size="14.00">after_sign_in_path_for</text>
<text text-anchor="start" x="-93.9658" y="-11.8" font-family="Times,serif" font-size="14.00">after_sign_out_path_for</text>
<text text-anchor="start" x="-93.9658" y="2.2" font-family="Times,serif" font-size="14.00">android_request?</text>
<text text-anchor="start" x="-93.9658" y="16.2" font-family="Times,serif" font-size="14.00">configure_permitted_parameters</text>
<text text-anchor="start" x="-93.9658" y="30.2" font-family="Times,serif" font-size="14.00">ios_request?</text>
<text text-anchor="start" x="-93.9658" y="44.2" font-family="Times,serif" font-size="14.00">mobile_request?</text>
<text text-anchor="start" x="-93.9658" y="58.2" font-family="Times,serif" font-size="14.00">set_device</text>
<text text-anchor="start" x="-93.9658" y="72.2" font-family="Times,serif" font-size="14.00">set_notifications_count</text>
<polyline fill="none" stroke="black" points="-101.966,79 95.9658,79 "/>
<text text-anchor="start" x="-93.9658" y="94.2" font-family="Times,serif" font-size="14.00">_layout</text>
</g>
<!-- CategoriesController -->
<g id="node4" class="node"><title>CategoriesController</title>
<path fill="none" stroke="black" d="M148.293,135C148.293,135 257.707,135 257.707,135 263.707,135 269.707,129 269.707,123 269.707,123 269.707,-55 269.707,-55 269.707,-61 263.707,-67 257.707,-67 257.707,-67 148.293,-67 148.293,-67 142.293,-67 136.293,-61 136.293,-55 136.293,-55 136.293,123 136.293,123 136.293,129 142.293,135 148.293,135"/>
<text text-anchor="middle" x="203" y="-51.8" font-family="Times,serif" font-size="14.00">CategoriesController</text>
<polyline fill="none" stroke="black" points="136.293,-45 269.707,-45 "/>
<text text-anchor="start" x="144.293" y="-29.8" font-family="Times,serif" font-size="14.00">create</text>
<text text-anchor="start" x="144.293" y="-15.8" font-family="Times,serif" font-size="14.00">destroy</text>
<text text-anchor="start" x="144.293" y="-1.8" font-family="Times,serif" font-size="14.00">edit</text>
<text text-anchor="start" x="144.293" y="12.2" font-family="Times,serif" font-size="14.00">index</text>
<text text-anchor="start" x="144.293" y="26.2" font-family="Times,serif" font-size="14.00">new</text>
<text text-anchor="start" x="144.293" y="40.2" font-family="Times,serif" font-size="14.00">show</text>
<text text-anchor="start" x="144.293" y="54.2" font-family="Times,serif" font-size="14.00">update</text>
<polyline fill="none" stroke="black" points="136.293,61 269.707,61 "/>
<polyline fill="none" stroke="black" points="136.293,85 269.707,85 "/>
<text text-anchor="start" x="144.293" y="100.2" font-family="Times,serif" font-size="14.00">_layout</text>
<text text-anchor="start" x="144.293" y="114.2" font-family="Times,serif" font-size="14.00">category_params</text>
<text text-anchor="start" x="144.293" y="128.2" font-family="Times,serif" font-size="14.00">set_category</text>
</g>
<!-- EntriesController -->
<g id="node5" class="node"><title>EntriesController</title>
<path fill="none" stroke="black" d="M301.4,-290C301.4,-290 390.6,-290 390.6,-290 396.6,-290 402.6,-296 402.6,-302 402.6,-302 402.6,-438 402.6,-438 402.6,-444 396.6,-450 390.6,-450 390.6,-450 301.4,-450 301.4,-450 295.4,-450 289.4,-444 289.4,-438 289.4,-438 289.4,-302 289.4,-302 289.4,-296 295.4,-290 301.4,-290"/>
<text text-anchor="middle" x="346" y="-434.8" font-family="Times,serif" font-size="14.00">EntriesController</text>
<polyline fill="none" stroke="black" points="289.4,-428 402.6,-428 "/>
<text text-anchor="start" x="297.4" y="-412.8" font-family="Times,serif" font-size="14.00">create</text>
<text text-anchor="start" x="297.4" y="-398.8" font-family="Times,serif" font-size="14.00">destroy</text>
<text text-anchor="start" x="297.4" y="-384.8" font-family="Times,serif" font-size="14.00">show</text>
<text text-anchor="start" x="297.4" y="-370.8" font-family="Times,serif" font-size="14.00">update</text>
<polyline fill="none" stroke="black" points="289.4,-364 402.6,-364 "/>
<polyline fill="none" stroke="black" points="289.4,-340 402.6,-340 "/>
<text text-anchor="start" x="297.4" y="-324.8" font-family="Times,serif" font-size="14.00">_layout</text>
<text text-anchor="start" x="297.4" y="-310.8" font-family="Times,serif" font-size="14.00">entry_params</text>
<text text-anchor="start" x="297.4" y="-296.8" font-family="Times,serif" font-size="14.00">set_entry</text>
</g>
<!-- HomeController -->
<g id="node6" class="node"><title>HomeController</title>
<path fill="none" stroke="black" d="M-242.879,254C-242.879,254 -159.121,254 -159.121,254 -153.121,254 -147.121,248 -147.121,242 -147.121,242 -147.121,64 -147.121,64 -147.121,58 -153.121,52 -159.121,52 -159.121,52 -242.879,52 -242.879,52 -248.879,52 -254.879,58 -254.879,64 -254.879,64 -254.879,242 -254.879,242 -254.879,248 -248.879,254 -242.879,254"/>
<text text-anchor="middle" x="-201" y="67.2" font-family="Times,serif" font-size="14.00">HomeController</text>
<polyline fill="none" stroke="black" points="-254.879,74 -147.121,74 "/>
<text text-anchor="start" x="-246.879" y="89.2" font-family="Times,serif" font-size="14.00">about</text>
<text text-anchor="start" x="-246.879" y="103.2" font-family="Times,serif" font-size="14.00">contact</text>
<text text-anchor="start" x="-246.879" y="117.2" font-family="Times,serif" font-size="14.00">detailed</text>
<text text-anchor="start" x="-246.879" y="131.2" font-family="Times,serif" font-size="14.00">index</text>
<text text-anchor="start" x="-246.879" y="145.2" font-family="Times,serif" font-size="14.00">need_help</text>
<text text-anchor="start" x="-246.879" y="159.2" font-family="Times,serif" font-size="14.00">new_display</text>
<text text-anchor="start" x="-246.879" y="173.2" font-family="Times,serif" font-size="14.00">search</text>
<text text-anchor="start" x="-246.879" y="187.2" font-family="Times,serif" font-size="14.00">status</text>
<text text-anchor="start" x="-246.879" y="201.2" font-family="Times,serif" font-size="14.00">watch_list</text>
<polyline fill="none" stroke="black" points="-254.879,208 -147.121,208 "/>
<polyline fill="none" stroke="black" points="-254.879,232 -147.121,232 "/>
<text text-anchor="start" x="-246.879" y="247.2" font-family="Times,serif" font-size="14.00">_layout</text>
</g>
<!-- NegotiationsController -->
<g id="node7" class="node"><title>NegotiationsController</title>
<path fill="none" stroke="black" d="M318.455,135C318.455,135 439.545,135 439.545,135 445.545,135 451.545,129 451.545,123 451.545,123 451.545,43 451.545,43 451.545,37 445.545,31 439.545,31 439.545,31 318.455,31 318.455,31 312.455,31 306.455,37 306.455,43 306.455,43 306.455,123 306.455,123 306.455,129 312.455,135 318.455,135"/>
<text text-anchor="middle" x="379" y="46.2" font-family="Times,serif" font-size="14.00">NegotiationsController</text>
<polyline fill="none" stroke="black" points="306.455,53 451.545,53 "/>
<text text-anchor="start" x="314.455" y="68.2" font-family="Times,serif" font-size="14.00">create</text>
<polyline fill="none" stroke="black" points="306.455,75 451.545,75 "/>
<polyline fill="none" stroke="black" points="306.455,99 451.545,99 "/>
<text text-anchor="start" x="314.455" y="114.2" font-family="Times,serif" font-size="14.00">_layout</text>
<text text-anchor="start" x="314.455" y="128.2" font-family="Times,serif" font-size="14.00">negotiation_params</text>
</g>
<!-- NotificationsController -->
<g id="node8" class="node"><title>NotificationsController</title>
<path fill="none" stroke="black" d="M-55.938,-120C-55.938,-120 65.938,-120 65.938,-120 71.938,-120 77.938,-126 77.938,-132 77.938,-132 77.938,-310 77.938,-310 77.938,-316 71.938,-322 65.938,-322 65.938,-322 -55.938,-322 -55.938,-322 -61.938,-322 -67.938,-316 -67.938,-310 -67.938,-310 -67.938,-132 -67.938,-132 -67.938,-126 -61.938,-120 -55.938,-120"/>
<text text-anchor="middle" x="5" y="-306.8" font-family="Times,serif" font-size="14.00">NotificationsController</text>
<polyline fill="none" stroke="black" points="-67.938,-300 77.938,-300 "/>
<text text-anchor="start" x="-59.938" y="-284.8" font-family="Times,serif" font-size="14.00">create</text>
<text text-anchor="start" x="-59.938" y="-270.8" font-family="Times,serif" font-size="14.00">destroy</text>
<text text-anchor="start" x="-59.938" y="-256.8" font-family="Times,serif" font-size="14.00">edit</text>
<text text-anchor="start" x="-59.938" y="-242.8" font-family="Times,serif" font-size="14.00">index</text>
<text text-anchor="start" x="-59.938" y="-228.8" font-family="Times,serif" font-size="14.00">new</text>
<text text-anchor="start" x="-59.938" y="-214.8" font-family="Times,serif" font-size="14.00">show</text>
<text text-anchor="start" x="-59.938" y="-200.8" font-family="Times,serif" font-size="14.00">update</text>
<polyline fill="none" stroke="black" points="-67.938,-194 77.938,-194 "/>
<polyline fill="none" stroke="black" points="-67.938,-170 77.938,-170 "/>
<text text-anchor="start" x="-59.938" y="-154.8" font-family="Times,serif" font-size="14.00">_layout</text>
<text text-anchor="start" x="-59.938" y="-140.8" font-family="Times,serif" font-size="14.00">notification_params</text>
<text text-anchor="start" x="-59.938" y="-126.8" font-family="Times,serif" font-size="14.00">set_notification</text>
</g>
<!-- OfferingsController -->
<g id="node9" class="node"><title>OfferingsController</title>
<path fill="none" stroke="black" d="M-209.474,-222C-209.474,-222 -106.526,-222 -106.526,-222 -100.526,-222 -94.5264,-228 -94.5264,-234 -94.5264,-234 -94.5264,-412 -94.5264,-412 -94.5264,-418 -100.526,-424 -106.526,-424 -106.526,-424 -209.474,-424 -209.474,-424 -215.474,-424 -221.474,-418 -221.474,-412 -221.474,-412 -221.474,-234 -221.474,-234 -221.474,-228 -215.474,-222 -209.474,-222"/>
<text text-anchor="middle" x="-158" y="-408.8" font-family="Times,serif" font-size="14.00">OfferingsController</text>
<polyline fill="none" stroke="black" points="-221.474,-402 -94.5264,-402 "/>
<text text-anchor="start" x="-213.474" y="-386.8" font-family="Times,serif" font-size="14.00">create</text>
<text text-anchor="start" x="-213.474" y="-372.8" font-family="Times,serif" font-size="14.00">destroy</text>
<text text-anchor="start" x="-213.474" y="-358.8" font-family="Times,serif" font-size="14.00">edit</text>
<text text-anchor="start" x="-213.474" y="-344.8" font-family="Times,serif" font-size="14.00">index</text>
<text text-anchor="start" x="-213.474" y="-330.8" font-family="Times,serif" font-size="14.00">new</text>
<text text-anchor="start" x="-213.474" y="-316.8" font-family="Times,serif" font-size="14.00">show</text>
<text text-anchor="start" x="-213.474" y="-302.8" font-family="Times,serif" font-size="14.00">update</text>
<polyline fill="none" stroke="black" points="-221.474,-296 -94.5264,-296 "/>
<polyline fill="none" stroke="black" points="-221.474,-272 -94.5264,-272 "/>
<text text-anchor="start" x="-213.474" y="-256.8" font-family="Times,serif" font-size="14.00">_layout</text>
<text text-anchor="start" x="-213.474" y="-242.8" font-family="Times,serif" font-size="14.00">offering_params</text>
<text text-anchor="start" x="-213.474" y="-228.8" font-family="Times,serif" font-size="14.00">set_offering</text>
</g>
<!-- PaymentsController -->
<g id="node10" class="node"><title>PaymentsController</title>
<path fill="none" stroke="black" d="M267.007,-103C267.007,-103 370.993,-103 370.993,-103 376.993,-103 382.993,-109 382.993,-115 382.993,-115 382.993,-251 382.993,-251 382.993,-257 376.993,-263 370.993,-263 370.993,-263 267.007,-263 267.007,-263 261.007,-263 255.007,-257 255.007,-251 255.007,-251 255.007,-115 255.007,-115 255.007,-109 261.007,-103 267.007,-103"/>
<text text-anchor="middle" x="319" y="-247.8" font-family="Times,serif" font-size="14.00">PaymentsController</text>
<polyline fill="none" stroke="black" points="255.007,-241 382.993,-241 "/>
<text text-anchor="start" x="263.007" y="-225.8" font-family="Times,serif" font-size="14.00">create</text>
<text text-anchor="start" x="263.007" y="-211.8" font-family="Times,serif" font-size="14.00">index</text>
<text text-anchor="start" x="263.007" y="-197.8" font-family="Times,serif" font-size="14.00">new</text>
<text text-anchor="start" x="263.007" y="-183.8" font-family="Times,serif" font-size="14.00">show</text>
<polyline fill="none" stroke="black" points="255.007,-177 382.993,-177 "/>
<polyline fill="none" stroke="black" points="255.007,-153 382.993,-153 "/>
<text text-anchor="start" x="263.007" y="-137.8" font-family="Times,serif" font-size="14.00">_layout</text>
<text text-anchor="start" x="263.007" y="-123.8" font-family="Times,serif" font-size="14.00">payment_params</text>
<text text-anchor="start" x="263.007" y="-109.8" font-family="Times,serif" font-size="14.00">set_payment</text>
</g>
<!-- RelationshipsController -->
<g id="node11" class="node"><title>RelationshipsController</title>
<path fill="none" stroke="black" d="M352.117,339C352.117,339 477.883,339 477.883,339 483.883,339 489.883,333 489.883,327 489.883,327 489.883,247 489.883,247 489.883,241 483.883,235 477.883,235 477.883,235 352.117,235 352.117,235 346.117,235 340.117,241 340.117,247 340.117,247 340.117,327 340.117,327 340.117,333 346.117,339 352.117,339"/>
<text text-anchor="middle" x="415" y="250.2" font-family="Times,serif" font-size="14.00">RelationshipsController</text>
<polyline fill="none" stroke="black" points="340.117,257 489.883,257 "/>
<text text-anchor="start" x="348.117" y="272.2" font-family="Times,serif" font-size="14.00">create</text>
<text text-anchor="start" x="348.117" y="286.2" font-family="Times,serif" font-size="14.00">destroy</text>
<polyline fill="none" stroke="black" points="340.117,293 489.883,293 "/>
<polyline fill="none" stroke="black" points="340.117,317 489.883,317 "/>
<text text-anchor="start" x="348.117" y="332.2" font-family="Times,serif" font-size="14.00">_layout</text>
</g>
<!-- TalksController -->
<g id="node12" class="node"><title>TalksController</title>
<path fill="none" stroke="black" d="M-4.83545,-358C-4.83545,-358 74.8354,-358 74.8354,-358 80.8354,-358 86.8354,-364 86.8354,-370 86.8354,-370 86.8354,-478 86.8354,-478 86.8354,-484 80.8354,-490 74.8354,-490 74.8354,-490 -4.83545,-490 -4.83545,-490 -10.8354,-490 -16.8354,-484 -16.8354,-478 -16.8354,-478 -16.8354,-370 -16.8354,-370 -16.8354,-364 -10.8354,-358 -4.83545,-358"/>
<text text-anchor="middle" x="35" y="-474.8" font-family="Times,serif" font-size="14.00">TalksController</text>
<polyline fill="none" stroke="black" points="-16.8354,-468 86.8354,-468 "/>
<text text-anchor="start" x="-8.83545" y="-452.8" font-family="Times,serif" font-size="14.00">create</text>
<text text-anchor="start" x="-8.83545" y="-438.8" font-family="Times,serif" font-size="14.00">index</text>
<text text-anchor="start" x="-8.83545" y="-424.8" font-family="Times,serif" font-size="14.00">new</text>
<polyline fill="none" stroke="black" points="-16.8354,-418 86.8354,-418 "/>
<polyline fill="none" stroke="black" points="-16.8354,-394 86.8354,-394 "/>
<text text-anchor="start" x="-8.83545" y="-378.8" font-family="Times,serif" font-size="14.00">_layout</text>
<text text-anchor="start" x="-8.83545" y="-364.8" font-family="Times,serif" font-size="14.00">talk_params</text>
</g>
<!-- User::RegistrationsController -->
<g id="node13" class="node"><title>User::RegistrationsController</title>
<path fill="none" stroke="black" d="M131.179,254C131.179,254 288.821,254 288.821,254 294.821,254 300.821,248 300.821,242 300.821,242 300.821,176 300.821,176 300.821,170 294.821,164 288.821,164 288.821,164 131.179,164 131.179,164 125.179,164 119.179,170 119.179,176 119.179,176 119.179,242 119.179,242 119.179,248 125.179,254 131.179,254"/>
<text text-anchor="middle" x="210" y="179.2" font-family="Times,serif" font-size="14.00">User::RegistrationsController</text>
<polyline fill="none" stroke="black" points="119.179,186 300.821,186 "/>
<text text-anchor="start" x="127.179" y="201.2" font-family="Times,serif" font-size="14.00">create</text>
<polyline fill="none" stroke="black" points="119.179,208 300.821,208 "/>
<polyline fill="none" stroke="black" points="119.179,232 300.821,232 "/>
<text text-anchor="start" x="127.179" y="247.2" font-family="Times,serif" font-size="14.00">_layout</text>
</g>
<!-- UsersController -->
<g id="node14" class="node"><title>UsersController</title>
<path fill="none" stroke="black" d="M131.286,-120C131.286,-120 212.714,-120 212.714,-120 218.714,-120 224.714,-126 224.714,-132 224.714,-132 224.714,-380 224.714,-380 224.714,-386 218.714,-392 212.714,-392 212.714,-392 131.286,-392 131.286,-392 125.286,-392 119.286,-386 119.286,-380 119.286,-380 119.286,-132 119.286,-132 119.286,-126 125.286,-120 131.286,-120"/>
<text text-anchor="middle" x="172" y="-376.8" font-family="Times,serif" font-size="14.00">UsersController</text>
<polyline fill="none" stroke="black" points="119.286,-370 224.714,-370 "/>
<text text-anchor="start" x="127.286" y="-354.8" font-family="Times,serif" font-size="14.00">contracts</text>
<text text-anchor="start" x="127.286" y="-340.8" font-family="Times,serif" font-size="14.00">edit</text>
<text text-anchor="start" x="127.286" y="-326.8" font-family="Times,serif" font-size="14.00">entries</text>
<text text-anchor="start" x="127.286" y="-312.8" font-family="Times,serif" font-size="14.00">entrusts</text>
<text text-anchor="start" x="127.286" y="-298.8" font-family="Times,serif" font-size="14.00">followers</text>
<text text-anchor="start" x="127.286" y="-284.8" font-family="Times,serif" font-size="14.00">following</text>
<text text-anchor="start" x="127.286" y="-270.8" font-family="Times,serif" font-size="14.00">index</text>
<text text-anchor="start" x="127.286" y="-256.8" font-family="Times,serif" font-size="14.00">offerings</text>
<text text-anchor="start" x="127.286" y="-242.8" font-family="Times,serif" font-size="14.00">show</text>
<text text-anchor="start" x="127.286" y="-228.8" font-family="Times,serif" font-size="14.00">talks</text>
<text text-anchor="start" x="127.286" y="-214.8" font-family="Times,serif" font-size="14.00">update</text>
<text text-anchor="start" x="127.286" y="-200.8" font-family="Times,serif" font-size="14.00">wants</text>
<polyline fill="none" stroke="black" points="119.286,-194 224.714,-194 "/>
<polyline fill="none" stroke="black" points="119.286,-170 224.714,-170 "/>
<text text-anchor="start" x="127.286" y="-154.8" font-family="Times,serif" font-size="14.00">_layout</text>
<text text-anchor="start" x="127.286" y="-140.8" font-family="Times,serif" font-size="14.00">set_user</text>
<text text-anchor="start" x="127.286" y="-126.8" font-family="Times,serif" font-size="14.00">user_params</text>
</g>
<!-- WantsController -->
<g id="node15" class="node"><title>WantsController</title>
<path fill="none" stroke="black" d="M-226.098,16C-226.098,16 -141.902,16 -141.902,16 -135.902,16 -129.902,10 -129.902,4 -129.902,4 -129.902,-174 -129.902,-174 -129.902,-180 -135.902,-186 -141.902,-186 -141.902,-186 -226.098,-186 -226.098,-186 -232.098,-186 -238.098,-180 -238.098,-174 -238.098,-174 -238.098,4 -238.098,4 -238.098,10 -232.098,16 -226.098,16"/>
<text text-anchor="middle" x="-184" y="-170.8" font-family="Times,serif" font-size="14.00">WantsController</text>
<polyline fill="none" stroke="black" points="-238.098,-164 -129.902,-164 "/>
<text text-anchor="start" x="-230.098" y="-148.8" font-family="Times,serif" font-size="14.00">create</text>
<text text-anchor="start" x="-230.098" y="-134.8" font-family="Times,serif" font-size="14.00">destroy</text>
<text text-anchor="start" x="-230.098" y="-120.8" font-family="Times,serif" font-size="14.00">edit</text>
<text text-anchor="start" x="-230.098" y="-106.8" font-family="Times,serif" font-size="14.00">index</text>
<text text-anchor="start" x="-230.098" y="-92.8" font-family="Times,serif" font-size="14.00">new</text>
<text text-anchor="start" x="-230.098" y="-78.8" font-family="Times,serif" font-size="14.00">show</text>
<text text-anchor="start" x="-230.098" y="-64.8" font-family="Times,serif" font-size="14.00">update</text>
<polyline fill="none" stroke="black" points="-238.098,-58 -129.902,-58 "/>
<polyline fill="none" stroke="black" points="-238.098,-34 -129.902,-34 "/>
<text text-anchor="start" x="-230.098" y="-18.8" font-family="Times,serif" font-size="14.00">_layout</text>
<text text-anchor="start" x="-230.098" y="-4.8" font-family="Times,serif" font-size="14.00">set_want</text>
<text text-anchor="start" x="-230.098" y="9.2" font-family="Times,serif" font-size="14.00">want_params</text>
</g>
</g>
</svg>
