<?xml version="1.0" encoding="UTF-8" standalone="no"?>
<!DOCTYPE svg PUBLIC "-//W3C//DTD SVG 1.1//EN"
 "http://www.w3.org/Graphics/SVG/1.1/DTD/svg11.dtd">
<!-- Generated by graphviz version 2.38.0 (20140413.2041)
 -->
<!-- Title: controllers_diagram Pages: 1 -->
<svg width="867pt" height="804pt"
 viewBox="0.00 0.00 867.15 804.00" xmlns="http://www.w3.org/2000/svg" xmlns:xlink="http://www.w3.org/1999/xlink">
<g id="graph0" class="graph" transform="scale(1 1) rotate(0) translate(360.6 477.5)">
<title>controllers_diagram</title>
<polygon fill="white" stroke="none" points="-360.6,326.5 -360.6,-477.5 506.545,-477.5 506.545,326.5 -360.6,326.5"/>
<!-- _diagram_info -->
<g id="node1" class="node"><title>_diagram_info</title>
<text text-anchor="start" x="-127.688" y="144.9" font-family="Times,serif" font-size="13.00">Controllers diagram</text>
<text text-anchor="start" x="-127.688" y="157.9" font-family="Times,serif" font-size="13.00">Date: Aug 12 2015 &#45; 16:01</text>
<text text-anchor="start" x="-127.688" y="170.9" font-family="Times,serif" font-size="13.00">Migration version: 20150812051658</text>
<text text-anchor="start" x="-127.688" y="183.9" font-family="Times,serif" font-size="13.00">Generated by RailRoady 1.3.0</text>
<text text-anchor="start" x="-127.688" y="196.9" font-family="Times,serif" font-size="13.00">http://railroady.prestonlee.com</text>
</g>
<!-- AccountsController -->
<g id="node2" class="node"><title>AccountsController</title>
<path fill="none" stroke="black" d="M-39.2104,-358C-39.2104,-358 63.2104,-358 63.2104,-358 69.2104,-358 75.2104,-364 75.2104,-370 75.2104,-370 75.2104,-436 75.2104,-436 75.2104,-442 69.2104,-448 63.2104,-448 63.2104,-448 -39.2104,-448 -39.2104,-448 -45.2104,-448 -51.2104,-442 -51.2104,-436 -51.2104,-436 -51.2104,-370 -51.2104,-370 -51.2104,-364 -45.2104,-358 -39.2104,-358"/>
<text text-anchor="middle" x="12" y="-432.8" font-family="Times,serif" font-size="14.00">AccountsController</text>
<polyline fill="none" stroke="black" points="-51.2104,-426 75.2104,-426 "/>
<text text-anchor="start" x="-43.2104" y="-410.8" font-family="Times,serif" font-size="14.00">index</text>
<polyline fill="none" stroke="black" points="-51.2104,-404 75.2104,-404 "/>
<polyline fill="none" stroke="black" points="-51.2104,-380 75.2104,-380 "/>
<text text-anchor="start" x="-43.2104" y="-364.8" font-family="Times,serif" font-size="14.00">_layout</text>
</g>
<!-- ApplicationController -->
<g id="node3" class="node"><title>ApplicationController</title>
<path fill="none" stroke="black" d="M-89.9658,101C-89.9658,101 83.9658,101 83.9658,101 89.9658,101 95.9658,95 95.9658,89 95.9658,89 95.9658,-61 95.9658,-61 95.9658,-67 89.9658,-73 83.9658,-73 83.9658,-73 -89.9658,-73 -89.9658,-73 -95.9658,-73 -101.966,-67 -101.966,-61 -101.966,-61 -101.966,89 -101.966,89 -101.966,95 -95.9658,101 -89.9658,101"/>
<text text-anchor="middle" x="-3" y="-57.8" font-family="Times,serif" font-size="14.00">ApplicationController</text>
<polyline fill="none" stroke="black" points="-101.966,-51 95.9658,-51 "/>
<polyline fill="none" stroke="black" points="-101.966,-27 95.9658,-27 "/>
<text text-anchor="start" x="-93.9658" y="-11.8" font-family="Times,serif" font-size="14.00">after_sign_in_path_for</text>
<text text-anchor="start" x="-93.9658" y="2.2" font-family="Times,serif" font-size="14.00">after_sign_out_path_for</text>
<text text-anchor="start" x="-93.9658" y="16.2" font-family="Times,serif" font-size="14.00">android_request?</text>
<text text-anchor="start" x="-93.9658" y="30.2" font-family="Times,serif" font-size="14.00">configure_permitted_parameters</text>
<text text-anchor="start" x="-93.9658" y="44.2" font-family="Times,serif" font-size="14.00">ios_request?</text>
<text text-anchor="start" x="-93.9658" y="58.2" font-family="Times,serif" font-size="14.00">mobile_request?</text>
<text text-anchor="start" x="-93.9658" y="72.2" font-family="Times,serif" font-size="14.00">set_device</text>
<polyline fill="none" stroke="black" points="-101.966,79 95.9658,79 "/>
<text text-anchor="start" x="-93.9658" y="94.2" font-family="Times,serif" font-size="14.00">_layout</text>
</g>
<!-- CategoriesController -->
<g id="node4" class="node"><title>CategoriesController</title>
<path fill="none" stroke="black" d="M148.293,135C148.293,135 257.707,135 257.707,135 263.707,135 269.707,129 269.707,123 269.707,123 269.707,-55 269.707,-55 269.707,-61 263.707,-67 257.707,-67 257.707,-67 148.293,-67 148.293,-67 142.293,-67 136.293,-61 136.293,-55 136.293,-55 136.293,123 136.293,123 136.293,129 142.293,135 148.293,135"/>
<text text-anchor="middle" x="203" y="-51.8" font-family="Times,serif" font-size="14.00">CategoriesController</text>
<polyline fill="none" stroke="black" points="136.293,-45 269.707,-45 "/>
<text text-anchor="start" x="144.293" y="-29.8" font-family="Times,serif" font-size="14.00">create</text>
<text text-anchor="start" x="144.293" y="-15.8" font-family="Times,serif" font-size="14.00">destroy</text>
<text text-anchor="start" x="144.293" y="-1.8" font-family="Times,serif" font-size="14.00">edit</text>
<text text-anchor="start" x="144.293" y="12.2" font-family="Times,serif" font-size="14.00">index</text>
<text text-anchor="start" x="144.293" y="26.2" font-family="Times,serif" font-size="14.00">new</text>
<text text-anchor="start" x="144.293" y="40.2" font-family="Times,serif" font-size="14.00">show</text>
<text text-anchor="start" x="144.293" y="54.2" font-family="Times,serif" font-size="14.00">update</text>
<polyline fill="none" stroke="black" points="136.293,61 269.707,61 "/>
<polyline fill="none" stroke="black" points="136.293,85 269.707,85 "/>
<text text-anchor="start" x="144.293" y="100.2" font-family="Times,serif" font-size="14.00">_layout</text>
<text text-anchor="start" x="144.293" y="114.2" font-family="Times,serif" font-size="14.00">category_params</text>
<text text-anchor="start" x="144.293" y="128.2" font-family="Times,serif" font-size="14.00">set_category</text>
</g>
<!-- ContractsController -->
<g id="node5" class="node"><title>ContractsController</title>
<path fill="none" stroke="black" d="M-191.6,-205C-191.6,-205 -88.3999,-205 -88.3999,-205 -82.3999,-205 -76.3999,-211 -76.3999,-217 -76.3999,-217 -76.3999,-395 -76.3999,-395 -76.3999,-401 -82.3999,-407 -88.3999,-407 -88.3999,-407 -191.6,-407 -191.6,-407 -197.6,-407 -203.6,-401 -203.6,-395 -203.6,-395 -203.6,-217 -203.6,-217 -203.6,-211 -197.6,-205 -191.6,-205"/>
<text text-anchor="middle" x="-140" y="-391.8" font-family="Times,serif" font-size="14.00">ContractsController</text>
<polyline fill="none" stroke="black" points="-203.6,-385 -76.3999,-385 "/>
<text text-anchor="start" x="-195.6" y="-369.8" font-family="Times,serif" font-size="14.00">create</text>
<text text-anchor="start" x="-195.6" y="-355.8" font-family="Times,serif" font-size="14.00">destroy</text>
<text text-anchor="start" x="-195.6" y="-341.8" font-family="Times,serif" font-size="14.00">edit</text>
<text text-anchor="start" x="-195.6" y="-327.8" font-family="Times,serif" font-size="14.00">index</text>
<text text-anchor="start" x="-195.6" y="-313.8" font-family="Times,serif" font-size="14.00">new</text>
<text text-anchor="start" x="-195.6" y="-299.8" font-family="Times,serif" font-size="14.00">show</text>
<text text-anchor="start" x="-195.6" y="-285.8" font-family="Times,serif" font-size="14.00">update</text>
<polyline fill="none" stroke="black" points="-203.6,-279 -76.3999,-279 "/>
<polyline fill="none" stroke="black" points="-203.6,-255 -76.3999,-255 "/>
<text text-anchor="start" x="-195.6" y="-239.8" font-family="Times,serif" font-size="14.00">_layout</text>
<text text-anchor="start" x="-195.6" y="-225.8" font-family="Times,serif" font-size="14.00">entry_params</text>
<text text-anchor="start" x="-195.6" y="-211.8" font-family="Times,serif" font-size="14.00">set_entry</text>
</g>
<!-- EntriesController -->
<g id="node6" class="node"><title>EntriesController</title>
<path fill="none" stroke="black" d="M-344.6,-205C-344.6,-205 -255.4,-205 -255.4,-205 -249.4,-205 -243.4,-211 -243.4,-217 -243.4,-217 -243.4,-297 -243.4,-297 -243.4,-303 -249.4,-309 -255.4,-309 -255.4,-309 -344.6,-309 -344.6,-309 -350.6,-309 -356.6,-303 -356.6,-297 -356.6,-297 -356.6,-217 -356.6,-217 -356.6,-211 -350.6,-205 -344.6,-205"/>
<text text-anchor="middle" x="-300" y="-293.8" font-family="Times,serif" font-size="14.00">EntriesController</text>
<polyline fill="none" stroke="black" points="-356.6,-287 -243.4,-287 "/>
<text text-anchor="start" x="-348.6" y="-271.8" font-family="Times,serif" font-size="14.00">create</text>
<text text-anchor="start" x="-348.6" y="-257.8" font-family="Times,serif" font-size="14.00">destroy</text>
<polyline fill="none" stroke="black" points="-356.6,-251 -243.4,-251 "/>
<polyline fill="none" stroke="black" points="-356.6,-227 -243.4,-227 "/>
<text text-anchor="start" x="-348.6" y="-211.8" font-family="Times,serif" font-size="14.00">_layout</text>
</g>
<!-- EntrustsController -->
<g id="node7" class="node"><title>EntrustsController</title>
<path fill="none" stroke="black" d="M-276.717,288C-276.717,288 -181.283,288 -181.283,288 -175.283,288 -169.283,282 -169.283,276 -169.283,276 -169.283,98 -169.283,98 -169.283,92 -175.283,86 -181.283,86 -181.283,86 -276.717,86 -276.717,86 -282.717,86 -288.717,92 -288.717,98 -288.717,98 -288.717,276 -288.717,276 -288.717,282 -282.717,288 -276.717,288"/>
<text text-anchor="middle" x="-229" y="101.2" font-family="Times,serif" font-size="14.00">EntrustsController</text>
<polyline fill="none" stroke="black" points="-288.717,108 -169.283,108 "/>
<text text-anchor="start" x="-280.717" y="123.2" font-family="Times,serif" font-size="14.00">create</text>
<text text-anchor="start" x="-280.717" y="137.2" font-family="Times,serif" font-size="14.00">destroy</text>
<text text-anchor="start" x="-280.717" y="151.2" font-family="Times,serif" font-size="14.00">edit</text>
<text text-anchor="start" x="-280.717" y="165.2" font-family="Times,serif" font-size="14.00">index</text>
<text text-anchor="start" x="-280.717" y="179.2" font-family="Times,serif" font-size="14.00">new</text>
<text text-anchor="start" x="-280.717" y="193.2" font-family="Times,serif" font-size="14.00">show</text>
<text text-anchor="start" x="-280.717" y="207.2" font-family="Times,serif" font-size="14.00">update</text>
<polyline fill="none" stroke="black" points="-288.717,214 -169.283,214 "/>
<polyline fill="none" stroke="black" points="-288.717,238 -169.283,238 "/>
<text text-anchor="start" x="-280.717" y="253.2" font-family="Times,serif" font-size="14.00">_layout</text>
<text text-anchor="start" x="-280.717" y="267.2" font-family="Times,serif" font-size="14.00">entry_params</text>
<text text-anchor="start" x="-280.717" y="281.2" font-family="Times,serif" font-size="14.00">set_entry</text>
</g>
<!-- HomeController -->
<g id="node8" class="node"><title>HomeController</title>
<path fill="none" stroke="black" d="M318.121,305C318.121,305 401.879,305 401.879,305 407.879,305 413.879,299 413.879,293 413.879,293 413.879,129 413.879,129 413.879,123 407.879,117 401.879,117 401.879,117 318.121,117 318.121,117 312.121,117 306.121,123 306.121,129 306.121,129 306.121,293 306.121,293 306.121,299 312.121,305 318.121,305"/>
<text text-anchor="middle" x="360" y="132.2" font-family="Times,serif" font-size="14.00">HomeController</text>
<polyline fill="none" stroke="black" points="306.121,139 413.879,139 "/>
<text text-anchor="start" x="314.121" y="154.2" font-family="Times,serif" font-size="14.00">about</text>
<text text-anchor="start" x="314.121" y="168.2" font-family="Times,serif" font-size="14.00">contact</text>
<text text-anchor="start" x="314.121" y="182.2" font-family="Times,serif" font-size="14.00">detailed</text>
<text text-anchor="start" x="314.121" y="196.2" font-family="Times,serif" font-size="14.00">index</text>
<text text-anchor="start" x="314.121" y="210.2" font-family="Times,serif" font-size="14.00">need_help</text>
<text text-anchor="start" x="314.121" y="224.2" font-family="Times,serif" font-size="14.00">new_display</text>
<text text-anchor="start" x="314.121" y="238.2" font-family="Times,serif" font-size="14.00">status</text>
<text text-anchor="start" x="314.121" y="252.2" font-family="Times,serif" font-size="14.00">watch_list</text>
<polyline fill="none" stroke="black" points="306.121,259 413.879,259 "/>
<polyline fill="none" stroke="black" points="306.121,283 413.879,283 "/>
<text text-anchor="start" x="314.121" y="298.2" font-family="Times,serif" font-size="14.00">_layout</text>
</g>
<!-- NegotiationsController -->
<g id="node9" class="node"><title>NegotiationsController</title>
<path fill="none" stroke="black" d="M369.455,-358C369.455,-358 490.545,-358 490.545,-358 496.545,-358 502.545,-364 502.545,-370 502.545,-370 502.545,-450 502.545,-450 502.545,-456 496.545,-462 490.545,-462 490.545,-462 369.455,-462 369.455,-462 363.455,-462 357.455,-456 357.455,-450 357.455,-450 357.455,-370 357.455,-370 357.455,-364 363.455,-358 369.455,-358"/>
<text text-anchor="middle" x="430" y="-446.8" font-family="Times,serif" font-size="14.00">NegotiationsController</text>
<polyline fill="none" stroke="black" points="357.455,-440 502.545,-440 "/>
<text text-anchor="start" x="365.455" y="-424.8" font-family="Times,serif" font-size="14.00">create</text>
<polyline fill="none" stroke="black" points="357.455,-418 502.545,-418 "/>
<polyline fill="none" stroke="black" points="357.455,-394 502.545,-394 "/>
<text text-anchor="start" x="365.455" y="-378.8" font-family="Times,serif" font-size="14.00">_layout</text>
<text text-anchor="start" x="365.455" y="-364.8" font-family="Times,serif" font-size="14.00">negotiation_params</text>
</g>
<!-- NotificationsController -->
<g id="node10" class="node"><title>NotificationsController</title>
<path fill="none" stroke="black" d="M114.062,-103C114.062,-103 235.938,-103 235.938,-103 241.938,-103 247.938,-109 247.938,-115 247.938,-115 247.938,-293 247.938,-293 247.938,-299 241.938,-305 235.938,-305 235.938,-305 114.062,-305 114.062,-305 108.062,-305 102.062,-299 102.062,-293 102.062,-293 102.062,-115 102.062,-115 102.062,-109 108.062,-103 114.062,-103"/>
<text text-anchor="middle" x="175" y="-289.8" font-family="Times,serif" font-size="14.00">NotificationsController</text>
<polyline fill="none" stroke="black" points="102.062,-283 247.938,-283 "/>
<text text-anchor="start" x="110.062" y="-267.8" font-family="Times,serif" font-size="14.00">create</text>
<text text-anchor="start" x="110.062" y="-253.8" font-family="Times,serif" font-size="14.00">destroy</text>
<text text-anchor="start" x="110.062" y="-239.8" font-family="Times,serif" font-size="14.00">edit</text>
<text text-anchor="start" x="110.062" y="-225.8" font-family="Times,serif" font-size="14.00">index</text>
<text text-anchor="start" x="110.062" y="-211.8" font-family="Times,serif" font-size="14.00">new</text>
<text text-anchor="start" x="110.062" y="-197.8" font-family="Times,serif" font-size="14.00">show</text>
<text text-anchor="start" x="110.062" y="-183.8" font-family="Times,serif" font-size="14.00">update</text>
<polyline fill="none" stroke="black" points="102.062,-177 247.938,-177 "/>
<polyline fill="none" stroke="black" points="102.062,-153 247.938,-153 "/>
<text text-anchor="start" x="110.062" y="-137.8" font-family="Times,serif" font-size="14.00">_layout</text>
<text text-anchor="start" x="110.062" y="-123.8" font-family="Times,serif" font-size="14.00">notification_params</text>
<text text-anchor="start" x="110.062" y="-109.8" font-family="Times,serif" font-size="14.00">set_notification</text>
</g>
<!-- OfferingsController -->
<g id="node11" class="node"><title>OfferingsController</title>
<path fill="none" stroke="black" d="M-39.4736,-103C-39.4736,-103 63.4736,-103 63.4736,-103 69.4736,-103 75.4736,-109 75.4736,-115 75.4736,-115 75.4736,-307 75.4736,-307 75.4736,-313 69.4736,-319 63.4736,-319 63.4736,-319 -39.4736,-319 -39.4736,-319 -45.4736,-319 -51.4736,-313 -51.4736,-307 -51.4736,-307 -51.4736,-115 -51.4736,-115 -51.4736,-109 -45.4736,-103 -39.4736,-103"/>
<text text-anchor="middle" x="12" y="-303.8" font-family="Times,serif" font-size="14.00">OfferingsController</text>
<polyline fill="none" stroke="black" points="-51.4736,-297 75.4736,-297 "/>
<text text-anchor="start" x="-43.4736" y="-281.8" font-family="Times,serif" font-size="14.00">create</text>
<text text-anchor="start" x="-43.4736" y="-267.8" font-family="Times,serif" font-size="14.00">destroy</text>
<text text-anchor="start" x="-43.4736" y="-253.8" font-family="Times,serif" font-size="14.00">edit</text>
<text text-anchor="start" x="-43.4736" y="-239.8" font-family="Times,serif" font-size="14.00">index</text>
<text text-anchor="start" x="-43.4736" y="-225.8" font-family="Times,serif" font-size="14.00">new</text>
<text text-anchor="start" x="-43.4736" y="-211.8" font-family="Times,serif" font-size="14.00">show</text>
<text text-anchor="start" x="-43.4736" y="-197.8" font-family="Times,serif" font-size="14.00">update</text>
<polyline fill="none" stroke="black" points="-51.4736,-191 75.4736,-191 "/>
<polyline fill="none" stroke="black" points="-51.4736,-167 75.4736,-167 "/>
<text text-anchor="start" x="-43.4736" y="-151.8" font-family="Times,serif" font-size="14.00">_layout</text>
<text text-anchor="start" x="-43.4736" y="-137.8" font-family="Times,serif" font-size="14.00">offering_params</text>
<text text-anchor="start" x="-43.4736" y="-123.8" font-family="Times,serif" font-size="14.00">set_offering</text>
<text text-anchor="start" x="-43.4736" y="-109.8" font-family="Times,serif" font-size="14.00">update_hire</text>
</g>
<!-- PaymentsController -->
<g id="node12" class="node"><title>PaymentsController</title>
<path fill="none" stroke="black" d="M318.007,84C318.007,84 421.993,84 421.993,84 427.993,84 433.993,78 433.993,72 433.993,72 433.993,-64 433.993,-64 433.993,-70 427.993,-76 421.993,-76 421.993,-76 318.007,-76 318.007,-76 312.007,-76 306.007,-70 306.007,-64 306.007,-64 306.007,72 306.007,72 306.007,78 312.007,84 318.007,84"/>
<text text-anchor="middle" x="370" y="-60.8" font-family="Times,serif" font-size="14.00">PaymentsController</text>
<polyline fill="none" stroke="black" points="306.007,-54 433.993,-54 "/>
<text text-anchor="start" x="314.007" y="-38.8" font-family="Times,serif" font-size="14.00">create</text>
<text text-anchor="start" x="314.007" y="-24.8" font-family="Times,serif" font-size="14.00">index</text>
<text text-anchor="start" x="314.007" y="-10.8" font-family="Times,serif" font-size="14.00">new</text>
<text text-anchor="start" x="314.007" y="3.2" font-family="Times,serif" font-size="14.00">show</text>
<polyline fill="none" stroke="black" points="306.007,10 433.993,10 "/>
<polyline fill="none" stroke="black" points="306.007,34 433.993,34 "/>
<text text-anchor="start" x="314.007" y="49.2" font-family="Times,serif" font-size="14.00">_layout</text>
<text text-anchor="start" x="314.007" y="63.2" font-family="Times,serif" font-size="14.00">payment_params</text>
<text text-anchor="start" x="314.007" y="77.2" font-family="Times,serif" font-size="14.00">set_payment</text>
</g>
<!-- RelationshipsController -->
<g id="node13" class="node"><title>RelationshipsController</title>
<path fill="none" stroke="black" d="M114.117,-341C114.117,-341 239.883,-341 239.883,-341 245.883,-341 251.883,-347 251.883,-353 251.883,-353 251.883,-433 251.883,-433 251.883,-439 245.883,-445 239.883,-445 239.883,-445 114.117,-445 114.117,-445 108.117,-445 102.117,-439 102.117,-433 102.117,-433 102.117,-353 102.117,-353 102.117,-347 108.117,-341 114.117,-341"/>
<text text-anchor="middle" x="177" y="-429.8" font-family="Times,serif" font-size="14.00">RelationshipsController</text>
<polyline fill="none" stroke="black" points="102.117,-423 251.883,-423 "/>
<text text-anchor="start" x="110.117" y="-407.8" font-family="Times,serif" font-size="14.00">create</text>
<text text-anchor="start" x="110.117" y="-393.8" font-family="Times,serif" font-size="14.00">destroy</text>
<polyline fill="none" stroke="black" points="102.117,-387 251.883,-387 "/>
<polyline fill="none" stroke="black" points="102.117,-363 251.883,-363 "/>
<text text-anchor="start" x="110.117" y="-347.8" font-family="Times,serif" font-size="14.00">_layout</text>
</g>
<!-- TalksController -->
<g id="node14" class="node"><title>TalksController</title>
<path fill="none" stroke="black" d="M-327.835,-341C-327.835,-341 -248.165,-341 -248.165,-341 -242.165,-341 -236.165,-347 -236.165,-353 -236.165,-353 -236.165,-461 -236.165,-461 -236.165,-467 -242.165,-473 -248.165,-473 -248.165,-473 -327.835,-473 -327.835,-473 -333.835,-473 -339.835,-467 -339.835,-461 -339.835,-461 -339.835,-353 -339.835,-353 -339.835,-347 -333.835,-341 -327.835,-341"/>
<text text-anchor="middle" x="-288" y="-457.8" font-family="Times,serif" font-size="14.00">TalksController</text>
<polyline fill="none" stroke="black" points="-339.835,-451 -236.165,-451 "/>
<text text-anchor="start" x="-331.835" y="-435.8" font-family="Times,serif" font-size="14.00">create</text>
<text text-anchor="start" x="-331.835" y="-421.8" font-family="Times,serif" font-size="14.00">index</text>
<text text-anchor="start" x="-331.835" y="-407.8" font-family="Times,serif" font-size="14.00">new</text>
<polyline fill="none" stroke="black" points="-339.835,-401 -236.165,-401 "/>
<polyline fill="none" stroke="black" points="-339.835,-377 -236.165,-377 "/>
<text text-anchor="start" x="-331.835" y="-361.8" font-family="Times,serif" font-size="14.00">_layout</text>
<text text-anchor="start" x="-331.835" y="-347.8" font-family="Times,serif" font-size="14.00">talk_params</text>
</g>
<!-- User::RegistrationsController -->
<g id="node15" class="node"><title>User::RegistrationsController</title>
<path fill="none" stroke="black" d="M12.1792,322C12.1792,322 169.821,322 169.821,322 175.821,322 181.821,316 181.821,310 181.821,310 181.821,244 181.821,244 181.821,238 175.821,232 169.821,232 169.821,232 12.1792,232 12.1792,232 6.1792,232 0.179199,238 0.179199,244 0.179199,244 0.179199,310 0.179199,310 0.179199,316 6.1792,322 12.1792,322"/>
<text text-anchor="middle" x="91" y="247.2" font-family="Times,serif" font-size="14.00">User::RegistrationsController</text>
<polyline fill="none" stroke="black" points="0.179199,254 181.821,254 "/>
<text text-anchor="start" x="8.1792" y="269.2" font-family="Times,serif" font-size="14.00">create</text>
<polyline fill="none" stroke="black" points="0.179199,276 181.821,276 "/>
<polyline fill="none" stroke="black" points="0.179199,300 181.821,300 "/>
<text text-anchor="start" x="8.1792" y="315.2" font-family="Times,serif" font-size="14.00">_layout</text>
</g>
<!-- UsersController -->
<g id="node16" class="node"><title>UsersController</title>
<path fill="none" stroke="black" d="M-225.714,50C-225.714,50 -144.286,50 -144.286,50 -138.286,50 -132.286,44 -132.286,38 -132.286,38 -132.286,-154 -132.286,-154 -132.286,-160 -138.286,-166 -144.286,-166 -144.286,-166 -225.714,-166 -225.714,-166 -231.714,-166 -237.714,-160 -237.714,-154 -237.714,-154 -237.714,38 -237.714,38 -237.714,44 -231.714,50 -225.714,50"/>
<text text-anchor="middle" x="-185" y="-150.8" font-family="Times,serif" font-size="14.00">UsersController</text>
<polyline fill="none" stroke="black" points="-237.714,-144 -132.286,-144 "/>
<text text-anchor="start" x="-229.714" y="-128.8" font-family="Times,serif" font-size="14.00">contracts</text>
<text text-anchor="start" x="-229.714" y="-114.8" font-family="Times,serif" font-size="14.00">entries</text>
<text text-anchor="start" x="-229.714" y="-100.8" font-family="Times,serif" font-size="14.00">entrusts</text>
<text text-anchor="start" x="-229.714" y="-86.8" font-family="Times,serif" font-size="14.00">followers</text>
<text text-anchor="start" x="-229.714" y="-72.8" font-family="Times,serif" font-size="14.00">following</text>
<text text-anchor="start" x="-229.714" y="-58.8" font-family="Times,serif" font-size="14.00">index</text>
<text text-anchor="start" x="-229.714" y="-44.8" font-family="Times,serif" font-size="14.00">offerings</text>
<text text-anchor="start" x="-229.714" y="-30.8" font-family="Times,serif" font-size="14.00">show</text>
<text text-anchor="start" x="-229.714" y="-16.8" font-family="Times,serif" font-size="14.00">talks</text>
<text text-anchor="start" x="-229.714" y="-2.8" font-family="Times,serif" font-size="14.00">wants</text>
<polyline fill="none" stroke="black" points="-237.714,4 -132.286,4 "/>
<polyline fill="none" stroke="black" points="-237.714,28 -132.286,28 "/>
<text text-anchor="start" x="-229.714" y="43.2" font-family="Times,serif" font-size="14.00">_layout</text>
</g>
<!-- WantsController -->
<g id="node17" class="node"><title>WantsController</title>
<path fill="none" stroke="black" d="M300.902,-103C300.902,-103 385.098,-103 385.098,-103 391.098,-103 397.098,-109 397.098,-115 397.098,-115 397.098,-307 397.098,-307 397.098,-313 391.098,-319 385.098,-319 385.098,-319 300.902,-319 300.902,-319 294.902,-319 288.902,-313 288.902,-307 288.902,-307 288.902,-115 288.902,-115 288.902,-109 294.902,-103 300.902,-103"/>
<text text-anchor="middle" x="343" y="-303.8" font-family="Times,serif" font-size="14.00">WantsController</text>
<polyline fill="none" stroke="black" points="288.902,-297 397.098,-297 "/>
<text text-anchor="start" x="296.902" y="-281.8" font-family="Times,serif" font-size="14.00">create</text>
<text text-anchor="start" x="296.902" y="-267.8" font-family="Times,serif" font-size="14.00">destroy</text>
<text text-anchor="start" x="296.902" y="-253.8" font-family="Times,serif" font-size="14.00">edit</text>
<text text-anchor="start" x="296.902" y="-239.8" font-family="Times,serif" font-size="14.00">index</text>
<text text-anchor="start" x="296.902" y="-225.8" font-family="Times,serif" font-size="14.00">new</text>
<text text-anchor="start" x="296.902" y="-211.8" font-family="Times,serif" font-size="14.00">show</text>
<text text-anchor="start" x="296.902" y="-197.8" font-family="Times,serif" font-size="14.00">update</text>
<polyline fill="none" stroke="black" points="288.902,-191 397.098,-191 "/>
<polyline fill="none" stroke="black" points="288.902,-167 397.098,-167 "/>
<text text-anchor="start" x="296.902" y="-151.8" font-family="Times,serif" font-size="14.00">_layout</text>
<text text-anchor="start" x="296.902" y="-137.8" font-family="Times,serif" font-size="14.00">set_want</text>
<text text-anchor="start" x="296.902" y="-123.8" font-family="Times,serif" font-size="14.00">update_hire</text>
<text text-anchor="start" x="296.902" y="-109.8" font-family="Times,serif" font-size="14.00">want_params</text>
</g>
</g>
</svg>
