<?xml version="1.0" encoding="UTF-8" standalone="no"?>
<!DOCTYPE svg PUBLIC "-//W3C//DTD SVG 1.1//EN"
 "http://www.w3.org/Graphics/SVG/1.1/DTD/svg11.dtd">
<!-- Generated by graphviz version 2.38.0 (20140413.2041)
 -->
<!-- Title: models_diagram Pages: 1 -->
<svg width="516pt" height="297pt"
 viewBox="0.00 0.00 515.75 297.00" xmlns="http://www.w3.org/2000/svg" xmlns:xlink="http://www.w3.org/1999/xlink">
<g id="graph0" class="graph" transform="scale(1 1) rotate(0) translate(4 293)">
<title>models_diagram</title>
<polygon fill="white" stroke="none" points="-4,4 -4,-293 511.754,-293 511.754,4 -4,4"/>
<!-- _diagram_info -->
<g id="node1" class="node"><title>_diagram_info</title>
<text text-anchor="start" x="8" y="-274.6" font-family="Times,serif" font-size="13.00">Models diagram</text>
<text text-anchor="start" x="8" y="-261.6" font-family="Times,serif" font-size="13.00">Date: Aug 20 2014 &#45; 17:00</text>
<text text-anchor="start" x="8" y="-248.6" font-family="Times,serif" font-size="13.00">Migration version: 20140819082702</text>
<text text-anchor="start" x="8" y="-235.6" font-family="Times,serif" font-size="13.00">Generated by RailRoady 1.1.2</text>
<text text-anchor="start" x="8" y="-222.6" font-family="Times,serif" font-size="13.00">http://railroady.prestonlee.com</text>
</g>
<!-- Account -->
<g id="node2" class="node"><title>Account</title>
<ellipse fill="none" stroke="black" cx="467.688" cy="-90" rx="40.1317" ry="18"/>
<text text-anchor="middle" x="467.688" y="-85.8" font-family="Times,serif" font-size="14.00">Account</text>
</g>
<!-- Payment -->
<g id="node6" class="node"><title>Payment</title>
<ellipse fill="none" stroke="black" cx="289.688" cy="-18" rx="41.1093" ry="18"/>
<text text-anchor="middle" x="289.688" y="-13.8" font-family="Times,serif" font-size="14.00">Payment</text>
</g>
<!-- Account&#45;&gt;Payment -->
<g id="edge1" class="edge"><title>Account&#45;&gt;Payment</title>
<path fill="none" stroke="#59cacc" d="M430.634,-74.4283C400.763,-62.6811 358.88,-46.2104 328.54,-34.2789"/>
<ellipse fill="none" stroke="#59cacc" cx="434.572" cy="-75.977" rx="4.00001" ry="4.00001"/>
<polygon fill="#59cacc" stroke="#59cacc" points="328.431,-34.2361 320.771,-26.3884 323.778,-32.4062 319.124,-30.5762 319.124,-30.5762 319.124,-30.5762 323.778,-32.4062 317.478,-34.7641 328.431,-34.2361 328.431,-34.2361"/>
</g>
<!-- Category -->
<g id="node3" class="node"><title>Category</title>
<ellipse fill="none" stroke="black" cx="182.688" cy="-162" rx="42.5456" ry="18"/>
<text text-anchor="middle" x="182.688" y="-157.8" font-family="Times,serif" font-size="14.00">Category</text>
</g>
<!-- Offering -->
<g id="node5" class="node"><title>Offering</title>
<ellipse fill="none" stroke="black" cx="269.688" cy="-90" rx="40.2968" ry="18"/>
<text text-anchor="middle" x="269.688" y="-85.8" font-family="Times,serif" font-size="14.00">Offering</text>
</g>
<!-- Category&#45;&gt;Offering -->
<g id="edge3" class="edge"><title>Category&#45;&gt;Offering</title>
<path fill="none" stroke="#d6516b" d="M208.018,-140.619C218.924,-131.845 231.687,-121.575 242.764,-112.663"/>
<ellipse fill="none" stroke="#d6516b" cx="204.682" cy="-143.304" rx="4.00002" ry="4.00002"/>
<polygon fill="#d6516b" stroke="#d6516b" points="243.056,-112.428 253.668,-109.665 246.951,-109.294 250.847,-106.159 250.847,-106.159 250.847,-106.159 246.951,-109.294 248.026,-102.653 243.056,-112.428 243.056,-112.428"/>
</g>
<!-- Want -->
<g id="node9" class="node"><title>Want</title>
<ellipse fill="none" stroke="black" cx="182.688" cy="-90" rx="28.6076" ry="18"/>
<text text-anchor="middle" x="182.688" y="-85.8" font-family="Times,serif" font-size="14.00">Want</text>
</g>
<!-- Category&#45;&gt;Want -->
<g id="edge4" class="edge"><title>Category&#45;&gt;Want</title>
<path fill="none" stroke="#1263bc" d="M182.688,-135.64C182.688,-130.063 182.688,-124.132 182.688,-118.476"/>
<ellipse fill="none" stroke="#1263bc" cx="182.688" cy="-139.697" rx="4" ry="4"/>
<polygon fill="#1263bc" stroke="#1263bc" points="182.688,-118.104 187.188,-108.104 182.688,-113.104 182.688,-108.104 182.688,-108.104 182.688,-108.104 182.688,-113.104 178.188,-108.104 182.688,-118.104 182.688,-118.104"/>
</g>
<!-- Message -->
<g id="node4" class="node"><title>Message</title>
<ellipse fill="none" stroke="black" cx="368.688" cy="-90" rx="41.1007" ry="18"/>
<text text-anchor="middle" x="368.688" y="-85.8" font-family="Times,serif" font-size="14.00">Message</text>
</g>
<!-- Task -->
<g id="node7" class="node"><title>Task</title>
<ellipse fill="none" stroke="black" cx="270.688" cy="-162" rx="27" ry="18"/>
<text text-anchor="middle" x="270.688" y="-157.8" font-family="Times,serif" font-size="14.00">Task</text>
</g>
<!-- Task&#45;&gt;Offering -->
<g id="edge7" class="edge"><title>Task&#45;&gt;Offering</title>
<path fill="none" stroke="black" d="M270.441,-143.697C270.286,-132.846 270.087,-118.917 269.932,-108.104"/>
</g>
<!-- Task&#45;&gt;Want -->
<g id="edge15" class="edge"><title>Task&#45;&gt;Want</title>
<path fill="none" stroke="black" d="M253.72,-147.503C238.238,-135.187 215.463,-117.072 199.903,-104.694"/>
</g>
<!-- User -->
<g id="node8" class="node"><title>User</title>
<ellipse fill="none" stroke="black" cx="342.688" cy="-162" rx="27" ry="18"/>
<text text-anchor="middle" x="342.688" y="-157.8" font-family="Times,serif" font-size="14.00">User</text>
</g>
<!-- User&#45;&gt;Account -->
<g id="edge13" class="edge"><title>User&#45;&gt;Account</title>
<path fill="none" stroke="#fb9093" d="M369.841,-145.794C389.343,-134.873 415.687,-120.12 436.127,-108.674"/>
<ellipse fill="none" stroke="#fb9093" cx="366.261" cy="-147.799" rx="4.00002" ry="4.00002"/>
<ellipse fill="#fb9093" stroke="#fb9093" cx="439.876" cy="-106.574" rx="4.00002" ry="4.00002"/>
</g>
<!-- User&#45;&gt;Message -->
<g id="edge12" class="edge"><title>User&#45;&gt;Message</title>
<path fill="none" stroke="#ecb56f" d="M351.685,-136.778C354,-130.544 356.503,-123.805 358.858,-117.463"/>
<ellipse fill="none" stroke="#ecb56f" cx="350.242" cy="-140.661" rx="4.00001" ry="4.00001"/>
<polygon fill="#ecb56f" stroke="#ecb56f" points="358.908,-117.33 366.608,-109.523 360.649,-112.643 362.39,-107.956 362.39,-107.956 362.39,-107.956 360.649,-112.643 358.171,-106.389 358.908,-117.33 358.908,-117.33"/>
</g>
<!-- User&#45;&gt;Offering -->
<g id="edge10" class="edge"><title>User&#45;&gt;Offering</title>
<path fill="none" stroke="#81dd24" d="M321.879,-141.046C312.974,-132.507 302.529,-122.492 293.333,-113.673"/>
<ellipse fill="none" stroke="#81dd24" cx="325.028" cy="-144.066" rx="4.00002" ry="4.00002"/>
<polygon fill="#81dd24" stroke="#81dd24" points="293.18,-113.527 289.077,-103.358 289.571,-110.067 285.962,-106.606 285.962,-106.606 285.962,-106.606 289.571,-110.067 282.848,-109.854 293.18,-113.527 293.18,-113.527"/>
</g>
<!-- User&#45;&gt;Want -->
<g id="edge11" class="edge"><title>User&#45;&gt;Want</title>
<path fill="none" stroke="#f25bf3" d="M314.052,-147.336C311.568,-146.194 309.087,-145.068 306.688,-144 268.833,-127.149 258.713,-124.462 220.688,-108 218.64,-107.113 216.533,-106.194 214.412,-105.261"/>
<ellipse fill="none" stroke="#f25bf3" cx="317.813" cy="-149.086" rx="4.00002" ry="4.00002"/>
<polygon fill="#f25bf3" stroke="#f25bf3" points="214.295,-105.21 206.976,-97.0441 209.724,-103.184 205.153,-101.158 205.153,-101.158 205.153,-101.158 209.724,-103.184 203.33,-105.272 214.295,-105.21 214.295,-105.21"/>
</g>
<!-- ActiveRecord::Base -->
<g id="node10" class="node"><title>ActiveRecord::Base</title>
<ellipse fill="none" stroke="black" cx="306.688" cy="-252.5" rx="81.1422" ry="18"/>
<text text-anchor="middle" x="306.688" y="-248.3" font-family="Times,serif" font-size="14.00">ActiveRecord::Base</text>
</g>
<!-- ActiveRecord::Base&#45;&gt;Account -->
<g id="edge2" class="edge"><title>ActiveRecord::Base&#45;&gt;Account</title>
<path fill="none" stroke="black" d="M329.434,-235.035C347.854,-221.239 374.039,-200.553 394.688,-180 418.341,-156.456 442.199,-125.755 455.93,-107.255"/>
</g>
<!-- ActiveRecord::Base&#45;&gt;Category -->
<g id="edge5" class="edge"><title>ActiveRecord::Base&#45;&gt;Category</title>
<path fill="none" stroke="black" d="M283.655,-235.061C260.682,-218.665 225.706,-193.703 203.534,-177.878"/>
</g>
<!-- ActiveRecord::Base&#45;&gt;Message -->
<g id="edge6" class="edge"><title>ActiveRecord::Base&#45;&gt;Message</title>
<path fill="none" stroke="black" d="M331.443,-235.06C348.27,-222.293 369.142,-202.932 378.688,-180 388.547,-156.315 381.543,-126.189 375.317,-107.764"/>
</g>
<!-- ActiveRecord::Base&#45;&gt;Payment -->
<g id="edge8" class="edge"><title>ActiveRecord::Base&#45;&gt;Payment</title>
<path fill="none" stroke="black" d="M268.778,-236.401C217.355,-215.877 131.718,-181.53 130.688,-180 116.289,-158.609 137.072,-80.9289 144.688,-72 171.039,-41.1059 216.983,-28.216 250.102,-22.8405"/>
</g>
<!-- ActiveRecord::Base&#45;&gt;Task -->
<g id="edge9" class="edge"><title>ActiveRecord::Base&#45;&gt;Task</title>
<path fill="none" stroke="black" d="M299.747,-234.436C293.331,-218.665 283.855,-195.37 277.486,-179.711"/>
</g>
<!-- ActiveRecord::Base&#45;&gt;User -->
<g id="edge14" class="edge"><title>ActiveRecord::Base&#45;&gt;User</title>
<path fill="none" stroke="black" d="M313.629,-234.436C320.045,-218.665 329.52,-195.37 335.89,-179.711"/>
</g>
</g>
</svg>
