<?xml version="1.0" encoding="UTF-8" standalone="no"?>
<!DOCTYPE svg PUBLIC "-//W3C//DTD SVG 1.1//EN"
 "http://www.w3.org/Graphics/SVG/1.1/DTD/svg11.dtd">
<!-- Generated by graphviz version 2.38.0 (20140413.2041)
 -->
<!-- Title: models_diagram Pages: 1 -->
<svg width="1407pt" height="1345pt"
 viewBox="0.00 0.00 1407.19 1345.00" xmlns="http://www.w3.org/2000/svg" xmlns:xlink="http://www.w3.org/1999/xlink">
<g id="graph0" class="graph" transform="scale(1 1) rotate(0) translate(4 1341)">
<title>models_diagram</title>
<polygon fill="none" stroke="none" points="-4,4 -4,-1341 1403.19,-1341 1403.19,4 -4,4"/>
<!-- _diagram_info -->
<g id="node1" class="node"><title>_diagram_info</title>
<text text-anchor="start" x="8" y="-1182.6" font-family="Times,serif" font-size="13.00">Models diagram</text>
<text text-anchor="start" x="8" y="-1169.6" font-family="Times,serif" font-size="13.00">Date: Sep 09 2015 &#45; 11:44</text>
<text text-anchor="start" x="8" y="-1156.6" font-family="Times,serif" font-size="13.00">Migration version: 20150909010032</text>
<text text-anchor="start" x="8" y="-1143.6" font-family="Times,serif" font-size="13.00">Generated by RailRoady 1.3.1</text>
<text text-anchor="start" x="8" y="-1130.6" font-family="Times,serif" font-size="13.00">http://railroady.prestonlee.com</text>
</g>
<!-- Ability -->
<g id="node2" class="node"><title>Ability</title>
<polygon fill="none" stroke="black" points="225.853,-1138.5 225.853,-1182.5 281.522,-1182.5 281.522,-1138.5 225.853,-1138.5"/>
<text text-anchor="middle" x="253.688" y="-1167.3" font-family="Times,serif" font-size="14.00">Ability</text>
<polyline fill="none" stroke="black" points="225.853,-1160.5 281.522,-1160.5 "/>
<text text-anchor="middle" x="253.688" y="-1145.3" font-family="Times,serif" font-size="14.00"> </text>
</g>
<!-- Account -->
<g id="node3" class="node"><title>Account</title>
<path fill="none" stroke="black" d="M1065.18,-798.5C1065.18,-798.5 1174.19,-798.5 1174.19,-798.5 1180.19,-798.5 1186.19,-804.5 1186.19,-810.5 1186.19,-810.5 1186.19,-886.5 1186.19,-886.5 1186.19,-892.5 1180.19,-898.5 1174.19,-898.5 1174.19,-898.5 1065.18,-898.5 1065.18,-898.5 1059.18,-898.5 1053.18,-892.5 1053.18,-886.5 1053.18,-886.5 1053.18,-810.5 1053.18,-810.5 1053.18,-804.5 1059.18,-798.5 1065.18,-798.5"/>
<text text-anchor="middle" x="1119.69" y="-883.3" font-family="Times,serif" font-size="14.00">Account</text>
<polyline fill="none" stroke="black" points="1053.18,-876.5 1186.19,-876.5 "/>
<text text-anchor="start" x="1061.18" y="-861.3" font-family="Times,serif" font-size="14.00">id :integer</text>
<text text-anchor="start" x="1061.18" y="-847.3" font-family="Times,serif" font-size="14.00">user_id :integer</text>
<text text-anchor="start" x="1061.18" y="-833.3" font-family="Times,serif" font-size="14.00">balance :integer</text>
<text text-anchor="start" x="1061.18" y="-819.3" font-family="Times,serif" font-size="14.00">created_at :datetime</text>
<text text-anchor="start" x="1061.18" y="-805.3" font-family="Times,serif" font-size="14.00">updated_at :datetime</text>
</g>
<!-- Payment -->
<g id="node10" class="node"><title>Payment</title>
<path fill="none" stroke="black" d="M980.661,-514.5C980.661,-514.5 1162.71,-514.5 1162.71,-514.5 1168.71,-514.5 1174.71,-520.5 1174.71,-526.5 1174.71,-526.5 1174.71,-700.5 1174.71,-700.5 1174.71,-706.5 1168.71,-712.5 1162.71,-712.5 1162.71,-712.5 980.661,-712.5 980.661,-712.5 974.661,-712.5 968.661,-706.5 968.661,-700.5 968.661,-700.5 968.661,-526.5 968.661,-526.5 968.661,-520.5 974.661,-514.5 980.661,-514.5"/>
<text text-anchor="middle" x="1071.69" y="-697.3" font-family="Times,serif" font-size="14.00">Payment</text>
<polyline fill="none" stroke="black" points="968.661,-690.5 1174.71,-690.5 "/>
<text text-anchor="start" x="976.661" y="-675.3" font-family="Times,serif" font-size="14.00">id :integer</text>
<text text-anchor="start" x="976.661" y="-661.3" font-family="Times,serif" font-size="14.00">sender_account_id :integer</text>
<text text-anchor="start" x="976.661" y="-647.3" font-family="Times,serif" font-size="14.00">recepient_account_id :integer</text>
<text text-anchor="start" x="976.661" y="-633.3" font-family="Times,serif" font-size="14.00">subject :string</text>
<text text-anchor="start" x="976.661" y="-619.3" font-family="Times,serif" font-size="14.00">amount :integer</text>
<text text-anchor="start" x="976.661" y="-605.3" font-family="Times,serif" font-size="14.00">sender_balance_after :integer</text>
<text text-anchor="start" x="976.661" y="-591.3" font-family="Times,serif" font-size="14.00">comment :text</text>
<text text-anchor="start" x="976.661" y="-577.3" font-family="Times,serif" font-size="14.00">created_at :datetime</text>
<text text-anchor="start" x="976.661" y="-563.3" font-family="Times,serif" font-size="14.00">updated_at :datetime</text>
<text text-anchor="start" x="976.661" y="-549.3" font-family="Times,serif" font-size="14.00">sender_balance_before :integer</text>
<text text-anchor="start" x="976.661" y="-535.3" font-family="Times,serif" font-size="14.00">recepient_balance_before :integer</text>
<text text-anchor="start" x="976.661" y="-521.3" font-family="Times,serif" font-size="14.00">recepient_balance_after :integer</text>
</g>
<!-- Account&#45;&gt;Payment -->
<g id="edge1" class="edge"><title>Account&#45;&gt;Payment</title>
<path fill="none" stroke="#bdc0f4" d="M1073.25,-791.564C1063.85,-777.225 1055.34,-761.24 1050.36,-745 1048.17,-737.827 1046.88,-730.359 1046.3,-722.787"/>
<ellipse fill="none" stroke="#bdc0f4" cx="1075.68" cy="-795.152" rx="4.00002" ry="4.00002"/>
<polygon fill="#bdc0f4" stroke="#bdc0f4" points="1046.3,-722.784 1050.43,-712.627 1046.12,-717.788 1045.94,-712.791 1045.94,-712.791 1045.94,-712.791 1046.12,-717.788 1041.44,-712.955 1046.3,-722.784 1046.3,-722.784"/>
<text text-anchor="middle" x="1079.85" y="-733.8" font-family="Times,serif" font-size="14.00">withdraws</text>
</g>
<!-- Account&#45;&gt;Payment -->
<g id="edge2" class="edge"><title>Account&#45;&gt;Payment</title>
<path fill="none" stroke="#a3a02e" d="M1116.74,-790.405C1115.11,-771.382 1112.59,-750.161 1108.69,-731 1108.11,-728.173 1107.49,-725.318 1106.84,-722.446"/>
<ellipse fill="none" stroke="#a3a02e" cx="1117.06" cy="-794.424" rx="4" ry="4"/>
<polygon fill="#a3a02e" stroke="#a3a02e" points="1106.82,-722.351 1108.85,-711.576 1105.65,-717.49 1104.48,-712.629 1104.48,-712.629 1104.48,-712.629 1105.65,-717.49 1100.1,-713.682 1106.82,-722.351 1106.82,-722.351"/>
<text text-anchor="middle" x="1134.63" y="-733.8" font-family="Times,serif" font-size="14.00">deposits</text>
</g>
<!-- Category -->
<g id="node4" class="node"><title>Category</title>
<path fill="none" stroke="black" d="M311.182,-1117.5C311.182,-1117.5 420.193,-1117.5 420.193,-1117.5 426.193,-1117.5 432.193,-1123.5 432.193,-1129.5 432.193,-1129.5 432.193,-1191.5 432.193,-1191.5 432.193,-1197.5 426.193,-1203.5 420.193,-1203.5 420.193,-1203.5 311.182,-1203.5 311.182,-1203.5 305.182,-1203.5 299.182,-1197.5 299.182,-1191.5 299.182,-1191.5 299.182,-1129.5 299.182,-1129.5 299.182,-1123.5 305.182,-1117.5 311.182,-1117.5"/>
<text text-anchor="middle" x="365.688" y="-1188.3" font-family="Times,serif" font-size="14.00">Category</text>
<polyline fill="none" stroke="black" points="299.182,-1181.5 432.193,-1181.5 "/>
<text text-anchor="start" x="307.182" y="-1166.3" font-family="Times,serif" font-size="14.00">id :integer</text>
<text text-anchor="start" x="307.182" y="-1152.3" font-family="Times,serif" font-size="14.00">name :string</text>
<text text-anchor="start" x="307.182" y="-1138.3" font-family="Times,serif" font-size="14.00">created_at :datetime</text>
<text text-anchor="start" x="307.182" y="-1124.3" font-family="Times,serif" font-size="14.00">updated_at :datetime</text>
</g>
<!-- Entry -->
<g id="node5" class="node"><title>Entry</title>
<path fill="none" stroke="black" d="M977.531,-180.5C977.531,-180.5 1165.84,-180.5 1165.84,-180.5 1171.84,-180.5 1177.84,-186.5 1177.84,-192.5 1177.84,-192.5 1177.84,-464.5 1177.84,-464.5 1177.84,-470.5 1171.84,-476.5 1165.84,-476.5 1165.84,-476.5 977.531,-476.5 977.531,-476.5 971.531,-476.5 965.531,-470.5 965.531,-464.5 965.531,-464.5 965.531,-192.5 965.531,-192.5 965.531,-186.5 971.531,-180.5 977.531,-180.5"/>
<text text-anchor="middle" x="1071.69" y="-461.3" font-family="Times,serif" font-size="14.00">Entry</text>
<polyline fill="none" stroke="black" points="965.531,-454.5 1177.84,-454.5 "/>
<text text-anchor="start" x="973.531" y="-439.3" font-family="Times,serif" font-size="14.00">id :integer</text>
<text text-anchor="start" x="973.531" y="-425.3" font-family="Times,serif" font-size="14.00">contractor_id :integer</text>
<text text-anchor="start" x="973.531" y="-411.3" font-family="Times,serif" font-size="14.00">owner_committed_at :datetime</text>
<text text-anchor="start" x="973.531" y="-397.3" font-family="Times,serif" font-size="14.00">paid_at :datetime</text>
<text text-anchor="start" x="973.531" y="-383.3" font-family="Times,serif" font-size="14.00">created_at :datetime</text>
<text text-anchor="start" x="973.531" y="-369.3" font-family="Times,serif" font-size="14.00">updated_at :datetime</text>
<text text-anchor="start" x="973.531" y="-355.3" font-family="Times,serif" font-size="14.00">expected_at :datetime</text>
<text text-anchor="start" x="973.531" y="-341.3" font-family="Times,serif" font-size="14.00">performed_at :datetime</text>
<text text-anchor="start" x="973.531" y="-327.3" font-family="Times,serif" font-size="14.00">owner_canceled_at :datetime</text>
<text text-anchor="start" x="973.531" y="-313.3" font-family="Times,serif" font-size="14.00">contractor_canceled_at :datetime</text>
<text text-anchor="start" x="973.531" y="-299.3" font-family="Times,serif" font-size="14.00">contractor_committed_at :datetime</text>
<text text-anchor="start" x="973.531" y="-285.3" font-family="Times,serif" font-size="14.00">price :integer</text>
<text text-anchor="start" x="973.531" y="-271.3" font-family="Times,serif" font-size="14.00">payment_id :integer</text>
<text text-anchor="start" x="973.531" y="-257.3" font-family="Times,serif" font-size="14.00">category_id :integer</text>
<text text-anchor="start" x="973.531" y="-243.3" font-family="Times,serif" font-size="14.00">description :text</text>
<text text-anchor="start" x="973.531" y="-229.3" font-family="Times,serif" font-size="14.00">prior_price_description :string</text>
<text text-anchor="start" x="973.531" y="-215.3" font-family="Times,serif" font-size="14.00">title :string</text>
<text text-anchor="start" x="973.531" y="-201.3" font-family="Times,serif" font-size="14.00">owner_id :integer</text>
<text text-anchor="start" x="973.531" y="-187.3" font-family="Times,serif" font-size="14.00">opened :boolean</text>
</g>
<!-- Category&#45;&gt;Entry -->
<g id="edge6" class="edge"><title>Category&#45;&gt;Entry</title>
<path fill="none" stroke="#3e1c85" d="M351.275,-1109.63C339.016,-1072.63 318.885,-1022.2 290.688,-984 270.276,-956.345 246.138,-965.187 231.688,-934 199.737,-865.042 192.146,-827.903 231.688,-763 391.064,-501.401 764.608,-390.819 955.271,-350.106"/>
<ellipse fill="none" stroke="#3e1c85" cx="352.535" cy="-1113.5" rx="4.00001" ry="4.00001"/>
<polygon fill="#3e1c85" stroke="#3e1c85" points="955.542,-350.049 966.255,-352.39 960.435,-349.018 965.327,-347.987 965.327,-347.987 965.327,-347.987 960.435,-349.018 964.4,-343.584 955.542,-350.049 955.542,-350.049"/>
</g>
<!-- Offering -->
<g id="node9" class="node"><title>Offering</title>
<path fill="none" stroke="black" d="M592.455,-763.5C592.455,-763.5 720.921,-763.5 720.921,-763.5 726.921,-763.5 732.921,-769.5 732.921,-775.5 732.921,-775.5 732.921,-921.5 732.921,-921.5 732.921,-927.5 726.921,-933.5 720.921,-933.5 720.921,-933.5 592.455,-933.5 592.455,-933.5 586.455,-933.5 580.455,-927.5 580.455,-921.5 580.455,-921.5 580.455,-775.5 580.455,-775.5 580.455,-769.5 586.455,-763.5 592.455,-763.5"/>
<text text-anchor="middle" x="656.688" y="-918.3" font-family="Times,serif" font-size="14.00">Offering</text>
<polyline fill="none" stroke="black" points="580.455,-911.5 732.921,-911.5 "/>
<text text-anchor="start" x="588.455" y="-896.3" font-family="Times,serif" font-size="14.00">id :integer</text>
<text text-anchor="start" x="588.455" y="-882.3" font-family="Times,serif" font-size="14.00">type :string</text>
<text text-anchor="start" x="588.455" y="-868.3" font-family="Times,serif" font-size="14.00">user_id :integer</text>
<text text-anchor="start" x="588.455" y="-854.3" font-family="Times,serif" font-size="14.00">title :string</text>
<text text-anchor="start" x="588.455" y="-840.3" font-family="Times,serif" font-size="14.00">category_id :integer</text>
<text text-anchor="start" x="588.455" y="-826.3" font-family="Times,serif" font-size="14.00">description :text</text>
<text text-anchor="start" x="588.455" y="-812.3" font-family="Times,serif" font-size="14.00">price_description :string</text>
<text text-anchor="start" x="588.455" y="-798.3" font-family="Times,serif" font-size="14.00">created_at :datetime</text>
<text text-anchor="start" x="588.455" y="-784.3" font-family="Times,serif" font-size="14.00">updated_at :datetime</text>
<text text-anchor="start" x="588.455" y="-770.3" font-family="Times,serif" font-size="14.00">opened :boolean</text>
</g>
<!-- Category&#45;&gt;Offering -->
<g id="edge4" class="edge"><title>Category&#45;&gt;Offering</title>
<path fill="none" stroke="#f53644" d="M410.897,-1111.34C454.178,-1065.23 520.516,-994.563 573.37,-938.258"/>
<ellipse fill="none" stroke="#f53644" cx="407.974" cy="-1114.45" rx="4.00002" ry="4.00002"/>
<polygon fill="#f53644" stroke="#f53644" points="573.56,-938.055 583.685,-933.844 576.982,-934.41 580.404,-930.764 580.404,-930.764 580.404,-930.764 576.982,-934.41 577.123,-927.684 573.56,-938.055 573.56,-938.055"/>
</g>
<!-- Task -->
<g id="node13" class="node"><title>Task</title>
<path fill="none" stroke="black" d="M422.455,-763.5C422.455,-763.5 550.921,-763.5 550.921,-763.5 556.921,-763.5 562.921,-769.5 562.921,-775.5 562.921,-775.5 562.921,-921.5 562.921,-921.5 562.921,-927.5 556.921,-933.5 550.921,-933.5 550.921,-933.5 422.455,-933.5 422.455,-933.5 416.455,-933.5 410.455,-927.5 410.455,-921.5 410.455,-921.5 410.455,-775.5 410.455,-775.5 410.455,-769.5 416.455,-763.5 422.455,-763.5"/>
<text text-anchor="middle" x="486.688" y="-918.3" font-family="Times,serif" font-size="14.00">Task</text>
<polyline fill="none" stroke="black" points="410.455,-911.5 562.921,-911.5 "/>
<text text-anchor="start" x="418.455" y="-896.3" font-family="Times,serif" font-size="14.00">id :integer</text>
<text text-anchor="start" x="418.455" y="-882.3" font-family="Times,serif" font-size="14.00">type :string</text>
<text text-anchor="start" x="418.455" y="-868.3" font-family="Times,serif" font-size="14.00">user_id :integer</text>
<text text-anchor="start" x="418.455" y="-854.3" font-family="Times,serif" font-size="14.00">title :string</text>
<text text-anchor="start" x="418.455" y="-840.3" font-family="Times,serif" font-size="14.00">category_id :integer</text>
<text text-anchor="start" x="418.455" y="-826.3" font-family="Times,serif" font-size="14.00">description :text</text>
<text text-anchor="start" x="418.455" y="-812.3" font-family="Times,serif" font-size="14.00">price_description :string</text>
<text text-anchor="start" x="418.455" y="-798.3" font-family="Times,serif" font-size="14.00">created_at :datetime</text>
<text text-anchor="start" x="418.455" y="-784.3" font-family="Times,serif" font-size="14.00">updated_at :datetime</text>
<text text-anchor="start" x="418.455" y="-770.3" font-family="Times,serif" font-size="14.00">opened :boolean</text>
</g>
<!-- Category&#45;&gt;Task -->
<g id="edge3" class="edge"><title>Category&#45;&gt;Task</title>
<path fill="none" stroke="#b4d071" d="M385.131,-1109.69C402.633,-1064.85 428.812,-997.776 450.207,-942.962"/>
<ellipse fill="none" stroke="#b4d071" cx="383.587" cy="-1113.64" rx="4.00001" ry="4.00001"/>
<polygon fill="#b4d071" stroke="#b4d071" points="450.234,-942.894 458.062,-935.215 452.052,-938.237 453.87,-933.579 453.87,-933.579 453.87,-933.579 452.052,-938.237 449.678,-931.943 450.234,-942.894 450.234,-942.894"/>
</g>
<!-- Want -->
<g id="node15" class="node"><title>Want</title>
<path fill="none" stroke="black" d="M252.455,-763.5C252.455,-763.5 380.921,-763.5 380.921,-763.5 386.921,-763.5 392.921,-769.5 392.921,-775.5 392.921,-775.5 392.921,-921.5 392.921,-921.5 392.921,-927.5 386.921,-933.5 380.921,-933.5 380.921,-933.5 252.455,-933.5 252.455,-933.5 246.455,-933.5 240.455,-927.5 240.455,-921.5 240.455,-921.5 240.455,-775.5 240.455,-775.5 240.455,-769.5 246.455,-763.5 252.455,-763.5"/>
<text text-anchor="middle" x="316.688" y="-918.3" font-family="Times,serif" font-size="14.00">Want</text>
<polyline fill="none" stroke="black" points="240.455,-911.5 392.921,-911.5 "/>
<text text-anchor="start" x="248.455" y="-896.3" font-family="Times,serif" font-size="14.00">id :integer</text>
<text text-anchor="start" x="248.455" y="-882.3" font-family="Times,serif" font-size="14.00">type :string</text>
<text text-anchor="start" x="248.455" y="-868.3" font-family="Times,serif" font-size="14.00">user_id :integer</text>
<text text-anchor="start" x="248.455" y="-854.3" font-family="Times,serif" font-size="14.00">title :string</text>
<text text-anchor="start" x="248.455" y="-840.3" font-family="Times,serif" font-size="14.00">category_id :integer</text>
<text text-anchor="start" x="248.455" y="-826.3" font-family="Times,serif" font-size="14.00">description :text</text>
<text text-anchor="start" x="248.455" y="-812.3" font-family="Times,serif" font-size="14.00">price_description :string</text>
<text text-anchor="start" x="248.455" y="-798.3" font-family="Times,serif" font-size="14.00">created_at :datetime</text>
<text text-anchor="start" x="248.455" y="-784.3" font-family="Times,serif" font-size="14.00">updated_at :datetime</text>
<text text-anchor="start" x="248.455" y="-770.3" font-family="Times,serif" font-size="14.00">opened :boolean</text>
</g>
<!-- Category&#45;&gt;Want -->
<g id="edge5" class="edge"><title>Category&#45;&gt;Want</title>
<path fill="none" stroke="#cc56c4" d="M357.767,-1109.39C350.709,-1064.73 340.191,-998.193 331.565,-943.621"/>
<ellipse fill="none" stroke="#cc56c4" cx="358.404" cy="-1113.42" rx="4.00001" ry="4.00001"/>
<polygon fill="#cc56c4" stroke="#cc56c4" points="331.539,-943.456 334.422,-932.876 330.758,-938.518 329.978,-933.579 329.978,-933.579 329.978,-933.579 330.758,-938.518 325.533,-934.281 331.539,-943.456 331.539,-943.456"/>
</g>
<!-- Negotiation -->
<g id="node7" class="node"><title>Negotiation</title>
<path fill="none" stroke="black" d="M1017.18,-0.5C1017.18,-0.5 1126.19,-0.5 1126.19,-0.5 1132.19,-0.5 1138.19,-6.5 1138.19,-12.5 1138.19,-12.5 1138.19,-130.5 1138.19,-130.5 1138.19,-136.5 1132.19,-142.5 1126.19,-142.5 1126.19,-142.5 1017.18,-142.5 1017.18,-142.5 1011.18,-142.5 1005.18,-136.5 1005.18,-130.5 1005.18,-130.5 1005.18,-12.5 1005.18,-12.5 1005.18,-6.5 1011.18,-0.5 1017.18,-0.5"/>
<text text-anchor="middle" x="1071.69" y="-127.3" font-family="Times,serif" font-size="14.00">Negotiation</text>
<polyline fill="none" stroke="black" points="1005.18,-120.5 1138.19,-120.5 "/>
<text text-anchor="start" x="1013.18" y="-105.3" font-family="Times,serif" font-size="14.00">id :integer</text>
<text text-anchor="start" x="1013.18" y="-91.3" font-family="Times,serif" font-size="14.00">body :text</text>
<text text-anchor="start" x="1013.18" y="-77.3" font-family="Times,serif" font-size="14.00">created_at :datetime</text>
<text text-anchor="start" x="1013.18" y="-63.3" font-family="Times,serif" font-size="14.00">updated_at :datetime</text>
<text text-anchor="start" x="1013.18" y="-49.3" font-family="Times,serif" font-size="14.00">sender_id :integer</text>
<text text-anchor="start" x="1013.18" y="-35.3" font-family="Times,serif" font-size="14.00">recepient_id :integer</text>
<text text-anchor="start" x="1013.18" y="-21.3" font-family="Times,serif" font-size="14.00">entry_id :integer</text>
<text text-anchor="start" x="1013.18" y="-7.3" font-family="Times,serif" font-size="14.00">type :string</text>
</g>
<!-- Entry&#45;&gt;Negotiation -->
<g id="edge7" class="edge"><title>Entry&#45;&gt;Negotiation</title>
<path fill="none" stroke="#89b289" d="M1071.69,-172.07C1071.69,-165.556 1071.69,-159.145 1071.69,-152.908"/>
<ellipse fill="none" stroke="#89b289" cx="1071.69" cy="-176.273" rx="4" ry="4"/>
<polygon fill="#89b289" stroke="#89b289" points="1071.69,-152.59 1076.19,-142.59 1071.69,-147.59 1071.69,-142.59 1071.69,-142.59 1071.69,-142.59 1071.69,-147.59 1067.19,-142.59 1071.69,-152.59 1071.69,-152.59"/>
</g>
<!-- Message -->
<g id="node6" class="node"><title>Message</title>
<path fill="none" stroke="black" d="M914.182,-777.5C914.182,-777.5 1023.19,-777.5 1023.19,-777.5 1029.19,-777.5 1035.19,-783.5 1035.19,-789.5 1035.19,-789.5 1035.19,-907.5 1035.19,-907.5 1035.19,-913.5 1029.19,-919.5 1023.19,-919.5 1023.19,-919.5 914.182,-919.5 914.182,-919.5 908.182,-919.5 902.182,-913.5 902.182,-907.5 902.182,-907.5 902.182,-789.5 902.182,-789.5 902.182,-783.5 908.182,-777.5 914.182,-777.5"/>
<text text-anchor="middle" x="968.688" y="-904.3" font-family="Times,serif" font-size="14.00">Message</text>
<polyline fill="none" stroke="black" points="902.182,-897.5 1035.19,-897.5 "/>
<text text-anchor="start" x="910.182" y="-882.3" font-family="Times,serif" font-size="14.00">id :integer</text>
<text text-anchor="start" x="910.182" y="-868.3" font-family="Times,serif" font-size="14.00">body :text</text>
<text text-anchor="start" x="910.182" y="-854.3" font-family="Times,serif" font-size="14.00">created_at :datetime</text>
<text text-anchor="start" x="910.182" y="-840.3" font-family="Times,serif" font-size="14.00">updated_at :datetime</text>
<text text-anchor="start" x="910.182" y="-826.3" font-family="Times,serif" font-size="14.00">sender_id :integer</text>
<text text-anchor="start" x="910.182" y="-812.3" font-family="Times,serif" font-size="14.00">recepient_id :integer</text>
<text text-anchor="start" x="910.182" y="-798.3" font-family="Times,serif" font-size="14.00">entry_id :integer</text>
<text text-anchor="start" x="910.182" y="-784.3" font-family="Times,serif" font-size="14.00">type :string</text>
</g>
<!-- Notification -->
<g id="node8" class="node"><title>Notification</title>
<path fill="none" stroke="black" d="M1255.18,-784.5C1255.18,-784.5 1364.19,-784.5 1364.19,-784.5 1370.19,-784.5 1376.19,-790.5 1376.19,-796.5 1376.19,-796.5 1376.19,-900.5 1376.19,-900.5 1376.19,-906.5 1370.19,-912.5 1364.19,-912.5 1364.19,-912.5 1255.18,-912.5 1255.18,-912.5 1249.18,-912.5 1243.18,-906.5 1243.18,-900.5 1243.18,-900.5 1243.18,-796.5 1243.18,-796.5 1243.18,-790.5 1249.18,-784.5 1255.18,-784.5"/>
<text text-anchor="middle" x="1309.69" y="-897.3" font-family="Times,serif" font-size="14.00">Notification</text>
<polyline fill="none" stroke="black" points="1243.18,-890.5 1376.19,-890.5 "/>
<text text-anchor="start" x="1251.18" y="-875.3" font-family="Times,serif" font-size="14.00">id :integer</text>
<text text-anchor="start" x="1251.18" y="-861.3" font-family="Times,serif" font-size="14.00">user_id :integer</text>
<text text-anchor="start" x="1251.18" y="-847.3" font-family="Times,serif" font-size="14.00">body :string</text>
<text text-anchor="start" x="1251.18" y="-833.3" font-family="Times,serif" font-size="14.00">url :string</text>
<text text-anchor="start" x="1251.18" y="-819.3" font-family="Times,serif" font-size="14.00">read_at :datetime</text>
<text text-anchor="start" x="1251.18" y="-805.3" font-family="Times,serif" font-size="14.00">created_at :datetime</text>
<text text-anchor="start" x="1251.18" y="-791.3" font-family="Times,serif" font-size="14.00">updated_at :datetime</text>
</g>
<!-- Payment&#45;&gt;Entry -->
<g id="edge8" class="edge"><title>Payment&#45;&gt;Entry</title>
<path fill="none" stroke="#9540be" d="M1071.69,-506.236C1071.69,-499.272 1071.69,-492.187 1071.69,-485.054"/>
<ellipse fill="none" stroke="#9540be" cx="1071.69" cy="-510.315" rx="4" ry="4"/>
<ellipse fill="#9540be" stroke="#9540be" cx="1071.69" cy="-480.662" rx="4" ry="4"/>
</g>
<!-- Relationship -->
<g id="node11" class="node"><title>Relationship</title>
<path fill="none" stroke="black" d="M763.182,-798.5C763.182,-798.5 872.193,-798.5 872.193,-798.5 878.193,-798.5 884.193,-804.5 884.193,-810.5 884.193,-810.5 884.193,-886.5 884.193,-886.5 884.193,-892.5 878.193,-898.5 872.193,-898.5 872.193,-898.5 763.182,-898.5 763.182,-898.5 757.182,-898.5 751.182,-892.5 751.182,-886.5 751.182,-886.5 751.182,-810.5 751.182,-810.5 751.182,-804.5 757.182,-798.5 763.182,-798.5"/>
<text text-anchor="middle" x="817.688" y="-883.3" font-family="Times,serif" font-size="14.00">Relationship</text>
<polyline fill="none" stroke="black" points="751.182,-876.5 884.193,-876.5 "/>
<text text-anchor="start" x="759.182" y="-861.3" font-family="Times,serif" font-size="14.00">id :integer</text>
<text text-anchor="start" x="759.182" y="-847.3" font-family="Times,serif" font-size="14.00">follower_id :integer</text>
<text text-anchor="start" x="759.182" y="-833.3" font-family="Times,serif" font-size="14.00">followed_id :integer</text>
<text text-anchor="start" x="759.182" y="-819.3" font-family="Times,serif" font-size="14.00">created_at :datetime</text>
<text text-anchor="start" x="759.182" y="-805.3" font-family="Times,serif" font-size="14.00">updated_at :datetime</text>
</g>
<!-- Talk -->
<g id="node12" class="node"><title>Talk</title>
<path fill="none" stroke="black" d="M1278.18,-1089.5C1278.18,-1089.5 1387.19,-1089.5 1387.19,-1089.5 1393.19,-1089.5 1399.19,-1095.5 1399.19,-1101.5 1399.19,-1101.5 1399.19,-1219.5 1399.19,-1219.5 1399.19,-1225.5 1393.19,-1231.5 1387.19,-1231.5 1387.19,-1231.5 1278.18,-1231.5 1278.18,-1231.5 1272.18,-1231.5 1266.18,-1225.5 1266.18,-1219.5 1266.18,-1219.5 1266.18,-1101.5 1266.18,-1101.5 1266.18,-1095.5 1272.18,-1089.5 1278.18,-1089.5"/>
<text text-anchor="middle" x="1332.69" y="-1216.3" font-family="Times,serif" font-size="14.00">Talk</text>
<polyline fill="none" stroke="black" points="1266.18,-1209.5 1399.19,-1209.5 "/>
<text text-anchor="start" x="1274.18" y="-1194.3" font-family="Times,serif" font-size="14.00">id :integer</text>
<text text-anchor="start" x="1274.18" y="-1180.3" font-family="Times,serif" font-size="14.00">body :text</text>
<text text-anchor="start" x="1274.18" y="-1166.3" font-family="Times,serif" font-size="14.00">created_at :datetime</text>
<text text-anchor="start" x="1274.18" y="-1152.3" font-family="Times,serif" font-size="14.00">updated_at :datetime</text>
<text text-anchor="start" x="1274.18" y="-1138.3" font-family="Times,serif" font-size="14.00">sender_id :integer</text>
<text text-anchor="start" x="1274.18" y="-1124.3" font-family="Times,serif" font-size="14.00">recepient_id :integer</text>
<text text-anchor="start" x="1274.18" y="-1110.3" font-family="Times,serif" font-size="14.00">entry_id :integer</text>
<text text-anchor="start" x="1274.18" y="-1096.3" font-family="Times,serif" font-size="14.00">type :string</text>
</g>
<!-- User -->
<g id="node14" class="node"><title>User</title>
<path fill="none" stroke="black" d="M749.41,-984.5C749.41,-984.5 929.966,-984.5 929.966,-984.5 935.966,-984.5 941.966,-990.5 941.966,-996.5 941.966,-996.5 941.966,-1324.5 941.966,-1324.5 941.966,-1330.5 935.966,-1336.5 929.966,-1336.5 929.966,-1336.5 749.41,-1336.5 749.41,-1336.5 743.41,-1336.5 737.41,-1330.5 737.41,-1324.5 737.41,-1324.5 737.41,-996.5 737.41,-996.5 737.41,-990.5 743.41,-984.5 749.41,-984.5"/>
<text text-anchor="middle" x="839.688" y="-1321.3" font-family="Times,serif" font-size="14.00">User</text>
<polyline fill="none" stroke="black" points="737.41,-1314.5 941.966,-1314.5 "/>
<text text-anchor="start" x="745.41" y="-1299.3" font-family="Times,serif" font-size="14.00">id :integer</text>
<text text-anchor="start" x="745.41" y="-1285.3" font-family="Times,serif" font-size="14.00">email :string</text>
<text text-anchor="start" x="745.41" y="-1271.3" font-family="Times,serif" font-size="14.00">encrypted_password :string</text>
<text text-anchor="start" x="745.41" y="-1257.3" font-family="Times,serif" font-size="14.00">reset_password_token :string</text>
<text text-anchor="start" x="745.41" y="-1243.3" font-family="Times,serif" font-size="14.00">reset_password_sent_at :datetime</text>
<text text-anchor="start" x="745.41" y="-1229.3" font-family="Times,serif" font-size="14.00">remember_created_at :datetime</text>
<text text-anchor="start" x="745.41" y="-1215.3" font-family="Times,serif" font-size="14.00">sign_in_count :integer</text>
<text text-anchor="start" x="745.41" y="-1201.3" font-family="Times,serif" font-size="14.00">current_sign_in_at :datetime</text>
<text text-anchor="start" x="745.41" y="-1187.3" font-family="Times,serif" font-size="14.00">last_sign_in_at :datetime</text>
<text text-anchor="start" x="745.41" y="-1173.3" font-family="Times,serif" font-size="14.00">current_sign_in_ip :string</text>
<text text-anchor="start" x="745.41" y="-1159.3" font-family="Times,serif" font-size="14.00">last_sign_in_ip :string</text>
<text text-anchor="start" x="745.41" y="-1145.3" font-family="Times,serif" font-size="14.00">confirmation_token :string</text>
<text text-anchor="start" x="745.41" y="-1131.3" font-family="Times,serif" font-size="14.00">confirmed_at :datetime</text>
<text text-anchor="start" x="745.41" y="-1117.3" font-family="Times,serif" font-size="14.00">confirmation_sent_at :datetime</text>
<text text-anchor="start" x="745.41" y="-1103.3" font-family="Times,serif" font-size="14.00">unconfirmed_email :string</text>
<text text-anchor="start" x="745.41" y="-1089.3" font-family="Times,serif" font-size="14.00">failed_attempts :integer</text>
<text text-anchor="start" x="745.41" y="-1075.3" font-family="Times,serif" font-size="14.00">unlock_token :string</text>
<text text-anchor="start" x="745.41" y="-1061.3" font-family="Times,serif" font-size="14.00">locked_at :datetime</text>
<text text-anchor="start" x="745.41" y="-1047.3" font-family="Times,serif" font-size="14.00">created_at :datetime</text>
<text text-anchor="start" x="745.41" y="-1033.3" font-family="Times,serif" font-size="14.00">updated_at :datetime</text>
<text text-anchor="start" x="745.41" y="-1019.3" font-family="Times,serif" font-size="14.00">name :string</text>
<text text-anchor="start" x="745.41" y="-1005.3" font-family="Times,serif" font-size="14.00">description :text</text>
<text text-anchor="start" x="745.41" y="-991.3" font-family="Times,serif" font-size="14.00">admin :boolean</text>
</g>
<!-- User&#45;&gt;Account -->
<g id="edge9" class="edge"><title>User&#45;&gt;Account</title>
<path fill="none" stroke="#5471d1" d="M949.645,-1116.59C1013.53,-1085.28 1088.54,-1035.98 1125.69,-966 1135.16,-948.155 1136.34,-926.528 1134.25,-906.775"/>
<ellipse fill="none" stroke="#5471d1" cx="945.914" cy="-1118.39" rx="4.00002" ry="4.00002"/>
<ellipse fill="#5471d1" stroke="#5471d1" cx="1133.72" cy="-902.7" rx="4.00001" ry="4.00001"/>
</g>
<!-- User&#45;&gt;Entry -->
<g id="edge13" class="edge"><title>User&#45;&gt;Entry</title>
<path fill="none" stroke="#a58b51" d="M949.624,-1123.13C1033.7,-1088.84 1143.73,-1028.42 1195.69,-934 1215.95,-897.176 1193.57,-546.31 1183.69,-514 1180.81,-504.594 1177.35,-495.177 1173.44,-485.851"/>
<ellipse fill="none" stroke="#a58b51" cx="945.797" cy="-1124.67" rx="4.00001" ry="4.00001"/>
<polygon fill="#a58b51" stroke="#a58b51" points="1173.39,-485.728 1173.53,-474.763 1171.4,-481.143 1169.4,-476.558 1169.4,-476.558 1169.4,-476.558 1171.4,-481.143 1165.28,-478.353 1173.39,-485.728 1173.39,-485.728"/>
</g>
<!-- User&#45;&gt;Message -->
<g id="edge14" class="edge"><title>User&#45;&gt;Message</title>
<path fill="none" stroke="#b4a0f8" d="M948.047,-1070.23C976.532,-1040.39 1003.51,-1004.75 1018.69,-966 1023.34,-954.114 1023.32,-941.634 1020.51,-929.44"/>
<ellipse fill="none" stroke="#b4a0f8" cx="945.118" cy="-1073.25" rx="4.00002" ry="4.00002"/>
<polygon fill="#b4a0f8" stroke="#b4a0f8" points="1020.48,-929.34 1022,-918.481 1019.08,-924.539 1017.68,-919.738 1017.68,-919.738 1017.68,-919.738 1019.08,-924.539 1013.36,-920.995 1020.48,-929.34 1020.48,-929.34"/>
<text text-anchor="middle" x="1072.06" y="-954.8" font-family="Times,serif" font-size="14.00">sended_messages</text>
</g>
<!-- User&#45;&gt;Message -->
<g id="edge15" class="edge"><title>User&#45;&gt;Message</title>
<path fill="none" stroke="#36d686" d="M896.714,-976.868C900.164,-968.397 903.732,-960.069 907.405,-952 910.962,-944.185 914.972,-936.216 919.195,-928.348"/>
<ellipse fill="none" stroke="#36d686" cx="895.203" cy="-980.634" rx="4.00001" ry="4.00001"/>
<polygon fill="#36d686" stroke="#36d686" points="919.229,-928.286 927.986,-921.685 921.635,-923.903 924.041,-919.52 924.041,-919.52 924.041,-919.52 921.635,-923.903 920.097,-917.354 919.229,-928.286 919.229,-928.286"/>
<text text-anchor="middle" x="961.329" y="-954.8" font-family="Times,serif" font-size="14.00">received_messages</text>
</g>
<!-- User&#45;&gt;Notification -->
<g id="edge22" class="edge"><title>User&#45;&gt;Notification</title>
<path fill="none" stroke="#162f62" d="M949.864,-1121.89C1032.91,-1089.7 1146.21,-1037.24 1228.69,-966 1243.53,-953.179 1256.98,-937.064 1268.46,-920.944"/>
<ellipse fill="none" stroke="#162f62" cx="945.909" cy="-1123.41" rx="4.00001" ry="4.00001"/>
<polygon fill="#162f62" stroke="#162f62" points="1268.59,-920.754 1277.98,-915.092 1271.43,-916.642 1274.28,-912.531 1274.28,-912.531 1274.28,-912.531 1271.43,-916.642 1270.58,-909.97 1268.59,-920.754 1268.59,-920.754"/>
</g>
<!-- User&#45;&gt;Offering -->
<g id="edge11" class="edge"><title>User&#45;&gt;Offering</title>
<path fill="none" stroke="#f213dc" d="M732.97,-978.721C725.621,-966.272 718.406,-954.051 711.524,-942.392"/>
<ellipse fill="none" stroke="#f213dc" cx="735.187" cy="-982.477" rx="4.00002" ry="4.00002"/>
<polygon fill="#f213dc" stroke="#f213dc" points="711.412,-942.202 710.204,-931.303 708.87,-937.897 706.328,-933.591 706.328,-933.591 706.328,-933.591 708.87,-937.897 702.453,-935.878 711.412,-942.202 711.412,-942.202"/>
</g>
<!-- User&#45;&gt;Relationship -->
<g id="edge18" class="edge"><title>User&#45;&gt;Relationship</title>
<path fill="none" stroke="#4ee68e" d="M752.143,-976.253C751.262,-972.828 750.442,-969.408 749.688,-966 745.146,-945.465 752.159,-925.001 763.178,-907.085"/>
<ellipse fill="none" stroke="#4ee68e" cx="753.261" cy="-980.392" rx="4.00001" ry="4.00001"/>
<polygon fill="#4ee68e" stroke="#4ee68e" points="763.344,-906.835 772.625,-900.995 766.11,-902.67 768.877,-898.505 768.877,-898.505 768.877,-898.505 766.11,-902.67 765.128,-896.015 763.344,-906.835 763.344,-906.835"/>
</g>
<!-- User&#45;&gt;Relationship -->
<g id="edge19" class="edge"><title>User&#45;&gt;Relationship</title>
<path fill="none" stroke="#56674f" d="M766.657,-976.3C766.966,-968.128 767.949,-960.002 769.729,-952 773.052,-937.054 778.797,-921.71 785.18,-907.594"/>
<ellipse fill="none" stroke="#56674f" cx="766.612" cy="-980.486" rx="4" ry="4"/>
<polygon fill="#56674f" stroke="#56674f" points="785.195,-907.562 793.521,-900.426 787.321,-903.037 789.448,-898.512 789.448,-898.512 789.448,-898.512 787.321,-903.037 785.375,-896.598 785.195,-907.562 785.195,-907.562"/>
<text text-anchor="middle" x="830.167" y="-954.8" font-family="Times,serif" font-size="14.00">reverse_relationships</text>
</g>
<!-- User&#45;&gt;Task -->
<g id="edge10" class="edge"><title>User&#45;&gt;Task</title>
<path fill="none" stroke="#65205f" d="M730.843,-1071.39C681.448,-1030.52 622.779,-980.742 571.688,-934 571.429,-933.763 571.169,-933.525 570.91,-933.287"/>
<ellipse fill="none" stroke="#65205f" cx="734.045" cy="-1074.03" rx="4.00002" ry="4.00002"/>
<polygon fill="#65205f" stroke="#65205f" points="570.653,-933.049 566.38,-922.95 566.987,-929.65 563.321,-926.25 563.321,-926.25 563.321,-926.25 566.987,-929.65 560.261,-929.55 570.653,-933.049 570.653,-933.049"/>
</g>
<!-- User&#45;&gt;User -->
<g id="edge16" class="edge"><title>User&#45;&gt;User</title>
<path fill="none" stroke="#474dbe" d="M952.287,-1166.22C957.141,-1164.75 959.966,-1162.85 959.966,-1160.5 959.966,-1158.15 957.141,-1156.25 952.287,-1154.78"/>
<polygon fill="#474dbe" stroke="#474dbe" points="952.137,-1166.25 941.434,-1163.86 947.24,-1167.26 942.343,-1168.27 942.343,-1168.27 942.343,-1168.27 947.24,-1167.26 943.252,-1172.67 952.137,-1166.25 952.137,-1166.25"/>
<polygon fill="#474dbe" stroke="#474dbe" points="952.137,-1154.75 943.252,-1148.33 947.24,-1153.74 942.343,-1152.73 942.343,-1152.73 942.343,-1152.73 947.24,-1153.74 941.434,-1157.14 952.137,-1154.75 952.137,-1154.75"/>
<text text-anchor="middle" x="980.959" y="-1156.3" font-family="Times,serif" font-size="14.00">senders</text>
</g>
<!-- User&#45;&gt;User -->
<g id="edge17" class="edge"><title>User&#45;&gt;User</title>
<path fill="none" stroke="#d06f22" d="M952.36,-1178.88C980.492,-1177.37 1001.95,-1171.24 1001.95,-1160.5 1001.95,-1149.76 980.492,-1143.63 952.36,-1142.12"/>
<polygon fill="#d06f22" stroke="#d06f22" points="952.15,-1178.89 942.005,-1174.72 947.153,-1179.05 942.155,-1179.22 942.155,-1179.22 942.155,-1179.22 947.153,-1179.05 942.306,-1183.72 952.15,-1178.89 952.15,-1178.89"/>
<polygon fill="#d06f22" stroke="#d06f22" points="952.15,-1142.11 942.306,-1137.28 947.153,-1141.95 942.155,-1141.78 942.155,-1141.78 942.155,-1141.78 947.153,-1141.95 942.005,-1146.28 952.15,-1142.11 952.15,-1142.11"/>
<text text-anchor="middle" x="1030.32" y="-1156.3" font-family="Times,serif" font-size="14.00">recepients</text>
</g>
<!-- User&#45;&gt;User -->
<g id="edge20" class="edge"><title>User&#45;&gt;User</title>
<path fill="none" stroke="#6226f1" d="M952.263,-1188.27C1007.06,-1190.61 1058.7,-1181.36 1058.7,-1160.5 1058.7,-1139.64 1007.06,-1130.39 952.263,-1132.73"/>
<polygon fill="#6226f1" stroke="#6226f1" points="951.991,-1188.25 942.257,-1183.2 946.998,-1187.98 942.006,-1187.7 942.006,-1187.7 942.006,-1187.7 946.998,-1187.98 941.755,-1192.19 951.991,-1188.25 951.991,-1188.25"/>
<polygon fill="#6226f1" stroke="#6226f1" points="951.991,-1132.75 941.755,-1128.81 946.998,-1133.02 942.006,-1133.3 942.006,-1133.3 942.006,-1133.3 946.998,-1133.02 942.257,-1137.8 951.991,-1132.75 951.991,-1132.75"/>
<text text-anchor="middle" x="1101.47" y="-1156.3" font-family="Times,serif" font-size="14.00">followed_users</text>
</g>
<!-- User&#45;&gt;User -->
<g id="edge21" class="edge"><title>User&#45;&gt;User</title>
<path fill="none" stroke="#d1ab01" d="M952.52,-1194.76C1041.09,-1204.27 1144.24,-1192.85 1144.24,-1160.5 1144.24,-1128.15 1041.09,-1116.73 952.52,-1126.24"/>
<polygon fill="#d1ab01" stroke="#d1ab01" points="952.284,-1194.73 942.876,-1189.1 947.318,-1194.15 942.352,-1193.57 942.352,-1193.57 942.352,-1193.57 947.318,-1194.15 941.828,-1198.04 952.284,-1194.73 952.284,-1194.73"/>
<polygon fill="#d1ab01" stroke="#d1ab01" points="952.284,-1126.27 941.828,-1122.96 947.318,-1126.85 942.352,-1127.43 942.352,-1127.43 942.352,-1127.43 947.318,-1126.85 942.876,-1131.9 952.284,-1126.27 952.284,-1126.27"/>
<text text-anchor="middle" x="1170.67" y="-1156.3" font-family="Times,serif" font-size="14.00">followers</text>
</g>
<!-- User&#45;&gt;Want -->
<g id="edge12" class="edge"><title>User&#45;&gt;Want</title>
<path fill="none" stroke="#4f6f35" d="M729.841,-1114.3C637.868,-1073.87 505.388,-1009.44 401.688,-934 401.509,-933.87 401.33,-933.739 401.151,-933.609"/>
<ellipse fill="none" stroke="#4f6f35" cx="733.558" cy="-1115.93" rx="4.00002" ry="4.00002"/>
<polygon fill="#4f6f35" stroke="#4f6f35" points="401.083,-933.557 395.863,-923.913 397.108,-930.523 393.133,-927.49 393.133,-927.49 393.133,-927.49 397.108,-930.523 390.404,-931.068 401.083,-933.557 401.083,-933.557"/>
</g>
</g>
</svg>
