<?xml version="1.0" encoding="UTF-8" standalone="no"?>
<!DOCTYPE svg PUBLIC "-//W3C//DTD SVG 1.1//EN"
 "http://www.w3.org/Graphics/SVG/1.1/DTD/svg11.dtd">
<!-- Generated by graphviz version 2.38.0 (20140413.2041)
 -->
<!-- Title: models_diagram Pages: 1 -->
<svg width="625pt" height="300pt"
 viewBox="0.00 0.00 625.21 300.00" xmlns="http://www.w3.org/2000/svg" xmlns:xlink="http://www.w3.org/1999/xlink">
<g id="graph0" class="graph" transform="scale(1 1) rotate(0) translate(4 296)">
<title>models_diagram</title>
<polygon fill="white" stroke="none" points="-4,4 -4,-296 621.211,-296 621.211,4 -4,4"/>
<!-- _diagram_info -->
<g id="node1" class="node"><title>_diagram_info</title>
<text text-anchor="start" x="8" y="-277.6" font-family="Times,serif" font-size="13.00">Models diagram</text>
<text text-anchor="start" x="8" y="-264.6" font-family="Times,serif" font-size="13.00">Date: Aug 24 2014 &#45; 22:25</text>
<text text-anchor="start" x="8" y="-251.6" font-family="Times,serif" font-size="13.00">Migration version: 20140824021649</text>
<text text-anchor="start" x="8" y="-238.6" font-family="Times,serif" font-size="13.00">Generated by RailRoady 1.1.2</text>
<text text-anchor="start" x="8" y="-225.6" font-family="Times,serif" font-size="13.00">http://railroady.prestonlee.com</text>
</g>
<!-- Account -->
<g id="node2" class="node"><title>Account</title>
<ellipse fill="none" stroke="black" cx="169.688" cy="-91" rx="40.1317" ry="18"/>
<text text-anchor="middle" x="169.688" y="-86.8" font-family="Times,serif" font-size="14.00">Account</text>
</g>
<!-- Payment -->
<g id="node7" class="node"><title>Payment</title>
<ellipse fill="none" stroke="black" cx="118.688" cy="-18" rx="41.1093" ry="18"/>
<text text-anchor="middle" x="118.688" y="-13.8" font-family="Times,serif" font-size="14.00">Payment</text>
</g>
<!-- Account&#45;&gt;Payment -->
<g id="edge1" class="edge"><title>Account&#45;&gt;Payment</title>
<path fill="none" stroke="#d7f7e8" d="M153.187,-67.0288C147.86,-59.6121 141.931,-51.3585 136.512,-43.8149"/>
<ellipse fill="none" stroke="#d7f7e8" cx="155.526" cy="-70.284" rx="4.00002" ry="4.00002"/>
<polygon fill="#d7f7e8" stroke="#d7f7e8" points="136.286,-43.4998 134.107,-32.7527 133.369,-39.4389 130.452,-35.378 130.452,-35.378 130.452,-35.378 133.369,-39.4389 126.797,-38.0033 136.286,-43.4998 136.286,-43.4998"/>
</g>
<!-- Category -->
<g id="node3" class="node"><title>Category</title>
<ellipse fill="none" stroke="black" cx="574.688" cy="-164" rx="42.5456" ry="18"/>
<text text-anchor="middle" x="574.688" y="-159.8" font-family="Times,serif" font-size="14.00">Category</text>
</g>
<!-- Offering -->
<g id="node5" class="node"><title>Offering</title>
<ellipse fill="none" stroke="black" cx="528.688" cy="-18" rx="40.2968" ry="18"/>
<text text-anchor="middle" x="528.688" y="-13.8" font-family="Times,serif" font-size="14.00">Offering</text>
</g>
<!-- Category&#45;&gt;Offering -->
<g id="edge4" class="edge"><title>Category&#45;&gt;Offering</title>
<path fill="none" stroke="#c0dbc1" d="M579.721,-137.802C582.303,-119.278 583.477,-93.8133 575.688,-73 571.308,-61.2961 563.118,-50.4558 554.787,-41.6061"/>
<ellipse fill="none" stroke="#c0dbc1" cx="579.085" cy="-141.832" rx="4.00001" ry="4.00001"/>
<polygon fill="#c0dbc1" stroke="#c0dbc1" points="554.607,-41.4267 550.697,-31.1815 551.064,-37.8983 547.521,-34.3699 547.521,-34.3699 547.521,-34.3699 551.064,-37.8983 544.346,-37.5583 554.607,-41.4267 554.607,-41.4267"/>
</g>
<!-- Task -->
<g id="node8" class="node"><title>Task</title>
<ellipse fill="none" stroke="black" cx="468.688" cy="-91" rx="27" ry="18"/>
<text text-anchor="middle" x="468.688" y="-86.8" font-family="Times,serif" font-size="14.00">Task</text>
</g>
<!-- Category&#45;&gt;Task -->
<g id="edge3" class="edge"><title>Category&#45;&gt;Task</title>
<path fill="none" stroke="#f39611" d="M546.333,-144.008C530.651,-133.503 511.264,-120.518 495.786,-110.151"/>
<ellipse fill="none" stroke="#f39611" cx="549.658" cy="-146.235" rx="4.00002" ry="4.00002"/>
<polygon fill="#f39611" stroke="#f39611" points="495.49,-109.953 489.686,-100.649 491.336,-107.17 487.182,-104.388 487.182,-104.388 487.182,-104.388 491.336,-107.17 484.678,-108.126 495.49,-109.953 495.49,-109.953"/>
</g>
<!-- Want -->
<g id="node10" class="node"><title>Want</title>
<ellipse fill="none" stroke="black" cx="441.688" cy="-18" rx="28.6076" ry="18"/>
<text text-anchor="middle" x="441.688" y="-13.8" font-family="Times,serif" font-size="14.00">Want</text>
</g>
<!-- Category&#45;&gt;Want -->
<g id="edge5" class="edge"><title>Category&#45;&gt;Want</title>
<path fill="none" stroke="#6b4970" d="M558.819,-140.061C545.343,-121.236 525.005,-94.3077 504.688,-73 493.057,-60.8019 478.898,-48.4743 466.951,-38.6834"/>
<ellipse fill="none" stroke="#6b4970" cx="561.146" cy="-143.342" rx="4.00002" ry="4.00002"/>
<polygon fill="#6b4970" stroke="#6b4970" points="466.875,-38.6221 461.918,-28.8408 462.984,-35.4826 459.092,-32.3431 459.092,-32.3431 459.092,-32.3431 462.984,-35.4826 456.267,-35.8455 466.875,-38.6221 466.875,-38.6221"/>
</g>
<!-- Message -->
<g id="node4" class="node"><title>Message</title>
<ellipse fill="none" stroke="black" cx="306.688" cy="-91" rx="41.1007" ry="18"/>
<text text-anchor="middle" x="306.688" y="-86.8" font-family="Times,serif" font-size="14.00">Message</text>
</g>
<!-- Passing -->
<g id="node6" class="node"><title>Passing</title>
<ellipse fill="none" stroke="black" cx="306.688" cy="-18" rx="37.2681" ry="18"/>
<text text-anchor="middle" x="306.688" y="-13.8" font-family="Times,serif" font-size="14.00">Passing</text>
</g>
<!-- Message&#45;&gt;Passing -->
<g id="edge7" class="edge"><title>Message&#45;&gt;Passing</title>
<path fill="none" stroke="#4433bd" d="M306.688,-64.791C306.688,-58.832 306.688,-52.4496 306.688,-46.3988"/>
<ellipse fill="none" stroke="#4433bd" cx="306.688" cy="-68.8129" rx="4" ry="4"/>
<polygon fill="#4433bd" stroke="#4433bd" points="306.688,-46.0288 311.188,-36.0288 306.688,-41.0288 306.688,-36.0288 306.688,-36.0288 306.688,-36.0288 306.688,-41.0288 302.188,-36.0289 306.688,-46.0288 306.688,-46.0288"/>
</g>
<!-- Task&#45;&gt;Offering -->
<g id="edge9" class="edge"><title>Task&#45;&gt;Offering</title>
<path fill="none" stroke="black" d="M481.412,-74.9427C491.319,-63.2194 505.039,-46.9842 515.148,-35.0223"/>
</g>
<!-- Task&#45;&gt;Want -->
<g id="edge21" class="edge"><title>Task&#45;&gt;Want</title>
<path fill="none" stroke="black" d="M462.289,-73.174C457.985,-61.856 452.335,-46.9979 448.04,-35.7052"/>
</g>
<!-- User -->
<g id="node9" class="node"><title>User</title>
<ellipse fill="none" stroke="black" cx="363.688" cy="-164" rx="27" ry="18"/>
<text text-anchor="middle" x="363.688" y="-159.8" font-family="Times,serif" font-size="14.00">User</text>
</g>
<!-- User&#45;&gt;Account -->
<g id="edge19" class="edge"><title>User&#45;&gt;Account</title>
<path fill="none" stroke="#7d8e61" d="M332.81,-151.699C298.829,-139.263 244.19,-119.266 207.627,-105.885"/>
<ellipse fill="none" stroke="#7d8e61" cx="336.915" cy="-153.202" rx="4.00001" ry="4.00001"/>
<ellipse fill="#7d8e61" stroke="#7d8e61" cx="203.414" cy="-104.343" rx="4.00001" ry="4.00001"/>
</g>
<!-- User&#45;&gt;Message -->
<g id="edge17" class="edge"><title>User&#45;&gt;Message</title>
<path fill="none" stroke="#4b73cb" d="M344.995,-139.716C338.897,-132.12 332.116,-123.674 325.975,-116.025"/>
<polygon fill="#4b73cb" stroke="#4b73cb" points="345.059,-139.796 347.811,-150.411 348.189,-143.695 351.32,-147.594 351.32,-147.594 351.32,-147.594 348.189,-143.695 354.829,-144.777 345.059,-139.796 345.059,-139.796"/>
<polygon fill="#4b73cb" stroke="#4b73cb" points="325.886,-115.913 323.134,-105.298 322.755,-112.014 319.625,-108.115 319.625,-108.115 319.625,-108.115 322.755,-112.014 316.116,-110.932 325.886,-115.913 325.886,-115.913"/>
</g>
<!-- User&#45;&gt;Offering -->
<g id="edge14" class="edge"><title>User&#45;&gt;Offering</title>
<path fill="none" stroke="#f481f7" d="M398.303,-158.74C430.378,-152.965 477.161,-139.584 504.688,-109 520.113,-91.8607 525.801,-65.8917 527.813,-46.247"/>
<ellipse fill="none" stroke="#f481f7" cx="394.027" cy="-159.454" rx="4.00001" ry="4.00001"/>
<polygon fill="#f481f7" stroke="#f481f7" points="527.828,-46.051 533.078,-36.4236 528.209,-41.0656 528.591,-36.0802 528.591,-36.0802 528.591,-36.0802 528.209,-41.0656 524.104,-35.7368 527.828,-46.051 527.828,-46.051"/>
</g>
<!-- User&#45;&gt;Passing -->
<g id="edge16" class="edge"><title>User&#45;&gt;Passing</title>
<path fill="none" stroke="#754886" d="M366.048,-137.91C366.801,-119.24 365.673,-93.5456 356.688,-73 351.368,-60.8367 342.13,-49.6511 333.03,-40.6534"/>
<ellipse fill="none" stroke="#754886" cx="365.818" cy="-141.956" rx="4" ry="4"/>
<polygon fill="#754886" stroke="#754886" points="332.82,-40.4578 328.578,-30.3459 329.164,-37.0471 325.508,-33.6364 325.508,-33.6364 325.508,-33.6364 329.164,-37.0471 322.438,-36.927 332.82,-40.4578 332.82,-40.4578"/>
</g>
<!-- User&#45;&gt;Task -->
<g id="edge13" class="edge"><title>User&#45;&gt;Task</title>
<path fill="none" stroke="#81f02a" d="M392.323,-149.066C403.67,-143.107 416.622,-135.742 427.688,-128 433.984,-123.595 440.407,-118.366 446.245,-113.279"/>
<ellipse fill="none" stroke="#81f02a" cx="388.69" cy="-150.938" rx="4.00002" ry="4.00002"/>
<polygon fill="#81f02a" stroke="#81f02a" points="446.333,-113.199 456.781,-109.868 450.054,-109.859 453.774,-106.519 453.774,-106.519 453.774,-106.519 450.054,-109.859 450.768,-103.17 446.333,-113.199 446.333,-113.199"/>
</g>
<!-- User&#45;&gt;User -->
<g id="edge18" class="edge"><title>User&#45;&gt;User</title>
<path fill="none" stroke="#bda605" d="M399.176,-170.212C404.824,-169.301 408.688,-167.23 408.688,-164 408.688,-160.77 404.824,-158.699 399.176,-157.788"/>
<polygon fill="#bda605" stroke="#bda605" points="399.12,-170.215 388.917,-166.196 394.126,-170.453 389.131,-170.691 389.131,-170.691 389.131,-170.691 394.126,-170.453 389.345,-175.186 399.12,-170.215 399.12,-170.215"/>
<polygon fill="#bda605" stroke="#bda605" points="399.12,-157.785 389.345,-152.814 394.126,-157.547 389.131,-157.309 389.131,-157.309 389.131,-157.309 394.126,-157.547 388.917,-161.804 399.12,-157.785 399.12,-157.785"/>
<text text-anchor="middle" x="442.515" y="-159.8" font-family="Times,serif" font-size="14.00">companions</text>
</g>
<!-- User&#45;&gt;Want -->
<g id="edge15" class="edge"><title>User&#45;&gt;Want</title>
<path fill="none" stroke="#4cafe2" d="M376.463,-139.415C390.659,-113.207 413.493,-71.0511 428.035,-44.206"/>
<ellipse fill="none" stroke="#4cafe2" cx="374.389" cy="-143.244" rx="4.00002" ry="4.00002"/>
<polygon fill="#4cafe2" stroke="#4cafe2" points="428.041,-44.1932 436.761,-37.5436 430.423,-39.7968 432.804,-35.4003 432.804,-35.4003 432.804,-35.4003 430.423,-39.7968 428.847,-33.257 428.041,-44.1932 428.041,-44.1932"/>
</g>
<!-- ActiveRecord::Base -->
<g id="node11" class="node"><title>ActiveRecord::Base</title>
<ellipse fill="none" stroke="black" cx="306.688" cy="-255.5" rx="81.1422" ry="18"/>
<text text-anchor="middle" x="306.688" y="-251.3" font-family="Times,serif" font-size="14.00">ActiveRecord::Base</text>
</g>
<!-- ActiveRecord::Base&#45;&gt;Account -->
<g id="edge2" class="edge"><title>ActiveRecord::Base&#45;&gt;Account</title>
<path fill="none" stroke="black" d="M274.133,-238.917C257.445,-229.691 237.736,-216.726 223.688,-201 198.926,-173.281 182.688,-132.156 174.958,-109.16"/>
</g>
<!-- ActiveRecord::Base&#45;&gt;Category -->
<g id="edge6" class="edge"><title>ActiveRecord::Base&#45;&gt;Category</title>
<path fill="none" stroke="black" d="M369.308,-244.001C412.201,-235.526 469.772,-221.588 517.688,-201 530.592,-195.455 543.923,-187.199 554.445,-179.991"/>
</g>
<!-- ActiveRecord::Base&#45;&gt;Message -->
<g id="edge8" class="edge"><title>ActiveRecord::Base&#45;&gt;Message</title>
<path fill="none" stroke="black" d="M306.688,-237.417C306.688,-206.289 306.688,-140.663 306.688,-109.343"/>
</g>
<!-- ActiveRecord::Base&#45;&gt;Passing -->
<g id="edge10" class="edge"><title>ActiveRecord::Base&#45;&gt;Passing</title>
<path fill="none" stroke="black" d="M294.912,-237.605C273.779,-205.067 233.672,-131.732 256.688,-73 262.888,-57.1785 276.141,-43.2212 287.446,-33.4616"/>
</g>
<!-- ActiveRecord::Base&#45;&gt;Payment -->
<g id="edge11" class="edge"><title>ActiveRecord::Base&#45;&gt;Payment</title>
<path fill="none" stroke="black" d="M269.38,-239.499C223.07,-218.431 146.983,-175.093 120.688,-109 111.213,-85.1843 113.057,-54.9464 115.606,-36.2888"/>
</g>
<!-- ActiveRecord::Base&#45;&gt;Task -->
<g id="edge12" class="edge"><title>ActiveRecord::Base&#45;&gt;Task</title>
<path fill="none" stroke="black" d="M374.665,-245.572C413.905,-236.546 460.202,-218.412 484.688,-182 499.743,-159.612 487.747,-127.27 477.989,-108.067"/>
</g>
<!-- ActiveRecord::Base&#45;&gt;User -->
<g id="edge20" class="edge"><title>ActiveRecord::Base&#45;&gt;User</title>
<path fill="none" stroke="black" d="M317.678,-237.243C328.03,-220.989 343.415,-196.832 353.497,-181.001"/>
</g>
</g>
</svg>
