<?xml version="1.0" encoding="UTF-8" standalone="no"?>
<!DOCTYPE svg PUBLIC "-//W3C//DTD SVG 1.1//EN"
 "http://www.w3.org/Graphics/SVG/1.1/DTD/svg11.dtd">
<!-- Generated by graphviz version 2.38.0 (20140413.2041)
 -->
<!-- Title: models_diagram Pages: 1 -->
<svg width="874pt" height="762pt"
 viewBox="0.00 0.00 873.97 762.00" xmlns="http://www.w3.org/2000/svg" xmlns:xlink="http://www.w3.org/1999/xlink">
<g id="graph0" class="graph" transform="scale(1 1) rotate(0) translate(4 758)">
<title>models_diagram</title>
<polygon fill="white" stroke="none" points="-4,4 -4,-758 869.971,-758 869.971,4 -4,4"/>
<!-- _diagram_info -->
<g id="node1" class="node"><title>_diagram_info</title>
<text text-anchor="start" x="8" y="-613.6" font-family="Times,serif" font-size="13.00">Models diagram</text>
<text text-anchor="start" x="8" y="-600.6" font-family="Times,serif" font-size="13.00">Date: Jul 07 2015 &#45; 11:02</text>
<text text-anchor="start" x="8" y="-587.6" font-family="Times,serif" font-size="13.00">Migration version: 20150506065801</text>
<text text-anchor="start" x="8" y="-574.6" font-family="Times,serif" font-size="13.00">Generated by RailRoady 1.3.0</text>
<text text-anchor="start" x="8" y="-561.6" font-family="Times,serif" font-size="13.00">http://railroady.prestonlee.com</text>
</g>
<!-- Account -->
<g id="node2" class="node"><title>Account</title>
<path fill="none" stroke="black" d="M578.182,-236.5C578.182,-236.5 687.193,-236.5 687.193,-236.5 693.193,-236.5 699.193,-242.5 699.193,-248.5 699.193,-248.5 699.193,-324.5 699.193,-324.5 699.193,-330.5 693.193,-336.5 687.193,-336.5 687.193,-336.5 578.182,-336.5 578.182,-336.5 572.182,-336.5 566.182,-330.5 566.182,-324.5 566.182,-324.5 566.182,-248.5 566.182,-248.5 566.182,-242.5 572.182,-236.5 578.182,-236.5"/>
<text text-anchor="middle" x="632.688" y="-321.3" font-family="Times,serif" font-size="14.00">Account</text>
<polyline fill="none" stroke="black" points="566.182,-314.5 699.193,-314.5 "/>
<text text-anchor="start" x="574.182" y="-299.3" font-family="Times,serif" font-size="14.00">id :integer</text>
<text text-anchor="start" x="574.182" y="-285.3" font-family="Times,serif" font-size="14.00">user_id :integer</text>
<text text-anchor="start" x="574.182" y="-271.3" font-family="Times,serif" font-size="14.00">balance :integer</text>
<text text-anchor="start" x="574.182" y="-257.3" font-family="Times,serif" font-size="14.00">created_at :datetime</text>
<text text-anchor="start" x="574.182" y="-243.3" font-family="Times,serif" font-size="14.00">updated_at :datetime</text>
</g>
<!-- Payment -->
<g id="node7" class="node"><title>Payment</title>
<path fill="none" stroke="black" d="M578.182,-0.5C578.182,-0.5 687.193,-0.5 687.193,-0.5 693.193,-0.5 699.193,-6.5 699.193,-12.5 699.193,-12.5 699.193,-144.5 699.193,-144.5 699.193,-150.5 693.193,-156.5 687.193,-156.5 687.193,-156.5 578.182,-156.5 578.182,-156.5 572.182,-156.5 566.182,-150.5 566.182,-144.5 566.182,-144.5 566.182,-12.5 566.182,-12.5 566.182,-6.5 572.182,-0.5 578.182,-0.5"/>
<text text-anchor="middle" x="632.688" y="-141.3" font-family="Times,serif" font-size="14.00">Payment</text>
<polyline fill="none" stroke="black" points="566.182,-134.5 699.193,-134.5 "/>
<text text-anchor="start" x="574.182" y="-119.3" font-family="Times,serif" font-size="14.00">id :integer</text>
<text text-anchor="start" x="574.182" y="-105.3" font-family="Times,serif" font-size="14.00">from_id :integer</text>
<text text-anchor="start" x="574.182" y="-91.3" font-family="Times,serif" font-size="14.00">to_id :integer</text>
<text text-anchor="start" x="574.182" y="-77.3" font-family="Times,serif" font-size="14.00">subject :string</text>
<text text-anchor="start" x="574.182" y="-63.3" font-family="Times,serif" font-size="14.00">amount :integer</text>
<text text-anchor="start" x="574.182" y="-49.3" font-family="Times,serif" font-size="14.00">balance :integer</text>
<text text-anchor="start" x="574.182" y="-35.3" font-family="Times,serif" font-size="14.00">comment :text</text>
<text text-anchor="start" x="574.182" y="-21.3" font-family="Times,serif" font-size="14.00">created_at :datetime</text>
<text text-anchor="start" x="574.182" y="-7.3" font-family="Times,serif" font-size="14.00">updated_at :datetime</text>
</g>
<!-- Account&#45;&gt;Payment -->
<g id="edge1" class="edge"><title>Account&#45;&gt;Payment</title>
<path fill="none" stroke="#578844" d="M632.688,-228.136C632.688,-209.152 632.688,-187.576 632.688,-166.863"/>
<ellipse fill="none" stroke="#578844" cx="632.688" cy="-232.42" rx="4" ry="4"/>
<polygon fill="#578844" stroke="#578844" points="632.688,-166.779 637.188,-156.779 632.688,-161.779 632.688,-156.779 632.688,-156.779 632.688,-156.779 632.688,-161.779 628.188,-156.779 632.688,-166.779 632.688,-166.779"/>
</g>
<!-- Category -->
<g id="node3" class="node"><title>Category</title>
<path fill="none" stroke="black" d="M237.182,-548.5C237.182,-548.5 346.193,-548.5 346.193,-548.5 352.193,-548.5 358.193,-554.5 358.193,-560.5 358.193,-560.5 358.193,-622.5 358.193,-622.5 358.193,-628.5 352.193,-634.5 346.193,-634.5 346.193,-634.5 237.182,-634.5 237.182,-634.5 231.182,-634.5 225.182,-628.5 225.182,-622.5 225.182,-622.5 225.182,-560.5 225.182,-560.5 225.182,-554.5 231.182,-548.5 237.182,-548.5"/>
<text text-anchor="middle" x="291.688" y="-619.3" font-family="Times,serif" font-size="14.00">Category</text>
<polyline fill="none" stroke="black" points="225.182,-612.5 358.193,-612.5 "/>
<text text-anchor="start" x="233.182" y="-597.3" font-family="Times,serif" font-size="14.00">id :integer</text>
<text text-anchor="start" x="233.182" y="-583.3" font-family="Times,serif" font-size="14.00">name :string</text>
<text text-anchor="start" x="233.182" y="-569.3" font-family="Times,serif" font-size="14.00">created_at :datetime</text>
<text text-anchor="start" x="233.182" y="-555.3" font-family="Times,serif" font-size="14.00">updated_at :datetime</text>
</g>
<!-- Offering -->
<g id="node6" class="node"><title>Offering</title>
<path fill="none" stroke="black" d="M388.182,-194.5C388.182,-194.5 497.193,-194.5 497.193,-194.5 503.193,-194.5 509.193,-200.5 509.193,-206.5 509.193,-206.5 509.193,-366.5 509.193,-366.5 509.193,-372.5 503.193,-378.5 497.193,-378.5 497.193,-378.5 388.182,-378.5 388.182,-378.5 382.182,-378.5 376.182,-372.5 376.182,-366.5 376.182,-366.5 376.182,-206.5 376.182,-206.5 376.182,-200.5 382.182,-194.5 388.182,-194.5"/>
<text text-anchor="middle" x="442.688" y="-363.3" font-family="Times,serif" font-size="14.00">Offering</text>
<polyline fill="none" stroke="black" points="376.182,-356.5 509.193,-356.5 "/>
<text text-anchor="start" x="384.182" y="-341.3" font-family="Times,serif" font-size="14.00">id :integer</text>
<text text-anchor="start" x="384.182" y="-327.3" font-family="Times,serif" font-size="14.00">type :string</text>
<text text-anchor="start" x="384.182" y="-313.3" font-family="Times,serif" font-size="14.00">user_id :integer</text>
<text text-anchor="start" x="384.182" y="-299.3" font-family="Times,serif" font-size="14.00">title :string</text>
<text text-anchor="start" x="384.182" y="-285.3" font-family="Times,serif" font-size="14.00">category_id :integer</text>
<text text-anchor="start" x="384.182" y="-271.3" font-family="Times,serif" font-size="14.00">description :text</text>
<text text-anchor="start" x="384.182" y="-257.3" font-family="Times,serif" font-size="14.00">price :string</text>
<text text-anchor="start" x="384.182" y="-243.3" font-family="Times,serif" font-size="14.00">expired_at :datetime</text>
<text text-anchor="start" x="384.182" y="-229.3" font-family="Times,serif" font-size="14.00">created_at :datetime</text>
<text text-anchor="start" x="384.182" y="-215.3" font-family="Times,serif" font-size="14.00">updated_at :datetime</text>
<text text-anchor="start" x="384.182" y="-201.3" font-family="Times,serif" font-size="14.00">closed_at :datetime</text>
</g>
<!-- Category&#45;&gt;Offering -->
<g id="edge3" class="edge"><title>Category&#45;&gt;Offering</title>
<path fill="none" stroke="#d1b323" d="M316.366,-540.98C336.979,-499.618 367.025,-439.326 392.643,-387.92"/>
<ellipse fill="none" stroke="#d1b323" cx="314.468" cy="-544.789" rx="4.00002" ry="4.00002"/>
<polygon fill="#d1b323" stroke="#d1b323" points="392.746,-387.713 401.234,-380.77 394.977,-383.238 397.207,-378.763 397.207,-378.763 397.207,-378.763 394.977,-383.238 393.179,-376.756 392.746,-387.713 392.746,-387.713"/>
</g>
<!-- Task -->
<g id="node8" class="node"><title>Task</title>
<path fill="none" stroke="black" d="M86.1824,-194.5C86.1824,-194.5 195.193,-194.5 195.193,-194.5 201.193,-194.5 207.193,-200.5 207.193,-206.5 207.193,-206.5 207.193,-366.5 207.193,-366.5 207.193,-372.5 201.193,-378.5 195.193,-378.5 195.193,-378.5 86.1824,-378.5 86.1824,-378.5 80.1824,-378.5 74.1824,-372.5 74.1824,-366.5 74.1824,-366.5 74.1824,-206.5 74.1824,-206.5 74.1824,-200.5 80.1824,-194.5 86.1824,-194.5"/>
<text text-anchor="middle" x="140.688" y="-363.3" font-family="Times,serif" font-size="14.00">Task</text>
<polyline fill="none" stroke="black" points="74.1824,-356.5 207.193,-356.5 "/>
<text text-anchor="start" x="82.1824" y="-341.3" font-family="Times,serif" font-size="14.00">id :integer</text>
<text text-anchor="start" x="82.1824" y="-327.3" font-family="Times,serif" font-size="14.00">type :string</text>
<text text-anchor="start" x="82.1824" y="-313.3" font-family="Times,serif" font-size="14.00">user_id :integer</text>
<text text-anchor="start" x="82.1824" y="-299.3" font-family="Times,serif" font-size="14.00">title :string</text>
<text text-anchor="start" x="82.1824" y="-285.3" font-family="Times,serif" font-size="14.00">category_id :integer</text>
<text text-anchor="start" x="82.1824" y="-271.3" font-family="Times,serif" font-size="14.00">description :text</text>
<text text-anchor="start" x="82.1824" y="-257.3" font-family="Times,serif" font-size="14.00">price :string</text>
<text text-anchor="start" x="82.1824" y="-243.3" font-family="Times,serif" font-size="14.00">expired_at :datetime</text>
<text text-anchor="start" x="82.1824" y="-229.3" font-family="Times,serif" font-size="14.00">created_at :datetime</text>
<text text-anchor="start" x="82.1824" y="-215.3" font-family="Times,serif" font-size="14.00">updated_at :datetime</text>
<text text-anchor="start" x="82.1824" y="-201.3" font-family="Times,serif" font-size="14.00">closed_at :datetime</text>
</g>
<!-- Category&#45;&gt;Task -->
<g id="edge2" class="edge"><title>Category&#45;&gt;Task</title>
<path fill="none" stroke="#9a2937" d="M269.527,-540.837C254.97,-508.712 235.253,-466.114 216.688,-429 209.985,-415.6 202.748,-401.592 195.496,-387.821"/>
<ellipse fill="none" stroke="#9a2937" cx="271.277" cy="-544.708" rx="4.00002" ry="4.00002"/>
<polygon fill="#9a2937" stroke="#9a2937" points="195.408,-387.655 194.712,-376.711 193.071,-383.234 190.734,-378.814 190.734,-378.814 190.734,-378.814 193.071,-383.234 186.756,-380.918 195.408,-387.655 195.408,-387.655"/>
</g>
<!-- Want -->
<g id="node10" class="node"><title>Want</title>
<path fill="none" stroke="black" d="M237.182,-194.5C237.182,-194.5 346.193,-194.5 346.193,-194.5 352.193,-194.5 358.193,-200.5 358.193,-206.5 358.193,-206.5 358.193,-366.5 358.193,-366.5 358.193,-372.5 352.193,-378.5 346.193,-378.5 346.193,-378.5 237.182,-378.5 237.182,-378.5 231.182,-378.5 225.182,-372.5 225.182,-366.5 225.182,-366.5 225.182,-206.5 225.182,-206.5 225.182,-200.5 231.182,-194.5 237.182,-194.5"/>
<text text-anchor="middle" x="291.688" y="-363.3" font-family="Times,serif" font-size="14.00">Want</text>
<polyline fill="none" stroke="black" points="225.182,-356.5 358.193,-356.5 "/>
<text text-anchor="start" x="233.182" y="-341.3" font-family="Times,serif" font-size="14.00">id :integer</text>
<text text-anchor="start" x="233.182" y="-327.3" font-family="Times,serif" font-size="14.00">type :string</text>
<text text-anchor="start" x="233.182" y="-313.3" font-family="Times,serif" font-size="14.00">user_id :integer</text>
<text text-anchor="start" x="233.182" y="-299.3" font-family="Times,serif" font-size="14.00">title :string</text>
<text text-anchor="start" x="233.182" y="-285.3" font-family="Times,serif" font-size="14.00">category_id :integer</text>
<text text-anchor="start" x="233.182" y="-271.3" font-family="Times,serif" font-size="14.00">description :text</text>
<text text-anchor="start" x="233.182" y="-257.3" font-family="Times,serif" font-size="14.00">price :string</text>
<text text-anchor="start" x="233.182" y="-243.3" font-family="Times,serif" font-size="14.00">expired_at :datetime</text>
<text text-anchor="start" x="233.182" y="-229.3" font-family="Times,serif" font-size="14.00">created_at :datetime</text>
<text text-anchor="start" x="233.182" y="-215.3" font-family="Times,serif" font-size="14.00">updated_at :datetime</text>
<text text-anchor="start" x="233.182" y="-201.3" font-family="Times,serif" font-size="14.00">closed_at :datetime</text>
</g>
<!-- Category&#45;&gt;Want -->
<g id="edge4" class="edge"><title>Category&#45;&gt;Want</title>
<path fill="none" stroke="#009e78" d="M291.688,-540.162C291.688,-499.067 291.688,-439.686 291.688,-388.816"/>
<ellipse fill="none" stroke="#009e78" cx="291.688" cy="-544.369" rx="4" ry="4"/>
<polygon fill="#009e78" stroke="#009e78" points="291.688,-388.763 296.188,-378.763 291.688,-383.763 291.688,-378.763 291.688,-378.763 291.688,-378.763 291.688,-383.763 287.188,-378.763 291.688,-388.763 291.688,-388.763"/>
</g>
<!-- Entry -->
<g id="node4" class="node"><title>Entry</title>
<path fill="none" stroke="black" d="M313.182,-14.5C313.182,-14.5 422.193,-14.5 422.193,-14.5 428.193,-14.5 434.193,-20.5 434.193,-26.5 434.193,-26.5 434.193,-130.5 434.193,-130.5 434.193,-136.5 428.193,-142.5 422.193,-142.5 422.193,-142.5 313.182,-142.5 313.182,-142.5 307.182,-142.5 301.182,-136.5 301.182,-130.5 301.182,-130.5 301.182,-26.5 301.182,-26.5 301.182,-20.5 307.182,-14.5 313.182,-14.5"/>
<text text-anchor="middle" x="367.688" y="-127.3" font-family="Times,serif" font-size="14.00">Entry</text>
<polyline fill="none" stroke="black" points="301.182,-120.5 434.193,-120.5 "/>
<text text-anchor="start" x="309.182" y="-105.3" font-family="Times,serif" font-size="14.00">id :integer</text>
<text text-anchor="start" x="309.182" y="-91.3" font-family="Times,serif" font-size="14.00">task_id :integer</text>
<text text-anchor="start" x="309.182" y="-77.3" font-family="Times,serif" font-size="14.00">user_id :integer</text>
<text text-anchor="start" x="309.182" y="-63.3" font-family="Times,serif" font-size="14.00">hired_at :datetime</text>
<text text-anchor="start" x="309.182" y="-49.3" font-family="Times,serif" font-size="14.00">paid_at :datetime</text>
<text text-anchor="start" x="309.182" y="-35.3" font-family="Times,serif" font-size="14.00">created_at :datetime</text>
<text text-anchor="start" x="309.182" y="-21.3" font-family="Times,serif" font-size="14.00">updated_at :datetime</text>
</g>
<!-- Message -->
<g id="node5" class="node"><title>Message</title>
<path fill="none" stroke="black" d="M729.182,-222.5C729.182,-222.5 838.193,-222.5 838.193,-222.5 844.193,-222.5 850.193,-228.5 850.193,-234.5 850.193,-234.5 850.193,-338.5 850.193,-338.5 850.193,-344.5 844.193,-350.5 838.193,-350.5 838.193,-350.5 729.182,-350.5 729.182,-350.5 723.182,-350.5 717.182,-344.5 717.182,-338.5 717.182,-338.5 717.182,-234.5 717.182,-234.5 717.182,-228.5 723.182,-222.5 729.182,-222.5"/>
<text text-anchor="middle" x="783.688" y="-335.3" font-family="Times,serif" font-size="14.00">Message</text>
<polyline fill="none" stroke="black" points="717.182,-328.5 850.193,-328.5 "/>
<text text-anchor="start" x="725.182" y="-313.3" font-family="Times,serif" font-size="14.00">id :integer</text>
<text text-anchor="start" x="725.182" y="-299.3" font-family="Times,serif" font-size="14.00">subject :string</text>
<text text-anchor="start" x="725.182" y="-285.3" font-family="Times,serif" font-size="14.00">body :text</text>
<text text-anchor="start" x="725.182" y="-271.3" font-family="Times,serif" font-size="14.00">created_at :datetime</text>
<text text-anchor="start" x="725.182" y="-257.3" font-family="Times,serif" font-size="14.00">updated_at :datetime</text>
<text text-anchor="start" x="725.182" y="-243.3" font-family="Times,serif" font-size="14.00">sender_id :integer</text>
<text text-anchor="start" x="725.182" y="-229.3" font-family="Times,serif" font-size="14.00">recepient_id :integer</text>
</g>
<!-- Offering&#45;&gt;Entry -->
<g id="edge5" class="edge"><title>Offering&#45;&gt;Entry</title>
<path fill="none" stroke="#e9da25" d="M406.629,-186.459C402.427,-174.916 398.2,-163.308 394.161,-152.214"/>
<ellipse fill="none" stroke="#e9da25" cx="408.096" cy="-190.487" rx="4.00001" ry="4.00001"/>
<polygon fill="#e9da25" stroke="#e9da25" points="394.086,-152.008 394.894,-141.072 392.376,-147.31 390.665,-142.611 390.665,-142.611 390.665,-142.611 392.376,-147.31 386.437,-144.151 394.086,-152.008 394.086,-152.008"/>
</g>
<!-- Task&#45;&gt;Entry -->
<g id="edge6" class="edge"><title>Task&#45;&gt;Entry</title>
<path fill="none" stroke="#eae453" d="M213.05,-196.563C213.928,-195.699 214.808,-194.844 215.688,-194 239.239,-171.395 267.254,-149.183 292.778,-130.428"/>
<ellipse fill="none" stroke="#eae453" cx="210.088" cy="-199.547" rx="4.00002" ry="4.00002"/>
<polygon fill="#eae453" stroke="#eae453" points="292.884,-130.35 303.617,-128.101 296.926,-127.407 300.968,-124.464 300.968,-124.464 300.968,-124.464 296.926,-127.407 298.319,-120.826 292.884,-130.35 292.884,-130.35"/>
</g>
<!-- User -->
<g id="node9" class="node"><title>User</title>
<path fill="none" stroke="black" d="M447.41,-429.5C447.41,-429.5 627.966,-429.5 627.966,-429.5 633.966,-429.5 639.966,-435.5 639.966,-441.5 639.966,-441.5 639.966,-741.5 639.966,-741.5 639.966,-747.5 633.966,-753.5 627.966,-753.5 627.966,-753.5 447.41,-753.5 447.41,-753.5 441.41,-753.5 435.41,-747.5 435.41,-741.5 435.41,-741.5 435.41,-441.5 435.41,-441.5 435.41,-435.5 441.41,-429.5 447.41,-429.5"/>
<text text-anchor="middle" x="537.688" y="-738.3" font-family="Times,serif" font-size="14.00">User</text>
<polyline fill="none" stroke="black" points="435.41,-731.5 639.966,-731.5 "/>
<text text-anchor="start" x="443.41" y="-716.3" font-family="Times,serif" font-size="14.00">id :integer</text>
<text text-anchor="start" x="443.41" y="-702.3" font-family="Times,serif" font-size="14.00">email :string</text>
<text text-anchor="start" x="443.41" y="-688.3" font-family="Times,serif" font-size="14.00">encrypted_password :string</text>
<text text-anchor="start" x="443.41" y="-674.3" font-family="Times,serif" font-size="14.00">reset_password_token :string</text>
<text text-anchor="start" x="443.41" y="-660.3" font-family="Times,serif" font-size="14.00">reset_password_sent_at :datetime</text>
<text text-anchor="start" x="443.41" y="-646.3" font-family="Times,serif" font-size="14.00">remember_created_at :datetime</text>
<text text-anchor="start" x="443.41" y="-632.3" font-family="Times,serif" font-size="14.00">sign_in_count :integer</text>
<text text-anchor="start" x="443.41" y="-618.3" font-family="Times,serif" font-size="14.00">current_sign_in_at :datetime</text>
<text text-anchor="start" x="443.41" y="-604.3" font-family="Times,serif" font-size="14.00">last_sign_in_at :datetime</text>
<text text-anchor="start" x="443.41" y="-590.3" font-family="Times,serif" font-size="14.00">current_sign_in_ip :string</text>
<text text-anchor="start" x="443.41" y="-576.3" font-family="Times,serif" font-size="14.00">last_sign_in_ip :string</text>
<text text-anchor="start" x="443.41" y="-562.3" font-family="Times,serif" font-size="14.00">confirmation_token :string</text>
<text text-anchor="start" x="443.41" y="-548.3" font-family="Times,serif" font-size="14.00">confirmed_at :datetime</text>
<text text-anchor="start" x="443.41" y="-534.3" font-family="Times,serif" font-size="14.00">confirmation_sent_at :datetime</text>
<text text-anchor="start" x="443.41" y="-520.3" font-family="Times,serif" font-size="14.00">unconfirmed_email :string</text>
<text text-anchor="start" x="443.41" y="-506.3" font-family="Times,serif" font-size="14.00">failed_attempts :integer</text>
<text text-anchor="start" x="443.41" y="-492.3" font-family="Times,serif" font-size="14.00">unlock_token :string</text>
<text text-anchor="start" x="443.41" y="-478.3" font-family="Times,serif" font-size="14.00">locked_at :datetime</text>
<text text-anchor="start" x="443.41" y="-464.3" font-family="Times,serif" font-size="14.00">created_at :datetime</text>
<text text-anchor="start" x="443.41" y="-450.3" font-family="Times,serif" font-size="14.00">updated_at :datetime</text>
<text text-anchor="start" x="443.41" y="-436.3" font-family="Times,serif" font-size="14.00">name :string</text>
</g>
<!-- User&#45;&gt;Account -->
<g id="edge7" class="edge"><title>User&#45;&gt;Account</title>
<path fill="none" stroke="#b867d7" d="M589.92,-421.743C592.54,-413.375 595.14,-405.091 597.688,-397 603.093,-379.831 609.034,-361.169 614.462,-344.197"/>
<ellipse fill="none" stroke="#b867d7" cx="588.704" cy="-425.632" rx="4.00001" ry="4.00001"/>
<ellipse fill="#b867d7" stroke="#b867d7" cx="615.697" cy="-340.339" rx="4.00001" ry="4.00001"/>
</g>
<!-- User&#45;&gt;Entry -->
<g id="edge11" class="edge"><title>User&#45;&gt;Entry</title>
<path fill="none" stroke="#c1c344" d="M543.609,-421.285C543.99,-331.975 539.231,-232.987 518.688,-194 501.867,-162.078 471.745,-136.492 442.805,-117.673"/>
<ellipse fill="none" stroke="#c1c344" cx="543.585" cy="-425.343" rx="4" ry="4"/>
<polygon fill="#c1c344" stroke="#c1c344" points="442.742,-117.633 436.684,-108.492 438.513,-114.966 434.283,-112.298 434.283,-112.298 434.283,-112.298 438.513,-114.966 431.883,-116.104 442.742,-117.633 442.742,-117.633"/>
</g>
<!-- User&#45;&gt;Message -->
<g id="edge12" class="edge"><title>User&#45;&gt;Message</title>
<path fill="none" stroke="#02d03c" d="M626.765,-422.911C635.208,-413.484 644.263,-404.722 653.936,-397 673.954,-381.019 687.559,-393.483 708.688,-379 717.201,-373.164 725.262,-366.094 732.72,-358.499"/>
<ellipse fill="none" stroke="#02d03c" cx="623.927" cy="-426.178" rx="4.00002" ry="4.00002"/>
<polygon fill="#02d03c" stroke="#02d03c" points="733.136,-358.055 743.256,-353.831 736.554,-354.405 739.971,-350.755 739.971,-350.755 739.971,-350.755 736.554,-354.405 736.687,-347.68 733.136,-358.055 733.136,-358.055"/>
<text text-anchor="middle" x="703.064" y="-399.8" font-family="Times,serif" font-size="14.00">sended_messages</text>
</g>
<!-- User&#45;&gt;Message -->
<g id="edge13" class="edge"><title>User&#45;&gt;Message</title>
<path fill="none" stroke="#8ec47b" d="M646.651,-521.089C685.29,-491.475 725.807,-453.825 752.688,-411 762.168,-395.896 768.752,-378.049 773.323,-360.686"/>
<ellipse fill="none" stroke="#8ec47b" cx="643.156" cy="-523.734" rx="4.00002" ry="4.00002"/>
<polygon fill="#8ec47b" stroke="#8ec47b" points="773.427,-360.26 780.162,-351.606 774.608,-355.402 775.789,-350.543 775.789,-350.543 775.789,-350.543 774.608,-355.402 771.416,-349.48 773.427,-360.26 773.427,-360.26"/>
<text text-anchor="middle" x="812.329" y="-399.8" font-family="Times,serif" font-size="14.00">received_messages</text>
</g>
<!-- User&#45;&gt;Offering -->
<g id="edge9" class="edge"><title>User&#45;&gt;Offering</title>
<path fill="none" stroke="#ee38af" d="M484.706,-421.515C481.167,-410.227 477.669,-399.071 474.292,-388.302"/>
<ellipse fill="none" stroke="#ee38af" cx="485.931" cy="-425.425" rx="4.00001" ry="4.00001"/>
<polygon fill="#ee38af" stroke="#ee38af" points="474.219,-388.069 475.521,-377.181 472.723,-383.298 471.228,-378.527 471.228,-378.527 471.228,-378.527 472.723,-383.298 466.934,-379.873 474.219,-388.069 474.219,-388.069"/>
</g>
<!-- User&#45;&gt;Task -->
<g id="edge8" class="edge"><title>User&#45;&gt;Task</title>
<path fill="none" stroke="#3336f1" d="M429.058,-474.241C409.749,-457.532 388.97,-441.722 367.688,-429 306.646,-392.511 274.343,-419.213 215.688,-379 215.598,-378.938 215.508,-378.876 215.418,-378.814"/>
<ellipse fill="none" stroke="#3336f1" cx="432.268" cy="-477.057" rx="4.00002" ry="4.00002"/>
<polygon fill="#3336f1" stroke="#3336f1" points="215.22,-378.666 209.903,-369.076 211.214,-375.673 207.209,-372.68 207.209,-372.68 207.209,-372.68 211.214,-375.673 204.515,-376.285 215.22,-378.666 215.22,-378.666"/>
</g>
<!-- User&#45;&gt;User -->
<g id="edge14" class="edge"><title>User&#45;&gt;User</title>
<path fill="none" stroke="#a2e0da" d="M649.928,-602.332C655.002,-599.581 657.966,-595.97 657.966,-591.5 657.966,-587.03 655.002,-583.419 649.928,-580.668"/>
<polygon fill="#a2e0da" stroke="#a2e0da" points="649.699,-602.418 638.755,-601.737 645.021,-604.183 640.343,-605.948 640.343,-605.948 640.343,-605.948 645.021,-604.183 641.931,-610.158 649.699,-602.418 649.699,-602.418"/>
<polygon fill="#a2e0da" stroke="#a2e0da" points="649.699,-580.582 641.931,-572.842 645.021,-578.817 640.343,-577.052 640.343,-577.052 640.343,-577.052 645.021,-578.817 638.755,-581.263 649.699,-580.582 649.699,-580.582"/>
<text text-anchor="middle" x="678.959" y="-587.3" font-family="Times,serif" font-size="14.00">senders</text>
</g>
<!-- User&#45;&gt;User -->
<g id="edge15" class="edge"><title>User&#45;&gt;User</title>
<path fill="none" stroke="#c003f6" d="M650.36,-625.687C678.492,-622.881 699.952,-611.485 699.952,-591.5 699.952,-571.515 678.492,-560.119 650.36,-557.313"/>
<polygon fill="#c003f6" stroke="#c003f6" points="650.136,-625.701 639.876,-621.83 645.146,-626.012 640.155,-626.322 640.155,-626.322 640.155,-626.322 645.146,-626.012 640.435,-630.813 650.136,-625.701 650.136,-625.701"/>
<polygon fill="#c003f6" stroke="#c003f6" points="650.136,-557.299 640.435,-552.187 645.146,-556.988 640.155,-556.678 640.155,-556.678 640.155,-556.678 645.146,-556.988 639.876,-561.17 650.136,-557.299 650.136,-557.299"/>
<text text-anchor="middle" x="728.324" y="-587.3" font-family="Times,serif" font-size="14.00">recepients</text>
</g>
<!-- User&#45;&gt;Want -->
<g id="edge10" class="edge"><title>User&#45;&gt;Want</title>
<path fill="none" stroke="#7d1f7f" d="M429.954,-457.803C407.953,-430.704 385.29,-402.79 364.839,-377.601"/>
<ellipse fill="none" stroke="#7d1f7f" cx="432.622" cy="-461.089" rx="4.00002" ry="4.00002"/>
<polygon fill="#7d1f7f" stroke="#7d1f7f" points="364.584,-377.287 361.775,-366.687 361.433,-373.405 358.281,-369.523 358.281,-369.523 358.281,-369.523 361.433,-373.405 354.787,-372.36 364.584,-377.287 364.584,-377.287"/>
</g>
<!-- Want&#45;&gt;Entry -->
<g id="edge16" class="edge"><title>Want&#45;&gt;Entry</title>
<path fill="none" stroke="#7cce66" d="M328.227,-186.459C332.486,-174.916 336.768,-163.308 340.861,-152.214"/>
<ellipse fill="none" stroke="#7cce66" cx="326.739" cy="-190.493" rx="4.00001" ry="4.00001"/>
<polygon fill="#7cce66" stroke="#7cce66" points="340.943,-151.993 348.626,-144.169 342.673,-147.302 344.404,-142.611 344.404,-142.611 344.404,-142.611 342.673,-147.302 340.182,-141.054 340.943,-151.993 340.943,-151.993"/>
</g>
</g>
</svg>
