<?xml version="1.0" encoding="UTF-8" standalone="no"?>
<!DOCTYPE svg PUBLIC "-//W3C//DTD SVG 1.1//EN"
 "http://www.w3.org/Graphics/SVG/1.1/DTD/svg11.dtd">
<!-- Generated by graphviz version 2.38.0 (20140413.2041)
 -->
<!-- Title: models_diagram Pages: 1 -->
<svg width="687pt" height="842pt"
 viewBox="0.00 0.00 686.74 842.00" xmlns="http://www.w3.org/2000/svg" xmlns:xlink="http://www.w3.org/1999/xlink">
<g id="graph0" class="graph" transform="scale(1 1) rotate(0) translate(4 838)">
<title>models_diagram</title>
<polygon fill="white" stroke="none" points="-4,4 -4,-838 682.736,-838 682.736,4 -4,4"/>
<!-- _diagram_info -->
<g id="node1" class="node"><title>_diagram_info</title>
<text text-anchor="start" x="69.5433" y="-819.6" font-family="Times,serif" font-size="13.00">Models diagram</text>
<text text-anchor="start" x="69.5433" y="-806.6" font-family="Times,serif" font-size="13.00">Date: Aug 20 2014 &#45; 17:00</text>
<text text-anchor="start" x="69.5433" y="-793.6" font-family="Times,serif" font-size="13.00">Migration version: 20140819082702</text>
<text text-anchor="start" x="69.5433" y="-780.6" font-family="Times,serif" font-size="13.00">Generated by RailRoady 1.1.2</text>
<text text-anchor="start" x="69.5433" y="-767.6" font-family="Times,serif" font-size="13.00">http://railroady.prestonlee.com</text>
</g>
<!-- Account -->
<g id="node2" class="node"><title>Account</title>
<path fill="none" stroke="black" d="M557.726,-228.5C557.726,-228.5 666.736,-228.5 666.736,-228.5 672.736,-228.5 678.736,-234.5 678.736,-240.5 678.736,-240.5 678.736,-316.5 678.736,-316.5 678.736,-322.5 672.736,-328.5 666.736,-328.5 666.736,-328.5 557.726,-328.5 557.726,-328.5 551.726,-328.5 545.726,-322.5 545.726,-316.5 545.726,-316.5 545.726,-240.5 545.726,-240.5 545.726,-234.5 551.726,-228.5 557.726,-228.5"/>
<text text-anchor="middle" x="612.231" y="-313.3" font-family="Times,serif" font-size="14.00">Account</text>
<polyline fill="none" stroke="black" points="545.726,-306.5 678.736,-306.5 "/>
<text text-anchor="start" x="553.726" y="-291.3" font-family="Times,serif" font-size="14.00">id :integer</text>
<text text-anchor="start" x="553.726" y="-277.3" font-family="Times,serif" font-size="14.00">user_id :integer</text>
<text text-anchor="start" x="553.726" y="-263.3" font-family="Times,serif" font-size="14.00">balance :integer</text>
<text text-anchor="start" x="553.726" y="-249.3" font-family="Times,serif" font-size="14.00">created_at :datetime</text>
<text text-anchor="start" x="553.726" y="-235.3" font-family="Times,serif" font-size="14.00">updated_at :datetime</text>
</g>
<!-- Payment -->
<g id="node6" class="node"><title>Payment</title>
<path fill="none" stroke="black" d="M265.726,-0.5C265.726,-0.5 374.736,-0.5 374.736,-0.5 380.736,-0.5 386.736,-6.5 386.736,-12.5 386.736,-12.5 386.736,-144.5 386.736,-144.5 386.736,-150.5 380.736,-156.5 374.736,-156.5 374.736,-156.5 265.726,-156.5 265.726,-156.5 259.726,-156.5 253.726,-150.5 253.726,-144.5 253.726,-144.5 253.726,-12.5 253.726,-12.5 253.726,-6.5 259.726,-0.5 265.726,-0.5"/>
<text text-anchor="middle" x="320.231" y="-141.3" font-family="Times,serif" font-size="14.00">Payment</text>
<polyline fill="none" stroke="black" points="253.726,-134.5 386.736,-134.5 "/>
<text text-anchor="start" x="261.726" y="-119.3" font-family="Times,serif" font-size="14.00">id :integer</text>
<text text-anchor="start" x="261.726" y="-105.3" font-family="Times,serif" font-size="14.00">from_id :integer</text>
<text text-anchor="start" x="261.726" y="-91.3" font-family="Times,serif" font-size="14.00">to_id :integer</text>
<text text-anchor="start" x="261.726" y="-77.3" font-family="Times,serif" font-size="14.00">subject :string</text>
<text text-anchor="start" x="261.726" y="-63.3" font-family="Times,serif" font-size="14.00">amount :integer</text>
<text text-anchor="start" x="261.726" y="-49.3" font-family="Times,serif" font-size="14.00">balance :integer</text>
<text text-anchor="start" x="261.726" y="-35.3" font-family="Times,serif" font-size="14.00">comment :text</text>
<text text-anchor="start" x="261.726" y="-21.3" font-family="Times,serif" font-size="14.00">created_at :datetime</text>
<text text-anchor="start" x="261.726" y="-7.3" font-family="Times,serif" font-size="14.00">updated_at :datetime</text>
</g>
<!-- Account&#45;&gt;Payment -->
<g id="edge1" class="edge"><title>Account&#45;&gt;Payment</title>
<path fill="none" stroke="#1b6856" d="M568.21,-221.986C558.625,-211.668 548.083,-201.482 537.231,-193 494.23,-159.392 439.79,-130.95 396.196,-110.943"/>
<ellipse fill="none" stroke="#1b6856" cx="571.046" cy="-225.104" rx="4.00002" ry="4.00002"/>
<polygon fill="#1b6856" stroke="#1b6856" points="396.174,-110.933 388.925,-102.705 391.62,-108.868 387.067,-106.803 387.067,-106.803 387.067,-106.803 391.62,-108.868 385.208,-110.902 396.174,-110.933 396.174,-110.933"/>
</g>
<!-- Category -->
<g id="node3" class="node"><title>Category</title>
<path fill="none" stroke="black" d="M68.7257,-519.5C68.7257,-519.5 177.736,-519.5 177.736,-519.5 183.736,-519.5 189.736,-525.5 189.736,-531.5 189.736,-531.5 189.736,-593.5 189.736,-593.5 189.736,-599.5 183.736,-605.5 177.736,-605.5 177.736,-605.5 68.7257,-605.5 68.7257,-605.5 62.7257,-605.5 56.7257,-599.5 56.7257,-593.5 56.7257,-593.5 56.7257,-531.5 56.7257,-531.5 56.7257,-525.5 62.7257,-519.5 68.7257,-519.5"/>
<text text-anchor="middle" x="123.231" y="-590.3" font-family="Times,serif" font-size="14.00">Category</text>
<polyline fill="none" stroke="black" points="56.7257,-583.5 189.736,-583.5 "/>
<text text-anchor="start" x="64.7257" y="-568.3" font-family="Times,serif" font-size="14.00">id :integer</text>
<text text-anchor="start" x="64.7257" y="-554.3" font-family="Times,serif" font-size="14.00">name :string</text>
<text text-anchor="start" x="64.7257" y="-540.3" font-family="Times,serif" font-size="14.00">created_at :datetime</text>
<text text-anchor="start" x="64.7257" y="-526.3" font-family="Times,serif" font-size="14.00">updated_at :datetime</text>
</g>
<!-- Offering -->
<g id="node5" class="node"><title>Offering</title>
<path fill="none" stroke="black" d="M237.726,-193.5C237.726,-193.5 346.736,-193.5 346.736,-193.5 352.736,-193.5 358.736,-199.5 358.736,-205.5 358.736,-205.5 358.736,-351.5 358.736,-351.5 358.736,-357.5 352.736,-363.5 346.736,-363.5 346.736,-363.5 237.726,-363.5 237.726,-363.5 231.726,-363.5 225.726,-357.5 225.726,-351.5 225.726,-351.5 225.726,-205.5 225.726,-205.5 225.726,-199.5 231.726,-193.5 237.726,-193.5"/>
<text text-anchor="middle" x="292.231" y="-348.3" font-family="Times,serif" font-size="14.00">Offering</text>
<polyline fill="none" stroke="black" points="225.726,-341.5 358.736,-341.5 "/>
<text text-anchor="start" x="233.726" y="-326.3" font-family="Times,serif" font-size="14.00">id :integer</text>
<text text-anchor="start" x="233.726" y="-312.3" font-family="Times,serif" font-size="14.00">type :string</text>
<text text-anchor="start" x="233.726" y="-298.3" font-family="Times,serif" font-size="14.00">user_id :integer</text>
<text text-anchor="start" x="233.726" y="-284.3" font-family="Times,serif" font-size="14.00">title :string</text>
<text text-anchor="start" x="233.726" y="-270.3" font-family="Times,serif" font-size="14.00">category_id :integer</text>
<text text-anchor="start" x="233.726" y="-256.3" font-family="Times,serif" font-size="14.00">description :text</text>
<text text-anchor="start" x="233.726" y="-242.3" font-family="Times,serif" font-size="14.00">price :string</text>
<text text-anchor="start" x="233.726" y="-228.3" font-family="Times,serif" font-size="14.00">expired_at :datetime</text>
<text text-anchor="start" x="233.726" y="-214.3" font-family="Times,serif" font-size="14.00">created_at :datetime</text>
<text text-anchor="start" x="233.726" y="-200.3" font-family="Times,serif" font-size="14.00">updated_at :datetime</text>
</g>
<!-- Category&#45;&gt;Offering -->
<g id="edge3" class="edge"><title>Category&#45;&gt;Offering</title>
<path fill="none" stroke="#5e2c4b" d="M142.88,-511.688C156.617,-478.973 176.365,-435.775 198.231,-400 204.727,-389.371 212.003,-378.588 219.552,-368.065"/>
<ellipse fill="none" stroke="#5e2c4b" cx="141.231" cy="-515.651" rx="4.00001" ry="4.00001"/>
<polygon fill="#5e2c4b" stroke="#5e2c4b" points="219.767,-367.771 229.293,-362.339 222.712,-363.73 225.656,-359.689 225.656,-359.689 225.656,-359.689 222.712,-363.73 222.02,-357.039 219.767,-367.771 219.767,-367.771"/>
</g>
<!-- Want -->
<g id="node9" class="node"><title>Want</title>
<path fill="none" stroke="black" d="M86.7257,-193.5C86.7257,-193.5 195.736,-193.5 195.736,-193.5 201.736,-193.5 207.736,-199.5 207.736,-205.5 207.736,-205.5 207.736,-351.5 207.736,-351.5 207.736,-357.5 201.736,-363.5 195.736,-363.5 195.736,-363.5 86.7257,-363.5 86.7257,-363.5 80.7257,-363.5 74.7257,-357.5 74.7257,-351.5 74.7257,-351.5 74.7257,-205.5 74.7257,-205.5 74.7257,-199.5 80.7257,-193.5 86.7257,-193.5"/>
<text text-anchor="middle" x="141.231" y="-348.3" font-family="Times,serif" font-size="14.00">Want</text>
<polyline fill="none" stroke="black" points="74.7257,-341.5 207.736,-341.5 "/>
<text text-anchor="start" x="82.7257" y="-326.3" font-family="Times,serif" font-size="14.00">id :integer</text>
<text text-anchor="start" x="82.7257" y="-312.3" font-family="Times,serif" font-size="14.00">type :string</text>
<text text-anchor="start" x="82.7257" y="-298.3" font-family="Times,serif" font-size="14.00">user_id :integer</text>
<text text-anchor="start" x="82.7257" y="-284.3" font-family="Times,serif" font-size="14.00">title :string</text>
<text text-anchor="start" x="82.7257" y="-270.3" font-family="Times,serif" font-size="14.00">category_id :integer</text>
<text text-anchor="start" x="82.7257" y="-256.3" font-family="Times,serif" font-size="14.00">description :text</text>
<text text-anchor="start" x="82.7257" y="-242.3" font-family="Times,serif" font-size="14.00">price :string</text>
<text text-anchor="start" x="82.7257" y="-228.3" font-family="Times,serif" font-size="14.00">expired_at :datetime</text>
<text text-anchor="start" x="82.7257" y="-214.3" font-family="Times,serif" font-size="14.00">created_at :datetime</text>
<text text-anchor="start" x="82.7257" y="-200.3" font-family="Times,serif" font-size="14.00">updated_at :datetime</text>
</g>
<!-- Category&#45;&gt;Want -->
<g id="edge4" class="edge"><title>Category&#45;&gt;Want</title>
<path fill="none" stroke="#c95169" d="M126.448,-511.095C128.874,-473.1 132.27,-419.882 135.197,-374.04"/>
<ellipse fill="none" stroke="#c95169" cx="126.181" cy="-515.29" rx="4" ry="4"/>
<polygon fill="#c95169" stroke="#c95169" points="135.215,-373.755 140.343,-364.062 135.533,-368.766 135.852,-363.776 135.852,-363.776 135.852,-363.776 135.533,-368.766 131.361,-363.489 135.215,-373.755 135.215,-373.755"/>
</g>
<!-- Message -->
<g id="node4" class="node"><title>Message</title>
<path fill="none" stroke="black" d="M406.726,-214.5C406.726,-214.5 515.736,-214.5 515.736,-214.5 521.736,-214.5 527.736,-220.5 527.736,-226.5 527.736,-226.5 527.736,-330.5 527.736,-330.5 527.736,-336.5 521.736,-342.5 515.736,-342.5 515.736,-342.5 406.726,-342.5 406.726,-342.5 400.726,-342.5 394.726,-336.5 394.726,-330.5 394.726,-330.5 394.726,-226.5 394.726,-226.5 394.726,-220.5 400.726,-214.5 406.726,-214.5"/>
<text text-anchor="middle" x="461.231" y="-327.3" font-family="Times,serif" font-size="14.00">Message</text>
<polyline fill="none" stroke="black" points="394.726,-320.5 527.736,-320.5 "/>
<text text-anchor="start" x="402.726" y="-305.3" font-family="Times,serif" font-size="14.00">id :integer</text>
<text text-anchor="start" x="402.726" y="-291.3" font-family="Times,serif" font-size="14.00">from_id :integer</text>
<text text-anchor="start" x="402.726" y="-277.3" font-family="Times,serif" font-size="14.00">to_id :integer</text>
<text text-anchor="start" x="402.726" y="-263.3" font-family="Times,serif" font-size="14.00">subject :string</text>
<text text-anchor="start" x="402.726" y="-249.3" font-family="Times,serif" font-size="14.00">body :text</text>
<text text-anchor="start" x="402.726" y="-235.3" font-family="Times,serif" font-size="14.00">created_at :datetime</text>
<text text-anchor="start" x="402.726" y="-221.3" font-family="Times,serif" font-size="14.00">updated_at :datetime</text>
</g>
<!-- Task -->
<g id="node7" class="node"><title>Task</title>
<path fill="none" stroke="black" d="M219.726,-477.5C219.726,-477.5 328.736,-477.5 328.736,-477.5 334.736,-477.5 340.736,-483.5 340.736,-489.5 340.736,-489.5 340.736,-635.5 340.736,-635.5 340.736,-641.5 334.736,-647.5 328.736,-647.5 328.736,-647.5 219.726,-647.5 219.726,-647.5 213.726,-647.5 207.726,-641.5 207.726,-635.5 207.726,-635.5 207.726,-489.5 207.726,-489.5 207.726,-483.5 213.726,-477.5 219.726,-477.5"/>
<text text-anchor="middle" x="274.231" y="-632.3" font-family="Times,serif" font-size="14.00">Task</text>
<polyline fill="none" stroke="black" points="207.726,-625.5 340.736,-625.5 "/>
<text text-anchor="start" x="215.726" y="-610.3" font-family="Times,serif" font-size="14.00">id :integer</text>
<text text-anchor="start" x="215.726" y="-596.3" font-family="Times,serif" font-size="14.00">type :string</text>
<text text-anchor="start" x="215.726" y="-582.3" font-family="Times,serif" font-size="14.00">user_id :integer</text>
<text text-anchor="start" x="215.726" y="-568.3" font-family="Times,serif" font-size="14.00">title :string</text>
<text text-anchor="start" x="215.726" y="-554.3" font-family="Times,serif" font-size="14.00">category_id :integer</text>
<text text-anchor="start" x="215.726" y="-540.3" font-family="Times,serif" font-size="14.00">description :text</text>
<text text-anchor="start" x="215.726" y="-526.3" font-family="Times,serif" font-size="14.00">price :string</text>
<text text-anchor="start" x="215.726" y="-512.3" font-family="Times,serif" font-size="14.00">expired_at :datetime</text>
<text text-anchor="start" x="215.726" y="-498.3" font-family="Times,serif" font-size="14.00">created_at :datetime</text>
<text text-anchor="start" x="215.726" y="-484.3" font-family="Times,serif" font-size="14.00">updated_at :datetime</text>
</g>
<!-- Task&#45;&gt;Offering -->
<g id="edge7" class="edge"><title>Task&#45;&gt;Offering</title>
<path fill="none" stroke="black" d="M279.607,-477.273C281.897,-441.405 284.562,-399.654 286.851,-363.78"/>
</g>
<!-- Task&#45;&gt;Want -->
<g id="edge15" class="edge"><title>Task&#45;&gt;Want</title>
<path fill="none" stroke="black" d="M235.331,-477.159C223.782,-452.276 211.058,-425.013 199.231,-400 193.673,-388.246 187.772,-375.868 181.943,-363.702"/>
</g>
<!-- User -->
<g id="node8" class="node"><title>User</title>
<path fill="none" stroke="black" d="M370.953,-400.5C370.953,-400.5 551.509,-400.5 551.509,-400.5 557.509,-400.5 563.509,-406.5 563.509,-412.5 563.509,-412.5 563.509,-712.5 563.509,-712.5 563.509,-718.5 557.509,-724.5 551.509,-724.5 551.509,-724.5 370.953,-724.5 370.953,-724.5 364.953,-724.5 358.953,-718.5 358.953,-712.5 358.953,-712.5 358.953,-412.5 358.953,-412.5 358.953,-406.5 364.953,-400.5 370.953,-400.5"/>
<text text-anchor="middle" x="461.231" y="-709.3" font-family="Times,serif" font-size="14.00">User</text>
<polyline fill="none" stroke="black" points="358.953,-702.5 563.509,-702.5 "/>
<text text-anchor="start" x="366.953" y="-687.3" font-family="Times,serif" font-size="14.00">id :integer</text>
<text text-anchor="start" x="366.953" y="-673.3" font-family="Times,serif" font-size="14.00">email :string</text>
<text text-anchor="start" x="366.953" y="-659.3" font-family="Times,serif" font-size="14.00">encrypted_password :string</text>
<text text-anchor="start" x="366.953" y="-645.3" font-family="Times,serif" font-size="14.00">reset_password_token :string</text>
<text text-anchor="start" x="366.953" y="-631.3" font-family="Times,serif" font-size="14.00">reset_password_sent_at :datetime</text>
<text text-anchor="start" x="366.953" y="-617.3" font-family="Times,serif" font-size="14.00">remember_created_at :datetime</text>
<text text-anchor="start" x="366.953" y="-603.3" font-family="Times,serif" font-size="14.00">sign_in_count :integer</text>
<text text-anchor="start" x="366.953" y="-589.3" font-family="Times,serif" font-size="14.00">current_sign_in_at :datetime</text>
<text text-anchor="start" x="366.953" y="-575.3" font-family="Times,serif" font-size="14.00">last_sign_in_at :datetime</text>
<text text-anchor="start" x="366.953" y="-561.3" font-family="Times,serif" font-size="14.00">current_sign_in_ip :string</text>
<text text-anchor="start" x="366.953" y="-547.3" font-family="Times,serif" font-size="14.00">last_sign_in_ip :string</text>
<text text-anchor="start" x="366.953" y="-533.3" font-family="Times,serif" font-size="14.00">confirmation_token :string</text>
<text text-anchor="start" x="366.953" y="-519.3" font-family="Times,serif" font-size="14.00">confirmed_at :datetime</text>
<text text-anchor="start" x="366.953" y="-505.3" font-family="Times,serif" font-size="14.00">confirmation_sent_at :datetime</text>
<text text-anchor="start" x="366.953" y="-491.3" font-family="Times,serif" font-size="14.00">unconfirmed_email :string</text>
<text text-anchor="start" x="366.953" y="-477.3" font-family="Times,serif" font-size="14.00">failed_attempts :integer</text>
<text text-anchor="start" x="366.953" y="-463.3" font-family="Times,serif" font-size="14.00">unlock_token :string</text>
<text text-anchor="start" x="366.953" y="-449.3" font-family="Times,serif" font-size="14.00">locked_at :datetime</text>
<text text-anchor="start" x="366.953" y="-435.3" font-family="Times,serif" font-size="14.00">created_at :datetime</text>
<text text-anchor="start" x="366.953" y="-421.3" font-family="Times,serif" font-size="14.00">updated_at :datetime</text>
<text text-anchor="start" x="366.953" y="-407.3" font-family="Times,serif" font-size="14.00">name :string</text>
</g>
<!-- User&#45;&gt;Account -->
<g id="edge13" class="edge"><title>User&#45;&gt;Account</title>
<path fill="none" stroke="#af1300" d="M551.442,-393.027C562.407,-372.548 572.942,-352.874 582.072,-335.824"/>
<ellipse fill="none" stroke="#af1300" cx="549.425" cy="-396.794" rx="4.00002" ry="4.00002"/>
<ellipse fill="#af1300" stroke="#af1300" cx="584.007" cy="-332.209" rx="4.00002" ry="4.00002"/>
</g>
<!-- User&#45;&gt;Message -->
<g id="edge12" class="edge"><title>User&#45;&gt;Message</title>
<path fill="none" stroke="#f8bfca" d="M461.231,-392.244C461.231,-378.576 461.231,-365.278 461.231,-352.891"/>
<ellipse fill="none" stroke="#f8bfca" cx="461.231" cy="-396.321" rx="4" ry="4"/>
<polygon fill="#f8bfca" stroke="#f8bfca" points="461.231,-352.713 465.731,-342.713 461.231,-347.713 461.231,-342.713 461.231,-342.713 461.231,-342.713 461.231,-347.713 456.731,-342.713 461.231,-352.713 461.231,-352.713"/>
</g>
<!-- User&#45;&gt;Offering -->
<g id="edge10" class="edge"><title>User&#45;&gt;Offering</title>
<path fill="none" stroke="#066098" d="M360.411,-393.268C356.136,-386.133 351.918,-379.096 347.805,-372.232"/>
<ellipse fill="none" stroke="#066098" cx="362.581" cy="-396.89" rx="4.00002" ry="4.00002"/>
<polygon fill="#066098" stroke="#066098" points="347.794,-372.214 346.513,-361.323 345.223,-367.925 342.653,-363.636 342.653,-363.636 342.653,-363.636 345.223,-367.925 338.793,-365.95 347.794,-372.214 347.794,-372.214"/>
</g>
<!-- User&#45;&gt;Want -->
<g id="edge11" class="edge"><title>User&#45;&gt;Want</title>
<path fill="none" stroke="#7b24ae" d="M352.409,-401.566C351.686,-401.038 350.96,-400.516 350.231,-400 299.882,-364.393 268.685,-396.426 216.231,-364 216.142,-363.945 216.054,-363.89 215.965,-363.835"/>
<ellipse fill="none" stroke="#7b24ae" cx="355.648" cy="-404.05" rx="4.00002" ry="4.00002"/>
<polygon fill="#7b24ae" stroke="#7b24ae" points="216.145,-363.957 210.391,-354.622 212.005,-361.152 207.866,-358.347 207.866,-358.347 207.866,-358.347 212.005,-361.152 205.342,-362.072 216.145,-363.957 216.145,-363.957"/>
</g>
<!-- ActiveRecord::Base -->
<g id="node10" class="node"><title>ActiveRecord::Base</title>
<ellipse fill="none" stroke="black" cx="368.231" cy="-797.5" rx="81.1422" ry="18"/>
<text text-anchor="middle" x="368.231" y="-793.3" font-family="Times,serif" font-size="14.00">ActiveRecord::Base</text>
</g>
<!-- ActiveRecord::Base&#45;&gt;Account -->
<g id="edge2" class="edge"><title>ActiveRecord::Base&#45;&gt;Account</title>
<path fill="none" stroke="black" d="M448.444,-794.264C500.254,-788.173 564.302,-770.957 599.231,-725 688.542,-607.492 651.976,-417.757 627.534,-328.671"/>
</g>
<!-- ActiveRecord::Base&#45;&gt;Category -->
<g id="edge5" class="edge"><title>ActiveRecord::Base&#45;&gt;Category</title>
<path fill="none" stroke="black" d="M330.701,-781.515C282.198,-762.032 203.317,-729.903 198.231,-725 164.401,-692.388 144.304,-641.567 133.558,-605.658"/>
</g>
<!-- ActiveRecord::Base&#45;&gt;Message -->
<g id="edge6" class="edge"><title>ActiveRecord::Base&#45;&gt;Message</title>
<path fill="none" stroke="black" d="M444.261,-791.041C489.424,-783.423 543.358,-765.715 572.231,-725 614.009,-666.088 599.869,-466.725 572.231,-400 563.572,-379.095 551.748,-380.469 536.231,-364 529.774,-357.147 523.102,-349.894 516.522,-342.63"/>
</g>
<!-- ActiveRecord::Base&#45;&gt;Payment -->
<g id="edge8" class="edge"><title>ActiveRecord::Base&#45;&gt;Payment</title>
<path fill="none" stroke="black" d="M334.218,-781.022C317.625,-774.008 297.196,-766.15 278.231,-761 228.094,-747.385 81.0207,-764.463 47.231,-725 -29.7035,-635.147 -3.44005,-289.316 65.231,-193 109.046,-131.547 193.935,-102.858 253.701,-89.8124"/>
</g>
<!-- ActiveRecord::Base&#45;&gt;Task -->
<g id="edge9" class="edge"><title>ActiveRecord::Base&#45;&gt;Task</title>
<path fill="none" stroke="black" d="M361.319,-779.367C350.189,-751.78 327.58,-695.738 308.188,-647.67"/>
</g>
<!-- ActiveRecord::Base&#45;&gt;User -->
<g id="edge14" class="edge"><title>ActiveRecord::Base&#45;&gt;User</title>
<path fill="none" stroke="black" d="M375.07,-779.367C380.313,-766.23 388.132,-746.641 396.956,-724.533"/>
</g>
</g>
</svg>
