<?xml version="1.0" encoding="UTF-8" standalone="no"?>
<!DOCTYPE svg PUBLIC "-//W3C//DTD SVG 1.1//EN"
 "http://www.w3.org/Graphics/SVG/1.1/DTD/svg11.dtd">
<!-- Generated by graphviz version 2.38.0 (20140413.2041)
 -->
<!-- Title: models_diagram Pages: 1 -->
<svg width="814pt" height="872pt"
 viewBox="0.00 0.00 813.92 872.00" xmlns="http://www.w3.org/2000/svg" xmlns:xlink="http://www.w3.org/1999/xlink">
<g id="graph0" class="graph" transform="scale(1 1) rotate(0) translate(4 868)">
<title>models_diagram</title>
<polygon fill="white" stroke="none" points="-4,4 -4,-868 809.922,-868 809.922,4 -4,4"/>
<!-- _diagram_info -->
<g id="node1" class="node"><title>_diagram_info</title>
<text text-anchor="start" x="40.8176" y="-849.6" font-family="Times,serif" font-size="13.00">Models diagram</text>
<text text-anchor="start" x="40.8176" y="-836.6" font-family="Times,serif" font-size="13.00">Date: Sep 06 2014 &#45; 21:43</text>
<text text-anchor="start" x="40.8176" y="-823.6" font-family="Times,serif" font-size="13.00">Migration version: 20140906123202</text>
<text text-anchor="start" x="40.8176" y="-810.6" font-family="Times,serif" font-size="13.00">Generated by RailRoady 1.1.2</text>
<text text-anchor="start" x="40.8176" y="-797.6" font-family="Times,serif" font-size="13.00">http://railroady.prestonlee.com</text>
</g>
<!-- Account -->
<g id="node2" class="node"><title>Account</title>
<path fill="none" stroke="black" d="M75,-243.5C75,-243.5 184.011,-243.5 184.011,-243.5 190.011,-243.5 196.011,-249.5 196.011,-255.5 196.011,-255.5 196.011,-331.5 196.011,-331.5 196.011,-337.5 190.011,-343.5 184.011,-343.5 184.011,-343.5 75,-343.5 75,-343.5 69,-343.5 63,-337.5 63,-331.5 63,-331.5 63,-255.5 63,-255.5 63,-249.5 69,-243.5 75,-243.5"/>
<text text-anchor="middle" x="129.505" y="-328.3" font-family="Times,serif" font-size="14.00">Account</text>
<polyline fill="none" stroke="black" points="63,-321.5 196.011,-321.5 "/>
<text text-anchor="start" x="71" y="-306.3" font-family="Times,serif" font-size="14.00">id :integer</text>
<text text-anchor="start" x="71" y="-292.3" font-family="Times,serif" font-size="14.00">user_id :integer</text>
<text text-anchor="start" x="71" y="-278.3" font-family="Times,serif" font-size="14.00">balance :integer</text>
<text text-anchor="start" x="71" y="-264.3" font-family="Times,serif" font-size="14.00">created_at :datetime</text>
<text text-anchor="start" x="71" y="-250.3" font-family="Times,serif" font-size="14.00">updated_at :datetime</text>
</g>
<!-- Payment -->
<g id="node6" class="node"><title>Payment</title>
<path fill="none" stroke="black" d="M12,-7.5C12,-7.5 121.011,-7.5 121.011,-7.5 127.011,-7.5 133.011,-13.5 133.011,-19.5 133.011,-19.5 133.011,-151.5 133.011,-151.5 133.011,-157.5 127.011,-163.5 121.011,-163.5 121.011,-163.5 12,-163.5 12,-163.5 6,-163.5 0,-157.5 0,-151.5 0,-151.5 0,-19.5 0,-19.5 0,-13.5 6,-7.5 12,-7.5"/>
<text text-anchor="middle" x="66.5054" y="-148.3" font-family="Times,serif" font-size="14.00">Payment</text>
<polyline fill="none" stroke="black" points="0,-141.5 133.011,-141.5 "/>
<text text-anchor="start" x="8" y="-126.3" font-family="Times,serif" font-size="14.00">id :integer</text>
<text text-anchor="start" x="8" y="-112.3" font-family="Times,serif" font-size="14.00">from_id :integer</text>
<text text-anchor="start" x="8" y="-98.3" font-family="Times,serif" font-size="14.00">to_id :integer</text>
<text text-anchor="start" x="8" y="-84.3" font-family="Times,serif" font-size="14.00">subject :string</text>
<text text-anchor="start" x="8" y="-70.3" font-family="Times,serif" font-size="14.00">amount :integer</text>
<text text-anchor="start" x="8" y="-56.3" font-family="Times,serif" font-size="14.00">balance :integer</text>
<text text-anchor="start" x="8" y="-42.3" font-family="Times,serif" font-size="14.00">comment :text</text>
<text text-anchor="start" x="8" y="-28.3" font-family="Times,serif" font-size="14.00">created_at :datetime</text>
<text text-anchor="start" x="8" y="-14.3" font-family="Times,serif" font-size="14.00">updated_at :datetime</text>
</g>
<!-- Account&#45;&gt;Payment -->
<g id="edge1" class="edge"><title>Account&#45;&gt;Payment</title>
<path fill="none" stroke="#aff160" d="M112.14,-235.719C106.247,-216.448 99.5205,-194.454 93.0763,-173.383"/>
<ellipse fill="none" stroke="#aff160" cx="113.325" cy="-239.594" rx="4.00001" ry="4.00001"/>
<polygon fill="#aff160" stroke="#aff160" points="93.0639,-173.342 94.4425,-162.463 91.6016,-168.561 90.1393,-163.779 90.1393,-163.779 90.1393,-163.779 91.6016,-168.561 85.836,-165.095 93.0639,-173.342 93.0639,-173.342"/>
</g>
<!-- Category -->
<g id="node3" class="node"><title>Category</title>
<path fill="none" stroke="black" d="M220,-548.5C220,-548.5 329.011,-548.5 329.011,-548.5 335.011,-548.5 341.011,-554.5 341.011,-560.5 341.011,-560.5 341.011,-622.5 341.011,-622.5 341.011,-628.5 335.011,-634.5 329.011,-634.5 329.011,-634.5 220,-634.5 220,-634.5 214,-634.5 208,-628.5 208,-622.5 208,-622.5 208,-560.5 208,-560.5 208,-554.5 214,-548.5 220,-548.5"/>
<text text-anchor="middle" x="274.505" y="-619.3" font-family="Times,serif" font-size="14.00">Category</text>
<polyline fill="none" stroke="black" points="208,-612.5 341.011,-612.5 "/>
<text text-anchor="start" x="216" y="-597.3" font-family="Times,serif" font-size="14.00">id :integer</text>
<text text-anchor="start" x="216" y="-583.3" font-family="Times,serif" font-size="14.00">name :string</text>
<text text-anchor="start" x="216" y="-569.3" font-family="Times,serif" font-size="14.00">created_at :datetime</text>
<text text-anchor="start" x="216" y="-555.3" font-family="Times,serif" font-size="14.00">updated_at :datetime</text>
</g>
<!-- Offering -->
<g id="node5" class="node"><title>Offering</title>
<path fill="none" stroke="black" d="M195,-0.5C195,-0.5 304.011,-0.5 304.011,-0.5 310.011,-0.5 316.011,-6.5 316.011,-12.5 316.011,-12.5 316.011,-158.5 316.011,-158.5 316.011,-164.5 310.011,-170.5 304.011,-170.5 304.011,-170.5 195,-170.5 195,-170.5 189,-170.5 183,-164.5 183,-158.5 183,-158.5 183,-12.5 183,-12.5 183,-6.5 189,-0.5 195,-0.5"/>
<text text-anchor="middle" x="249.505" y="-155.3" font-family="Times,serif" font-size="14.00">Offering</text>
<polyline fill="none" stroke="black" points="183,-148.5 316.011,-148.5 "/>
<text text-anchor="start" x="191" y="-133.3" font-family="Times,serif" font-size="14.00">id :integer</text>
<text text-anchor="start" x="191" y="-119.3" font-family="Times,serif" font-size="14.00">type :string</text>
<text text-anchor="start" x="191" y="-105.3" font-family="Times,serif" font-size="14.00">user_id :integer</text>
<text text-anchor="start" x="191" y="-91.3" font-family="Times,serif" font-size="14.00">title :string</text>
<text text-anchor="start" x="191" y="-77.3" font-family="Times,serif" font-size="14.00">category_id :integer</text>
<text text-anchor="start" x="191" y="-63.3" font-family="Times,serif" font-size="14.00">description :text</text>
<text text-anchor="start" x="191" y="-49.3" font-family="Times,serif" font-size="14.00">price :string</text>
<text text-anchor="start" x="191" y="-35.3" font-family="Times,serif" font-size="14.00">expired_at :datetime</text>
<text text-anchor="start" x="191" y="-21.3" font-family="Times,serif" font-size="14.00">created_at :datetime</text>
<text text-anchor="start" x="191" y="-7.3" font-family="Times,serif" font-size="14.00">updated_at :datetime</text>
</g>
<!-- Category&#45;&gt;Offering -->
<g id="edge4" class="edge"><title>Category&#45;&gt;Offering</title>
<path fill="none" stroke="#1d7b1a" d="M269.978,-540.088C266.895,-504.133 262.945,-454.628 260.505,-411 256.174,-333.536 253.32,-245.568 251.607,-180.783"/>
<ellipse fill="none" stroke="#1d7b1a" cx="270.357" cy="-544.479" rx="4" ry="4"/>
<polygon fill="#1d7b1a" stroke="#1d7b1a" points="251.602,-180.586 255.841,-170.472 251.472,-175.587 251.342,-170.589 251.342,-170.589 251.342,-170.589 251.472,-175.587 246.844,-170.706 251.602,-180.586 251.602,-180.586"/>
</g>
<!-- Task -->
<g id="node7" class="node"><title>Task</title>
<path fill="none" stroke="black" d="M315,-208.5C315,-208.5 424.011,-208.5 424.011,-208.5 430.011,-208.5 436.011,-214.5 436.011,-220.5 436.011,-220.5 436.011,-366.5 436.011,-366.5 436.011,-372.5 430.011,-378.5 424.011,-378.5 424.011,-378.5 315,-378.5 315,-378.5 309,-378.5 303,-372.5 303,-366.5 303,-366.5 303,-220.5 303,-220.5 303,-214.5 309,-208.5 315,-208.5"/>
<text text-anchor="middle" x="369.505" y="-363.3" font-family="Times,serif" font-size="14.00">Task</text>
<polyline fill="none" stroke="black" points="303,-356.5 436.011,-356.5 "/>
<text text-anchor="start" x="311" y="-341.3" font-family="Times,serif" font-size="14.00">id :integer</text>
<text text-anchor="start" x="311" y="-327.3" font-family="Times,serif" font-size="14.00">type :string</text>
<text text-anchor="start" x="311" y="-313.3" font-family="Times,serif" font-size="14.00">user_id :integer</text>
<text text-anchor="start" x="311" y="-299.3" font-family="Times,serif" font-size="14.00">title :string</text>
<text text-anchor="start" x="311" y="-285.3" font-family="Times,serif" font-size="14.00">category_id :integer</text>
<text text-anchor="start" x="311" y="-271.3" font-family="Times,serif" font-size="14.00">description :text</text>
<text text-anchor="start" x="311" y="-257.3" font-family="Times,serif" font-size="14.00">price :string</text>
<text text-anchor="start" x="311" y="-243.3" font-family="Times,serif" font-size="14.00">expired_at :datetime</text>
<text text-anchor="start" x="311" y="-229.3" font-family="Times,serif" font-size="14.00">created_at :datetime</text>
<text text-anchor="start" x="311" y="-215.3" font-family="Times,serif" font-size="14.00">updated_at :datetime</text>
</g>
<!-- Category&#45;&gt;Task -->
<g id="edge3" class="edge"><title>Category&#45;&gt;Task</title>
<path fill="none" stroke="#81ed28" d="M290.497,-540.674C303.836,-499.111 323.215,-438.731 339.442,-388.172"/>
<ellipse fill="none" stroke="#81ed28" cx="289.238" cy="-544.596" rx="4.00001" ry="4.00001"/>
<polygon fill="#81ed28" stroke="#81ed28" points="339.481,-388.048 346.822,-379.902 341.009,-383.288 342.537,-378.527 342.537,-378.527 342.537,-378.527 341.009,-383.288 338.253,-377.152 339.481,-388.048 339.481,-388.048"/>
</g>
<!-- Want -->
<g id="node9" class="node"><title>Want</title>
<path fill="none" stroke="black" d="M423,-0.5C423,-0.5 532.011,-0.5 532.011,-0.5 538.011,-0.5 544.011,-6.5 544.011,-12.5 544.011,-12.5 544.011,-158.5 544.011,-158.5 544.011,-164.5 538.011,-170.5 532.011,-170.5 532.011,-170.5 423,-170.5 423,-170.5 417,-170.5 411,-164.5 411,-158.5 411,-158.5 411,-12.5 411,-12.5 411,-6.5 417,-0.5 423,-0.5"/>
<text text-anchor="middle" x="477.505" y="-155.3" font-family="Times,serif" font-size="14.00">Want</text>
<polyline fill="none" stroke="black" points="411,-148.5 544.011,-148.5 "/>
<text text-anchor="start" x="419" y="-133.3" font-family="Times,serif" font-size="14.00">id :integer</text>
<text text-anchor="start" x="419" y="-119.3" font-family="Times,serif" font-size="14.00">type :string</text>
<text text-anchor="start" x="419" y="-105.3" font-family="Times,serif" font-size="14.00">user_id :integer</text>
<text text-anchor="start" x="419" y="-91.3" font-family="Times,serif" font-size="14.00">title :string</text>
<text text-anchor="start" x="419" y="-77.3" font-family="Times,serif" font-size="14.00">category_id :integer</text>
<text text-anchor="start" x="419" y="-63.3" font-family="Times,serif" font-size="14.00">description :text</text>
<text text-anchor="start" x="419" y="-49.3" font-family="Times,serif" font-size="14.00">price :string</text>
<text text-anchor="start" x="419" y="-35.3" font-family="Times,serif" font-size="14.00">expired_at :datetime</text>
<text text-anchor="start" x="419" y="-21.3" font-family="Times,serif" font-size="14.00">created_at :datetime</text>
<text text-anchor="start" x="419" y="-7.3" font-family="Times,serif" font-size="14.00">updated_at :datetime</text>
</g>
<!-- Category&#45;&gt;Want -->
<g id="edge5" class="edge"><title>Category&#45;&gt;Want</title>
<path fill="none" stroke="#32cc5e" d="M271.493,-540.108C266.966,-449.47 261.997,-263.234 293.505,-208 306.353,-185.478 357.128,-152.769 402.093,-126.961"/>
<ellipse fill="none" stroke="#32cc5e" cx="271.709" cy="-544.316" rx="4" ry="4"/>
<polygon fill="#32cc5e" stroke="#32cc5e" points="402.303,-126.841 413.22,-125.808 406.649,-124.369 410.995,-121.897 410.995,-121.897 410.995,-121.897 406.649,-124.369 408.77,-117.985 402.303,-126.841 402.303,-126.841"/>
</g>
<!-- Message -->
<g id="node4" class="node"><title>Message</title>
<path fill="none" stroke="black" d="M609,-229.5C609,-229.5 718.011,-229.5 718.011,-229.5 724.011,-229.5 730.011,-235.5 730.011,-241.5 730.011,-241.5 730.011,-345.5 730.011,-345.5 730.011,-351.5 724.011,-357.5 718.011,-357.5 718.011,-357.5 609,-357.5 609,-357.5 603,-357.5 597,-351.5 597,-345.5 597,-345.5 597,-241.5 597,-241.5 597,-235.5 603,-229.5 609,-229.5"/>
<text text-anchor="middle" x="663.505" y="-342.3" font-family="Times,serif" font-size="14.00">Message</text>
<polyline fill="none" stroke="black" points="597,-335.5 730.011,-335.5 "/>
<text text-anchor="start" x="605" y="-320.3" font-family="Times,serif" font-size="14.00">id :integer</text>
<text text-anchor="start" x="605" y="-306.3" font-family="Times,serif" font-size="14.00">subject :string</text>
<text text-anchor="start" x="605" y="-292.3" font-family="Times,serif" font-size="14.00">body :text</text>
<text text-anchor="start" x="605" y="-278.3" font-family="Times,serif" font-size="14.00">created_at :datetime</text>
<text text-anchor="start" x="605" y="-264.3" font-family="Times,serif" font-size="14.00">updated_at :datetime</text>
<text text-anchor="start" x="605" y="-250.3" font-family="Times,serif" font-size="14.00">sender_id :integer</text>
<text text-anchor="start" x="605" y="-236.3" font-family="Times,serif" font-size="14.00">recepient_id :integer</text>
</g>
<!-- Task&#45;&gt;Offering -->
<g id="edge8" class="edge"><title>Task&#45;&gt;Offering</title>
<path fill="none" stroke="black" d="M320.524,-208.415C313.265,-195.955 305.784,-183.112 298.525,-170.65"/>
</g>
<!-- Task&#45;&gt;Want -->
<g id="edge20" class="edge"><title>Task&#45;&gt;Want</title>
<path fill="none" stroke="black" d="M413.589,-208.415C420.121,-195.955 426.855,-183.112 433.388,-170.65"/>
</g>
<!-- User -->
<g id="node8" class="node"><title>User</title>
<path fill="none" stroke="black" d="M409.228,-429.5C409.228,-429.5 589.783,-429.5 589.783,-429.5 595.783,-429.5 601.783,-435.5 601.783,-441.5 601.783,-441.5 601.783,-741.5 601.783,-741.5 601.783,-747.5 595.783,-753.5 589.783,-753.5 589.783,-753.5 409.228,-753.5 409.228,-753.5 403.228,-753.5 397.228,-747.5 397.228,-741.5 397.228,-741.5 397.228,-441.5 397.228,-441.5 397.228,-435.5 403.228,-429.5 409.228,-429.5"/>
<text text-anchor="middle" x="499.505" y="-738.3" font-family="Times,serif" font-size="14.00">User</text>
<polyline fill="none" stroke="black" points="397.228,-731.5 601.783,-731.5 "/>
<text text-anchor="start" x="405.228" y="-716.3" font-family="Times,serif" font-size="14.00">id :integer</text>
<text text-anchor="start" x="405.228" y="-702.3" font-family="Times,serif" font-size="14.00">email :string</text>
<text text-anchor="start" x="405.228" y="-688.3" font-family="Times,serif" font-size="14.00">encrypted_password :string</text>
<text text-anchor="start" x="405.228" y="-674.3" font-family="Times,serif" font-size="14.00">reset_password_token :string</text>
<text text-anchor="start" x="405.228" y="-660.3" font-family="Times,serif" font-size="14.00">reset_password_sent_at :datetime</text>
<text text-anchor="start" x="405.228" y="-646.3" font-family="Times,serif" font-size="14.00">remember_created_at :datetime</text>
<text text-anchor="start" x="405.228" y="-632.3" font-family="Times,serif" font-size="14.00">sign_in_count :integer</text>
<text text-anchor="start" x="405.228" y="-618.3" font-family="Times,serif" font-size="14.00">current_sign_in_at :datetime</text>
<text text-anchor="start" x="405.228" y="-604.3" font-family="Times,serif" font-size="14.00">last_sign_in_at :datetime</text>
<text text-anchor="start" x="405.228" y="-590.3" font-family="Times,serif" font-size="14.00">current_sign_in_ip :string</text>
<text text-anchor="start" x="405.228" y="-576.3" font-family="Times,serif" font-size="14.00">last_sign_in_ip :string</text>
<text text-anchor="start" x="405.228" y="-562.3" font-family="Times,serif" font-size="14.00">confirmation_token :string</text>
<text text-anchor="start" x="405.228" y="-548.3" font-family="Times,serif" font-size="14.00">confirmed_at :datetime</text>
<text text-anchor="start" x="405.228" y="-534.3" font-family="Times,serif" font-size="14.00">confirmation_sent_at :datetime</text>
<text text-anchor="start" x="405.228" y="-520.3" font-family="Times,serif" font-size="14.00">unconfirmed_email :string</text>
<text text-anchor="start" x="405.228" y="-506.3" font-family="Times,serif" font-size="14.00">failed_attempts :integer</text>
<text text-anchor="start" x="405.228" y="-492.3" font-family="Times,serif" font-size="14.00">unlock_token :string</text>
<text text-anchor="start" x="405.228" y="-478.3" font-family="Times,serif" font-size="14.00">locked_at :datetime</text>
<text text-anchor="start" x="405.228" y="-464.3" font-family="Times,serif" font-size="14.00">created_at :datetime</text>
<text text-anchor="start" x="405.228" y="-450.3" font-family="Times,serif" font-size="14.00">updated_at :datetime</text>
<text text-anchor="start" x="405.228" y="-436.3" font-family="Times,serif" font-size="14.00">name :string</text>
</g>
<!-- User&#45;&gt;Account -->
<g id="edge18" class="edge"><title>User&#45;&gt;Account</title>
<path fill="none" stroke="#8e0ef5" d="M390.952,-465.543C377.822,-452.667 364.198,-440.214 350.505,-429 304.821,-391.588 247.775,-357.13 203.085,-332.459"/>
<ellipse fill="none" stroke="#8e0ef5" cx="394.107" cy="-468.67" rx="4.00002" ry="4.00002"/>
<ellipse fill="#8e0ef5" stroke="#8e0ef5" cx="199.529" cy="-330.508" rx="4.00002" ry="4.00002"/>
</g>
<!-- User&#45;&gt;Message -->
<g id="edge14" class="edge"><title>User&#45;&gt;Message</title>
<path fill="none" stroke="#22294f" d="M606.62,-470.89C619.937,-451.795 632.138,-431.535 641.505,-411 647.648,-397.534 652.075,-382.442 655.267,-367.699"/>
<ellipse fill="none" stroke="#22294f" cx="604.18" cy="-474.332" rx="4.00002" ry="4.00002"/>
<polygon fill="#22294f" stroke="#22294f" points="655.33,-367.379 661.698,-358.452 656.308,-362.476 657.285,-357.572 657.285,-357.572 657.285,-357.572 656.308,-362.476 652.871,-356.693 655.33,-367.379 655.33,-367.379"/>
<text text-anchor="middle" x="694.881" y="-399.8" font-family="Times,serif" font-size="14.00">sended_messages</text>
</g>
<!-- User&#45;&gt;Message -->
<g id="edge15" class="edge"><title>User&#45;&gt;Message</title>
<path fill="none" stroke="#e827a4" d="M518.126,-421.649C521.58,-413.08 525.584,-404.802 530.222,-397 544.374,-373.193 566.344,-352.953 588.393,-336.907"/>
<ellipse fill="none" stroke="#e827a4" cx="516.655" cy="-425.513" rx="4.00001" ry="4.00001"/>
<polygon fill="#e827a4" stroke="#e827a4" points="588.655,-336.722 599.422,-334.642 592.743,-333.843 596.831,-330.963 596.831,-330.963 596.831,-330.963 592.743,-333.843 594.239,-327.284 588.655,-336.722 588.655,-336.722"/>
<text text-anchor="middle" x="583.147" y="-399.8" font-family="Times,serif" font-size="14.00">received_messages</text>
</g>
<!-- User&#45;&gt;Offering -->
<g id="edge12" class="edge"><title>User&#45;&gt;Offering</title>
<path fill="none" stroke="#13c52a" d="M482.289,-421.316C471.583,-327.693 457.6,-226.539 445.505,-208 437.647,-195.955 376.864,-159.155 325.042,-129.183"/>
<ellipse fill="none" stroke="#13c52a" cx="482.765" cy="-425.506" rx="4.00001" ry="4.00001"/>
<polygon fill="#13c52a" stroke="#13c52a" points="324.813,-129.051 318.398,-120.157 320.482,-126.553 316.15,-124.056 316.15,-124.056 316.15,-124.056 320.482,-126.553 313.902,-127.954 324.813,-129.051 324.813,-129.051"/>
</g>
<!-- User&#45;&gt;Task -->
<g id="edge11" class="edge"><title>User&#45;&gt;Task</title>
<path fill="none" stroke="#9a69ee" d="M425.231,-421.383C420.25,-410.041 415.342,-398.867 410.629,-388.136"/>
<ellipse fill="none" stroke="#9a69ee" cx="427.001" cy="-425.413" rx="4.00002" ry="4.00002"/>
<polygon fill="#9a69ee" stroke="#9a69ee" points="410.562,-387.983 410.661,-377.017 408.551,-383.405 406.541,-378.827 406.541,-378.827 406.541,-378.827 408.551,-383.405 402.421,-380.636 410.562,-387.983 410.562,-387.983"/>
</g>
<!-- User&#45;&gt;User -->
<g id="edge16" class="edge"><title>User&#45;&gt;User</title>
<path fill="none" stroke="#992186" d="M611.746,-601.983C616.819,-599.32 619.783,-595.826 619.783,-591.5 619.783,-587.174 616.819,-583.68 611.746,-581.017"/>
<polygon fill="#992186" stroke="#992186" points="611.554,-602.052 600.617,-601.255 606.857,-603.767 602.161,-605.482 602.161,-605.482 602.161,-605.482 606.857,-603.767 603.704,-609.709 611.554,-602.052 611.554,-602.052"/>
<polygon fill="#992186" stroke="#992186" points="611.554,-580.948 603.704,-573.291 606.857,-579.233 602.161,-577.518 602.161,-577.518 602.161,-577.518 606.857,-579.233 600.617,-581.745 611.554,-580.948 611.554,-580.948"/>
<text text-anchor="middle" x="640.776" y="-587.3" font-family="Times,serif" font-size="14.00">senders</text>
</g>
<!-- User&#45;&gt;User -->
<g id="edge17" class="edge"><title>User&#45;&gt;User</title>
<path fill="none" stroke="#69628a" d="M612.178,-624.585C640.31,-621.869 661.77,-610.841 661.77,-591.5 661.77,-572.159 640.31,-561.131 612.178,-558.415"/>
<polygon fill="#69628a" stroke="#69628a" points="611.955,-624.598 601.703,-620.707 606.964,-624.898 601.973,-625.199 601.973,-625.199 601.973,-625.199 606.964,-624.898 602.243,-629.69 611.955,-624.598 611.955,-624.598"/>
<polygon fill="#69628a" stroke="#69628a" points="611.955,-558.402 602.243,-553.31 606.964,-558.102 601.973,-557.801 601.973,-557.801 601.973,-557.801 606.964,-558.102 601.703,-562.293 611.955,-558.402 611.955,-558.402"/>
<text text-anchor="middle" x="690.142" y="-587.3" font-family="Times,serif" font-size="14.00">recepients</text>
</g>
<!-- User&#45;&gt;Want -->
<g id="edge13" class="edge"><title>User&#45;&gt;Want</title>
<path fill="none" stroke="#9beb64" d="M492.115,-421.193C488.618,-341.082 484.574,-248.433 481.628,-180.951"/>
<ellipse fill="none" stroke="#9beb64" cx="492.294" cy="-425.302" rx="4" ry="4"/>
<polygon fill="#9beb64" stroke="#9beb64" points="481.62,-180.754 485.679,-170.567 481.402,-175.758 481.184,-170.763 481.184,-170.763 481.184,-170.763 481.402,-175.758 476.688,-170.959 481.62,-180.754 481.62,-180.754"/>
</g>
<!-- ActiveRecord::Base -->
<g id="node10" class="node"><title>ActiveRecord::Base</title>
<ellipse fill="none" stroke="black" cx="339.505" cy="-827.5" rx="81.1422" ry="18"/>
<text text-anchor="middle" x="339.505" y="-823.3" font-family="Times,serif" font-size="14.00">ActiveRecord::Base</text>
</g>
<!-- ActiveRecord::Base&#45;&gt;Account -->
<g id="edge2" class="edge"><title>ActiveRecord::Base&#45;&gt;Account</title>
<path fill="none" stroke="black" d="M301.348,-811.538C264.188,-796.186 211.464,-772.058 198.505,-754 108.556,-628.656 114.494,-434.14 123.252,-343.761"/>
</g>
<!-- ActiveRecord::Base&#45;&gt;Category -->
<g id="edge6" class="edge"><title>ActiveRecord::Base&#45;&gt;Category</title>
<path fill="none" stroke="black" d="M334.726,-809.293C324.582,-772.775 300.646,-686.608 286.192,-634.573"/>
</g>
<!-- ActiveRecord::Base&#45;&gt;Message -->
<g id="edge7" class="edge"><title>ActiveRecord::Base&#45;&gt;Message</title>
<path fill="none" stroke="black" d="M419.519,-823.783C525.186,-818.33 702.69,-802.075 743.505,-754 846.204,-633.033 802.345,-546.269 748.505,-397 743.525,-383.191 735.785,-369.926 726.961,-357.785"/>
</g>
<!-- ActiveRecord::Base&#45;&gt;Payment -->
<g id="edge9" class="edge"><title>ActiveRecord::Base&#45;&gt;Payment</title>
<path fill="none" stroke="black" d="M303.482,-811.276C287.152,-804.638 267.507,-797.017 249.505,-791 190.908,-771.415 156.828,-799.932 115.505,-754 -32.2503,-589.763 12.4363,-301.304 45.218,-163.725"/>
</g>
<!-- ActiveRecord::Base&#45;&gt;Task -->
<g id="edge10" class="edge"><title>ActiveRecord::Base&#45;&gt;Task</title>
<path fill="none" stroke="black" d="M342.66,-809.281C345.214,-794.632 348.676,-773.008 350.505,-754 363.088,-623.263 367.345,-470.813 368.781,-378.537"/>
</g>
<!-- ActiveRecord::Base&#45;&gt;User -->
<g id="edge19" class="edge"><title>ActiveRecord::Base&#45;&gt;User</title>
<path fill="none" stroke="black" d="M354.299,-809.559C363.096,-799.234 374.298,-785.635 383.505,-773 388.112,-766.678 392.744,-760.179 397.365,-753.573"/>
</g>
</g>
</svg>
