<?xml version="1.0" encoding="UTF-8" standalone="no"?>
<!DOCTYPE svg PUBLIC "-//W3C//DTD SVG 1.1//EN"
 "http://www.w3.org/Graphics/SVG/1.1/DTD/svg11.dtd">
<!-- Generated by graphviz version 2.38.0 (20140413.2041)
 -->
<!-- Title: models_diagram Pages: 1 -->
<svg width="682pt" height="313pt"
 viewBox="0.00 0.00 682.36 313.00" xmlns="http://www.w3.org/2000/svg" xmlns:xlink="http://www.w3.org/1999/xlink">
<g id="graph0" class="graph" transform="scale(1 1) rotate(0) translate(4 309)">
<title>models_diagram</title>
<polygon fill="white" stroke="none" points="-4,4 -4,-309 678.365,-309 678.365,4 -4,4"/>
<!-- _diagram_info -->
<g id="node1" class="node"><title>_diagram_info</title>
<text text-anchor="start" x="8" y="-290.6" font-family="Times,serif" font-size="13.00">Models diagram</text>
<text text-anchor="start" x="8" y="-277.6" font-family="Times,serif" font-size="13.00">Date: Sep 06 2014 &#45; 21:43</text>
<text text-anchor="start" x="8" y="-264.6" font-family="Times,serif" font-size="13.00">Migration version: 20140906123202</text>
<text text-anchor="start" x="8" y="-251.6" font-family="Times,serif" font-size="13.00">Generated by RailRoady 1.1.2</text>
<text text-anchor="start" x="8" y="-238.6" font-family="Times,serif" font-size="13.00">http://railroady.prestonlee.com</text>
</g>
<!-- Account -->
<g id="node2" class="node"><title>Account</title>
<ellipse fill="none" stroke="black" cx="157.688" cy="-91" rx="40.1317" ry="18"/>
<text text-anchor="middle" x="157.688" y="-86.8" font-family="Times,serif" font-size="14.00">Account</text>
</g>
<!-- Payment -->
<g id="node6" class="node"><title>Payment</title>
<ellipse fill="none" stroke="black" cx="120.688" cy="-18" rx="41.1093" ry="18"/>
<text text-anchor="middle" x="120.688" y="-13.8" font-family="Times,serif" font-size="14.00">Payment</text>
</g>
<!-- Account&#45;&gt;Payment -->
<g id="edge1" class="edge"><title>Account&#45;&gt;Payment</title>
<path fill="none" stroke="#54e5ca" d="M145.128,-65.8985C141.57,-59.0706 137.683,-51.6134 134.078,-44.6952"/>
<ellipse fill="none" stroke="#54e5ca" cx="147.071" cy="-69.6268" rx="4.00002" ry="4.00002"/>
<polygon fill="#54e5ca" stroke="#54e5ca" points="134.015,-44.5733 133.384,-33.6256 131.704,-40.1393 129.393,-35.7052 129.393,-35.7052 129.393,-35.7052 131.704,-40.1393 125.403,-37.7849 134.015,-44.5733 134.015,-44.5733"/>
</g>
<!-- Category -->
<g id="node3" class="node"><title>Category</title>
<ellipse fill="none" stroke="black" cx="259.688" cy="-177" rx="42.5456" ry="18"/>
<text text-anchor="middle" x="259.688" y="-172.8" font-family="Times,serif" font-size="14.00">Category</text>
</g>
<!-- Offering -->
<g id="node5" class="node"><title>Offering</title>
<ellipse fill="none" stroke="black" cx="250.688" cy="-18" rx="40.2968" ry="18"/>
<text text-anchor="middle" x="250.688" y="-13.8" font-family="Times,serif" font-size="14.00">Offering</text>
</g>
<!-- Category&#45;&gt;Offering -->
<g id="edge4" class="edge"><title>Category&#45;&gt;Offering</title>
<path fill="none" stroke="#575670" d="M258.246,-150.852C256.603,-122.193 253.928,-75.523 252.24,-46.0816"/>
<ellipse fill="none" stroke="#575670" cx="258.478" cy="-154.906" rx="4" ry="4"/>
<polygon fill="#575670" stroke="#575670" points="252.239,-46.0631 256.159,-35.822 251.953,-41.0713 251.667,-36.0795 251.667,-36.0795 251.667,-36.0795 251.953,-41.0713 247.174,-36.3371 252.239,-46.0631 252.239,-46.0631"/>
</g>
<!-- Task -->
<g id="node7" class="node"><title>Task</title>
<ellipse fill="none" stroke="black" cx="330.688" cy="-91" rx="27" ry="18"/>
<text text-anchor="middle" x="330.688" y="-86.8" font-family="Times,serif" font-size="14.00">Task</text>
</g>
<!-- Category&#45;&gt;Task -->
<g id="edge3" class="edge"><title>Category&#45;&gt;Task</title>
<path fill="none" stroke="#b603ad" d="M279.153,-153.37C282.668,-149.261 286.294,-145.008 289.688,-141 296.892,-132.493 304.759,-123.114 311.657,-114.858"/>
<ellipse fill="none" stroke="#b603ad" cx="276.372" cy="-156.616" rx="4.00002" ry="4.00002"/>
<polygon fill="#b603ad" stroke="#b603ad" points="311.765,-114.728 321.628,-109.934 314.969,-110.889 318.173,-107.051 318.173,-107.051 318.173,-107.051 314.969,-110.889 314.718,-104.167 311.765,-114.728 311.765,-114.728"/>
</g>
<!-- Want -->
<g id="node9" class="node"><title>Want</title>
<ellipse fill="none" stroke="black" cx="398.688" cy="-18" rx="28.6076" ry="18"/>
<text text-anchor="middle" x="398.688" y="-13.8" font-family="Times,serif" font-size="14.00">Want</text>
</g>
<!-- Category&#45;&gt;Want -->
<g id="edge5" class="edge"><title>Category&#45;&gt;Want</title>
<path fill="none" stroke="#a72588" d="M262.88,-150.61C266.886,-127.977 275.7,-95.1033 294.688,-73 312.703,-52.0293 340.896,-38.1063 363.387,-29.6578"/>
<ellipse fill="none" stroke="#a72588" cx="262.206" cy="-154.79" rx="4.00001" ry="4.00001"/>
<polygon fill="#a72588" stroke="#a72588" points="363.522,-29.6098 374.452,-30.502 368.234,-27.9358 372.945,-26.2617 372.945,-26.2617 372.945,-26.2617 368.234,-27.9358 371.438,-22.0214 363.522,-29.6098 363.522,-29.6098"/>
</g>
<!-- Message -->
<g id="node4" class="node"><title>Message</title>
<ellipse fill="none" stroke="black" cx="579.688" cy="-91" rx="41.1007" ry="18"/>
<text text-anchor="middle" x="579.688" y="-86.8" font-family="Times,serif" font-size="14.00">Message</text>
</g>
<!-- Task&#45;&gt;Offering -->
<g id="edge8" class="edge"><title>Task&#45;&gt;Offering</title>
<path fill="none" stroke="black" d="M314.882,-75.9727C301.404,-64.0104 282.054,-46.8376 268.127,-34.4771"/>
</g>
<!-- Task&#45;&gt;Want -->
<g id="edge20" class="edge"><title>Task&#45;&gt;Want</title>
<path fill="none" stroke="black" d="M344.777,-75.2888C356.448,-63.1034 372.951,-45.8725 384.616,-33.6924"/>
</g>
<!-- User -->
<g id="node8" class="node"><title>User</title>
<ellipse fill="none" stroke="black" cx="385.688" cy="-177" rx="27" ry="18"/>
<text text-anchor="middle" x="385.688" y="-172.8" font-family="Times,serif" font-size="14.00">User</text>
</g>
<!-- User&#45;&gt;Account -->
<g id="edge18" class="edge"><title>User&#45;&gt;Account</title>
<path fill="none" stroke="#ed4737" d="M354.814,-164.626C313.424,-149.377 240.001,-122.326 195.391,-105.891"/>
<ellipse fill="none" stroke="#ed4737" cx="358.818" cy="-166.101" rx="4.00001" ry="4.00001"/>
<ellipse fill="#ed4737" stroke="#ed4737" cx="191.434" cy="-104.433" rx="4.00001" ry="4.00001"/>
</g>
<!-- User&#45;&gt;Message -->
<g id="edge14" class="edge"><title>User&#45;&gt;Message</title>
<path fill="none" stroke="#3171f7" d="M420.393,-172.687C464.354,-167.866 536.898,-157.633 557.688,-141 564.805,-135.306 569.695,-126.816 573.02,-118.495"/>
<ellipse fill="none" stroke="#3171f7" cx="416.249" cy="-173.128" rx="4" ry="4"/>
<polygon fill="#3171f7" stroke="#3171f7" points="573.034,-118.454 580.507,-110.429 574.64,-113.719 576.245,-108.984 576.245,-108.984 576.245,-108.984 574.64,-113.719 571.984,-107.539 573.034,-118.454 573.034,-118.454"/>
<text text-anchor="middle" x="617.064" y="-129.8" font-family="Times,serif" font-size="14.00">sended_messages</text>
</g>
<!-- User&#45;&gt;Message -->
<g id="edge15" class="edge"><title>User&#45;&gt;Message</title>
<path fill="none" stroke="#e87ea6" d="M408.329,-156.962C423.74,-144.139 442.094,-129.178 446.405,-127 472.983,-113.569 505.227,-104.924 531.342,-99.5868"/>
<ellipse fill="none" stroke="#e87ea6" cx="405.025" cy="-159.721" rx="4.00002" ry="4.00002"/>
<polygon fill="#e87ea6" stroke="#e87ea6" points="531.574,-99.5417 542.249,-102.05 536.482,-98.5872 541.39,-97.6327 541.39,-97.6327 541.39,-97.6327 536.482,-98.5872 540.531,-93.2154 531.574,-99.5417 531.574,-99.5417"/>
<text text-anchor="middle" x="499.329" y="-129.8" font-family="Times,serif" font-size="14.00">received_messages</text>
</g>
<!-- User&#45;&gt;Offering -->
<g id="edge12" class="edge"><title>User&#45;&gt;Offering</title>
<path fill="none" stroke="#5c2442" d="M387.206,-150.649C387.236,-128.042 383.862,-95.1848 366.688,-73 349.478,-50.7683 320.932,-37.3202 296.466,-29.4044"/>
<ellipse fill="none" stroke="#5c2442" cx="387.127" cy="-154.768" rx="4" ry="4"/>
<polygon fill="#5c2442" stroke="#5c2442" points="296.2,-29.3245 287.924,-22.1305 291.413,-27.8818 286.625,-26.4392 286.625,-26.4392 286.625,-26.4392 291.413,-27.8818 285.327,-30.7478 296.2,-29.3245 296.2,-29.3245"/>
</g>
<!-- User&#45;&gt;Task -->
<g id="edge11" class="edge"><title>User&#45;&gt;Task</title>
<path fill="none" stroke="#0b20a6" d="M370.932,-153.465C363.392,-141.949 354.211,-127.926 346.523,-116.184"/>
<ellipse fill="none" stroke="#0b20a6" cx="373.151" cy="-156.854" rx="4.00002" ry="4.00002"/>
<polygon fill="#0b20a6" stroke="#0b20a6" points="346.464,-116.095 344.751,-105.264 343.725,-111.912 340.986,-107.729 340.986,-107.729 340.986,-107.729 343.725,-111.912 337.222,-110.194 346.464,-116.095 346.464,-116.095"/>
</g>
<!-- User&#45;&gt;User -->
<g id="edge16" class="edge"><title>User&#45;&gt;User</title>
<path fill="none" stroke="#9db5dd" d="M422.631,-179.972C427.477,-179.463 430.688,-178.472 430.688,-177 430.688,-175.528 427.477,-174.537 422.631,-174.028"/>
<polygon fill="#9db5dd" stroke="#9db5dd" points="422.475,-179.978 412.307,-175.871 417.479,-180.173 412.483,-180.368 412.483,-180.368 412.483,-180.368 417.479,-180.173 412.658,-184.864 422.475,-179.978 422.475,-179.978"/>
<polygon fill="#9db5dd" stroke="#9db5dd" points="422.475,-174.022 412.658,-169.136 417.479,-173.827 412.483,-173.632 412.483,-173.632 412.483,-173.632 417.479,-173.827 412.307,-178.129 422.475,-174.022 422.475,-174.022"/>
<text text-anchor="middle" x="451.681" y="-172.8" font-family="Times,serif" font-size="14.00">senders</text>
</g>
<!-- User&#45;&gt;User -->
<g id="edge17" class="edge"><title>User&#45;&gt;User</title>
<path fill="none" stroke="#ed44a1" d="M421.652,-183.282C446.341,-184.779 472.674,-182.685 472.674,-177 472.674,-171.315 446.341,-169.221 421.652,-170.718"/>
<polygon fill="#ed44a1" stroke="#ed44a1" points="421.58,-183.276 411.981,-177.973 416.596,-182.867 411.613,-182.458 411.613,-182.458 411.613,-182.458 416.596,-182.867 411.245,-186.943 421.58,-183.276 421.58,-183.276"/>
<polygon fill="#ed44a1" stroke="#ed44a1" points="421.58,-170.724 411.245,-167.057 416.596,-171.133 411.613,-171.542 411.613,-171.542 411.613,-171.542 416.596,-171.133 411.981,-176.027 421.58,-170.724 421.58,-170.724"/>
<text text-anchor="middle" x="501.047" y="-172.8" font-family="Times,serif" font-size="14.00">recepients</text>
</g>
<!-- User&#45;&gt;Want -->
<g id="edge13" class="edge"><title>User&#45;&gt;Want</title>
<path fill="none" stroke="#5a0198" d="M396.659,-152.007C397.91,-148.385 398.987,-144.641 399.688,-141 405.864,-108.931 404.238,-71.2368 401.967,-46.3258"/>
<ellipse fill="none" stroke="#5a0198" cx="395.153" cy="-155.924" rx="4.00001" ry="4.00001"/>
<polygon fill="#5a0198" stroke="#5a0198" points="401.946,-46.1155 405.417,-35.7135 401.443,-41.1408 400.94,-36.1662 400.94,-36.1662 400.94,-36.1662 401.443,-41.1408 396.463,-36.6188 401.946,-46.1155 401.946,-46.1155"/>
</g>
<!-- ActiveRecord::Base -->
<g id="node10" class="node"><title>ActiveRecord::Base</title>
<ellipse fill="none" stroke="black" cx="306.688" cy="-268.5" rx="81.1422" ry="18"/>
<text text-anchor="middle" x="306.688" y="-264.3" font-family="Times,serif" font-size="14.00">ActiveRecord::Base</text>
</g>
<!-- ActiveRecord::Base&#45;&gt;Account -->
<g id="edge2" class="edge"><title>ActiveRecord::Base&#45;&gt;Account</title>
<path fill="none" stroke="black" d="M277.706,-251.537C256.208,-238.55 227.34,-218.555 207.688,-195 185.658,-168.595 170.569,-130.84 163.1,-109.134"/>
</g>
<!-- ActiveRecord::Base&#45;&gt;Category -->
<g id="edge6" class="edge"><title>ActiveRecord::Base&#45;&gt;Category</title>
<path fill="none" stroke="black" d="M297.626,-250.243C289.25,-234.293 276.878,-210.735 268.563,-194.9"/>
</g>
<!-- ActiveRecord::Base&#45;&gt;Message -->
<g id="edge7" class="edge"><title>ActiveRecord::Base&#45;&gt;Message</title>
<path fill="none" stroke="black" d="M387.489,-266.339C475.251,-260.11 610.896,-234.786 670.688,-141 685.687,-117.473 648.889,-104.448 617.685,-97.848"/>
</g>
<!-- ActiveRecord::Base&#45;&gt;Payment -->
<g id="edge9" class="edge"><title>ActiveRecord::Base&#45;&gt;Payment</title>
<path fill="none" stroke="black" d="M269.362,-252.461C219.767,-229.98 135.303,-182.252 108.688,-109 99.8056,-84.5542 107.358,-54.2327 113.85,-35.765"/>
</g>
<!-- ActiveRecord::Base&#45;&gt;Task -->
<g id="edge10" class="edge"><title>ActiveRecord::Base&#45;&gt;Task</title>
<path fill="none" stroke="black" d="M309.033,-250.353C313.633,-216.715 323.789,-142.444 328.369,-108.958"/>
</g>
<!-- ActiveRecord::Base&#45;&gt;User -->
<g id="edge19" class="edge"><title>ActiveRecord::Base&#45;&gt;User</title>
<path fill="none" stroke="black" d="M321.547,-250.666C336.207,-234.057 358.408,-208.906 372.47,-192.974"/>
</g>
</g>
</svg>
