<?xml version="1.0" encoding="UTF-8" standalone="no"?>
<!DOCTYPE svg PUBLIC "-//W3C//DTD SVG 1.1//EN"
 "http://www.w3.org/Graphics/SVG/1.1/DTD/svg11.dtd">
<!-- Generated by graphviz version 2.38.0 (20140413.2041)
 -->
<!-- Title: models_diagram Pages: 1 -->
<svg width="704pt" height="240pt"
 viewBox="0.00 0.00 703.97 240.00" xmlns="http://www.w3.org/2000/svg" xmlns:xlink="http://www.w3.org/1999/xlink">
<g id="graph0" class="graph" transform="scale(1 1) rotate(0) translate(4 236)">
<title>models_diagram</title>
<polygon fill="white" stroke="none" points="-4,4 -4,-236 699.971,-236 699.971,4 -4,4"/>
<!-- _diagram_info -->
<g id="node1" class="node"><title>_diagram_info</title>
<text text-anchor="start" x="8" y="-217.6" font-family="Times,serif" font-size="13.00">Models diagram</text>
<text text-anchor="start" x="8" y="-204.6" font-family="Times,serif" font-size="13.00">Date: Jul 07 2015 &#45; 11:02</text>
<text text-anchor="start" x="8" y="-191.6" font-family="Times,serif" font-size="13.00">Migration version: 20150506065801</text>
<text text-anchor="start" x="8" y="-178.6" font-family="Times,serif" font-size="13.00">Generated by RailRoady 1.3.0</text>
<text text-anchor="start" x="8" y="-165.6" font-family="Times,serif" font-size="13.00">http://railroady.prestonlee.com</text>
</g>
<!-- Account -->
<g id="node2" class="node"><title>Account</title>
<ellipse fill="none" stroke="black" cx="490.688" cy="-91" rx="40.1317" ry="18"/>
<text text-anchor="middle" x="490.688" y="-86.8" font-family="Times,serif" font-size="14.00">Account</text>
</g>
<!-- Payment -->
<g id="node7" class="node"><title>Payment</title>
<ellipse fill="none" stroke="black" cx="490.688" cy="-18" rx="41.1093" ry="18"/>
<text text-anchor="middle" x="490.688" y="-13.8" font-family="Times,serif" font-size="14.00">Payment</text>
</g>
<!-- Account&#45;&gt;Payment -->
<g id="edge1" class="edge"><title>Account&#45;&gt;Payment</title>
<path fill="none" stroke="#5c2282" d="M490.688,-64.791C490.688,-58.832 490.688,-52.4496 490.688,-46.3988"/>
<ellipse fill="none" stroke="#5c2282" cx="490.688" cy="-68.8129" rx="4" ry="4"/>
<polygon fill="#5c2282" stroke="#5c2282" points="490.688,-46.0288 495.188,-36.0288 490.688,-41.0288 490.688,-36.0288 490.688,-36.0288 490.688,-36.0288 490.688,-41.0288 486.188,-36.0289 490.688,-46.0288 490.688,-46.0288"/>
</g>
<!-- Category -->
<g id="node3" class="node"><title>Category</title>
<ellipse fill="none" stroke="black" cx="267.688" cy="-195.5" rx="42.5456" ry="18"/>
<text text-anchor="middle" x="267.688" y="-191.3" font-family="Times,serif" font-size="14.00">Category</text>
</g>
<!-- Offering -->
<g id="node6" class="node"><title>Offering</title>
<ellipse fill="none" stroke="black" cx="354.688" cy="-91" rx="40.2968" ry="18"/>
<text text-anchor="middle" x="354.688" y="-86.8" font-family="Times,serif" font-size="14.00">Offering</text>
</g>
<!-- Category&#45;&gt;Offering -->
<g id="edge3" class="edge"><title>Category&#45;&gt;Offering</title>
<path fill="none" stroke="#2188e7" d="M286.945,-171.812C301.034,-155.213 320.108,-132.74 334.427,-115.871"/>
<ellipse fill="none" stroke="#2188e7" cx="284.254" cy="-174.982" rx="4.00002" ry="4.00002"/>
<polygon fill="#2188e7" stroke="#2188e7" points="334.56,-115.714 344.462,-111.002 337.796,-111.902 341.031,-108.09 341.031,-108.09 341.031,-108.09 337.796,-111.902 337.6,-105.178 334.56,-115.714 334.56,-115.714"/>
</g>
<!-- Task -->
<g id="node8" class="node"><title>Task</title>
<ellipse fill="none" stroke="black" cx="193.688" cy="-91" rx="27" ry="18"/>
<text text-anchor="middle" x="193.688" y="-86.8" font-family="Times,serif" font-size="14.00">Task</text>
</g>
<!-- Category&#45;&gt;Task -->
<g id="edge2" class="edge"><title>Category&#45;&gt;Task</title>
<path fill="none" stroke="#ca8aee" d="M251.068,-171.479C239.049,-154.832 222.861,-132.409 210.743,-115.624"/>
<ellipse fill="none" stroke="#ca8aee" cx="253.457" cy="-174.788" rx="4.00002" ry="4.00002"/>
<polygon fill="#ca8aee" stroke="#ca8aee" points="210.675,-115.529 208.47,-104.787 207.748,-111.475 204.821,-107.422 204.821,-107.422 204.821,-107.422 207.748,-111.475 201.173,-110.056 210.675,-115.529 210.675,-115.529"/>
</g>
<!-- Want -->
<g id="node10" class="node"><title>Want</title>
<ellipse fill="none" stroke="black" cx="267.688" cy="-91" rx="28.6076" ry="18"/>
<text text-anchor="middle" x="267.688" y="-86.8" font-family="Times,serif" font-size="14.00">Want</text>
</g>
<!-- Category&#45;&gt;Want -->
<g id="edge4" class="edge"><title>Category&#45;&gt;Want</title>
<path fill="none" stroke="#bd7f89" d="M267.688,-169.017C267.688,-153.986 267.688,-134.959 267.688,-119.577"/>
<ellipse fill="none" stroke="#bd7f89" cx="267.688" cy="-173.112" rx="4" ry="4"/>
<polygon fill="#bd7f89" stroke="#bd7f89" points="267.688,-119.131 272.188,-109.131 267.688,-114.131 267.688,-109.131 267.688,-109.131 267.688,-109.131 267.688,-114.131 263.188,-109.131 267.688,-119.131 267.688,-119.131"/>
</g>
<!-- Entry -->
<g id="node4" class="node"><title>Entry</title>
<ellipse fill="none" stroke="black" cx="313.688" cy="-18" rx="29.5104" ry="18"/>
<text text-anchor="middle" x="313.688" y="-13.8" font-family="Times,serif" font-size="14.00">Entry</text>
</g>
<!-- Message -->
<g id="node5" class="node"><title>Message</title>
<ellipse fill="none" stroke="black" cx="595.688" cy="-91" rx="41.1007" ry="18"/>
<text text-anchor="middle" x="595.688" y="-86.8" font-family="Times,serif" font-size="14.00">Message</text>
</g>
<!-- Offering&#45;&gt;Entry -->
<g id="edge5" class="edge"><title>Offering&#45;&gt;Entry</title>
<path fill="none" stroke="#b69aa8" d="M340.877,-66.0846C336.753,-58.943 332.224,-51.0988 328.064,-43.896"/>
<ellipse fill="none" stroke="#b69aa8" cx="342.971" cy="-69.7101" rx="4.00002" ry="4.00002"/>
<polygon fill="#b69aa8" stroke="#b69aa8" points="328.053,-43.8764 326.949,-32.9662 325.553,-39.5464 323.052,-35.2165 323.052,-35.2165 323.052,-35.2165 325.553,-39.5464 319.155,-37.4669 328.053,-43.8764 328.053,-43.8764"/>
</g>
<!-- Task&#45;&gt;Entry -->
<g id="edge6" class="edge"><title>Task&#45;&gt;Entry</title>
<path fill="none" stroke="#e3cdb7" d="M220.302,-74.2533C239.212,-63.0649 264.612,-48.0363 284.149,-36.4772"/>
<ellipse fill="none" stroke="#e3cdb7" cx="216.677" cy="-76.3977" rx="4.00002" ry="4.00002"/>
<polygon fill="#e3cdb7" stroke="#e3cdb7" points="284.334,-36.3676 295.232,-35.1483 288.637,-33.8215 292.941,-31.2754 292.941,-31.2754 292.941,-31.2754 288.637,-33.8215 290.649,-27.4026 284.334,-36.3676 284.334,-36.3676"/>
</g>
<!-- User -->
<g id="node9" class="node"><title>User</title>
<ellipse fill="none" stroke="black" cx="422.688" cy="-195.5" rx="27" ry="18"/>
<text text-anchor="middle" x="422.688" y="-191.3" font-family="Times,serif" font-size="14.00">User</text>
</g>
<!-- User&#45;&gt;Account -->
<g id="edge7" class="edge"><title>User&#45;&gt;Account</title>
<path fill="none" stroke="#1f2953" d="M435.071,-170.859C442.313,-157.628 451.93,-141.023 461.688,-127 464.646,-122.749 467.993,-118.378 471.335,-114.227"/>
<ellipse fill="none" stroke="#1f2953" cx="432.999" cy="-174.696" rx="4.00002" ry="4.00002"/>
<ellipse fill="#1f2953" stroke="#1f2953" cx="473.981" cy="-111.02" rx="4.00002" ry="4.00002"/>
</g>
<!-- User&#45;&gt;Entry -->
<g id="edge11" class="edge"><title>User&#45;&gt;Entry</title>
<path fill="none" stroke="#26b3a2" d="M424.703,-168.852C425.477,-142.579 422.976,-101.637 403.688,-73 390.625,-53.6066 368.045,-40.0875 348.771,-31.4263"/>
<ellipse fill="none" stroke="#26b3a2" cx="424.512" cy="-173.165" rx="4" ry="4"/>
<polygon fill="#26b3a2" stroke="#26b3a2" points="348.559,-31.337 341.097,-23.3018 343.953,-29.3923 339.347,-27.4475 339.347,-27.4475 339.347,-27.4475 343.953,-29.3923 337.597,-31.5932 348.559,-31.337 348.559,-31.337"/>
</g>
<!-- User&#45;&gt;Message -->
<g id="edge12" class="edge"><title>User&#45;&gt;Message</title>
<path fill="none" stroke="#05cb9a" d="M437.652,-171.712C448.378,-157.026 464.05,-138.577 481.936,-127 482.744,-126.477 521.186,-114.694 553.157,-104.943"/>
<ellipse fill="none" stroke="#05cb9a" cx="435.107" cy="-175.308" rx="4.00002" ry="4.00002"/>
<polygon fill="#05cb9a" stroke="#05cb9a" points="553.256,-104.912 564.134,-106.301 558.039,-103.454 562.822,-101.996 562.822,-101.996 562.822,-101.996 558.039,-103.454 561.51,-97.6919 553.256,-104.912 553.256,-104.912"/>
<text text-anchor="middle" x="531.064" y="-129.8" font-family="Times,serif" font-size="14.00">sended_messages</text>
</g>
<!-- User&#45;&gt;Message -->
<g id="edge13" class="edge"><title>User&#45;&gt;Message</title>
<path fill="none" stroke="#b8a2ba" d="M457.724,-191.773C493.407,-187.144 548.003,-174.661 580.688,-141 586.376,-135.142 589.914,-127.186 592.111,-119.389"/>
<ellipse fill="none" stroke="#b8a2ba" cx="453.5" cy="-192.272" rx="4.00001" ry="4.00001"/>
<polygon fill="#b8a2ba" stroke="#b8a2ba" points="592.155,-119.19 598.693,-110.386 593.226,-114.306 594.297,-109.422 594.297,-109.422 594.297,-109.422 593.226,-114.306 589.902,-108.458 592.155,-119.19 592.155,-119.19"/>
<text text-anchor="middle" x="642.329" y="-129.8" font-family="Times,serif" font-size="14.00">received_messages</text>
</g>
<!-- User&#45;&gt;Offering -->
<g id="edge9" class="edge"><title>User&#45;&gt;Offering</title>
<path fill="none" stroke="#69f58f" d="M407.475,-171.569C396.775,-155.44 382.456,-133.856 371.431,-117.238"/>
<ellipse fill="none" stroke="#69f58f" cx="409.851" cy="-175.151" rx="4.00002" ry="4.00002"/>
<polygon fill="#69f58f" stroke="#69f58f" points="371.217,-116.915 369.439,-106.095 368.453,-112.749 365.689,-108.582 365.689,-108.582 365.689,-108.582 368.453,-112.749 361.939,-111.07 371.217,-116.915 371.217,-116.915"/>
</g>
<!-- User&#45;&gt;Task -->
<g id="edge8" class="edge"><title>User&#45;&gt;Task</title>
<path fill="none" stroke="#3b219e" d="M392.973,-181.602C354.987,-165.052 287.245,-135.334 229.688,-109 227.896,-108.18 226.058,-107.333 224.205,-106.473"/>
<ellipse fill="none" stroke="#3b219e" cx="396.945" cy="-183.331" rx="4.00002" ry="4.00002"/>
<polygon fill="#3b219e" stroke="#3b219e" points="224.027,-106.39 216.875,-98.0771 219.498,-104.272 214.968,-102.153 214.968,-102.153 214.968,-102.153 219.498,-104.272 213.062,-106.229 224.027,-106.39 224.027,-106.39"/>
</g>
<!-- User&#45;&gt;User -->
<g id="edge14" class="edge"><title>User&#45;&gt;User</title>
<path fill="none" stroke="#2289cc" d="M458.808,-200.587C464.11,-199.786 467.688,-198.09 467.688,-195.5 467.688,-192.91 464.11,-191.214 458.808,-190.413"/>
<polygon fill="#2289cc" stroke="#2289cc" points="458.572,-200.598 448.362,-196.596 453.578,-200.844 448.584,-201.091 448.584,-201.091 448.584,-201.091 453.578,-200.844 448.805,-205.585 458.572,-200.598 458.572,-200.598"/>
<polygon fill="#2289cc" stroke="#2289cc" points="458.572,-190.402 448.805,-185.415 453.578,-190.156 448.584,-189.909 448.584,-189.909 448.584,-189.909 453.578,-190.156 448.362,-194.404 458.572,-190.402 458.572,-190.402"/>
<text text-anchor="middle" x="488.681" y="-191.3" font-family="Times,serif" font-size="14.00">senders</text>
</g>
<!-- User&#45;&gt;User -->
<g id="edge15" class="edge"><title>User&#45;&gt;User</title>
<path fill="none" stroke="#67d5c8" d="M456.643,-205.753C481.891,-208.651 509.674,-205.233 509.674,-195.5 509.674,-185.767 481.891,-182.349 456.643,-185.247"/>
<polygon fill="#67d5c8" stroke="#67d5c8" points="456.317,-205.703 447.109,-199.746 451.374,-204.949 446.431,-204.195 446.431,-204.195 446.431,-204.195 451.374,-204.949 445.752,-208.644 456.317,-205.703 456.317,-205.703"/>
<polygon fill="#67d5c8" stroke="#67d5c8" points="456.317,-185.297 445.752,-182.356 451.374,-186.051 446.431,-186.805 446.431,-186.805 446.431,-186.805 451.374,-186.051 447.109,-191.254 456.317,-185.297 456.317,-185.297"/>
<text text-anchor="middle" x="538.047" y="-191.3" font-family="Times,serif" font-size="14.00">recepients</text>
</g>
<!-- User&#45;&gt;Want -->
<g id="edge10" class="edge"><title>User&#45;&gt;Want</title>
<path fill="none" stroke="#b5fbf4" d="M396.957,-177.484C368.888,-158.922 324.125,-129.321 295.326,-110.277"/>
<ellipse fill="none" stroke="#b5fbf4" cx="400.655" cy="-179.93" rx="4.00002" ry="4.00002"/>
<polygon fill="#b5fbf4" stroke="#b5fbf4" points="295.278,-110.245 289.419,-100.976 291.107,-107.487 286.937,-104.729 286.937,-104.729 286.937,-104.729 291.107,-107.487 284.455,-108.483 295.278,-110.245 295.278,-110.245"/>
</g>
<!-- Want&#45;&gt;Entry -->
<g id="edge16" class="edge"><title>Want&#45;&gt;Entry</title>
<path fill="none" stroke="#7c06d6" d="M282.599,-66.9842C287.456,-59.4875 292.865,-51.1397 297.791,-43.5359"/>
<ellipse fill="none" stroke="#7c06d6" cx="280.301" cy="-70.532" rx="4.00002" ry="4.00002"/>
<polygon fill="#7c06d6" stroke="#7c06d6" points="297.853,-43.4398 307.068,-37.4941 300.572,-39.2435 303.291,-35.0472 303.291,-35.0472 303.291,-35.0472 300.572,-39.2435 299.514,-32.6004 297.853,-43.4398 297.853,-43.4398"/>
</g>
</g>
</svg>
