<?xml version="1.0" encoding="UTF-8" standalone="no"?>
<!DOCTYPE svg PUBLIC "-//W3C//DTD SVG 1.1//EN"
 "http://www.w3.org/Graphics/SVG/1.1/DTD/svg11.dtd">
<!-- Generated by graphviz version 2.38.0 (20140413.2041)
 -->
<!-- Title: models_diagram Pages: 1 -->
<svg width="1049pt" height="399pt"
 viewBox="0.00 0.00 1049.50 399.00" xmlns="http://www.w3.org/2000/svg" xmlns:xlink="http://www.w3.org/1999/xlink">
<g id="graph0" class="graph" transform="scale(1 1) rotate(0) translate(4 395)">
<title>models_diagram</title>
<polygon fill="none" stroke="none" points="-4,4 -4,-395 1045.5,-395 1045.5,4 -4,4"/>
<!-- _diagram_info -->
<g id="node1" class="node"><title>_diagram_info</title>
<text text-anchor="start" x="8" y="-376.6" font-family="Times,serif" font-size="13.00">Models diagram</text>
<text text-anchor="start" x="8" y="-363.6" font-family="Times,serif" font-size="13.00">Date: Aug 30 2015 &#45; 12:02</text>
<text text-anchor="start" x="8" y="-350.6" font-family="Times,serif" font-size="13.00">Migration version: 20150813065851</text>
<text text-anchor="start" x="8" y="-337.6" font-family="Times,serif" font-size="13.00">Generated by RailRoady 1.3.1</text>
<text text-anchor="start" x="8" y="-324.6" font-family="Times,serif" font-size="13.00">http://railroady.prestonlee.com</text>
</g>
<!-- Ability -->
<g id="node2" class="node"><title>Ability</title>
<polygon fill="none" stroke="black" points="281.358,-372.5 226.018,-372.5 226.018,-336.5 281.358,-336.5 281.358,-372.5"/>
<text text-anchor="middle" x="253.688" y="-350.3" font-family="Times,serif" font-size="14.00">Ability</text>
</g>
<!-- Account -->
<g id="node3" class="node"><title>Account</title>
<ellipse fill="none" stroke="black" cx="730.688" cy="-250" rx="40.1317" ry="18"/>
<text text-anchor="middle" x="730.688" y="-245.8" font-family="Times,serif" font-size="14.00">Account</text>
</g>
<!-- Payment -->
<g id="node12" class="node"><title>Payment</title>
<ellipse fill="none" stroke="black" cx="661.688" cy="-164" rx="41.1093" ry="18"/>
<text text-anchor="middle" x="661.688" y="-159.8" font-family="Times,serif" font-size="14.00">Payment</text>
</g>
<!-- Account&#45;&gt;Payment -->
<g id="edge1" class="edge"><title>Account&#45;&gt;Payment</title>
<path fill="none" stroke="#e58d04" d="M722.483,-224.318C719.021,-216.071 714.438,-207.164 708.688,-200 704.323,-194.563 698.928,-189.528 693.365,-185.071"/>
<ellipse fill="none" stroke="#e58d04" cx="724.005" cy="-228.219" rx="4.00001" ry="4.00001"/>
<polygon fill="#e58d04" stroke="#e58d04" points="693.211,-184.955 687.89,-175.367 689.204,-181.964 685.198,-178.973 685.198,-178.973 685.198,-178.973 689.204,-181.964 682.505,-182.579 693.211,-184.955 693.211,-184.955"/>
<text text-anchor="middle" x="746.85" y="-202.8" font-family="Times,serif" font-size="14.00">withdraws</text>
</g>
<!-- Account&#45;&gt;Payment -->
<g id="edge2" class="edge"><title>Account&#45;&gt;Payment</title>
<path fill="none" stroke="#e98cb5" d="M692.448,-234.707C677.517,-228.283 662.966,-220.665 658.798,-214 654.76,-207.542 653.893,-199.621 654.476,-192.046"/>
<ellipse fill="none" stroke="#e98cb5" cx="696.544" cy="-236.41" rx="4.00001" ry="4.00001"/>
<polygon fill="#e98cb5" stroke="#e98cb5" points="654.486,-191.983 660.456,-182.785 655.247,-187.041 656.008,-182.1 656.008,-182.1 656.008,-182.1 655.247,-187.041 651.56,-181.415 654.486,-191.983 654.486,-191.983"/>
<text text-anchor="middle" x="682.633" y="-202.8" font-family="Times,serif" font-size="14.00">deposits</text>
</g>
<!-- Category -->
<g id="node4" class="node"><title>Category</title>
<ellipse fill="none" stroke="black" cx="341.688" cy="-354.5" rx="42.5456" ry="18"/>
<text text-anchor="middle" x="341.688" y="-350.3" font-family="Times,serif" font-size="14.00">Category</text>
</g>
<!-- Offering -->
<g id="node11" class="node"><title>Offering</title>
<ellipse fill="none" stroke="black" cx="422.688" cy="-250" rx="40.2968" ry="18"/>
<text text-anchor="middle" x="422.688" y="-245.8" font-family="Times,serif" font-size="14.00">Offering</text>
</g>
<!-- Category&#45;&gt;Offering -->
<g id="edge4" class="edge"><title>Category&#45;&gt;Offering</title>
<path fill="none" stroke="#3af6ea" d="M359.816,-330.56C372.804,-314.124 390.265,-292.029 403.49,-275.294"/>
<ellipse fill="none" stroke="#3af6ea" cx="357.182" cy="-333.893" rx="4.00002" ry="4.00002"/>
<polygon fill="#3af6ea" stroke="#3af6ea" points="403.773,-274.935 413.504,-269.88 406.873,-271.013 409.973,-267.09 409.973,-267.09 409.973,-267.09 406.873,-271.013 406.442,-264.299 403.773,-274.935 403.773,-274.935"/>
</g>
<!-- Task -->
<g id="node15" class="node"><title>Task</title>
<ellipse fill="none" stroke="black" cx="507.688" cy="-250" rx="27" ry="18"/>
<text text-anchor="middle" x="507.688" y="-245.8" font-family="Times,serif" font-size="14.00">Task</text>
</g>
<!-- Category&#45;&gt;Task -->
<g id="edge3" class="edge"><title>Category&#45;&gt;Task</title>
<path fill="none" stroke="#2425ed" d="M371.677,-334.983C402.389,-316.019 449.752,-286.774 479.711,-268.275"/>
<ellipse fill="none" stroke="#2425ed" cx="368.173" cy="-337.146" rx="4.00002" ry="4.00002"/>
<polygon fill="#2425ed" stroke="#2425ed" points="479.903,-268.156 490.776,-266.731 484.158,-265.529 488.412,-262.902 488.412,-262.902 488.412,-262.902 484.158,-265.529 486.048,-259.073 479.903,-268.156 479.903,-268.156"/>
</g>
<!-- Want -->
<g id="node17" class="node"><title>Want</title>
<ellipse fill="none" stroke="black" cx="259.688" cy="-250" rx="28.6076" ry="18"/>
<text text-anchor="middle" x="259.688" y="-245.8" font-family="Times,serif" font-size="14.00">Want</text>
</g>
<!-- Category&#45;&gt;Want -->
<g id="edge5" class="edge"><title>Category&#45;&gt;Want</title>
<path fill="none" stroke="#033d2f" d="M311.21,-334.526C298.701,-325.418 284.999,-313.534 275.688,-300 271.103,-293.336 267.761,-285.269 265.356,-277.62"/>
<ellipse fill="none" stroke="#033d2f" cx="314.728" cy="-336.996" rx="4.00002" ry="4.00002"/>
<polygon fill="#033d2f" stroke="#033d2f" points="265.352,-277.605 267.048,-266.771 264.03,-272.783 262.708,-267.96 262.708,-267.96 262.708,-267.96 264.03,-272.783 258.368,-269.15 265.352,-277.605 265.352,-277.605"/>
</g>
<!-- Contract -->
<g id="node5" class="node"><title>Contract</title>
<ellipse fill="none" stroke="black" cx="354.688" cy="-164" rx="40.6162" ry="18"/>
<text text-anchor="middle" x="354.688" y="-159.8" font-family="Times,serif" font-size="14.00">Contract</text>
</g>
<!-- Negotiation -->
<g id="node9" class="node"><title>Negotiation</title>
<ellipse fill="none" stroke="black" cx="354.688" cy="-18" rx="51.7174" ry="18"/>
<text text-anchor="middle" x="354.688" y="-13.8" font-family="Times,serif" font-size="14.00">Negotiation</text>
</g>
<!-- Contract&#45;&gt;Negotiation -->
<g id="edge6" class="edge"><title>Contract&#45;&gt;Negotiation</title>
<path fill="none" stroke="#37d23c" d="M354.688,-137.838C354.688,-112.172 354.688,-72.4773 354.688,-46.1235"/>
<ellipse fill="none" stroke="#37d23c" cx="354.688" cy="-141.916" rx="4" ry="4"/>
<polygon fill="#37d23c" stroke="#37d23c" points="354.688,-46.0619 359.188,-36.0619 354.688,-41.0619 354.688,-36.0619 354.688,-36.0619 354.688,-36.0619 354.688,-41.0619 350.188,-36.062 354.688,-46.0619 354.688,-46.0619"/>
</g>
<!-- Entrust -->
<g id="node6" class="node"><title>Entrust</title>
<ellipse fill="none" stroke="black" cx="260.688" cy="-164" rx="35.806" ry="18"/>
<text text-anchor="middle" x="260.688" y="-159.8" font-family="Times,serif" font-size="14.00">Entrust</text>
</g>
<!-- Entrust&#45;&gt;Negotiation -->
<g id="edge7" class="edge"><title>Entrust&#45;&gt;Negotiation</title>
<path fill="none" stroke="#b63e63" d="M275.814,-139.828C292.868,-113.703 320.508,-71.3602 338.129,-44.3662"/>
<ellipse fill="none" stroke="#b63e63" cx="273.475" cy="-143.412" rx="4.00002" ry="4.00002"/>
<polygon fill="#b63e63" stroke="#b63e63" points="338.225,-44.2196 347.459,-38.3056 340.958,-40.0327 343.691,-35.8458 343.691,-35.8458 343.691,-35.8458 340.958,-40.0327 339.923,-33.3859 338.225,-44.2196 338.225,-44.2196"/>
</g>
<!-- Entry -->
<g id="node7" class="node"><title>Entry</title>
<ellipse fill="none" stroke="black" cx="488.688" cy="-91" rx="29.5104" ry="18"/>
<text text-anchor="middle" x="488.688" y="-86.8" font-family="Times,serif" font-size="14.00">Entry</text>
</g>
<!-- Entry&#45;&gt;Negotiation -->
<g id="edge8" class="edge"><title>Entry&#45;&gt;Negotiation</title>
<path fill="none" stroke="#3d4ee1" d="M459.72,-74.6512C439.564,-63.9719 412.543,-49.6546 390.956,-38.2165"/>
<ellipse fill="none" stroke="#3d4ee1" cx="463.326" cy="-76.5618" rx="4.00002" ry="4.00002"/>
<polygon fill="#3d4ee1" stroke="#3d4ee1" points="390.909,-38.1917 384.179,-29.5334 386.49,-35.8507 382.072,-33.5097 382.072,-33.5097 382.072,-33.5097 386.49,-35.8507 379.965,-37.4861 390.909,-38.1917 390.909,-38.1917"/>
</g>
<!-- Message -->
<g id="node8" class="node"><title>Message</title>
<ellipse fill="none" stroke="black" cx="631.688" cy="-250" rx="41.1007" ry="18"/>
<text text-anchor="middle" x="631.688" y="-245.8" font-family="Times,serif" font-size="14.00">Message</text>
</g>
<!-- Notification -->
<g id="node10" class="node"><title>Notification</title>
<ellipse fill="none" stroke="black" cx="840.688" cy="-250" rx="52.2106" ry="18"/>
<text text-anchor="middle" x="840.688" y="-245.8" font-family="Times,serif" font-size="14.00">Notification</text>
</g>
<!-- Offering&#45;&gt;Contract -->
<g id="edge10" class="edge"><title>Offering&#45;&gt;Contract</title>
<path fill="none" stroke="#8a15f5" d="M404.504,-226.537C395.184,-215.025 383.824,-200.992 374.307,-189.236"/>
<ellipse fill="none" stroke="#8a15f5" cx="407.06" cy="-229.695" rx="4.00002" ry="4.00002"/>
<polygon fill="#8a15f5" stroke="#8a15f5" points="374.051,-188.919 371.256,-178.315 370.905,-185.033 367.759,-181.146 367.759,-181.146 367.759,-181.146 370.905,-185.033 364.261,-183.978 374.051,-188.919 374.051,-188.919"/>
</g>
<!-- Offering&#45;&gt;Entry -->
<g id="edge9" class="edge"><title>Offering&#45;&gt;Entry</title>
<path fill="none" stroke="#5acaf1" d="M432.969,-224.544C445.142,-195.585 465.332,-147.559 477.775,-117.959"/>
<ellipse fill="none" stroke="#5acaf1" cx="431.301" cy="-228.511" rx="4.00001" ry="4.00001"/>
<polygon fill="#5acaf1" stroke="#5acaf1" points="477.8,-117.9 485.824,-110.425 479.738,-113.29 481.675,-108.681 481.675,-108.681 481.675,-108.681 479.738,-113.29 477.527,-106.937 477.8,-117.9 477.8,-117.9"/>
</g>
<!-- Payment&#45;&gt;Entry -->
<g id="edge11" class="edge"><title>Payment&#45;&gt;Entry</title>
<path fill="none" stroke="#8a7969" d="M625.779,-147.584C610.655,-141.146 592.847,-133.635 576.688,-127 558.258,-119.433 537.559,-111.188 520.869,-104.602"/>
<ellipse fill="none" stroke="#8a7969" cx="629.74" cy="-149.274" rx="4.00002" ry="4.00002"/>
<ellipse fill="#8a7969" stroke="#8a7969" cx="516.746" cy="-102.979" rx="4.00001" ry="4.00001"/>
</g>
<!-- Relationship -->
<g id="node13" class="node"><title>Relationship</title>
<ellipse fill="none" stroke="black" cx="986.688" cy="-250" rx="54.6248" ry="18"/>
<text text-anchor="middle" x="986.688" y="-245.8" font-family="Times,serif" font-size="14.00">Relationship</text>
</g>
<!-- Talk -->
<g id="node14" class="node"><title>Talk</title>
<ellipse fill="none" stroke="black" cx="931.688" cy="-354.5" rx="27" ry="18"/>
<text text-anchor="middle" x="931.688" y="-350.3" font-family="Times,serif" font-size="14.00">Talk</text>
</g>
<!-- Task&#45;&gt;Entry -->
<g id="edge12" class="edge"><title>Task&#45;&gt;Entry</title>
<path fill="none" stroke="#1fad07" d="M504.644,-223.852C501.176,-195.193 495.528,-148.523 491.965,-119.082"/>
<ellipse fill="none" stroke="#1fad07" cx="505.138" cy="-227.928" rx="4.00001" ry="4.00001"/>
<polygon fill="#1fad07" stroke="#1fad07" points="491.956,-119.007 495.222,-108.539 491.355,-114.043 490.755,-109.08 490.755,-109.08 490.755,-109.08 491.355,-114.043 486.287,-109.62 491.956,-119.007 491.956,-119.007"/>
</g>
<!-- User -->
<g id="node16" class="node"><title>User</title>
<ellipse fill="none" stroke="black" cx="553.688" cy="-354.5" rx="27" ry="18"/>
<text text-anchor="middle" x="553.688" y="-350.3" font-family="Times,serif" font-size="14.00">User</text>
</g>
<!-- User&#45;&gt;Account -->
<g id="edge13" class="edge"><title>User&#45;&gt;Account</title>
<path fill="none" stroke="#667e30" d="M588.453,-350.591C646.625,-344.923 759.692,-330.218 783.688,-300 793.351,-287.83 781.216,-275.953 766.134,-266.94"/>
<ellipse fill="none" stroke="#667e30" cx="584.268" cy="-350.986" rx="4" ry="4"/>
<ellipse fill="#667e30" stroke="#667e30" cx="762.561" cy="-264.954" rx="4.00002" ry="4.00002"/>
</g>
<!-- User&#45;&gt;Contract -->
<g id="edge18" class="edge"><title>User&#45;&gt;Contract</title>
<path fill="none" stroke="#04f363" d="M519.995,-347.174C478.752,-337.576 409.937,-315.204 373.688,-268 357.127,-246.435 353.43,-214.921 353.22,-192.438"/>
<ellipse fill="none" stroke="#04f363" cx="523.954" cy="-348.056" rx="4.00001" ry="4.00001"/>
<polygon fill="#04f363" stroke="#04f363" points="353.223,-192.209 357.855,-182.269 353.289,-187.209 353.356,-182.21 353.356,-182.21 353.356,-182.21 353.289,-187.209 348.856,-182.15 353.223,-192.209 353.223,-192.209"/>
</g>
<!-- User&#45;&gt;Entrust -->
<g id="edge19" class="edge"><title>User&#45;&gt;Entrust</title>
<path fill="none" stroke="#481982" d="M519.978,-347.143C485.289,-339.586 430.556,-324.775 388.688,-300 340.873,-271.706 299.523,-220.482 277.538,-189.918"/>
<ellipse fill="none" stroke="#481982" cx="524.003" cy="-347.995" rx="4.00001" ry="4.00001"/>
<polygon fill="#481982" stroke="#481982" points="277.372,-189.683 275.283,-178.918 274.489,-185.598 271.606,-181.513 271.606,-181.513 271.606,-181.513 274.489,-185.598 267.929,-184.108 277.372,-189.683 277.372,-189.683"/>
</g>
<!-- User&#45;&gt;Entry -->
<g id="edge17" class="edge"><title>User&#45;&gt;Entry</title>
<path fill="none" stroke="#939d55" d="M553.428,-328.263C552.748,-303.505 550.549,-264.801 543.688,-232 533.587,-183.712 527.525,-172.169 507.688,-127 506.254,-123.736 504.627,-120.367 502.943,-117.067"/>
<ellipse fill="none" stroke="#939d55" cx="553.52" cy="-332.407" rx="4" ry="4"/>
<polygon fill="#939d55" stroke="#939d55" points="502.865,-116.921 502.128,-105.98 500.512,-112.51 498.158,-108.098 498.158,-108.098 498.158,-108.098 500.512,-112.51 494.188,-110.217 502.865,-116.921 502.865,-116.921"/>
</g>
<!-- User&#45;&gt;Message -->
<g id="edge20" class="edge"><title>User&#45;&gt;Message</title>
<path fill="none" stroke="#d769e2" d="M555.393,-328.31C557.409,-314.649 561.732,-298.128 570.936,-286 576.664,-278.452 584.526,-272.258 592.694,-267.293"/>
<ellipse fill="none" stroke="#d769e2" cx="554.895" cy="-332.411" rx="4.00001" ry="4.00001"/>
<polygon fill="#d769e2" stroke="#d769e2" points="592.837,-267.214 603.766,-266.321 597.214,-264.797 601.591,-262.381 601.591,-262.381 601.591,-262.381 597.214,-264.797 599.416,-258.441 592.837,-267.214 592.837,-267.214"/>
<text text-anchor="middle" x="621.064" y="-288.8" font-family="Times,serif" font-size="14.00">sended_messages</text>
</g>
<!-- User&#45;&gt;Message -->
<g id="edge21" class="edge"><title>User&#45;&gt;Message</title>
<path fill="none" stroke="#ce7348" d="M587.915,-347.93C615.241,-341.486 651.811,-327.931 669.688,-300 675.854,-290.366 670.356,-280.288 661.813,-271.795"/>
<ellipse fill="none" stroke="#ce7348" cx="583.67" cy="-348.856" rx="4.00001" ry="4.00001"/>
<polygon fill="#ce7348" stroke="#ce7348" points="661.648,-271.65 657.069,-261.686 657.88,-268.364 654.111,-265.078 654.111,-265.078 654.111,-265.078 657.88,-268.364 651.154,-268.469 661.648,-271.65 661.648,-271.65"/>
<text text-anchor="middle" x="726.329" y="-288.8" font-family="Times,serif" font-size="14.00">received_messages</text>
</g>
<!-- User&#45;&gt;Notification -->
<g id="edge28" class="edge"><title>User&#45;&gt;Notification</title>
<path fill="none" stroke="#a1fec8" d="M589.182,-352.869C639.501,-350.481 732.876,-340.422 799.688,-300 809.469,-294.082 818.019,-284.988 824.745,-276.233"/>
<ellipse fill="none" stroke="#a1fec8" cx="584.892" cy="-353.046" rx="4" ry="4"/>
<polygon fill="#a1fec8" stroke="#a1fec8" points="824.782,-276.181 834.27,-270.683 827.699,-272.12 830.615,-268.059 830.615,-268.059 830.615,-268.059 827.699,-272.12 826.96,-265.434 824.782,-276.181 824.782,-276.181"/>
</g>
<!-- User&#45;&gt;Offering -->
<g id="edge15" class="edge"><title>User&#45;&gt;Offering</title>
<path fill="none" stroke="#e42473" d="M530.452,-335.319C507.935,-317.701 473.788,-290.983 449.986,-272.359"/>
<ellipse fill="none" stroke="#e42473" cx="533.68" cy="-337.845" rx="4.00002" ry="4.00002"/>
<polygon fill="#e42473" stroke="#e42473" points="449.911,-272.3 444.808,-262.594 445.973,-269.219 442.035,-266.138 442.035,-266.138 442.035,-266.138 445.973,-269.219 439.262,-269.682 449.911,-272.3 449.911,-272.3"/>
</g>
<!-- User&#45;&gt;Relationship -->
<g id="edge24" class="edge"><title>User&#45;&gt;Relationship</title>
<path fill="none" stroke="#ed7283" d="M588.459,-349.871C690.923,-339.096 984.981,-307.575 991.688,-300 997.028,-293.968 997.76,-285.738 996.553,-277.746"/>
<ellipse fill="none" stroke="#ed7283" cx="584.26" cy="-350.311" rx="4" ry="4"/>
<polygon fill="#ed7283" stroke="#ed7283" points="996.531,-277.655 998.562,-266.878 995.359,-272.794 994.187,-267.933 994.187,-267.933 994.187,-267.933 995.359,-272.794 989.812,-268.988 996.531,-277.655 996.531,-277.655"/>
</g>
<!-- User&#45;&gt;Relationship -->
<g id="edge25" class="edge"><title>User&#45;&gt;Relationship</title>
<path fill="none" stroke="#7b2604" d="M587.817,-347.728C638.957,-338.845 738.37,-320.668 821.688,-300 842.859,-294.748 847.819,-292.214 868.729,-286 891.355,-279.276 916.426,-271.836 937.615,-265.551"/>
<ellipse fill="none" stroke="#7b2604" cx="583.677" cy="-348.443" rx="4.00001" ry="4.00001"/>
<polygon fill="#7b2604" stroke="#7b2604" points="937.779,-265.502 948.645,-266.973 942.572,-264.08 947.366,-262.659 947.366,-262.659 947.366,-262.659 942.572,-264.08 946.086,-258.344 937.779,-265.502 937.779,-265.502"/>
<text text-anchor="middle" x="928.167" y="-288.8" font-family="Times,serif" font-size="14.00">reverse_relationships</text>
</g>
<!-- User&#45;&gt;Task -->
<g id="edge14" class="edge"><title>User&#45;&gt;Task</title>
<path fill="none" stroke="#0424aa" d="M538.873,-330.595C533.301,-321.341 527.224,-310.405 522.688,-300 519.643,-293.016 516.957,-285.221 514.73,-277.939"/>
<ellipse fill="none" stroke="#0424aa" cx="541.096" cy="-334.207" rx="4.00002" ry="4.00002"/>
<polygon fill="#0424aa" stroke="#0424aa" points="514.67,-277.733 516.222,-266.877 513.284,-272.929 511.898,-268.125 511.898,-268.125 511.898,-268.125 513.284,-272.929 507.574,-269.372 514.67,-277.733 514.67,-277.733"/>
</g>
<!-- User&#45;&gt;User -->
<g id="edge22" class="edge"><title>User&#45;&gt;User</title>
<path fill="none" stroke="#52424e" d="M590.631,-356.976C595.477,-356.552 598.688,-355.727 598.688,-354.5 598.688,-353.273 595.477,-352.448 590.631,-352.024"/>
<polygon fill="#52424e" stroke="#52424e" points="590.477,-356.981 580.336,-352.809 585.48,-357.144 580.483,-357.306 580.483,-357.306 580.483,-357.306 585.48,-357.144 580.629,-361.804 590.477,-356.981 590.477,-356.981"/>
<polygon fill="#52424e" stroke="#52424e" points="590.477,-352.019 580.629,-347.196 585.48,-351.856 580.483,-351.694 580.483,-351.694 580.483,-351.694 585.48,-351.856 580.336,-356.191 590.477,-352.019 590.477,-352.019"/>
<text text-anchor="middle" x="619.681" y="-350.3" font-family="Times,serif" font-size="14.00">senders</text>
</g>
<!-- User&#45;&gt;User -->
<g id="edge23" class="edge"><title>User&#45;&gt;User</title>
<path fill="none" stroke="#c58b6a" d="M590.054,-359.755C614.627,-360.964 640.674,-359.212 640.674,-354.5 640.674,-349.788 614.627,-348.036 590.054,-349.245"/>
<polygon fill="#c58b6a" stroke="#c58b6a" points="590.031,-359.753 580.354,-354.596 585.042,-359.42 580.054,-359.086 580.054,-359.086 580.054,-359.086 585.042,-359.42 579.753,-363.576 590.031,-359.753 590.031,-359.753"/>
<polygon fill="#c58b6a" stroke="#c58b6a" points="590.031,-349.247 579.753,-345.424 585.042,-349.58 580.054,-349.914 580.054,-349.914 580.054,-349.914 585.042,-349.58 580.354,-354.404 590.031,-349.247 590.031,-349.247"/>
<text text-anchor="middle" x="669.047" y="-350.3" font-family="Times,serif" font-size="14.00">recepients</text>
</g>
<!-- User&#45;&gt;User -->
<g id="edge26" class="edge"><title>User&#45;&gt;User</title>
<path fill="none" stroke="#7e555a" d="M589.723,-361.03C633.888,-364.976 697.419,-362.799 697.419,-354.5 697.419,-346.201 633.888,-344.024 589.723,-347.97"/>
<polygon fill="#7e555a" stroke="#7e555a" points="589.463,-361.003 579.985,-355.487 584.49,-360.483 579.517,-359.963 579.517,-359.963 579.517,-359.963 584.49,-360.483 579.049,-364.439 589.463,-361.003 589.463,-361.003"/>
<polygon fill="#7e555a" stroke="#7e555a" points="589.463,-347.997 579.049,-344.561 584.49,-348.517 579.517,-349.037 579.517,-349.037 579.517,-349.037 584.49,-348.517 579.985,-353.513 589.463,-347.997 589.463,-347.997"/>
<text text-anchor="middle" x="740.188" y="-350.3" font-family="Times,serif" font-size="14.00">followed_users</text>
</g>
<!-- User&#45;&gt;User -->
<g id="edge27" class="edge"><title>User&#45;&gt;User</title>
<path fill="none" stroke="#75374f" d="M589.512,-361.625C656.477,-368.916 782.957,-366.541 782.957,-354.5 782.957,-342.459 656.477,-340.084 589.512,-347.375"/>
<polygon fill="#75374f" stroke="#75374f" points="589.229,-361.591 579.852,-355.906 584.266,-360.981 579.304,-360.372 579.304,-360.372 579.304,-360.372 584.266,-360.981 578.755,-364.838 589.229,-361.591 589.229,-361.591"/>
<polygon fill="#75374f" stroke="#75374f" points="589.229,-347.409 578.755,-344.162 584.266,-348.019 579.304,-348.628 579.304,-348.628 579.304,-348.628 584.266,-348.019 579.852,-353.094 589.229,-347.409 589.229,-347.409"/>
<text text-anchor="middle" x="809.395" y="-350.3" font-family="Times,serif" font-size="14.00">followers</text>
</g>
<!-- User&#45;&gt;Want -->
<g id="edge16" class="edge"><title>User&#45;&gt;Want</title>
<path fill="none" stroke="#3edae9" d="M520.699,-345.969C488.379,-338.641 437.704,-327.284 393.688,-318 353.774,-309.582 339.123,-320.207 303.688,-300 293.042,-293.929 283.597,-284.352 276.214,-275.269"/>
<ellipse fill="none" stroke="#3edae9" cx="524.605" cy="-346.856" rx="4.00001" ry="4.00001"/>
<polygon fill="#3edae9" stroke="#3edae9" points="276.107,-275.129 273.615,-264.45 273.073,-271.155 270.038,-267.181 270.038,-267.181 270.038,-267.181 273.073,-271.155 266.462,-269.912 276.107,-275.129 276.107,-275.129"/>
</g>
<!-- Want&#45;&gt;Entrust -->
<g id="edge30" class="edge"><title>Want&#45;&gt;Entrust</title>
<path fill="none" stroke="#0c3a6a" d="M259.994,-223.257C260.111,-213.441 260.245,-202.226 260.363,-192.273"/>
<ellipse fill="none" stroke="#0c3a6a" cx="259.943" cy="-227.595" rx="4" ry="4"/>
<polygon fill="#0c3a6a" stroke="#0c3a6a" points="260.365,-192.094 264.984,-182.149 260.425,-187.095 260.484,-182.095 260.484,-182.095 260.484,-182.095 260.425,-187.095 255.985,-182.042 260.365,-192.094 260.365,-192.094"/>
</g>
<!-- Want&#45;&gt;Entry -->
<g id="edge29" class="edge"><title>Want&#45;&gt;Entry</title>
<path fill="none" stroke="#9f4641" d="M292.431,-238.036C323.158,-226.819 369.524,-207.443 404.688,-182 430.748,-163.144 455.199,-135.353 470.926,-115.65"/>
<ellipse fill="none" stroke="#9f4641" cx="288.353" cy="-239.497" rx="4.00001" ry="4.00001"/>
<polygon fill="#9f4641" stroke="#9f4641" points="470.946,-115.624 480.654,-110.525 474.028,-111.687 477.111,-107.75 477.111,-107.75 477.111,-107.75 474.028,-111.687 473.568,-104.976 470.946,-115.624 470.946,-115.624"/>
</g>
</g>
</svg>
