<?xml version="1.0" encoding="UTF-8" standalone="no"?>
<!DOCTYPE svg PUBLIC "-//W3C//DTD SVG 1.1//EN"
 "http://www.w3.org/Graphics/SVG/1.1/DTD/svg11.dtd">
<!-- Generated by graphviz version 2.38.0 (20140413.2041)
 -->
<!-- Title: models_diagram Pages: 1 -->
<svg width="1348pt" height="1373pt"
 viewBox="0.00 0.00 1348.19 1373.00" xmlns="http://www.w3.org/2000/svg" xmlns:xlink="http://www.w3.org/1999/xlink">
<g id="graph0" class="graph" transform="scale(1 1) rotate(0) translate(4 1369)">
<title>models_diagram</title>
<polygon fill="none" stroke="none" points="-4,4 -4,-1369 1344.19,-1369 1344.19,4 -4,4"/>
<!-- _diagram_info -->
<g id="node1" class="node"><title>_diagram_info</title>
<text text-anchor="start" x="8" y="-1210.6" font-family="Times,serif" font-size="13.00">Models diagram</text>
<text text-anchor="start" x="8" y="-1197.6" font-family="Times,serif" font-size="13.00">Date: Aug 30 2015 &#45; 12:02</text>
<text text-anchor="start" x="8" y="-1184.6" font-family="Times,serif" font-size="13.00">Migration version: 20150813065851</text>
<text text-anchor="start" x="8" y="-1171.6" font-family="Times,serif" font-size="13.00">Generated by RailRoady 1.3.1</text>
<text text-anchor="start" x="8" y="-1158.6" font-family="Times,serif" font-size="13.00">http://railroady.prestonlee.com</text>
</g>
<!-- Ability -->
<g id="node2" class="node"><title>Ability</title>
<polygon fill="none" stroke="black" points="225.853,-1166.5 225.853,-1210.5 281.522,-1210.5 281.522,-1166.5 225.853,-1166.5"/>
<text text-anchor="middle" x="253.688" y="-1195.3" font-family="Times,serif" font-size="14.00">Ability</text>
<polyline fill="none" stroke="black" points="225.853,-1188.5 281.522,-1188.5 "/>
<text text-anchor="middle" x="253.688" y="-1173.3" font-family="Times,serif" font-size="14.00"> </text>
</g>
<!-- Account -->
<g id="node3" class="node"><title>Account</title>
<path fill="none" stroke="black" d="M917.182,-819.5C917.182,-819.5 1026.19,-819.5 1026.19,-819.5 1032.19,-819.5 1038.19,-825.5 1038.19,-831.5 1038.19,-831.5 1038.19,-907.5 1038.19,-907.5 1038.19,-913.5 1032.19,-919.5 1026.19,-919.5 1026.19,-919.5 917.182,-919.5 917.182,-919.5 911.182,-919.5 905.182,-913.5 905.182,-907.5 905.182,-907.5 905.182,-831.5 905.182,-831.5 905.182,-825.5 911.182,-819.5 917.182,-819.5"/>
<text text-anchor="middle" x="971.688" y="-904.3" font-family="Times,serif" font-size="14.00">Account</text>
<polyline fill="none" stroke="black" points="905.182,-897.5 1038.19,-897.5 "/>
<text text-anchor="start" x="913.182" y="-882.3" font-family="Times,serif" font-size="14.00">id :integer</text>
<text text-anchor="start" x="913.182" y="-868.3" font-family="Times,serif" font-size="14.00">user_id :integer</text>
<text text-anchor="start" x="913.182" y="-854.3" font-family="Times,serif" font-size="14.00">balance :integer</text>
<text text-anchor="start" x="913.182" y="-840.3" font-family="Times,serif" font-size="14.00">created_at :datetime</text>
<text text-anchor="start" x="913.182" y="-826.3" font-family="Times,serif" font-size="14.00">updated_at :datetime</text>
</g>
<!-- Payment -->
<g id="node12" class="node"><title>Payment</title>
<path fill="none" stroke="black" d="M811.661,-500.5C811.661,-500.5 993.714,-500.5 993.714,-500.5 999.714,-500.5 1005.71,-506.5 1005.71,-512.5 1005.71,-512.5 1005.71,-686.5 1005.71,-686.5 1005.71,-692.5 999.714,-698.5 993.714,-698.5 993.714,-698.5 811.661,-698.5 811.661,-698.5 805.661,-698.5 799.661,-692.5 799.661,-686.5 799.661,-686.5 799.661,-512.5 799.661,-512.5 799.661,-506.5 805.661,-500.5 811.661,-500.5"/>
<text text-anchor="middle" x="902.688" y="-683.3" font-family="Times,serif" font-size="14.00">Payment</text>
<polyline fill="none" stroke="black" points="799.661,-676.5 1005.71,-676.5 "/>
<text text-anchor="start" x="807.661" y="-661.3" font-family="Times,serif" font-size="14.00">id :integer</text>
<text text-anchor="start" x="807.661" y="-647.3" font-family="Times,serif" font-size="14.00">sender_id :integer</text>
<text text-anchor="start" x="807.661" y="-633.3" font-family="Times,serif" font-size="14.00">recepient_id :integer</text>
<text text-anchor="start" x="807.661" y="-619.3" font-family="Times,serif" font-size="14.00">subject :string</text>
<text text-anchor="start" x="807.661" y="-605.3" font-family="Times,serif" font-size="14.00">amount :integer</text>
<text text-anchor="start" x="807.661" y="-591.3" font-family="Times,serif" font-size="14.00">sender_balance_after :integer</text>
<text text-anchor="start" x="807.661" y="-577.3" font-family="Times,serif" font-size="14.00">comment :text</text>
<text text-anchor="start" x="807.661" y="-563.3" font-family="Times,serif" font-size="14.00">created_at :datetime</text>
<text text-anchor="start" x="807.661" y="-549.3" font-family="Times,serif" font-size="14.00">updated_at :datetime</text>
<text text-anchor="start" x="807.661" y="-535.3" font-family="Times,serif" font-size="14.00">sender_balance_before :integer</text>
<text text-anchor="start" x="807.661" y="-521.3" font-family="Times,serif" font-size="14.00">recepient_balance_before :integer</text>
<text text-anchor="start" x="807.661" y="-507.3" font-family="Times,serif" font-size="14.00">recepient_balance_after :integer</text>
</g>
<!-- Account&#45;&gt;Payment -->
<g id="edge1" class="edge"><title>Account&#45;&gt;Payment</title>
<path fill="none" stroke="#fa9e6a" d="M963.238,-811.571C959.67,-790.519 955.083,-766.543 949.688,-745 946.704,-733.087 943.252,-720.727 939.599,-708.479"/>
<ellipse fill="none" stroke="#fa9e6a" cx="963.898" cy="-815.54" rx="4.00001" ry="4.00001"/>
<polygon fill="#fa9e6a" stroke="#fa9e6a" points="939.533,-708.26 940.939,-697.384 938.082,-703.475 936.632,-698.69 936.632,-698.69 936.632,-698.69 938.082,-703.475 932.326,-699.995 939.533,-708.26 939.533,-708.26"/>
<text text-anchor="middle" x="981.85" y="-747.8" font-family="Times,serif" font-size="14.00">withdraws</text>
</g>
<!-- Account&#45;&gt;Payment -->
<g id="edge2" class="edge"><title>Account&#45;&gt;Payment</title>
<path fill="none" stroke="#86022f" d="M926.003,-812.417C915.293,-796.137 905.383,-777.684 899.798,-759 895.021,-743.019 892.668,-725.721 891.858,-708.626"/>
<ellipse fill="none" stroke="#86022f" cx="928.39" cy="-815.943" rx="4.00002" ry="4.00002"/>
<polygon fill="#86022f" stroke="#86022f" points="891.857,-708.591 896.051,-698.459 891.705,-703.593 891.553,-698.596 891.553,-698.596 891.553,-698.596 891.705,-703.593 887.055,-698.732 891.857,-708.591 891.857,-708.591"/>
<text text-anchor="middle" x="923.633" y="-747.8" font-family="Times,serif" font-size="14.00">deposits</text>
</g>
<!-- Category -->
<g id="node4" class="node"><title>Category</title>
<path fill="none" stroke="black" d="M311.182,-1145.5C311.182,-1145.5 420.193,-1145.5 420.193,-1145.5 426.193,-1145.5 432.193,-1151.5 432.193,-1157.5 432.193,-1157.5 432.193,-1219.5 432.193,-1219.5 432.193,-1225.5 426.193,-1231.5 420.193,-1231.5 420.193,-1231.5 311.182,-1231.5 311.182,-1231.5 305.182,-1231.5 299.182,-1225.5 299.182,-1219.5 299.182,-1219.5 299.182,-1157.5 299.182,-1157.5 299.182,-1151.5 305.182,-1145.5 311.182,-1145.5"/>
<text text-anchor="middle" x="365.688" y="-1216.3" font-family="Times,serif" font-size="14.00">Category</text>
<polyline fill="none" stroke="black" points="299.182,-1209.5 432.193,-1209.5 "/>
<text text-anchor="start" x="307.182" y="-1194.3" font-family="Times,serif" font-size="14.00">id :integer</text>
<text text-anchor="start" x="307.182" y="-1180.3" font-family="Times,serif" font-size="14.00">name :string</text>
<text text-anchor="start" x="307.182" y="-1166.3" font-family="Times,serif" font-size="14.00">created_at :datetime</text>
<text text-anchor="start" x="307.182" y="-1152.3" font-family="Times,serif" font-size="14.00">updated_at :datetime</text>
</g>
<!-- Offering -->
<g id="node11" class="node"><title>Offering</title>
<path fill="none" stroke="black" d="M425.182,-777.5C425.182,-777.5 534.193,-777.5 534.193,-777.5 540.193,-777.5 546.193,-783.5 546.193,-789.5 546.193,-789.5 546.193,-949.5 546.193,-949.5 546.193,-955.5 540.193,-961.5 534.193,-961.5 534.193,-961.5 425.182,-961.5 425.182,-961.5 419.182,-961.5 413.182,-955.5 413.182,-949.5 413.182,-949.5 413.182,-789.5 413.182,-789.5 413.182,-783.5 419.182,-777.5 425.182,-777.5"/>
<text text-anchor="middle" x="479.688" y="-946.3" font-family="Times,serif" font-size="14.00">Offering</text>
<polyline fill="none" stroke="black" points="413.182,-939.5 546.193,-939.5 "/>
<text text-anchor="start" x="421.182" y="-924.3" font-family="Times,serif" font-size="14.00">id :integer</text>
<text text-anchor="start" x="421.182" y="-910.3" font-family="Times,serif" font-size="14.00">type :string</text>
<text text-anchor="start" x="421.182" y="-896.3" font-family="Times,serif" font-size="14.00">user_id :integer</text>
<text text-anchor="start" x="421.182" y="-882.3" font-family="Times,serif" font-size="14.00">title :string</text>
<text text-anchor="start" x="421.182" y="-868.3" font-family="Times,serif" font-size="14.00">category_id :integer</text>
<text text-anchor="start" x="421.182" y="-854.3" font-family="Times,serif" font-size="14.00">description :text</text>
<text text-anchor="start" x="421.182" y="-840.3" font-family="Times,serif" font-size="14.00">price :string</text>
<text text-anchor="start" x="421.182" y="-826.3" font-family="Times,serif" font-size="14.00">expired_at :datetime</text>
<text text-anchor="start" x="421.182" y="-812.3" font-family="Times,serif" font-size="14.00">created_at :datetime</text>
<text text-anchor="start" x="421.182" y="-798.3" font-family="Times,serif" font-size="14.00">updated_at :datetime</text>
<text text-anchor="start" x="421.182" y="-784.3" font-family="Times,serif" font-size="14.00">closed_at :datetime</text>
</g>
<!-- Category&#45;&gt;Offering -->
<g id="edge4" class="edge"><title>Category&#45;&gt;Offering</title>
<path fill="none" stroke="#faf036" d="M383.568,-1137.78C399.568,-1093.29 423.514,-1026.7 443.502,-971.122"/>
<ellipse fill="none" stroke="#faf036" cx="382.18" cy="-1141.64" rx="4.00001" ry="4.00001"/>
<polygon fill="#faf036" stroke="#faf036" points="443.545,-971.003 451.163,-963.116 445.237,-966.298 446.929,-961.593 446.929,-961.593 446.929,-961.593 445.237,-966.298 442.694,-960.07 443.545,-971.003 443.545,-971.003"/>
</g>
<!-- Task -->
<g id="node15" class="node"><title>Task</title>
<path fill="none" stroke="black" d="M576.182,-777.5C576.182,-777.5 685.193,-777.5 685.193,-777.5 691.193,-777.5 697.193,-783.5 697.193,-789.5 697.193,-789.5 697.193,-949.5 697.193,-949.5 697.193,-955.5 691.193,-961.5 685.193,-961.5 685.193,-961.5 576.182,-961.5 576.182,-961.5 570.182,-961.5 564.182,-955.5 564.182,-949.5 564.182,-949.5 564.182,-789.5 564.182,-789.5 564.182,-783.5 570.182,-777.5 576.182,-777.5"/>
<text text-anchor="middle" x="630.688" y="-946.3" font-family="Times,serif" font-size="14.00">Task</text>
<polyline fill="none" stroke="black" points="564.182,-939.5 697.193,-939.5 "/>
<text text-anchor="start" x="572.182" y="-924.3" font-family="Times,serif" font-size="14.00">id :integer</text>
<text text-anchor="start" x="572.182" y="-910.3" font-family="Times,serif" font-size="14.00">type :string</text>
<text text-anchor="start" x="572.182" y="-896.3" font-family="Times,serif" font-size="14.00">user_id :integer</text>
<text text-anchor="start" x="572.182" y="-882.3" font-family="Times,serif" font-size="14.00">title :string</text>
<text text-anchor="start" x="572.182" y="-868.3" font-family="Times,serif" font-size="14.00">category_id :integer</text>
<text text-anchor="start" x="572.182" y="-854.3" font-family="Times,serif" font-size="14.00">description :text</text>
<text text-anchor="start" x="572.182" y="-840.3" font-family="Times,serif" font-size="14.00">price :string</text>
<text text-anchor="start" x="572.182" y="-826.3" font-family="Times,serif" font-size="14.00">expired_at :datetime</text>
<text text-anchor="start" x="572.182" y="-812.3" font-family="Times,serif" font-size="14.00">created_at :datetime</text>
<text text-anchor="start" x="572.182" y="-798.3" font-family="Times,serif" font-size="14.00">updated_at :datetime</text>
<text text-anchor="start" x="572.182" y="-784.3" font-family="Times,serif" font-size="14.00">closed_at :datetime</text>
</g>
<!-- Category&#45;&gt;Task -->
<g id="edge3" class="edge"><title>Category&#45;&gt;Task</title>
<path fill="none" stroke="#3ec972" d="M406.887,-1138.99C445.501,-1093.43 504.75,-1023.29 555.688,-962 556.291,-961.274 556.896,-960.545 557.504,-959.813"/>
<ellipse fill="none" stroke="#3ec972" cx="404.165" cy="-1142.2" rx="4.00002" ry="4.00002"/>
<polygon fill="#3ec972" stroke="#3ec972" points="557.708,-959.567 567.553,-954.739 560.898,-955.718 564.088,-951.868 564.088,-951.868 564.088,-951.868 560.898,-955.718 560.624,-948.996 557.708,-959.567 557.708,-959.567"/>
</g>
<!-- Want -->
<g id="node17" class="node"><title>Want</title>
<path fill="none" stroke="black" d="M191.182,-777.5C191.182,-777.5 300.193,-777.5 300.193,-777.5 306.193,-777.5 312.193,-783.5 312.193,-789.5 312.193,-789.5 312.193,-949.5 312.193,-949.5 312.193,-955.5 306.193,-961.5 300.193,-961.5 300.193,-961.5 191.182,-961.5 191.182,-961.5 185.182,-961.5 179.182,-955.5 179.182,-949.5 179.182,-949.5 179.182,-789.5 179.182,-789.5 179.182,-783.5 185.182,-777.5 191.182,-777.5"/>
<text text-anchor="middle" x="245.688" y="-946.3" font-family="Times,serif" font-size="14.00">Want</text>
<polyline fill="none" stroke="black" points="179.182,-939.5 312.193,-939.5 "/>
<text text-anchor="start" x="187.182" y="-924.3" font-family="Times,serif" font-size="14.00">id :integer</text>
<text text-anchor="start" x="187.182" y="-910.3" font-family="Times,serif" font-size="14.00">type :string</text>
<text text-anchor="start" x="187.182" y="-896.3" font-family="Times,serif" font-size="14.00">user_id :integer</text>
<text text-anchor="start" x="187.182" y="-882.3" font-family="Times,serif" font-size="14.00">title :string</text>
<text text-anchor="start" x="187.182" y="-868.3" font-family="Times,serif" font-size="14.00">category_id :integer</text>
<text text-anchor="start" x="187.182" y="-854.3" font-family="Times,serif" font-size="14.00">description :text</text>
<text text-anchor="start" x="187.182" y="-840.3" font-family="Times,serif" font-size="14.00">price :string</text>
<text text-anchor="start" x="187.182" y="-826.3" font-family="Times,serif" font-size="14.00">expired_at :datetime</text>
<text text-anchor="start" x="187.182" y="-812.3" font-family="Times,serif" font-size="14.00">created_at :datetime</text>
<text text-anchor="start" x="187.182" y="-798.3" font-family="Times,serif" font-size="14.00">updated_at :datetime</text>
<text text-anchor="start" x="187.182" y="-784.3" font-family="Times,serif" font-size="14.00">closed_at :datetime</text>
</g>
<!-- Category&#45;&gt;Want -->
<g id="edge5" class="edge"><title>Category&#45;&gt;Want</title>
<path fill="none" stroke="#f99f59" d="M346.082,-1137.74C330.784,-1098.72 309.111,-1043.01 290.688,-994 287.89,-986.559 285.021,-978.856 282.151,-971.101"/>
<ellipse fill="none" stroke="#f99f59" cx="347.593" cy="-1141.59" rx="4.00001" ry="4.00001"/>
<polygon fill="#f99f59" stroke="#f99f59" points="282.118,-971.01 282.877,-960.07 280.386,-966.319 278.655,-961.628 278.655,-961.628 278.655,-961.628 280.386,-966.319 274.433,-963.187 282.118,-971.01 282.118,-971.01"/>
</g>
<!-- Contract -->
<g id="node5" class="node"><title>Contract</title>
<path fill="none" stroke="black" d="M342.41,-472.5C342.41,-472.5 508.966,-472.5 508.966,-472.5 514.966,-472.5 520.966,-478.5 520.966,-484.5 520.966,-484.5 520.966,-714.5 520.966,-714.5 520.966,-720.5 514.966,-726.5 508.966,-726.5 508.966,-726.5 342.41,-726.5 342.41,-726.5 336.41,-726.5 330.41,-720.5 330.41,-714.5 330.41,-714.5 330.41,-484.5 330.41,-484.5 330.41,-478.5 336.41,-472.5 342.41,-472.5"/>
<text text-anchor="middle" x="425.688" y="-711.3" font-family="Times,serif" font-size="14.00">Contract</text>
<polyline fill="none" stroke="black" points="330.41,-704.5 520.966,-704.5 "/>
<text text-anchor="start" x="338.41" y="-689.3" font-family="Times,serif" font-size="14.00">id :integer</text>
<text text-anchor="start" x="338.41" y="-675.3" font-family="Times,serif" font-size="14.00">task_id :integer</text>
<text text-anchor="start" x="338.41" y="-661.3" font-family="Times,serif" font-size="14.00">user_id :integer</text>
<text text-anchor="start" x="338.41" y="-647.3" font-family="Times,serif" font-size="14.00">owner_committed_at :datetime</text>
<text text-anchor="start" x="338.41" y="-633.3" font-family="Times,serif" font-size="14.00">paid_at :datetime</text>
<text text-anchor="start" x="338.41" y="-619.3" font-family="Times,serif" font-size="14.00">created_at :datetime</text>
<text text-anchor="start" x="338.41" y="-605.3" font-family="Times,serif" font-size="14.00">updated_at :datetime</text>
<text text-anchor="start" x="338.41" y="-591.3" font-family="Times,serif" font-size="14.00">type :string</text>
<text text-anchor="start" x="338.41" y="-577.3" font-family="Times,serif" font-size="14.00">expected_at :datetime</text>
<text text-anchor="start" x="338.41" y="-563.3" font-family="Times,serif" font-size="14.00">performed_at :datetime</text>
<text text-anchor="start" x="338.41" y="-549.3" font-family="Times,serif" font-size="14.00">owner_canceled_at :datetime</text>
<text text-anchor="start" x="338.41" y="-535.3" font-family="Times,serif" font-size="14.00">user_canceled_at :datetime</text>
<text text-anchor="start" x="338.41" y="-521.3" font-family="Times,serif" font-size="14.00">note :text</text>
<text text-anchor="start" x="338.41" y="-507.3" font-family="Times,serif" font-size="14.00">user_committed_at :datetime</text>
<text text-anchor="start" x="338.41" y="-493.3" font-family="Times,serif" font-size="14.00">price :integer</text>
<text text-anchor="start" x="338.41" y="-479.3" font-family="Times,serif" font-size="14.00">payment_id :integer</text>
</g>
<!-- Negotiation -->
<g id="node9" class="node"><title>Negotiation</title>
<path fill="none" stroke="black" d="M371.182,-0.5C371.182,-0.5 480.193,-0.5 480.193,-0.5 486.193,-0.5 492.193,-6.5 492.193,-12.5 492.193,-12.5 492.193,-130.5 492.193,-130.5 492.193,-136.5 486.193,-142.5 480.193,-142.5 480.193,-142.5 371.182,-142.5 371.182,-142.5 365.182,-142.5 359.182,-136.5 359.182,-130.5 359.182,-130.5 359.182,-12.5 359.182,-12.5 359.182,-6.5 365.182,-0.5 371.182,-0.5"/>
<text text-anchor="middle" x="425.688" y="-127.3" font-family="Times,serif" font-size="14.00">Negotiation</text>
<polyline fill="none" stroke="black" points="359.182,-120.5 492.193,-120.5 "/>
<text text-anchor="start" x="367.182" y="-105.3" font-family="Times,serif" font-size="14.00">id :integer</text>
<text text-anchor="start" x="367.182" y="-91.3" font-family="Times,serif" font-size="14.00">body :text</text>
<text text-anchor="start" x="367.182" y="-77.3" font-family="Times,serif" font-size="14.00">created_at :datetime</text>
<text text-anchor="start" x="367.182" y="-63.3" font-family="Times,serif" font-size="14.00">updated_at :datetime</text>
<text text-anchor="start" x="367.182" y="-49.3" font-family="Times,serif" font-size="14.00">sender_id :integer</text>
<text text-anchor="start" x="367.182" y="-35.3" font-family="Times,serif" font-size="14.00">recepient_id :integer</text>
<text text-anchor="start" x="367.182" y="-21.3" font-family="Times,serif" font-size="14.00">entry_id :integer</text>
<text text-anchor="start" x="367.182" y="-7.3" font-family="Times,serif" font-size="14.00">type :string</text>
</g>
<!-- Contract&#45;&gt;Negotiation -->
<g id="edge6" class="edge"><title>Contract&#45;&gt;Negotiation</title>
<path fill="none" stroke="#0dd80a" d="M425.688,-463.921C425.688,-365.469 425.688,-235.199 425.688,-152.601"/>
<ellipse fill="none" stroke="#0dd80a" cx="425.688" cy="-468.175" rx="4" ry="4"/>
<polygon fill="#0dd80a" stroke="#0dd80a" points="425.688,-152.521 430.188,-142.521 425.688,-147.521 425.688,-142.521 425.688,-142.521 425.688,-142.521 425.688,-147.521 421.188,-142.521 425.688,-152.521 425.688,-152.521"/>
</g>
<!-- Entrust -->
<g id="node6" class="node"><title>Entrust</title>
<path fill="none" stroke="black" d="M133.41,-472.5C133.41,-472.5 299.966,-472.5 299.966,-472.5 305.966,-472.5 311.966,-478.5 311.966,-484.5 311.966,-484.5 311.966,-714.5 311.966,-714.5 311.966,-720.5 305.966,-726.5 299.966,-726.5 299.966,-726.5 133.41,-726.5 133.41,-726.5 127.41,-726.5 121.41,-720.5 121.41,-714.5 121.41,-714.5 121.41,-484.5 121.41,-484.5 121.41,-478.5 127.41,-472.5 133.41,-472.5"/>
<text text-anchor="middle" x="216.688" y="-711.3" font-family="Times,serif" font-size="14.00">Entrust</text>
<polyline fill="none" stroke="black" points="121.41,-704.5 311.966,-704.5 "/>
<text text-anchor="start" x="129.41" y="-689.3" font-family="Times,serif" font-size="14.00">id :integer</text>
<text text-anchor="start" x="129.41" y="-675.3" font-family="Times,serif" font-size="14.00">task_id :integer</text>
<text text-anchor="start" x="129.41" y="-661.3" font-family="Times,serif" font-size="14.00">user_id :integer</text>
<text text-anchor="start" x="129.41" y="-647.3" font-family="Times,serif" font-size="14.00">owner_committed_at :datetime</text>
<text text-anchor="start" x="129.41" y="-633.3" font-family="Times,serif" font-size="14.00">paid_at :datetime</text>
<text text-anchor="start" x="129.41" y="-619.3" font-family="Times,serif" font-size="14.00">created_at :datetime</text>
<text text-anchor="start" x="129.41" y="-605.3" font-family="Times,serif" font-size="14.00">updated_at :datetime</text>
<text text-anchor="start" x="129.41" y="-591.3" font-family="Times,serif" font-size="14.00">type :string</text>
<text text-anchor="start" x="129.41" y="-577.3" font-family="Times,serif" font-size="14.00">expected_at :datetime</text>
<text text-anchor="start" x="129.41" y="-563.3" font-family="Times,serif" font-size="14.00">performed_at :datetime</text>
<text text-anchor="start" x="129.41" y="-549.3" font-family="Times,serif" font-size="14.00">owner_canceled_at :datetime</text>
<text text-anchor="start" x="129.41" y="-535.3" font-family="Times,serif" font-size="14.00">user_canceled_at :datetime</text>
<text text-anchor="start" x="129.41" y="-521.3" font-family="Times,serif" font-size="14.00">note :text</text>
<text text-anchor="start" x="129.41" y="-507.3" font-family="Times,serif" font-size="14.00">user_committed_at :datetime</text>
<text text-anchor="start" x="129.41" y="-493.3" font-family="Times,serif" font-size="14.00">price :integer</text>
<text text-anchor="start" x="129.41" y="-479.3" font-family="Times,serif" font-size="14.00">payment_id :integer</text>
</g>
<!-- Entrust&#45;&gt;Negotiation -->
<g id="edge7" class="edge"><title>Entrust&#45;&gt;Negotiation</title>
<path fill="none" stroke="#b5df81" d="M269.916,-464.538C309.179,-365.722 361.281,-234.596 394.153,-151.866"/>
<ellipse fill="none" stroke="#b5df81" cx="268.358" cy="-468.458" rx="4.00001" ry="4.00001"/>
<polygon fill="#b5df81" stroke="#b5df81" points="394.173,-151.814 402.048,-144.182 396.019,-147.167 397.866,-142.521 397.866,-142.521 397.866,-142.521 396.019,-147.167 393.684,-140.859 394.173,-151.814 394.173,-151.814"/>
</g>
<!-- Entry -->
<g id="node7" class="node"><title>Entry</title>
<path fill="none" stroke="black" d="M528.41,-180.5C528.41,-180.5 694.966,-180.5 694.966,-180.5 700.966,-180.5 706.966,-186.5 706.966,-192.5 706.966,-192.5 706.966,-422.5 706.966,-422.5 706.966,-428.5 700.966,-434.5 694.966,-434.5 694.966,-434.5 528.41,-434.5 528.41,-434.5 522.41,-434.5 516.41,-428.5 516.41,-422.5 516.41,-422.5 516.41,-192.5 516.41,-192.5 516.41,-186.5 522.41,-180.5 528.41,-180.5"/>
<text text-anchor="middle" x="611.688" y="-419.3" font-family="Times,serif" font-size="14.00">Entry</text>
<polyline fill="none" stroke="black" points="516.41,-412.5 706.966,-412.5 "/>
<text text-anchor="start" x="524.41" y="-397.3" font-family="Times,serif" font-size="14.00">id :integer</text>
<text text-anchor="start" x="524.41" y="-383.3" font-family="Times,serif" font-size="14.00">task_id :integer</text>
<text text-anchor="start" x="524.41" y="-369.3" font-family="Times,serif" font-size="14.00">user_id :integer</text>
<text text-anchor="start" x="524.41" y="-355.3" font-family="Times,serif" font-size="14.00">owner_committed_at :datetime</text>
<text text-anchor="start" x="524.41" y="-341.3" font-family="Times,serif" font-size="14.00">paid_at :datetime</text>
<text text-anchor="start" x="524.41" y="-327.3" font-family="Times,serif" font-size="14.00">created_at :datetime</text>
<text text-anchor="start" x="524.41" y="-313.3" font-family="Times,serif" font-size="14.00">updated_at :datetime</text>
<text text-anchor="start" x="524.41" y="-299.3" font-family="Times,serif" font-size="14.00">type :string</text>
<text text-anchor="start" x="524.41" y="-285.3" font-family="Times,serif" font-size="14.00">expected_at :datetime</text>
<text text-anchor="start" x="524.41" y="-271.3" font-family="Times,serif" font-size="14.00">performed_at :datetime</text>
<text text-anchor="start" x="524.41" y="-257.3" font-family="Times,serif" font-size="14.00">owner_canceled_at :datetime</text>
<text text-anchor="start" x="524.41" y="-243.3" font-family="Times,serif" font-size="14.00">user_canceled_at :datetime</text>
<text text-anchor="start" x="524.41" y="-229.3" font-family="Times,serif" font-size="14.00">note :text</text>
<text text-anchor="start" x="524.41" y="-215.3" font-family="Times,serif" font-size="14.00">user_committed_at :datetime</text>
<text text-anchor="start" x="524.41" y="-201.3" font-family="Times,serif" font-size="14.00">price :integer</text>
<text text-anchor="start" x="524.41" y="-187.3" font-family="Times,serif" font-size="14.00">payment_id :integer</text>
</g>
<!-- Entry&#45;&gt;Negotiation -->
<g id="edge8" class="edge"><title>Entry&#45;&gt;Negotiation</title>
<path fill="none" stroke="#b1848a" d="M511.199,-180.079C503.195,-170.009 495.265,-160.033 487.65,-150.452"/>
<ellipse fill="none" stroke="#b1848a" cx="513.747" cy="-183.284" rx="4.00002" ry="4.00002"/>
<polygon fill="#b1848a" stroke="#b1848a" points="487.554,-150.332 484.854,-139.703 484.443,-146.418 481.331,-142.503 481.331,-142.503 481.331,-142.503 484.443,-146.418 477.809,-145.303 487.554,-150.332 487.554,-150.332"/>
</g>
<!-- Message -->
<g id="node8" class="node"><title>Message</title>
<path fill="none" stroke="black" d="M766.182,-798.5C766.182,-798.5 875.193,-798.5 875.193,-798.5 881.193,-798.5 887.193,-804.5 887.193,-810.5 887.193,-810.5 887.193,-928.5 887.193,-928.5 887.193,-934.5 881.193,-940.5 875.193,-940.5 875.193,-940.5 766.182,-940.5 766.182,-940.5 760.182,-940.5 754.182,-934.5 754.182,-928.5 754.182,-928.5 754.182,-810.5 754.182,-810.5 754.182,-804.5 760.182,-798.5 766.182,-798.5"/>
<text text-anchor="middle" x="820.688" y="-925.3" font-family="Times,serif" font-size="14.00">Message</text>
<polyline fill="none" stroke="black" points="754.182,-918.5 887.193,-918.5 "/>
<text text-anchor="start" x="762.182" y="-903.3" font-family="Times,serif" font-size="14.00">id :integer</text>
<text text-anchor="start" x="762.182" y="-889.3" font-family="Times,serif" font-size="14.00">body :text</text>
<text text-anchor="start" x="762.182" y="-875.3" font-family="Times,serif" font-size="14.00">created_at :datetime</text>
<text text-anchor="start" x="762.182" y="-861.3" font-family="Times,serif" font-size="14.00">updated_at :datetime</text>
<text text-anchor="start" x="762.182" y="-847.3" font-family="Times,serif" font-size="14.00">sender_id :integer</text>
<text text-anchor="start" x="762.182" y="-833.3" font-family="Times,serif" font-size="14.00">recepient_id :integer</text>
<text text-anchor="start" x="762.182" y="-819.3" font-family="Times,serif" font-size="14.00">entry_id :integer</text>
<text text-anchor="start" x="762.182" y="-805.3" font-family="Times,serif" font-size="14.00">type :string</text>
</g>
<!-- Notification -->
<g id="node10" class="node"><title>Notification</title>
<path fill="none" stroke="black" d="M1068.18,-805.5C1068.18,-805.5 1177.19,-805.5 1177.19,-805.5 1183.19,-805.5 1189.19,-811.5 1189.19,-817.5 1189.19,-817.5 1189.19,-921.5 1189.19,-921.5 1189.19,-927.5 1183.19,-933.5 1177.19,-933.5 1177.19,-933.5 1068.18,-933.5 1068.18,-933.5 1062.18,-933.5 1056.18,-927.5 1056.18,-921.5 1056.18,-921.5 1056.18,-817.5 1056.18,-817.5 1056.18,-811.5 1062.18,-805.5 1068.18,-805.5"/>
<text text-anchor="middle" x="1122.69" y="-918.3" font-family="Times,serif" font-size="14.00">Notification</text>
<polyline fill="none" stroke="black" points="1056.18,-911.5 1189.19,-911.5 "/>
<text text-anchor="start" x="1064.18" y="-896.3" font-family="Times,serif" font-size="14.00">id :integer</text>
<text text-anchor="start" x="1064.18" y="-882.3" font-family="Times,serif" font-size="14.00">user_id :integer</text>
<text text-anchor="start" x="1064.18" y="-868.3" font-family="Times,serif" font-size="14.00">body :string</text>
<text text-anchor="start" x="1064.18" y="-854.3" font-family="Times,serif" font-size="14.00">url :string</text>
<text text-anchor="start" x="1064.18" y="-840.3" font-family="Times,serif" font-size="14.00">read_at :datetime</text>
<text text-anchor="start" x="1064.18" y="-826.3" font-family="Times,serif" font-size="14.00">created_at :datetime</text>
<text text-anchor="start" x="1064.18" y="-812.3" font-family="Times,serif" font-size="14.00">updated_at :datetime</text>
</g>
<!-- Offering&#45;&gt;Contract -->
<g id="edge10" class="edge"><title>Offering&#45;&gt;Contract</title>
<path fill="none" stroke="#afb248" d="M459.706,-769.331C457.576,-758.761 455.384,-747.88 453.187,-736.978"/>
<ellipse fill="none" stroke="#afb248" cx="460.54" cy="-773.472" rx="4.00001" ry="4.00001"/>
<polygon fill="#afb248" stroke="#afb248" points="453.145,-736.77 455.581,-726.078 452.158,-731.869 451.17,-726.967 451.17,-726.967 451.17,-726.967 452.158,-731.869 446.759,-727.856 453.145,-736.77 453.145,-736.77"/>
</g>
<!-- Offering&#45;&gt;Entry -->
<g id="edge9" class="edge"><title>Offering&#45;&gt;Entry</title>
<path fill="none" stroke="#e02759" d="M544.176,-770.191C551.364,-756.116 557.83,-741.487 562.688,-727 593.248,-635.858 605.345,-528.014 609.882,-444.63"/>
<ellipse fill="none" stroke="#e02759" cx="542.209" cy="-773.953" rx="4.00002" ry="4.00002"/>
<polygon fill="#e02759" stroke="#e02759" points="609.885,-444.572 614.892,-434.816 610.141,-439.579 610.398,-434.585 610.398,-434.585 610.398,-434.585 610.141,-439.579 605.904,-434.354 609.885,-444.572 609.885,-444.572"/>
</g>
<!-- Payment&#45;&gt;Entry -->
<g id="edge11" class="edge"><title>Payment&#45;&gt;Entry</title>
<path fill="none" stroke="#fe29b5" d="M798.258,-494.429C770.505,-466.771 740.58,-436.95 712.997,-409.461"/>
<ellipse fill="none" stroke="#fe29b5" cx="801.335" cy="-497.496" rx="4.00002" ry="4.00002"/>
<ellipse fill="#fe29b5" stroke="#fe29b5" cx="709.982" cy="-406.456" rx="4.00002" ry="4.00002"/>
</g>
<!-- Relationship -->
<g id="node13" class="node"><title>Relationship</title>
<path fill="none" stroke="black" d="M1219.18,-819.5C1219.18,-819.5 1328.19,-819.5 1328.19,-819.5 1334.19,-819.5 1340.19,-825.5 1340.19,-831.5 1340.19,-831.5 1340.19,-907.5 1340.19,-907.5 1340.19,-913.5 1334.19,-919.5 1328.19,-919.5 1328.19,-919.5 1219.18,-919.5 1219.18,-919.5 1213.18,-919.5 1207.18,-913.5 1207.18,-907.5 1207.18,-907.5 1207.18,-831.5 1207.18,-831.5 1207.18,-825.5 1213.18,-819.5 1219.18,-819.5"/>
<text text-anchor="middle" x="1273.69" y="-904.3" font-family="Times,serif" font-size="14.00">Relationship</text>
<polyline fill="none" stroke="black" points="1207.18,-897.5 1340.19,-897.5 "/>
<text text-anchor="start" x="1215.18" y="-882.3" font-family="Times,serif" font-size="14.00">id :integer</text>
<text text-anchor="start" x="1215.18" y="-868.3" font-family="Times,serif" font-size="14.00">follower_id :integer</text>
<text text-anchor="start" x="1215.18" y="-854.3" font-family="Times,serif" font-size="14.00">followed_id :integer</text>
<text text-anchor="start" x="1215.18" y="-840.3" font-family="Times,serif" font-size="14.00">created_at :datetime</text>
<text text-anchor="start" x="1215.18" y="-826.3" font-family="Times,serif" font-size="14.00">updated_at :datetime</text>
</g>
<!-- Talk -->
<g id="node14" class="node"><title>Talk</title>
<path fill="none" stroke="black" d="M1181.18,-1117.5C1181.18,-1117.5 1290.19,-1117.5 1290.19,-1117.5 1296.19,-1117.5 1302.19,-1123.5 1302.19,-1129.5 1302.19,-1129.5 1302.19,-1247.5 1302.19,-1247.5 1302.19,-1253.5 1296.19,-1259.5 1290.19,-1259.5 1290.19,-1259.5 1181.18,-1259.5 1181.18,-1259.5 1175.18,-1259.5 1169.18,-1253.5 1169.18,-1247.5 1169.18,-1247.5 1169.18,-1129.5 1169.18,-1129.5 1169.18,-1123.5 1175.18,-1117.5 1181.18,-1117.5"/>
<text text-anchor="middle" x="1235.69" y="-1244.3" font-family="Times,serif" font-size="14.00">Talk</text>
<polyline fill="none" stroke="black" points="1169.18,-1237.5 1302.19,-1237.5 "/>
<text text-anchor="start" x="1177.18" y="-1222.3" font-family="Times,serif" font-size="14.00">id :integer</text>
<text text-anchor="start" x="1177.18" y="-1208.3" font-family="Times,serif" font-size="14.00">body :text</text>
<text text-anchor="start" x="1177.18" y="-1194.3" font-family="Times,serif" font-size="14.00">created_at :datetime</text>
<text text-anchor="start" x="1177.18" y="-1180.3" font-family="Times,serif" font-size="14.00">updated_at :datetime</text>
<text text-anchor="start" x="1177.18" y="-1166.3" font-family="Times,serif" font-size="14.00">sender_id :integer</text>
<text text-anchor="start" x="1177.18" y="-1152.3" font-family="Times,serif" font-size="14.00">recepient_id :integer</text>
<text text-anchor="start" x="1177.18" y="-1138.3" font-family="Times,serif" font-size="14.00">entry_id :integer</text>
<text text-anchor="start" x="1177.18" y="-1124.3" font-family="Times,serif" font-size="14.00">type :string</text>
</g>
<!-- Task&#45;&gt;Entry -->
<g id="edge12" class="edge"><title>Task&#45;&gt;Entry</title>
<path fill="none" stroke="#b25f02" d="M627.32,-769.244C624.26,-679.048 619.717,-545.155 616.316,-444.919"/>
<ellipse fill="none" stroke="#b25f02" cx="627.457" cy="-773.282" rx="4" ry="4"/>
<polygon fill="#b25f02" stroke="#b25f02" points="616.309,-444.708 620.467,-434.561 616.14,-439.711 615.97,-434.714 615.97,-434.714 615.97,-434.714 616.14,-439.711 611.473,-434.866 616.309,-444.708 616.309,-444.708"/>
</g>
<!-- User -->
<g id="node16" class="node"><title>User</title>
<path fill="none" stroke="black" d="M652.41,-1012.5C652.41,-1012.5 832.966,-1012.5 832.966,-1012.5 838.966,-1012.5 844.966,-1018.5 844.966,-1024.5 844.966,-1024.5 844.966,-1352.5 844.966,-1352.5 844.966,-1358.5 838.966,-1364.5 832.966,-1364.5 832.966,-1364.5 652.41,-1364.5 652.41,-1364.5 646.41,-1364.5 640.41,-1358.5 640.41,-1352.5 640.41,-1352.5 640.41,-1024.5 640.41,-1024.5 640.41,-1018.5 646.41,-1012.5 652.41,-1012.5"/>
<text text-anchor="middle" x="742.688" y="-1349.3" font-family="Times,serif" font-size="14.00">User</text>
<polyline fill="none" stroke="black" points="640.41,-1342.5 844.966,-1342.5 "/>
<text text-anchor="start" x="648.41" y="-1327.3" font-family="Times,serif" font-size="14.00">id :integer</text>
<text text-anchor="start" x="648.41" y="-1313.3" font-family="Times,serif" font-size="14.00">email :string</text>
<text text-anchor="start" x="648.41" y="-1299.3" font-family="Times,serif" font-size="14.00">encrypted_password :string</text>
<text text-anchor="start" x="648.41" y="-1285.3" font-family="Times,serif" font-size="14.00">reset_password_token :string</text>
<text text-anchor="start" x="648.41" y="-1271.3" font-family="Times,serif" font-size="14.00">reset_password_sent_at :datetime</text>
<text text-anchor="start" x="648.41" y="-1257.3" font-family="Times,serif" font-size="14.00">remember_created_at :datetime</text>
<text text-anchor="start" x="648.41" y="-1243.3" font-family="Times,serif" font-size="14.00">sign_in_count :integer</text>
<text text-anchor="start" x="648.41" y="-1229.3" font-family="Times,serif" font-size="14.00">current_sign_in_at :datetime</text>
<text text-anchor="start" x="648.41" y="-1215.3" font-family="Times,serif" font-size="14.00">last_sign_in_at :datetime</text>
<text text-anchor="start" x="648.41" y="-1201.3" font-family="Times,serif" font-size="14.00">current_sign_in_ip :string</text>
<text text-anchor="start" x="648.41" y="-1187.3" font-family="Times,serif" font-size="14.00">last_sign_in_ip :string</text>
<text text-anchor="start" x="648.41" y="-1173.3" font-family="Times,serif" font-size="14.00">confirmation_token :string</text>
<text text-anchor="start" x="648.41" y="-1159.3" font-family="Times,serif" font-size="14.00">confirmed_at :datetime</text>
<text text-anchor="start" x="648.41" y="-1145.3" font-family="Times,serif" font-size="14.00">confirmation_sent_at :datetime</text>
<text text-anchor="start" x="648.41" y="-1131.3" font-family="Times,serif" font-size="14.00">unconfirmed_email :string</text>
<text text-anchor="start" x="648.41" y="-1117.3" font-family="Times,serif" font-size="14.00">failed_attempts :integer</text>
<text text-anchor="start" x="648.41" y="-1103.3" font-family="Times,serif" font-size="14.00">unlock_token :string</text>
<text text-anchor="start" x="648.41" y="-1089.3" font-family="Times,serif" font-size="14.00">locked_at :datetime</text>
<text text-anchor="start" x="648.41" y="-1075.3" font-family="Times,serif" font-size="14.00">created_at :datetime</text>
<text text-anchor="start" x="648.41" y="-1061.3" font-family="Times,serif" font-size="14.00">updated_at :datetime</text>
<text text-anchor="start" x="648.41" y="-1047.3" font-family="Times,serif" font-size="14.00">name :string</text>
<text text-anchor="start" x="648.41" y="-1033.3" font-family="Times,serif" font-size="14.00">description :text</text>
<text text-anchor="start" x="648.41" y="-1019.3" font-family="Times,serif" font-size="14.00">admin :boolean</text>
</g>
<!-- User&#45;&gt;Account -->
<g id="edge13" class="edge"><title>User&#45;&gt;Account</title>
<path fill="none" stroke="#84497e" d="M851.99,-1125.65C898.3,-1093.05 947.342,-1048.45 972.688,-994 982.116,-973.747 983.704,-949.523 982.272,-927.915"/>
<ellipse fill="none" stroke="#84497e" cx="848.467" cy="-1128.09" rx="4.00002" ry="4.00002"/>
<ellipse fill="#84497e" stroke="#84497e" cx="981.922" cy="-923.761" rx="4" ry="4"/>
</g>
<!-- User&#45;&gt;Contract -->
<g id="edge18" class="edge"><title>User&#45;&gt;Contract</title>
<path fill="none" stroke="#8ccd49" d="M633.092,-1129.66C544.011,-1080.09 429.082,-1009.39 403.688,-962 367.17,-893.85 370.81,-807.764 384.455,-736.695"/>
<ellipse fill="none" stroke="#8ccd49" cx="636.772" cy="-1131.7" rx="4.00002" ry="4.00002"/>
<polygon fill="#8ccd49" stroke="#8ccd49" points="384.479,-736.575 390.856,-727.654 385.461,-731.673 386.443,-726.77 386.443,-726.77 386.443,-726.77 385.461,-731.673 382.031,-725.886 384.479,-736.575 384.479,-736.575"/>
</g>
<!-- User&#45;&gt;Entrust -->
<g id="edge19" class="edge"><title>User&#45;&gt;Entrust</title>
<path fill="none" stroke="#e54a92" d="M633.133,-1126.77C568.521,-1090 485.755,-1041.21 414.688,-994 394.845,-980.818 385.09,-981.695 371.688,-962 323.772,-891.584 354.88,-855.439 321.688,-777 315.875,-763.263 309.157,-749.302 301.987,-735.557"/>
<ellipse fill="none" stroke="#e54a92" cx="636.644" cy="-1128.76" rx="4.00002" ry="4.00002"/>
<polygon fill="#e54a92" stroke="#e54a92" points="301.9,-735.394 301.189,-724.452 299.557,-730.977 297.214,-726.561 297.214,-726.561 297.214,-726.561 299.557,-730.977 293.239,-728.669 301.9,-735.394 301.9,-735.394"/>
</g>
<!-- User&#45;&gt;Entry -->
<g id="edge17" class="edge"><title>User&#45;&gt;Entry</title>
<path fill="none" stroke="#6367c0" d="M731.056,-1004.29C725.378,-933.122 717.409,-851.055 706.688,-777 690.352,-664.155 664.188,-537.496 643.451,-444.351"/>
<ellipse fill="none" stroke="#6367c0" cx="731.387" cy="-1008.48" rx="4" ry="4"/>
<polygon fill="#6367c0" stroke="#6367c0" points="643.45,-444.349 645.662,-433.609 642.36,-439.47 641.27,-434.59 641.27,-434.59 641.27,-434.59 642.36,-439.47 636.878,-435.571 643.45,-444.349 643.45,-444.349"/>
</g>
<!-- User&#45;&gt;Message -->
<g id="edge20" class="edge"><title>User&#45;&gt;Message</title>
<path fill="none" stroke="#60c92a" d="M753.56,-1004.41C755.414,-996.102 757.529,-987.929 759.936,-980 763.006,-969.886 767.101,-959.665 771.721,-949.741"/>
<ellipse fill="none" stroke="#60c92a" cx="752.691" cy="-1008.5" rx="4.00001" ry="4.00001"/>
<polygon fill="#60c92a" stroke="#60c92a" points="771.732,-949.719 780.146,-942.687 773.915,-945.221 776.098,-940.723 776.098,-940.723 776.098,-940.723 773.915,-945.221 772.049,-938.758 771.732,-949.719 771.732,-949.719"/>
<text text-anchor="middle" x="810.064" y="-982.8" font-family="Times,serif" font-size="14.00">sended_messages</text>
</g>
<!-- User&#45;&gt;Message -->
<g id="edge21" class="edge"><title>User&#45;&gt;Message</title>
<path fill="none" stroke="#122f09" d="M848.156,-1024.87C852.257,-1014.66 855.829,-1004.33 858.688,-994 862.602,-979.859 862.035,-964.882 859.022,-950.42"/>
<ellipse fill="none" stroke="#122f09" cx="846.612" cy="-1028.59" rx="4.00002" ry="4.00002"/>
<polygon fill="#122f09" stroke="#122f09" points="858.971,-950.214 860.939,-939.426 857.771,-945.36 856.57,-940.506 856.57,-940.506 856.57,-940.506 857.771,-945.36 852.202,-941.587 858.971,-950.214 858.971,-950.214"/>
<text text-anchor="middle" x="915.329" y="-982.8" font-family="Times,serif" font-size="14.00">received_messages</text>
</g>
<!-- User&#45;&gt;Notification -->
<g id="edge28" class="edge"><title>User&#45;&gt;Notification</title>
<path fill="none" stroke="#7d8714" d="M852.053,-1116.49C912.579,-1074.83 987.503,-1019.25 1047.69,-962 1054.35,-955.658 1060.98,-948.734 1067.39,-941.626"/>
<ellipse fill="none" stroke="#7d8714" cx="848.42" cy="-1118.98" rx="4.00002" ry="4.00002"/>
<polygon fill="#7d8714" stroke="#7d8714" points="1067.62,-941.36 1077.61,-936.835 1070.93,-937.609 1074.24,-933.859 1074.24,-933.859 1074.24,-933.859 1070.93,-937.609 1070.86,-930.883 1067.62,-941.36 1067.62,-941.36"/>
</g>
<!-- User&#45;&gt;Offering -->
<g id="edge15" class="edge"><title>User&#45;&gt;Offering</title>
<path fill="none" stroke="#c0a019" d="M635.053,-1058.77C608.715,-1027.17 580.643,-993.397 554.688,-962 554.087,-961.273 553.483,-960.542 552.877,-959.809"/>
<ellipse fill="none" stroke="#c0a019" cx="637.736" cy="-1061.99" rx="4.00002" ry="4.00002"/>
<polygon fill="#c0a019" stroke="#c0a019" points="552.674,-959.562 549.78,-948.985 549.491,-955.706 546.309,-951.85 546.309,-951.85 546.309,-951.85 549.491,-955.706 542.838,-954.714 552.674,-959.562 552.674,-959.562"/>
</g>
<!-- User&#45;&gt;Relationship -->
<g id="edge24" class="edge"><title>User&#45;&gt;Relationship</title>
<path fill="none" stroke="#d82eb8" d="M852.715,-1133.32C935.407,-1094.56 1052.41,-1043.8 1159.69,-1012 1202.98,-999.163 1228.81,-1026.96 1259.69,-994 1275.55,-977.067 1280.56,-952.569 1281.03,-929.849"/>
<ellipse fill="none" stroke="#d82eb8" cx="848.942" cy="-1135.09" rx="4.00002" ry="4.00002"/>
<polygon fill="#d82eb8" stroke="#d82eb8" points="1281.03,-929.569 1285.45,-919.534 1280.99,-924.569 1280.95,-919.569 1280.95,-919.569 1280.95,-919.569 1280.99,-924.569 1276.45,-919.604 1281.03,-929.569 1281.03,-929.569"/>
</g>
<!-- User&#45;&gt;Relationship -->
<g id="edge25" class="edge"><title>User&#45;&gt;Relationship</title>
<path fill="none" stroke="#e39366" d="M852.713,-1121.85C930.196,-1077.56 1037.41,-1020.1 1136.73,-980 1163.32,-969.265 1174.76,-977.798 1198.69,-962 1212.46,-952.91 1224.97,-940.516 1235.66,-927.786"/>
<ellipse fill="none" stroke="#e39366" cx="848.779" cy="-1124.11" rx="4.00002" ry="4.00002"/>
<polygon fill="#e39366" stroke="#e39366" points="1235.79,-927.623 1245.57,-922.67 1238.93,-923.733 1242.07,-919.843 1242.07,-919.843 1242.07,-919.843 1238.93,-923.733 1238.57,-917.015 1235.79,-927.623 1235.79,-927.623"/>
<text text-anchor="middle" x="1196.17" y="-982.8" font-family="Times,serif" font-size="14.00">reverse_relationships</text>
</g>
<!-- User&#45;&gt;Task -->
<g id="edge14" class="edge"><title>User&#45;&gt;Task</title>
<path fill="none" stroke="#162648" d="M678.05,-1004.55C674.049,-993.228 670.108,-982.075 666.312,-971.33"/>
<ellipse fill="none" stroke="#162648" cx="679.459" cy="-1008.54" rx="4.00001" ry="4.00001"/>
<polygon fill="#162648" stroke="#162648" points="666.201,-971.014 667.112,-960.086 664.535,-966.299 662.869,-961.585 662.869,-961.585 662.869,-961.585 664.535,-966.299 658.626,-963.084 666.201,-971.014 666.201,-971.014"/>
</g>
<!-- User&#45;&gt;User -->
<g id="edge22" class="edge"><title>User&#45;&gt;User</title>
<path fill="none" stroke="#7cbdb6" d="M855.287,-1194.22C860.141,-1192.75 862.966,-1190.85 862.966,-1188.5 862.966,-1186.15 860.141,-1184.25 855.287,-1182.78"/>
<polygon fill="#7cbdb6" stroke="#7cbdb6" points="855.137,-1194.25 844.434,-1191.86 850.24,-1195.26 845.343,-1196.27 845.343,-1196.27 845.343,-1196.27 850.24,-1195.26 846.252,-1200.67 855.137,-1194.25 855.137,-1194.25"/>
<polygon fill="#7cbdb6" stroke="#7cbdb6" points="855.137,-1182.75 846.252,-1176.33 850.24,-1181.74 845.343,-1180.73 845.343,-1180.73 845.343,-1180.73 850.24,-1181.74 844.434,-1185.14 855.137,-1182.75 855.137,-1182.75"/>
<text text-anchor="middle" x="883.959" y="-1184.3" font-family="Times,serif" font-size="14.00">senders</text>
</g>
<!-- User&#45;&gt;User -->
<g id="edge23" class="edge"><title>User&#45;&gt;User</title>
<path fill="none" stroke="#ba1c21" d="M855.36,-1206.88C883.492,-1205.37 904.952,-1199.24 904.952,-1188.5 904.952,-1177.76 883.492,-1171.63 855.36,-1170.12"/>
<polygon fill="#ba1c21" stroke="#ba1c21" points="855.15,-1206.89 845.005,-1202.72 850.153,-1207.05 845.155,-1207.22 845.155,-1207.22 845.155,-1207.22 850.153,-1207.05 845.306,-1211.72 855.15,-1206.89 855.15,-1206.89"/>
<polygon fill="#ba1c21" stroke="#ba1c21" points="855.15,-1170.11 845.306,-1165.28 850.153,-1169.95 845.155,-1169.78 845.155,-1169.78 845.155,-1169.78 850.153,-1169.95 845.005,-1174.28 855.15,-1170.11 855.15,-1170.11"/>
<text text-anchor="middle" x="933.324" y="-1184.3" font-family="Times,serif" font-size="14.00">recepients</text>
</g>
<!-- User&#45;&gt;User -->
<g id="edge26" class="edge"><title>User&#45;&gt;User</title>
<path fill="none" stroke="#19969f" d="M855.263,-1216.27C910.06,-1218.61 961.697,-1209.36 961.697,-1188.5 961.697,-1167.64 910.06,-1158.39 855.263,-1160.73"/>
<polygon fill="#19969f" stroke="#19969f" points="854.991,-1216.25 845.257,-1211.2 849.998,-1215.98 845.006,-1215.7 845.006,-1215.7 845.006,-1215.7 849.998,-1215.98 844.755,-1220.19 854.991,-1216.25 854.991,-1216.25"/>
<polygon fill="#19969f" stroke="#19969f" points="854.991,-1160.75 844.755,-1156.81 849.998,-1161.02 845.006,-1161.3 845.006,-1161.3 845.006,-1161.3 849.998,-1161.02 845.257,-1165.8 854.991,-1160.75 854.991,-1160.75"/>
<text text-anchor="middle" x="1004.47" y="-1184.3" font-family="Times,serif" font-size="14.00">followed_users</text>
</g>
<!-- User&#45;&gt;User -->
<g id="edge27" class="edge"><title>User&#45;&gt;User</title>
<path fill="none" stroke="#179d3e" d="M855.52,-1222.76C944.085,-1232.27 1047.24,-1220.85 1047.24,-1188.5 1047.24,-1156.15 944.085,-1144.73 855.52,-1154.24"/>
<polygon fill="#179d3e" stroke="#179d3e" points="855.284,-1222.73 845.876,-1217.1 850.318,-1222.15 845.352,-1221.57 845.352,-1221.57 845.352,-1221.57 850.318,-1222.15 844.828,-1226.04 855.284,-1222.73 855.284,-1222.73"/>
<polygon fill="#179d3e" stroke="#179d3e" points="855.284,-1154.27 844.828,-1150.96 850.318,-1154.85 845.352,-1155.43 845.352,-1155.43 845.352,-1155.43 850.318,-1154.85 845.876,-1159.9 855.284,-1154.27 855.284,-1154.27"/>
<text text-anchor="middle" x="1073.67" y="-1184.3" font-family="Times,serif" font-size="14.00">followers</text>
</g>
<!-- User&#45;&gt;Want -->
<g id="edge16" class="edge"><title>User&#45;&gt;Want</title>
<path fill="none" stroke="#2d2b76" d="M633.155,-1110.29C578.097,-1075.03 508.918,-1035.9 441.688,-1012 392.943,-994.671 370.164,-1022.04 326.688,-994 316.316,-987.311 306.981,-978.772 298.659,-969.314"/>
<ellipse fill="none" stroke="#2d2b76" cx="636.778" cy="-1112.63" rx="4.00002" ry="4.00002"/>
<polygon fill="#2d2b76" stroke="#2d2b76" points="298.596,-969.238 295.662,-958.672 295.399,-965.394 292.202,-961.55 292.202,-961.55 292.202,-961.55 295.399,-965.394 288.742,-964.427 298.596,-969.238 298.596,-969.238"/>
</g>
<!-- Want&#45;&gt;Entrust -->
<g id="edge30" class="edge"><title>Want&#45;&gt;Entrust</title>
<path fill="none" stroke="#6f02f2" d="M234.957,-769.331C233.813,-758.761 232.636,-747.88 231.456,-736.978"/>
<ellipse fill="none" stroke="#6f02f2" cx="235.399" cy="-773.417" rx="4.00001" ry="4.00001"/>
<polygon fill="#6f02f2" stroke="#6f02f2" points="231.449,-736.909 234.847,-726.483 230.911,-731.938 230.373,-726.967 230.373,-726.967 230.373,-726.967 230.911,-731.938 225.899,-727.451 231.449,-736.909 231.449,-736.909"/>
</g>
<!-- Want&#45;&gt;Entry -->
<g id="edge29" class="edge"><title>Want&#45;&gt;Entry</title>
<path fill="none" stroke="#41f294" d="M319.466,-822.764C345.615,-807.365 375.54,-790.644 403.688,-777 457.903,-750.721 492.708,-774.564 529.688,-727 564.76,-681.891 550.78,-527.885 562.688,-472 564.613,-462.966 566.795,-453.707 569.145,-444.414"/>
<ellipse fill="none" stroke="#41f294" cx="315.992" cy="-824.82" rx="4.00002" ry="4.00002"/>
<polygon fill="#41f294" stroke="#41f294" points="569.147,-444.405 576.006,-435.849 570.398,-439.564 571.649,-434.723 571.649,-434.723 571.649,-434.723 570.398,-439.564 567.292,-433.597 569.147,-444.405 569.147,-444.405"/>
</g>
</g>
</svg>
