<?xml version="1.0" encoding="UTF-8" standalone="no"?>
<!DOCTYPE svg PUBLIC "-//W3C//DTD SVG 1.1//EN"
 "http://www.w3.org/Graphics/SVG/1.1/DTD/svg11.dtd">
<!-- Generated by graphviz version 2.38.0 (20140413.2041)
 -->
<!-- Title: models_diagram Pages: 1 -->
<svg width="821pt" height="859pt"
 viewBox="0.00 0.00 821.19 859.00" xmlns="http://www.w3.org/2000/svg" xmlns:xlink="http://www.w3.org/1999/xlink">
<g id="graph0" class="graph" transform="scale(1 1) rotate(0) translate(4 855)">
<title>models_diagram</title>
<polygon fill="white" stroke="none" points="-4,4 -4,-855 817.193,-855 817.193,4 -4,4"/>
<!-- _diagram_info -->
<g id="node1" class="node"><title>_diagram_info</title>
<text text-anchor="start" x="8" y="-836.6" font-family="Times,serif" font-size="13.00">Models diagram</text>
<text text-anchor="start" x="8" y="-823.6" font-family="Times,serif" font-size="13.00">Date: Aug 24 2014 &#45; 22:25</text>
<text text-anchor="start" x="8" y="-810.6" font-family="Times,serif" font-size="13.00">Migration version: 20140824021649</text>
<text text-anchor="start" x="8" y="-797.6" font-family="Times,serif" font-size="13.00">Generated by RailRoady 1.1.2</text>
<text text-anchor="start" x="8" y="-784.6" font-family="Times,serif" font-size="13.00">http://railroady.prestonlee.com</text>
</g>
<!-- Account -->
<g id="node2" class="node"><title>Account</title>
<path fill="none" stroke="black" d="M103.182,-243.5C103.182,-243.5 212.193,-243.5 212.193,-243.5 218.193,-243.5 224.193,-249.5 224.193,-255.5 224.193,-255.5 224.193,-331.5 224.193,-331.5 224.193,-337.5 218.193,-343.5 212.193,-343.5 212.193,-343.5 103.182,-343.5 103.182,-343.5 97.1824,-343.5 91.1824,-337.5 91.1824,-331.5 91.1824,-331.5 91.1824,-255.5 91.1824,-255.5 91.1824,-249.5 97.1824,-243.5 103.182,-243.5"/>
<text text-anchor="middle" x="157.688" y="-328.3" font-family="Times,serif" font-size="14.00">Account</text>
<polyline fill="none" stroke="black" points="91.1824,-321.5 224.193,-321.5 "/>
<text text-anchor="start" x="99.1824" y="-306.3" font-family="Times,serif" font-size="14.00">id :integer</text>
<text text-anchor="start" x="99.1824" y="-292.3" font-family="Times,serif" font-size="14.00">user_id :integer</text>
<text text-anchor="start" x="99.1824" y="-278.3" font-family="Times,serif" font-size="14.00">balance :integer</text>
<text text-anchor="start" x="99.1824" y="-264.3" font-family="Times,serif" font-size="14.00">created_at :datetime</text>
<text text-anchor="start" x="99.1824" y="-250.3" font-family="Times,serif" font-size="14.00">updated_at :datetime</text>
</g>
<!-- Payment -->
<g id="node7" class="node"><title>Payment</title>
<path fill="none" stroke="black" d="M32.1824,-7.5C32.1824,-7.5 141.193,-7.5 141.193,-7.5 147.193,-7.5 153.193,-13.5 153.193,-19.5 153.193,-19.5 153.193,-151.5 153.193,-151.5 153.193,-157.5 147.193,-163.5 141.193,-163.5 141.193,-163.5 32.1824,-163.5 32.1824,-163.5 26.1824,-163.5 20.1824,-157.5 20.1824,-151.5 20.1824,-151.5 20.1824,-19.5 20.1824,-19.5 20.1824,-13.5 26.1824,-7.5 32.1824,-7.5"/>
<text text-anchor="middle" x="86.6877" y="-148.3" font-family="Times,serif" font-size="14.00">Payment</text>
<polyline fill="none" stroke="black" points="20.1824,-141.5 153.193,-141.5 "/>
<text text-anchor="start" x="28.1824" y="-126.3" font-family="Times,serif" font-size="14.00">id :integer</text>
<text text-anchor="start" x="28.1824" y="-112.3" font-family="Times,serif" font-size="14.00">from_id :integer</text>
<text text-anchor="start" x="28.1824" y="-98.3" font-family="Times,serif" font-size="14.00">to_id :integer</text>
<text text-anchor="start" x="28.1824" y="-84.3" font-family="Times,serif" font-size="14.00">subject :string</text>
<text text-anchor="start" x="28.1824" y="-70.3" font-family="Times,serif" font-size="14.00">amount :integer</text>
<text text-anchor="start" x="28.1824" y="-56.3" font-family="Times,serif" font-size="14.00">balance :integer</text>
<text text-anchor="start" x="28.1824" y="-42.3" font-family="Times,serif" font-size="14.00">comment :text</text>
<text text-anchor="start" x="28.1824" y="-28.3" font-family="Times,serif" font-size="14.00">created_at :datetime</text>
<text text-anchor="start" x="28.1824" y="-14.3" font-family="Times,serif" font-size="14.00">updated_at :datetime</text>
</g>
<!-- Account&#45;&gt;Payment -->
<g id="edge1" class="edge"><title>Account&#45;&gt;Payment</title>
<path fill="none" stroke="#76c5f0" d="M138.118,-235.719C131.476,-216.448 123.895,-194.454 116.633,-173.383"/>
<ellipse fill="none" stroke="#76c5f0" cx="139.468" cy="-239.638" rx="4.00001" ry="4.00001"/>
<polygon fill="#76c5f0" stroke="#76c5f0" points="116.581,-173.233 117.577,-162.313 114.952,-168.506 113.323,-163.779 113.323,-163.779 113.323,-163.779 114.952,-168.506 109.068,-165.245 116.581,-173.233 116.581,-173.233"/>
</g>
<!-- Category -->
<g id="node3" class="node"><title>Category</title>
<path fill="none" stroke="black" d="M692.182,-535.5C692.182,-535.5 801.193,-535.5 801.193,-535.5 807.193,-535.5 813.193,-541.5 813.193,-547.5 813.193,-547.5 813.193,-609.5 813.193,-609.5 813.193,-615.5 807.193,-621.5 801.193,-621.5 801.193,-621.5 692.182,-621.5 692.182,-621.5 686.182,-621.5 680.182,-615.5 680.182,-609.5 680.182,-609.5 680.182,-547.5 680.182,-547.5 680.182,-541.5 686.182,-535.5 692.182,-535.5"/>
<text text-anchor="middle" x="746.688" y="-606.3" font-family="Times,serif" font-size="14.00">Category</text>
<polyline fill="none" stroke="black" points="680.182,-599.5 813.193,-599.5 "/>
<text text-anchor="start" x="688.182" y="-584.3" font-family="Times,serif" font-size="14.00">id :integer</text>
<text text-anchor="start" x="688.182" y="-570.3" font-family="Times,serif" font-size="14.00">name :string</text>
<text text-anchor="start" x="688.182" y="-556.3" font-family="Times,serif" font-size="14.00">created_at :datetime</text>
<text text-anchor="start" x="688.182" y="-542.3" font-family="Times,serif" font-size="14.00">updated_at :datetime</text>
</g>
<!-- Offering -->
<g id="node5" class="node"><title>Offering</title>
<path fill="none" stroke="black" d="M628.182,-0.5C628.182,-0.5 737.193,-0.5 737.193,-0.5 743.193,-0.5 749.193,-6.5 749.193,-12.5 749.193,-12.5 749.193,-158.5 749.193,-158.5 749.193,-164.5 743.193,-170.5 737.193,-170.5 737.193,-170.5 628.182,-170.5 628.182,-170.5 622.182,-170.5 616.182,-164.5 616.182,-158.5 616.182,-158.5 616.182,-12.5 616.182,-12.5 616.182,-6.5 622.182,-0.5 628.182,-0.5"/>
<text text-anchor="middle" x="682.688" y="-155.3" font-family="Times,serif" font-size="14.00">Offering</text>
<polyline fill="none" stroke="black" points="616.182,-148.5 749.193,-148.5 "/>
<text text-anchor="start" x="624.182" y="-133.3" font-family="Times,serif" font-size="14.00">id :integer</text>
<text text-anchor="start" x="624.182" y="-119.3" font-family="Times,serif" font-size="14.00">type :string</text>
<text text-anchor="start" x="624.182" y="-105.3" font-family="Times,serif" font-size="14.00">user_id :integer</text>
<text text-anchor="start" x="624.182" y="-91.3" font-family="Times,serif" font-size="14.00">title :string</text>
<text text-anchor="start" x="624.182" y="-77.3" font-family="Times,serif" font-size="14.00">category_id :integer</text>
<text text-anchor="start" x="624.182" y="-63.3" font-family="Times,serif" font-size="14.00">description :text</text>
<text text-anchor="start" x="624.182" y="-49.3" font-family="Times,serif" font-size="14.00">price :string</text>
<text text-anchor="start" x="624.182" y="-35.3" font-family="Times,serif" font-size="14.00">expired_at :datetime</text>
<text text-anchor="start" x="624.182" y="-21.3" font-family="Times,serif" font-size="14.00">created_at :datetime</text>
<text text-anchor="start" x="624.182" y="-7.3" font-family="Times,serif" font-size="14.00">updated_at :datetime</text>
</g>
<!-- Category&#45;&gt;Offering -->
<g id="edge4" class="edge"><title>Category&#45;&gt;Offering</title>
<path fill="none" stroke="#05db3a" d="M747.425,-526.798C747.56,-455.114 744.463,-320.344 722.688,-208 720.95,-199.034 718.738,-189.813 716.25,-180.651"/>
<ellipse fill="none" stroke="#05db3a" cx="747.409" cy="-531.222" rx="4" ry="4"/>
<polygon fill="#05db3a" stroke="#05db3a" points="716.17,-180.369 717.78,-169.522 714.81,-175.558 713.45,-170.746 713.45,-170.746 713.45,-170.746 714.81,-175.558 709.12,-171.971 716.17,-180.369 716.17,-180.369"/>
</g>
<!-- Task -->
<g id="node8" class="node"><title>Task</title>
<path fill="none" stroke="black" d="M521.182,-208.5C521.182,-208.5 630.193,-208.5 630.193,-208.5 636.193,-208.5 642.193,-214.5 642.193,-220.5 642.193,-220.5 642.193,-366.5 642.193,-366.5 642.193,-372.5 636.193,-378.5 630.193,-378.5 630.193,-378.5 521.182,-378.5 521.182,-378.5 515.182,-378.5 509.182,-372.5 509.182,-366.5 509.182,-366.5 509.182,-220.5 509.182,-220.5 509.182,-214.5 515.182,-208.5 521.182,-208.5"/>
<text text-anchor="middle" x="575.688" y="-363.3" font-family="Times,serif" font-size="14.00">Task</text>
<polyline fill="none" stroke="black" points="509.182,-356.5 642.193,-356.5 "/>
<text text-anchor="start" x="517.182" y="-341.3" font-family="Times,serif" font-size="14.00">id :integer</text>
<text text-anchor="start" x="517.182" y="-327.3" font-family="Times,serif" font-size="14.00">type :string</text>
<text text-anchor="start" x="517.182" y="-313.3" font-family="Times,serif" font-size="14.00">user_id :integer</text>
<text text-anchor="start" x="517.182" y="-299.3" font-family="Times,serif" font-size="14.00">title :string</text>
<text text-anchor="start" x="517.182" y="-285.3" font-family="Times,serif" font-size="14.00">category_id :integer</text>
<text text-anchor="start" x="517.182" y="-271.3" font-family="Times,serif" font-size="14.00">description :text</text>
<text text-anchor="start" x="517.182" y="-257.3" font-family="Times,serif" font-size="14.00">price :string</text>
<text text-anchor="start" x="517.182" y="-243.3" font-family="Times,serif" font-size="14.00">expired_at :datetime</text>
<text text-anchor="start" x="517.182" y="-229.3" font-family="Times,serif" font-size="14.00">created_at :datetime</text>
<text text-anchor="start" x="517.182" y="-215.3" font-family="Times,serif" font-size="14.00">updated_at :datetime</text>
</g>
<!-- Category&#45;&gt;Task -->
<g id="edge3" class="edge"><title>Category&#45;&gt;Task</title>
<path fill="none" stroke="#227298" d="M728.888,-527.434C714.499,-490.02 692.299,-438.409 665.688,-397 660.455,-388.857 654.598,-380.701 648.451,-372.744"/>
<ellipse fill="none" stroke="#227298" cx="730.417" cy="-531.455" rx="4.00001" ry="4.00001"/>
<polygon fill="#227298" stroke="#227298" points="648.421,-372.706 645.749,-362.07 645.32,-368.783 642.219,-364.861 642.219,-364.861 642.219,-364.861 645.32,-368.783 638.689,-367.652 648.421,-372.706 648.421,-372.706"/>
</g>
<!-- Want -->
<g id="node10" class="node"><title>Want</title>
<path fill="none" stroke="black" d="M477.182,-0.5C477.182,-0.5 586.193,-0.5 586.193,-0.5 592.193,-0.5 598.193,-6.5 598.193,-12.5 598.193,-12.5 598.193,-158.5 598.193,-158.5 598.193,-164.5 592.193,-170.5 586.193,-170.5 586.193,-170.5 477.182,-170.5 477.182,-170.5 471.182,-170.5 465.182,-164.5 465.182,-158.5 465.182,-158.5 465.182,-12.5 465.182,-12.5 465.182,-6.5 471.182,-0.5 477.182,-0.5"/>
<text text-anchor="middle" x="531.688" y="-155.3" font-family="Times,serif" font-size="14.00">Want</text>
<polyline fill="none" stroke="black" points="465.182,-148.5 598.193,-148.5 "/>
<text text-anchor="start" x="473.182" y="-133.3" font-family="Times,serif" font-size="14.00">id :integer</text>
<text text-anchor="start" x="473.182" y="-119.3" font-family="Times,serif" font-size="14.00">type :string</text>
<text text-anchor="start" x="473.182" y="-105.3" font-family="Times,serif" font-size="14.00">user_id :integer</text>
<text text-anchor="start" x="473.182" y="-91.3" font-family="Times,serif" font-size="14.00">title :string</text>
<text text-anchor="start" x="473.182" y="-77.3" font-family="Times,serif" font-size="14.00">category_id :integer</text>
<text text-anchor="start" x="473.182" y="-63.3" font-family="Times,serif" font-size="14.00">description :text</text>
<text text-anchor="start" x="473.182" y="-49.3" font-family="Times,serif" font-size="14.00">price :string</text>
<text text-anchor="start" x="473.182" y="-35.3" font-family="Times,serif" font-size="14.00">expired_at :datetime</text>
<text text-anchor="start" x="473.182" y="-21.3" font-family="Times,serif" font-size="14.00">created_at :datetime</text>
<text text-anchor="start" x="473.182" y="-7.3" font-family="Times,serif" font-size="14.00">updated_at :datetime</text>
</g>
<!-- Category&#45;&gt;Want -->
<g id="edge5" class="edge"><title>Category&#45;&gt;Want</title>
<path fill="none" stroke="#de375f" d="M743.591,-527.005C736.921,-451.995 716.103,-309.129 651.688,-208 637.777,-186.161 625.339,-188.96 606.688,-171 606.436,-170.758 606.184,-170.515 605.932,-170.271"/>
<ellipse fill="none" stroke="#de375f" cx="743.962" cy="-531.383" rx="4" ry="4"/>
<polygon fill="#de375f" stroke="#de375f" points="605.717,-170.058 601.771,-159.826 602.162,-166.542 598.607,-163.026 598.607,-163.026 598.607,-163.026 602.162,-166.542 595.443,-166.225 605.717,-170.058 605.717,-170.058"/>
</g>
<!-- Message -->
<g id="node4" class="node"><title>Message</title>
<path fill="none" stroke="black" d="M293.182,-243.5C293.182,-243.5 402.193,-243.5 402.193,-243.5 408.193,-243.5 414.193,-249.5 414.193,-255.5 414.193,-255.5 414.193,-331.5 414.193,-331.5 414.193,-337.5 408.193,-343.5 402.193,-343.5 402.193,-343.5 293.182,-343.5 293.182,-343.5 287.182,-343.5 281.182,-337.5 281.182,-331.5 281.182,-331.5 281.182,-255.5 281.182,-255.5 281.182,-249.5 287.182,-243.5 293.182,-243.5"/>
<text text-anchor="middle" x="347.688" y="-328.3" font-family="Times,serif" font-size="14.00">Message</text>
<polyline fill="none" stroke="black" points="281.182,-321.5 414.193,-321.5 "/>
<text text-anchor="start" x="289.182" y="-306.3" font-family="Times,serif" font-size="14.00">id :integer</text>
<text text-anchor="start" x="289.182" y="-292.3" font-family="Times,serif" font-size="14.00">subject :string</text>
<text text-anchor="start" x="289.182" y="-278.3" font-family="Times,serif" font-size="14.00">body :text</text>
<text text-anchor="start" x="289.182" y="-264.3" font-family="Times,serif" font-size="14.00">created_at :datetime</text>
<text text-anchor="start" x="289.182" y="-250.3" font-family="Times,serif" font-size="14.00">updated_at :datetime</text>
</g>
<!-- Passing -->
<g id="node6" class="node"><title>Passing</title>
<path fill="none" stroke="black" d="M288.51,-35.5C288.51,-35.5 406.865,-35.5 406.865,-35.5 412.865,-35.5 418.865,-41.5 418.865,-47.5 418.865,-47.5 418.865,-123.5 418.865,-123.5 418.865,-129.5 412.865,-135.5 406.865,-135.5 406.865,-135.5 288.51,-135.5 288.51,-135.5 282.51,-135.5 276.51,-129.5 276.51,-123.5 276.51,-123.5 276.51,-47.5 276.51,-47.5 276.51,-41.5 282.51,-35.5 288.51,-35.5"/>
<text text-anchor="middle" x="347.688" y="-120.3" font-family="Times,serif" font-size="14.00">Passing</text>
<polyline fill="none" stroke="black" points="276.51,-113.5 418.865,-113.5 "/>
<text text-anchor="start" x="284.51" y="-98.3" font-family="Times,serif" font-size="14.00">id :integer</text>
<text text-anchor="start" x="284.51" y="-84.3" font-family="Times,serif" font-size="14.00">message_id :integer</text>
<text text-anchor="start" x="284.51" y="-70.3" font-family="Times,serif" font-size="14.00">user_id :integer</text>
<text text-anchor="start" x="284.51" y="-56.3" font-family="Times,serif" font-size="14.00">companion_id :integer</text>
<text text-anchor="start" x="284.51" y="-42.3" font-family="Times,serif" font-size="14.00">direction :string</text>
</g>
<!-- Message&#45;&gt;Passing -->
<g id="edge7" class="edge"><title>Message&#45;&gt;Passing</title>
<path fill="none" stroke="#48deb6" d="M347.688,-235.204C347.688,-207.309 347.688,-173.804 347.688,-145.665"/>
<ellipse fill="none" stroke="#48deb6" cx="347.688" cy="-239.42" rx="4" ry="4"/>
<polygon fill="#48deb6" stroke="#48deb6" points="347.688,-145.561 352.188,-135.561 347.688,-140.561 347.688,-135.561 347.688,-135.561 347.688,-135.561 347.688,-140.561 343.188,-135.561 347.688,-145.561 347.688,-145.561"/>
</g>
<!-- Task&#45;&gt;Offering -->
<g id="edge9" class="edge"><title>Task&#45;&gt;Offering</title>
<path fill="none" stroke="black" d="M619.363,-208.415C625.835,-195.955 632.506,-183.112 638.979,-170.65"/>
</g>
<!-- Task&#45;&gt;Want -->
<g id="edge21" class="edge"><title>Task&#45;&gt;Want</title>
<path fill="none" stroke="black" d="M557.728,-208.415C555.066,-195.955 552.323,-183.112 549.662,-170.65"/>
</g>
<!-- User -->
<g id="node9" class="node"><title>User</title>
<path fill="none" stroke="black" d="M346.41,-416.5C346.41,-416.5 526.966,-416.5 526.966,-416.5 532.966,-416.5 538.966,-422.5 538.966,-428.5 538.966,-428.5 538.966,-728.5 538.966,-728.5 538.966,-734.5 532.966,-740.5 526.966,-740.5 526.966,-740.5 346.41,-740.5 346.41,-740.5 340.41,-740.5 334.41,-734.5 334.41,-728.5 334.41,-728.5 334.41,-428.5 334.41,-428.5 334.41,-422.5 340.41,-416.5 346.41,-416.5"/>
<text text-anchor="middle" x="436.688" y="-725.3" font-family="Times,serif" font-size="14.00">User</text>
<polyline fill="none" stroke="black" points="334.41,-718.5 538.966,-718.5 "/>
<text text-anchor="start" x="342.41" y="-703.3" font-family="Times,serif" font-size="14.00">id :integer</text>
<text text-anchor="start" x="342.41" y="-689.3" font-family="Times,serif" font-size="14.00">email :string</text>
<text text-anchor="start" x="342.41" y="-675.3" font-family="Times,serif" font-size="14.00">encrypted_password :string</text>
<text text-anchor="start" x="342.41" y="-661.3" font-family="Times,serif" font-size="14.00">reset_password_token :string</text>
<text text-anchor="start" x="342.41" y="-647.3" font-family="Times,serif" font-size="14.00">reset_password_sent_at :datetime</text>
<text text-anchor="start" x="342.41" y="-633.3" font-family="Times,serif" font-size="14.00">remember_created_at :datetime</text>
<text text-anchor="start" x="342.41" y="-619.3" font-family="Times,serif" font-size="14.00">sign_in_count :integer</text>
<text text-anchor="start" x="342.41" y="-605.3" font-family="Times,serif" font-size="14.00">current_sign_in_at :datetime</text>
<text text-anchor="start" x="342.41" y="-591.3" font-family="Times,serif" font-size="14.00">last_sign_in_at :datetime</text>
<text text-anchor="start" x="342.41" y="-577.3" font-family="Times,serif" font-size="14.00">current_sign_in_ip :string</text>
<text text-anchor="start" x="342.41" y="-563.3" font-family="Times,serif" font-size="14.00">last_sign_in_ip :string</text>
<text text-anchor="start" x="342.41" y="-549.3" font-family="Times,serif" font-size="14.00">confirmation_token :string</text>
<text text-anchor="start" x="342.41" y="-535.3" font-family="Times,serif" font-size="14.00">confirmed_at :datetime</text>
<text text-anchor="start" x="342.41" y="-521.3" font-family="Times,serif" font-size="14.00">confirmation_sent_at :datetime</text>
<text text-anchor="start" x="342.41" y="-507.3" font-family="Times,serif" font-size="14.00">unconfirmed_email :string</text>
<text text-anchor="start" x="342.41" y="-493.3" font-family="Times,serif" font-size="14.00">failed_attempts :integer</text>
<text text-anchor="start" x="342.41" y="-479.3" font-family="Times,serif" font-size="14.00">unlock_token :string</text>
<text text-anchor="start" x="342.41" y="-465.3" font-family="Times,serif" font-size="14.00">locked_at :datetime</text>
<text text-anchor="start" x="342.41" y="-451.3" font-family="Times,serif" font-size="14.00">created_at :datetime</text>
<text text-anchor="start" x="342.41" y="-437.3" font-family="Times,serif" font-size="14.00">updated_at :datetime</text>
<text text-anchor="start" x="342.41" y="-423.3" font-family="Times,serif" font-size="14.00">name :string</text>
</g>
<!-- User&#45;&gt;Account -->
<g id="edge19" class="edge"><title>User&#45;&gt;Account</title>
<path fill="none" stroke="#2347ec" d="M328.701,-467.966C288.645,-427.335 244.931,-382.994 211.726,-349.313"/>
<ellipse fill="none" stroke="#2347ec" cx="331.574" cy="-470.88" rx="4.00002" ry="4.00002"/>
<ellipse fill="#2347ec" stroke="#2347ec" cx="208.88" cy="-346.426" rx="4.00002" ry="4.00002"/>
</g>
<!-- User&#45;&gt;Message -->
<g id="edge17" class="edge"><title>User&#45;&gt;Message</title>
<path fill="none" stroke="#016e78" d="M382.861,-406.343C376.931,-387.486 371.232,-369.365 366.212,-353.402"/>
<polygon fill="#016e78" stroke="#016e78" points="382.948,-406.62 381.656,-417.51 384.448,-411.39 385.948,-416.16 385.948,-416.16 385.948,-416.16 384.448,-411.39 390.241,-414.81 382.948,-406.62 382.948,-406.62"/>
<polygon fill="#016e78" stroke="#016e78" points="366.178,-353.294 367.47,-342.404 364.678,-348.524 363.178,-343.754 363.178,-343.754 363.178,-343.754 364.678,-348.524 358.885,-345.104 366.178,-353.294 366.178,-353.294"/>
</g>
<!-- User&#45;&gt;Offering -->
<g id="edge14" class="edge"><title>User&#45;&gt;Offering</title>
<path fill="none" stroke="#154cb6" d="M545.584,-503.434C585.709,-470.243 627.285,-427.587 651.688,-379 682.399,-317.852 689.453,-240.578 689.201,-180.814"/>
<ellipse fill="none" stroke="#154cb6" cx="542.258" cy="-506.15" rx="4.00002" ry="4.00002"/>
<polygon fill="#154cb6" stroke="#154cb6" points="689.199,-180.623 693.587,-170.574 689.144,-175.624 689.088,-170.624 689.088,-170.624 689.088,-170.624 689.144,-175.624 684.588,-170.674 689.199,-180.623 689.199,-180.623"/>
</g>
<!-- User&#45;&gt;Passing -->
<g id="edge16" class="edge"><title>User&#45;&gt;Passing</title>
<path fill="none" stroke="#20fd38" d="M449.047,-408.113C448.99,-344.18 443.148,-271.569 423.688,-208 416.836,-185.618 404.756,-163.278 392.217,-143.971"/>
<ellipse fill="none" stroke="#20fd38" cx="449.035" cy="-412.267" rx="4" ry="4"/>
<polygon fill="#20fd38" stroke="#20fd38" points="392.187,-143.927 390.378,-133.111 389.411,-139.768 386.635,-135.609 386.635,-135.609 386.635,-135.609 389.411,-139.768 382.892,-138.108 392.187,-143.927 392.187,-143.927"/>
</g>
<!-- User&#45;&gt;Task -->
<g id="edge13" class="edge"><title>User&#45;&gt;Task</title>
<path fill="none" stroke="#b46ede" d="M519.486,-408.925C523.001,-401.77 526.468,-394.71 529.85,-387.824"/>
<ellipse fill="none" stroke="#b46ede" cx="517.696" cy="-412.57" rx="4.00002" ry="4.00002"/>
<polygon fill="#b46ede" stroke="#b46ede" points="529.998,-387.523 538.446,-380.531 532.202,-383.035 534.406,-378.547 534.406,-378.547 534.406,-378.547 532.202,-383.035 530.367,-376.564 529.998,-387.523 529.998,-387.523"/>
</g>
<!-- User&#45;&gt;User -->
<g id="edge18" class="edge"><title>User&#45;&gt;User</title>
<path fill="none" stroke="#072764" d="M547.809,-600.581C553.563,-595.13 556.966,-587.77 556.966,-578.5 556.966,-569.23 553.563,-561.87 547.809,-556.419"/>
<polygon fill="#072764" stroke="#072764" points="547.555,-600.757 536.775,-602.768 543.449,-603.61 539.343,-606.464 539.343,-606.464 539.343,-606.464 543.449,-603.61 541.911,-610.159 547.555,-600.757 547.555,-600.757"/>
<polygon fill="#072764" stroke="#072764" points="547.555,-556.243 541.911,-546.841 543.449,-553.39 539.343,-550.536 539.343,-550.536 539.343,-550.536 543.449,-553.39 536.775,-554.232 547.555,-556.243 547.555,-556.243"/>
<text text-anchor="middle" x="590.793" y="-574.3" font-family="Times,serif" font-size="14.00">companions</text>
</g>
<!-- User&#45;&gt;Want -->
<g id="edge15" class="edge"><title>User&#45;&gt;Want</title>
<path fill="none" stroke="#6b91e3" d="M462.293,-408.35C472.695,-345.234 485.592,-273.11 499.688,-208 501.64,-198.981 503.821,-189.625 506.102,-180.289"/>
<ellipse fill="none" stroke="#6b91e3" cx="461.62" cy="-412.45" rx="4.00001" ry="4.00001"/>
<polygon fill="#6b91e3" stroke="#6b91e3" points="506.102,-180.289 512.877,-171.666 507.306,-175.436 508.51,-170.583 508.51,-170.583 508.51,-170.583 507.306,-175.436 504.142,-169.5 506.102,-180.289 506.102,-180.289"/>
</g>
<!-- ActiveRecord::Base -->
<g id="node11" class="node"><title>ActiveRecord::Base</title>
<ellipse fill="none" stroke="black" cx="306.688" cy="-814.5" rx="81.1422" ry="18"/>
<text text-anchor="middle" x="306.688" y="-810.3" font-family="Times,serif" font-size="14.00">ActiveRecord::Base</text>
</g>
<!-- ActiveRecord::Base&#45;&gt;Account -->
<g id="edge2" class="edge"><title>ActiveRecord::Base&#45;&gt;Account</title>
<path fill="none" stroke="black" d="M277.675,-797.578C263.706,-788.412 248.005,-775.606 238.688,-760 158.477,-625.65 152.828,-433.067 155.159,-343.624"/>
</g>
<!-- ActiveRecord::Base&#45;&gt;Category -->
<g id="edge6" class="edge"><title>ActiveRecord::Base&#45;&gt;Category</title>
<path fill="none" stroke="black" d="M386.151,-810.418C478.269,-805.365 622.935,-792.397 665.688,-760 709.762,-726.601 730.437,-663.82 739.711,-621.824"/>
</g>
<!-- ActiveRecord::Base&#45;&gt;Message -->
<g id="edge8" class="edge"><title>ActiveRecord::Base&#45;&gt;Message</title>
<path fill="none" stroke="black" d="M306.704,-796.389C306.928,-741.135 308.99,-562.557 325.688,-416 328.418,-392.039 332.997,-365.673 337.273,-343.644"/>
</g>
<!-- ActiveRecord::Base&#45;&gt;Passing -->
<g id="edge10" class="edge"><title>ActiveRecord::Base&#45;&gt;Passing</title>
<path fill="none" stroke="black" d="M301.587,-796.185C280.879,-723.028 207.203,-432.689 271.688,-208 279.066,-182.291 293.649,-156.749 308.085,-135.767"/>
</g>
<!-- ActiveRecord::Base&#45;&gt;Payment -->
<g id="edge11" class="edge"><title>ActiveRecord::Base&#45;&gt;Payment</title>
<path fill="none" stroke="black" d="M269.733,-798.301C226.421,-780.169 159.519,-751.046 151.688,-741 19.3532,-571.244 46.6603,-296.624 70.2608,-163.607"/>
</g>
<!-- ActiveRecord::Base&#45;&gt;Task -->
<g id="edge12" class="edge"><title>ActiveRecord::Base&#45;&gt;Task</title>
<path fill="none" stroke="black" d="M381.901,-807.468C468.212,-798.801 601.853,-779.445 632.688,-741 677.875,-684.66 648.401,-486.492 632.688,-416 629.925,-403.606 625.755,-390.982 620.903,-378.789"/>
</g>
<!-- ActiveRecord::Base&#45;&gt;User -->
<g id="edge20" class="edge"><title>ActiveRecord::Base&#45;&gt;User</title>
<path fill="none" stroke="black" d="M316.247,-796.293C323.635,-782.995 334.681,-763.112 347.137,-740.691"/>
</g>
</g>
</svg>
