<?xml version="1.0" encoding="UTF-8" standalone="no"?>
<!DOCTYPE svg PUBLIC "-//W3C//DTD SVG 1.1//EN"
 "http://www.w3.org/Graphics/SVG/1.1/DTD/svg11.dtd">
<!-- Generated by graphviz version 2.38.0 (20140413.2041)
 -->
<!-- Title: models_diagram Pages: 1 -->
<svg width="1030pt" height="1233pt"
 viewBox="0.00 0.00 1030.24 1233.00" xmlns="http://www.w3.org/2000/svg" xmlns:xlink="http://www.w3.org/1999/xlink">
<g id="graph0" class="graph" transform="scale(1 1) rotate(0) translate(4 1229)">
<title>models_diagram</title>
<polygon fill="white" stroke="none" points="-4,4 -4,-1229 1026.24,-1229 1026.24,4 -4,4"/>
<!-- _diagram_info -->
<g id="node1" class="node"><title>_diagram_info</title>
<text text-anchor="start" x="135.892" y="-1175.6" font-family="Times,serif" font-size="13.00">Models diagram</text>
<text text-anchor="start" x="135.892" y="-1162.6" font-family="Times,serif" font-size="13.00">Date: Aug 12 2015 &#45; 16:01</text>
<text text-anchor="start" x="135.892" y="-1149.6" font-family="Times,serif" font-size="13.00">Migration version: 20150812051658</text>
<text text-anchor="start" x="135.892" y="-1136.6" font-family="Times,serif" font-size="13.00">Generated by RailRoady 1.3.0</text>
<text text-anchor="start" x="135.892" y="-1123.6" font-family="Times,serif" font-size="13.00">http://railroady.prestonlee.com</text>
</g>
<!-- Ability -->
<g id="node2" class="node"><title>Ability</title>
<polygon fill="none" stroke="black" points="353.746,-1131.5 353.746,-1175.5 409.414,-1175.5 409.414,-1131.5 353.746,-1131.5"/>
<text text-anchor="middle" x="381.58" y="-1160.3" font-family="Times,serif" font-size="14.00">Ability</text>
<polyline fill="none" stroke="black" points="353.746,-1153.5 409.414,-1153.5 "/>
<text text-anchor="middle" x="381.58" y="-1138.3" font-family="Times,serif" font-size="14.00"> </text>
</g>
<!-- Account -->
<g id="node3" class="node"><title>Account</title>
<path fill="none" stroke="black" d="M439.075,-1103.5C439.075,-1103.5 548.085,-1103.5 548.085,-1103.5 554.085,-1103.5 560.085,-1109.5 560.085,-1115.5 560.085,-1115.5 560.085,-1191.5 560.085,-1191.5 560.085,-1197.5 554.085,-1203.5 548.085,-1203.5 548.085,-1203.5 439.075,-1203.5 439.075,-1203.5 433.075,-1203.5 427.075,-1197.5 427.075,-1191.5 427.075,-1191.5 427.075,-1115.5 427.075,-1115.5 427.075,-1109.5 433.075,-1103.5 439.075,-1103.5"/>
<text text-anchor="middle" x="493.58" y="-1188.3" font-family="Times,serif" font-size="14.00">Account</text>
<polyline fill="none" stroke="black" points="427.075,-1181.5 560.085,-1181.5 "/>
<text text-anchor="start" x="435.075" y="-1166.3" font-family="Times,serif" font-size="14.00">id :integer</text>
<text text-anchor="start" x="435.075" y="-1152.3" font-family="Times,serif" font-size="14.00">user_id :integer</text>
<text text-anchor="start" x="435.075" y="-1138.3" font-family="Times,serif" font-size="14.00">balance :integer</text>
<text text-anchor="start" x="435.075" y="-1124.3" font-family="Times,serif" font-size="14.00">created_at :datetime</text>
<text text-anchor="start" x="435.075" y="-1110.3" font-family="Times,serif" font-size="14.00">updated_at :datetime</text>
</g>
<!-- Payment -->
<g id="node12" class="node"><title>Payment</title>
<path fill="none" stroke="black" d="M60.5536,-756.5C60.5536,-756.5 242.606,-756.5 242.606,-756.5 248.606,-756.5 254.606,-762.5 254.606,-768.5 254.606,-768.5 254.606,-942.5 254.606,-942.5 254.606,-948.5 248.606,-954.5 242.606,-954.5 242.606,-954.5 60.5536,-954.5 60.5536,-954.5 54.5536,-954.5 48.5536,-948.5 48.5536,-942.5 48.5536,-942.5 48.5536,-768.5 48.5536,-768.5 48.5536,-762.5 54.5536,-756.5 60.5536,-756.5"/>
<text text-anchor="middle" x="151.58" y="-939.3" font-family="Times,serif" font-size="14.00">Payment</text>
<polyline fill="none" stroke="black" points="48.5536,-932.5 254.606,-932.5 "/>
<text text-anchor="start" x="56.5536" y="-917.3" font-family="Times,serif" font-size="14.00">id :integer</text>
<text text-anchor="start" x="56.5536" y="-903.3" font-family="Times,serif" font-size="14.00">sender_id :integer</text>
<text text-anchor="start" x="56.5536" y="-889.3" font-family="Times,serif" font-size="14.00">recepient_id :integer</text>
<text text-anchor="start" x="56.5536" y="-875.3" font-family="Times,serif" font-size="14.00">subject :string</text>
<text text-anchor="start" x="56.5536" y="-861.3" font-family="Times,serif" font-size="14.00">amount :integer</text>
<text text-anchor="start" x="56.5536" y="-847.3" font-family="Times,serif" font-size="14.00">sender_balance_after :integer</text>
<text text-anchor="start" x="56.5536" y="-833.3" font-family="Times,serif" font-size="14.00">comment :text</text>
<text text-anchor="start" x="56.5536" y="-819.3" font-family="Times,serif" font-size="14.00">created_at :datetime</text>
<text text-anchor="start" x="56.5536" y="-805.3" font-family="Times,serif" font-size="14.00">updated_at :datetime</text>
<text text-anchor="start" x="56.5536" y="-791.3" font-family="Times,serif" font-size="14.00">sender_balance_before :integer</text>
<text text-anchor="start" x="56.5536" y="-777.3" font-family="Times,serif" font-size="14.00">recepient_balance_before :integer</text>
<text text-anchor="start" x="56.5536" y="-763.3" font-family="Times,serif" font-size="14.00">recepient_balance_after :integer</text>
</g>
<!-- Account&#45;&gt;Payment -->
<g id="edge1" class="edge"><title>Account&#45;&gt;Payment</title>
<path fill="none" stroke="#f7501b" d="M440.892,-1097.76C433.754,-1091.95 426.238,-1086.52 418.58,-1082 356.246,-1045.2 320.878,-1076.23 263.58,-1032 239.802,-1013.64 219.66,-988.712 203.297,-963.406"/>
<ellipse fill="none" stroke="#f7501b" cx="444.276" cy="-1100.61" rx="4.00002" ry="4.00002"/>
<polygon fill="#f7501b" stroke="#f7501b" points="203.22,-963.282 201.702,-952.422 200.557,-959.051 197.894,-954.819 197.894,-954.819 197.894,-954.819 200.557,-959.051 194.085,-957.215 203.22,-963.282 203.22,-963.282"/>
<text text-anchor="middle" x="400.742" y="-1052.8" font-family="Times,serif" font-size="14.00">withdraws</text>
</g>
<!-- Account&#45;&gt;Payment -->
<g id="edge2" class="edge"><title>Account&#45;&gt;Payment</title>
<path fill="none" stroke="#a78367" d="M443.87,-1097.83C435.977,-1091.62 427.466,-1086.07 418.58,-1082 348.741,-1050.02 309.087,-1108.8 246.69,-1064 213.379,-1040.08 191.457,-1001.6 177.161,-964.23"/>
<ellipse fill="none" stroke="#a78367" cx="447.265" cy="-1100.63" rx="4.00002" ry="4.00002"/>
<polygon fill="#a78367" stroke="#a78367" points="177.132,-964.151 177.912,-953.213 175.41,-959.457 173.688,-954.763 173.688,-954.763 173.688,-954.763 175.41,-959.457 169.463,-956.312 177.132,-964.151 177.132,-964.151"/>
<text text-anchor="middle" x="270.525" y="-1052.8" font-family="Times,serif" font-size="14.00">deposits</text>
</g>
<!-- User -->
<g id="node16" class="node"><title>User</title>
<path fill="none" stroke="black" d="M436.302,-679.5C436.302,-679.5 616.858,-679.5 616.858,-679.5 622.858,-679.5 628.858,-685.5 628.858,-691.5 628.858,-691.5 628.858,-1019.5 628.858,-1019.5 628.858,-1025.5 622.858,-1031.5 616.858,-1031.5 616.858,-1031.5 436.302,-1031.5 436.302,-1031.5 430.302,-1031.5 424.302,-1025.5 424.302,-1019.5 424.302,-1019.5 424.302,-691.5 424.302,-691.5 424.302,-685.5 430.302,-679.5 436.302,-679.5"/>
<text text-anchor="middle" x="526.58" y="-1016.3" font-family="Times,serif" font-size="14.00">User</text>
<polyline fill="none" stroke="black" points="424.302,-1009.5 628.858,-1009.5 "/>
<text text-anchor="start" x="432.302" y="-994.3" font-family="Times,serif" font-size="14.00">id :integer</text>
<text text-anchor="start" x="432.302" y="-980.3" font-family="Times,serif" font-size="14.00">email :string</text>
<text text-anchor="start" x="432.302" y="-966.3" font-family="Times,serif" font-size="14.00">encrypted_password :string</text>
<text text-anchor="start" x="432.302" y="-952.3" font-family="Times,serif" font-size="14.00">reset_password_token :string</text>
<text text-anchor="start" x="432.302" y="-938.3" font-family="Times,serif" font-size="14.00">reset_password_sent_at :datetime</text>
<text text-anchor="start" x="432.302" y="-924.3" font-family="Times,serif" font-size="14.00">remember_created_at :datetime</text>
<text text-anchor="start" x="432.302" y="-910.3" font-family="Times,serif" font-size="14.00">sign_in_count :integer</text>
<text text-anchor="start" x="432.302" y="-896.3" font-family="Times,serif" font-size="14.00">current_sign_in_at :datetime</text>
<text text-anchor="start" x="432.302" y="-882.3" font-family="Times,serif" font-size="14.00">last_sign_in_at :datetime</text>
<text text-anchor="start" x="432.302" y="-868.3" font-family="Times,serif" font-size="14.00">current_sign_in_ip :string</text>
<text text-anchor="start" x="432.302" y="-854.3" font-family="Times,serif" font-size="14.00">last_sign_in_ip :string</text>
<text text-anchor="start" x="432.302" y="-840.3" font-family="Times,serif" font-size="14.00">confirmation_token :string</text>
<text text-anchor="start" x="432.302" y="-826.3" font-family="Times,serif" font-size="14.00">confirmed_at :datetime</text>
<text text-anchor="start" x="432.302" y="-812.3" font-family="Times,serif" font-size="14.00">confirmation_sent_at :datetime</text>
<text text-anchor="start" x="432.302" y="-798.3" font-family="Times,serif" font-size="14.00">unconfirmed_email :string</text>
<text text-anchor="start" x="432.302" y="-784.3" font-family="Times,serif" font-size="14.00">failed_attempts :integer</text>
<text text-anchor="start" x="432.302" y="-770.3" font-family="Times,serif" font-size="14.00">unlock_token :string</text>
<text text-anchor="start" x="432.302" y="-756.3" font-family="Times,serif" font-size="14.00">locked_at :datetime</text>
<text text-anchor="start" x="432.302" y="-742.3" font-family="Times,serif" font-size="14.00">created_at :datetime</text>
<text text-anchor="start" x="432.302" y="-728.3" font-family="Times,serif" font-size="14.00">updated_at :datetime</text>
<text text-anchor="start" x="432.302" y="-714.3" font-family="Times,serif" font-size="14.00">name :string</text>
<text text-anchor="start" x="432.302" y="-700.3" font-family="Times,serif" font-size="14.00">description :text</text>
<text text-anchor="start" x="432.302" y="-686.3" font-family="Times,serif" font-size="14.00">admin :boolean</text>
</g>
<!-- Account&#45;&gt;User -->
<g id="edge4" class="edge"><title>Account&#45;&gt;User</title>
<path fill="none" stroke="#b1ba07" d="M501.088,-1093.3C502.286,-1083.51 503.489,-1073.48 504.58,-1064 505.423,-1056.68 506.271,-1049.21 507.117,-1041.67"/>
<polygon fill="#b1ba07" stroke="#b1ba07" points="501.071,-1093.44 495.381,-1102.82 500.459,-1098.4 499.847,-1103.37 499.847,-1103.37 499.847,-1103.37 500.459,-1098.4 504.313,-1103.92 501.071,-1093.44 501.071,-1093.44"/>
<polygon fill="#b1ba07" stroke="#b1ba07" points="507.119,-1041.65 512.701,-1032.22 507.674,-1036.69 508.229,-1031.72 508.229,-1031.72 508.229,-1031.72 507.674,-1036.69 503.757,-1031.22 507.119,-1041.65 507.119,-1041.65"/>
<text text-anchor="middle" x="532.228" y="-1052.8" font-family="Times,serif" font-size="14.00">recepient</text>
</g>
<!-- Sender -->
<g id="node18" class="node"><title>Sender</title>
<ellipse fill="none" stroke="black" cx="987.58" cy="-855.5" rx="34.8285" ry="18"/>
<text text-anchor="middle" x="987.58" y="-851.3" font-family="Times,serif" font-size="14.00">Sender</text>
</g>
<!-- Account&#45;&gt;Sender -->
<g id="edge3" class="edge"><title>Account&#45;&gt;Sender</title>
<path fill="none" stroke="#973312" d="M544.822,-1096.94C552.293,-1091.14 560.282,-1085.94 568.58,-1082 720.454,-1009.85 818.156,-1143.98 943.58,-1032 985.773,-994.328 990.379,-922.821 989.399,-883.717"/>
<polygon fill="#973312" stroke="#973312" points="544.653,-1097.08 534.071,-1099.96 540.791,-1100.26 536.93,-1103.43 536.93,-1103.43 536.93,-1103.43 540.791,-1100.26 539.789,-1106.91 544.653,-1097.08 544.653,-1097.08"/>
<polygon fill="#973312" stroke="#973312" points="989.394,-883.594 993.498,-873.425 989.198,-878.598 989.001,-873.601 989.001,-873.601 989.001,-873.601 989.198,-878.598 984.505,-873.778 989.394,-883.594 989.394,-883.594"/>
</g>
<!-- Category -->
<g id="node4" class="node"><title>Category</title>
<path fill="none" stroke="black" d="M285.075,-812.5C285.075,-812.5 394.085,-812.5 394.085,-812.5 400.085,-812.5 406.085,-818.5 406.085,-824.5 406.085,-824.5 406.085,-886.5 406.085,-886.5 406.085,-892.5 400.085,-898.5 394.085,-898.5 394.085,-898.5 285.075,-898.5 285.075,-898.5 279.075,-898.5 273.075,-892.5 273.075,-886.5 273.075,-886.5 273.075,-824.5 273.075,-824.5 273.075,-818.5 279.075,-812.5 285.075,-812.5"/>
<text text-anchor="middle" x="339.58" y="-883.3" font-family="Times,serif" font-size="14.00">Category</text>
<polyline fill="none" stroke="black" points="273.075,-876.5 406.085,-876.5 "/>
<text text-anchor="start" x="281.075" y="-861.3" font-family="Times,serif" font-size="14.00">id :integer</text>
<text text-anchor="start" x="281.075" y="-847.3" font-family="Times,serif" font-size="14.00">name :string</text>
<text text-anchor="start" x="281.075" y="-833.3" font-family="Times,serif" font-size="14.00">created_at :datetime</text>
<text text-anchor="start" x="281.075" y="-819.3" font-family="Times,serif" font-size="14.00">updated_at :datetime</text>
</g>
<!-- Offering -->
<g id="node11" class="node"><title>Offering</title>
<path fill="none" stroke="black" d="M204.075,-444.5C204.075,-444.5 313.085,-444.5 313.085,-444.5 319.085,-444.5 325.085,-450.5 325.085,-456.5 325.085,-456.5 325.085,-616.5 325.085,-616.5 325.085,-622.5 319.085,-628.5 313.085,-628.5 313.085,-628.5 204.075,-628.5 204.075,-628.5 198.075,-628.5 192.075,-622.5 192.075,-616.5 192.075,-616.5 192.075,-456.5 192.075,-456.5 192.075,-450.5 198.075,-444.5 204.075,-444.5"/>
<text text-anchor="middle" x="258.58" y="-613.3" font-family="Times,serif" font-size="14.00">Offering</text>
<polyline fill="none" stroke="black" points="192.075,-606.5 325.085,-606.5 "/>
<text text-anchor="start" x="200.075" y="-591.3" font-family="Times,serif" font-size="14.00">id :integer</text>
<text text-anchor="start" x="200.075" y="-577.3" font-family="Times,serif" font-size="14.00">type :string</text>
<text text-anchor="start" x="200.075" y="-563.3" font-family="Times,serif" font-size="14.00">user_id :integer</text>
<text text-anchor="start" x="200.075" y="-549.3" font-family="Times,serif" font-size="14.00">title :string</text>
<text text-anchor="start" x="200.075" y="-535.3" font-family="Times,serif" font-size="14.00">category_id :integer</text>
<text text-anchor="start" x="200.075" y="-521.3" font-family="Times,serif" font-size="14.00">description :text</text>
<text text-anchor="start" x="200.075" y="-507.3" font-family="Times,serif" font-size="14.00">price :string</text>
<text text-anchor="start" x="200.075" y="-493.3" font-family="Times,serif" font-size="14.00">expired_at :datetime</text>
<text text-anchor="start" x="200.075" y="-479.3" font-family="Times,serif" font-size="14.00">created_at :datetime</text>
<text text-anchor="start" x="200.075" y="-465.3" font-family="Times,serif" font-size="14.00">updated_at :datetime</text>
<text text-anchor="start" x="200.075" y="-451.3" font-family="Times,serif" font-size="14.00">closed_at :datetime</text>
</g>
<!-- Category&#45;&gt;Offering -->
<g id="edge6" class="edge"><title>Category&#45;&gt;Offering</title>
<path fill="none" stroke="#687be8" d="M326.801,-804.49C315.455,-760.085 298.528,-693.84 284.374,-638.446"/>
<ellipse fill="none" stroke="#687be8" cx="327.834" cy="-808.529" rx="4.00001" ry="4.00001"/>
<polygon fill="#687be8" stroke="#687be8" points="284.332,-638.282 286.216,-627.479 283.094,-633.438 281.856,-628.593 281.856,-628.593 281.856,-628.593 283.094,-633.438 277.496,-629.707 284.332,-638.282 284.332,-638.282"/>
</g>
<!-- Task -->
<g id="node15" class="node"><title>Task</title>
<path fill="none" stroke="black" d="M53.0746,-444.5C53.0746,-444.5 162.085,-444.5 162.085,-444.5 168.085,-444.5 174.085,-450.5 174.085,-456.5 174.085,-456.5 174.085,-616.5 174.085,-616.5 174.085,-622.5 168.085,-628.5 162.085,-628.5 162.085,-628.5 53.0746,-628.5 53.0746,-628.5 47.0746,-628.5 41.0746,-622.5 41.0746,-616.5 41.0746,-616.5 41.0746,-456.5 41.0746,-456.5 41.0746,-450.5 47.0746,-444.5 53.0746,-444.5"/>
<text text-anchor="middle" x="107.58" y="-613.3" font-family="Times,serif" font-size="14.00">Task</text>
<polyline fill="none" stroke="black" points="41.0746,-606.5 174.085,-606.5 "/>
<text text-anchor="start" x="49.0746" y="-591.3" font-family="Times,serif" font-size="14.00">id :integer</text>
<text text-anchor="start" x="49.0746" y="-577.3" font-family="Times,serif" font-size="14.00">type :string</text>
<text text-anchor="start" x="49.0746" y="-563.3" font-family="Times,serif" font-size="14.00">user_id :integer</text>
<text text-anchor="start" x="49.0746" y="-549.3" font-family="Times,serif" font-size="14.00">title :string</text>
<text text-anchor="start" x="49.0746" y="-535.3" font-family="Times,serif" font-size="14.00">category_id :integer</text>
<text text-anchor="start" x="49.0746" y="-521.3" font-family="Times,serif" font-size="14.00">description :text</text>
<text text-anchor="start" x="49.0746" y="-507.3" font-family="Times,serif" font-size="14.00">price :string</text>
<text text-anchor="start" x="49.0746" y="-493.3" font-family="Times,serif" font-size="14.00">expired_at :datetime</text>
<text text-anchor="start" x="49.0746" y="-479.3" font-family="Times,serif" font-size="14.00">created_at :datetime</text>
<text text-anchor="start" x="49.0746" y="-465.3" font-family="Times,serif" font-size="14.00">updated_at :datetime</text>
<text text-anchor="start" x="49.0746" y="-451.3" font-family="Times,serif" font-size="14.00">closed_at :datetime</text>
</g>
<!-- Category&#45;&gt;Task -->
<g id="edge5" class="edge"><title>Category&#45;&gt;Task</title>
<path fill="none" stroke="#17e2ed" d="M330.359,-804.17C320.501,-764.568 300.939,-710.911 263.58,-679 239.154,-658.136 219.963,-679.326 193.58,-661 183.59,-654.061 174.389,-645.561 166.021,-636.298"/>
<ellipse fill="none" stroke="#17e2ed" cx="331.391" cy="-808.503" rx="4.00001" ry="4.00001"/>
<polygon fill="#17e2ed" stroke="#17e2ed" points="166.019,-636.295 162.898,-625.783 162.754,-632.508 159.49,-628.721 159.49,-628.721 159.49,-628.721 162.754,-632.508 156.081,-631.659 166.019,-636.295 166.019,-636.295"/>
</g>
<!-- Want -->
<g id="node17" class="node"><title>Want</title>
<path fill="none" stroke="black" d="M355.075,-444.5C355.075,-444.5 464.085,-444.5 464.085,-444.5 470.085,-444.5 476.085,-450.5 476.085,-456.5 476.085,-456.5 476.085,-616.5 476.085,-616.5 476.085,-622.5 470.085,-628.5 464.085,-628.5 464.085,-628.5 355.075,-628.5 355.075,-628.5 349.075,-628.5 343.075,-622.5 343.075,-616.5 343.075,-616.5 343.075,-456.5 343.075,-456.5 343.075,-450.5 349.075,-444.5 355.075,-444.5"/>
<text text-anchor="middle" x="409.58" y="-613.3" font-family="Times,serif" font-size="14.00">Want</text>
<polyline fill="none" stroke="black" points="343.075,-606.5 476.085,-606.5 "/>
<text text-anchor="start" x="351.075" y="-591.3" font-family="Times,serif" font-size="14.00">id :integer</text>
<text text-anchor="start" x="351.075" y="-577.3" font-family="Times,serif" font-size="14.00">type :string</text>
<text text-anchor="start" x="351.075" y="-563.3" font-family="Times,serif" font-size="14.00">user_id :integer</text>
<text text-anchor="start" x="351.075" y="-549.3" font-family="Times,serif" font-size="14.00">title :string</text>
<text text-anchor="start" x="351.075" y="-535.3" font-family="Times,serif" font-size="14.00">category_id :integer</text>
<text text-anchor="start" x="351.075" y="-521.3" font-family="Times,serif" font-size="14.00">description :text</text>
<text text-anchor="start" x="351.075" y="-507.3" font-family="Times,serif" font-size="14.00">price :string</text>
<text text-anchor="start" x="351.075" y="-493.3" font-family="Times,serif" font-size="14.00">expired_at :datetime</text>
<text text-anchor="start" x="351.075" y="-479.3" font-family="Times,serif" font-size="14.00">created_at :datetime</text>
<text text-anchor="start" x="351.075" y="-465.3" font-family="Times,serif" font-size="14.00">updated_at :datetime</text>
<text text-anchor="start" x="351.075" y="-451.3" font-family="Times,serif" font-size="14.00">closed_at :datetime</text>
</g>
<!-- Category&#45;&gt;Want -->
<g id="edge7" class="edge"><title>Category&#45;&gt;Want</title>
<path fill="none" stroke="#e8fd36" d="M350.623,-804.49C360.429,-760.085 375.057,-693.84 387.289,-638.446"/>
<ellipse fill="none" stroke="#e8fd36" cx="349.738" cy="-808.499" rx="4.00001" ry="4.00001"/>
<polygon fill="#e8fd36" stroke="#e8fd36" points="387.308,-638.358 393.859,-629.564 388.387,-633.476 389.465,-628.593 389.465,-628.593 389.465,-628.593 388.387,-633.476 385.071,-627.623 387.308,-638.358 387.308,-638.358"/>
</g>
<!-- Contract -->
<g id="node5" class="node"><title>Contract</title>
<path fill="none" stroke="black" d="M278.092,-180.5C278.092,-180.5 443.068,-180.5 443.068,-180.5 449.068,-180.5 455.068,-186.5 455.068,-192.5 455.068,-192.5 455.068,-394.5 455.068,-394.5 455.068,-400.5 449.068,-406.5 443.068,-406.5 443.068,-406.5 278.092,-406.5 278.092,-406.5 272.092,-406.5 266.092,-400.5 266.092,-394.5 266.092,-394.5 266.092,-192.5 266.092,-192.5 266.092,-186.5 272.092,-180.5 278.092,-180.5"/>
<text text-anchor="middle" x="360.58" y="-391.3" font-family="Times,serif" font-size="14.00">Contract</text>
<polyline fill="none" stroke="black" points="266.092,-384.5 455.068,-384.5 "/>
<text text-anchor="start" x="274.092" y="-369.3" font-family="Times,serif" font-size="14.00">id :integer</text>
<text text-anchor="start" x="274.092" y="-355.3" font-family="Times,serif" font-size="14.00">task_id :integer</text>
<text text-anchor="start" x="274.092" y="-341.3" font-family="Times,serif" font-size="14.00">user_id :integer</text>
<text text-anchor="start" x="274.092" y="-327.3" font-family="Times,serif" font-size="14.00">owner_contracted_at :datetime</text>
<text text-anchor="start" x="274.092" y="-313.3" font-family="Times,serif" font-size="14.00">paid_at :datetime</text>
<text text-anchor="start" x="274.092" y="-299.3" font-family="Times,serif" font-size="14.00">created_at :datetime</text>
<text text-anchor="start" x="274.092" y="-285.3" font-family="Times,serif" font-size="14.00">updated_at :datetime</text>
<text text-anchor="start" x="274.092" y="-271.3" font-family="Times,serif" font-size="14.00">type :string</text>
<text text-anchor="start" x="274.092" y="-257.3" font-family="Times,serif" font-size="14.00">expected_at :datetime</text>
<text text-anchor="start" x="274.092" y="-243.3" font-family="Times,serif" font-size="14.00">performed_at :datetime</text>
<text text-anchor="start" x="274.092" y="-229.3" font-family="Times,serif" font-size="14.00">owner_canceled_at :datetime</text>
<text text-anchor="start" x="274.092" y="-215.3" font-family="Times,serif" font-size="14.00">user_canceled_at :datetime</text>
<text text-anchor="start" x="274.092" y="-201.3" font-family="Times,serif" font-size="14.00">note :text</text>
<text text-anchor="start" x="274.092" y="-187.3" font-family="Times,serif" font-size="14.00">user_contracted_at :datetime</text>
</g>
<!-- Negotiation -->
<g id="node9" class="node"><title>Negotiation</title>
<path fill="none" stroke="black" d="M306.075,-0.5C306.075,-0.5 415.085,-0.5 415.085,-0.5 421.085,-0.5 427.085,-6.5 427.085,-12.5 427.085,-12.5 427.085,-130.5 427.085,-130.5 427.085,-136.5 421.085,-142.5 415.085,-142.5 415.085,-142.5 306.075,-142.5 306.075,-142.5 300.075,-142.5 294.075,-136.5 294.075,-130.5 294.075,-130.5 294.075,-12.5 294.075,-12.5 294.075,-6.5 300.075,-0.5 306.075,-0.5"/>
<text text-anchor="middle" x="360.58" y="-127.3" font-family="Times,serif" font-size="14.00">Negotiation</text>
<polyline fill="none" stroke="black" points="294.075,-120.5 427.085,-120.5 "/>
<text text-anchor="start" x="302.075" y="-105.3" font-family="Times,serif" font-size="14.00">id :integer</text>
<text text-anchor="start" x="302.075" y="-91.3" font-family="Times,serif" font-size="14.00">body :text</text>
<text text-anchor="start" x="302.075" y="-77.3" font-family="Times,serif" font-size="14.00">created_at :datetime</text>
<text text-anchor="start" x="302.075" y="-63.3" font-family="Times,serif" font-size="14.00">updated_at :datetime</text>
<text text-anchor="start" x="302.075" y="-49.3" font-family="Times,serif" font-size="14.00">sender_id :integer</text>
<text text-anchor="start" x="302.075" y="-35.3" font-family="Times,serif" font-size="14.00">recepient_id :integer</text>
<text text-anchor="start" x="302.075" y="-21.3" font-family="Times,serif" font-size="14.00">entry_id :integer</text>
<text text-anchor="start" x="302.075" y="-7.3" font-family="Times,serif" font-size="14.00">type :string</text>
</g>
<!-- Contract&#45;&gt;Negotiation -->
<g id="edge8" class="edge"><title>Contract&#45;&gt;Negotiation</title>
<path fill="none" stroke="#3b7373" d="M360.58,-172.145C360.58,-165.69 360.58,-159.283 360.58,-153.014"/>
<ellipse fill="none" stroke="#3b7373" cx="360.58" cy="-176.244" rx="4" ry="4"/>
<polygon fill="#3b7373" stroke="#3b7373" points="360.58,-152.61 365.08,-142.61 360.58,-147.61 360.58,-142.61 360.58,-142.61 360.58,-142.61 360.58,-147.61 356.08,-142.61 360.58,-152.61 360.58,-152.61"/>
</g>
<!-- Entrust -->
<g id="node6" class="node"><title>Entrust</title>
<path fill="none" stroke="black" d="M485.092,-180.5C485.092,-180.5 650.068,-180.5 650.068,-180.5 656.068,-180.5 662.068,-186.5 662.068,-192.5 662.068,-192.5 662.068,-394.5 662.068,-394.5 662.068,-400.5 656.068,-406.5 650.068,-406.5 650.068,-406.5 485.092,-406.5 485.092,-406.5 479.092,-406.5 473.092,-400.5 473.092,-394.5 473.092,-394.5 473.092,-192.5 473.092,-192.5 473.092,-186.5 479.092,-180.5 485.092,-180.5"/>
<text text-anchor="middle" x="567.58" y="-391.3" font-family="Times,serif" font-size="14.00">Entrust</text>
<polyline fill="none" stroke="black" points="473.092,-384.5 662.068,-384.5 "/>
<text text-anchor="start" x="481.092" y="-369.3" font-family="Times,serif" font-size="14.00">id :integer</text>
<text text-anchor="start" x="481.092" y="-355.3" font-family="Times,serif" font-size="14.00">task_id :integer</text>
<text text-anchor="start" x="481.092" y="-341.3" font-family="Times,serif" font-size="14.00">user_id :integer</text>
<text text-anchor="start" x="481.092" y="-327.3" font-family="Times,serif" font-size="14.00">owner_contracted_at :datetime</text>
<text text-anchor="start" x="481.092" y="-313.3" font-family="Times,serif" font-size="14.00">paid_at :datetime</text>
<text text-anchor="start" x="481.092" y="-299.3" font-family="Times,serif" font-size="14.00">created_at :datetime</text>
<text text-anchor="start" x="481.092" y="-285.3" font-family="Times,serif" font-size="14.00">updated_at :datetime</text>
<text text-anchor="start" x="481.092" y="-271.3" font-family="Times,serif" font-size="14.00">type :string</text>
<text text-anchor="start" x="481.092" y="-257.3" font-family="Times,serif" font-size="14.00">expected_at :datetime</text>
<text text-anchor="start" x="481.092" y="-243.3" font-family="Times,serif" font-size="14.00">performed_at :datetime</text>
<text text-anchor="start" x="481.092" y="-229.3" font-family="Times,serif" font-size="14.00">owner_canceled_at :datetime</text>
<text text-anchor="start" x="481.092" y="-215.3" font-family="Times,serif" font-size="14.00">user_canceled_at :datetime</text>
<text text-anchor="start" x="481.092" y="-201.3" font-family="Times,serif" font-size="14.00">note :text</text>
<text text-anchor="start" x="481.092" y="-187.3" font-family="Times,serif" font-size="14.00">user_contracted_at :datetime</text>
</g>
<!-- Entrust&#45;&gt;Negotiation -->
<g id="edge9" class="edge"><title>Entrust&#45;&gt;Negotiation</title>
<path fill="none" stroke="#2808c9" d="M467.379,-184.041C466.106,-182.685 464.839,-181.338 463.58,-180 454.172,-170.004 444.234,-159.528 434.392,-149.203"/>
<ellipse fill="none" stroke="#2808c9" cx="470.262" cy="-187.115" rx="4.00002" ry="4.00002"/>
<polygon fill="#2808c9" stroke="#2808c9" points="434.155,-148.954 430.507,-138.613 430.703,-145.337 427.251,-141.72 427.251,-141.72 427.251,-141.72 430.703,-145.337 423.995,-144.827 434.155,-148.954 434.155,-148.954"/>
</g>
<!-- Entry -->
<g id="node7" class="node"><title>Entry</title>
<path fill="none" stroke="black" d="M71.0917,-180.5C71.0917,-180.5 236.068,-180.5 236.068,-180.5 242.068,-180.5 248.068,-186.5 248.068,-192.5 248.068,-192.5 248.068,-394.5 248.068,-394.5 248.068,-400.5 242.068,-406.5 236.068,-406.5 236.068,-406.5 71.0917,-406.5 71.0917,-406.5 65.0917,-406.5 59.0917,-400.5 59.0917,-394.5 59.0917,-394.5 59.0917,-192.5 59.0917,-192.5 59.0917,-186.5 65.0917,-180.5 71.0917,-180.5"/>
<text text-anchor="middle" x="153.58" y="-391.3" font-family="Times,serif" font-size="14.00">Entry</text>
<polyline fill="none" stroke="black" points="59.0917,-384.5 248.068,-384.5 "/>
<text text-anchor="start" x="67.0917" y="-369.3" font-family="Times,serif" font-size="14.00">id :integer</text>
<text text-anchor="start" x="67.0917" y="-355.3" font-family="Times,serif" font-size="14.00">task_id :integer</text>
<text text-anchor="start" x="67.0917" y="-341.3" font-family="Times,serif" font-size="14.00">user_id :integer</text>
<text text-anchor="start" x="67.0917" y="-327.3" font-family="Times,serif" font-size="14.00">owner_contracted_at :datetime</text>
<text text-anchor="start" x="67.0917" y="-313.3" font-family="Times,serif" font-size="14.00">paid_at :datetime</text>
<text text-anchor="start" x="67.0917" y="-299.3" font-family="Times,serif" font-size="14.00">created_at :datetime</text>
<text text-anchor="start" x="67.0917" y="-285.3" font-family="Times,serif" font-size="14.00">updated_at :datetime</text>
<text text-anchor="start" x="67.0917" y="-271.3" font-family="Times,serif" font-size="14.00">type :string</text>
<text text-anchor="start" x="67.0917" y="-257.3" font-family="Times,serif" font-size="14.00">expected_at :datetime</text>
<text text-anchor="start" x="67.0917" y="-243.3" font-family="Times,serif" font-size="14.00">performed_at :datetime</text>
<text text-anchor="start" x="67.0917" y="-229.3" font-family="Times,serif" font-size="14.00">owner_canceled_at :datetime</text>
<text text-anchor="start" x="67.0917" y="-215.3" font-family="Times,serif" font-size="14.00">user_canceled_at :datetime</text>
<text text-anchor="start" x="67.0917" y="-201.3" font-family="Times,serif" font-size="14.00">note :text</text>
<text text-anchor="start" x="67.0917" y="-187.3" font-family="Times,serif" font-size="14.00">user_contracted_at :datetime</text>
</g>
<!-- Entry&#45;&gt;Negotiation -->
<g id="edge10" class="edge"><title>Entry&#45;&gt;Negotiation</title>
<path fill="none" stroke="#68c277" d="M253.781,-184.041C255.054,-182.685 256.321,-181.338 257.58,-180 266.988,-170.004 276.926,-159.528 286.768,-149.203"/>
<ellipse fill="none" stroke="#68c277" cx="250.898" cy="-187.115" rx="4.00002" ry="4.00002"/>
<polygon fill="#68c277" stroke="#68c277" points="287.005,-148.954 297.165,-144.827 290.457,-145.337 293.909,-141.72 293.909,-141.72 293.909,-141.72 290.457,-145.337 290.653,-138.613 287.005,-148.954 287.005,-148.954"/>
</g>
<!-- Message -->
<g id="node8" class="node"><title>Message</title>
<path fill="none" stroke="black" d="M808.075,-465.5C808.075,-465.5 917.085,-465.5 917.085,-465.5 923.085,-465.5 929.085,-471.5 929.085,-477.5 929.085,-477.5 929.085,-595.5 929.085,-595.5 929.085,-601.5 923.085,-607.5 917.085,-607.5 917.085,-607.5 808.075,-607.5 808.075,-607.5 802.075,-607.5 796.075,-601.5 796.075,-595.5 796.075,-595.5 796.075,-477.5 796.075,-477.5 796.075,-471.5 802.075,-465.5 808.075,-465.5"/>
<text text-anchor="middle" x="862.58" y="-592.3" font-family="Times,serif" font-size="14.00">Message</text>
<polyline fill="none" stroke="black" points="796.075,-585.5 929.085,-585.5 "/>
<text text-anchor="start" x="804.075" y="-570.3" font-family="Times,serif" font-size="14.00">id :integer</text>
<text text-anchor="start" x="804.075" y="-556.3" font-family="Times,serif" font-size="14.00">body :text</text>
<text text-anchor="start" x="804.075" y="-542.3" font-family="Times,serif" font-size="14.00">created_at :datetime</text>
<text text-anchor="start" x="804.075" y="-528.3" font-family="Times,serif" font-size="14.00">updated_at :datetime</text>
<text text-anchor="start" x="804.075" y="-514.3" font-family="Times,serif" font-size="14.00">sender_id :integer</text>
<text text-anchor="start" x="804.075" y="-500.3" font-family="Times,serif" font-size="14.00">recepient_id :integer</text>
<text text-anchor="start" x="804.075" y="-486.3" font-family="Times,serif" font-size="14.00">entry_id :integer</text>
<text text-anchor="start" x="804.075" y="-472.3" font-family="Times,serif" font-size="14.00">type :string</text>
</g>
<!-- Notification -->
<g id="node10" class="node"><title>Notification</title>
<path fill="none" stroke="black" d="M506.075,-472.5C506.075,-472.5 615.085,-472.5 615.085,-472.5 621.085,-472.5 627.085,-478.5 627.085,-484.5 627.085,-484.5 627.085,-588.5 627.085,-588.5 627.085,-594.5 621.085,-600.5 615.085,-600.5 615.085,-600.5 506.075,-600.5 506.075,-600.5 500.075,-600.5 494.075,-594.5 494.075,-588.5 494.075,-588.5 494.075,-484.5 494.075,-484.5 494.075,-478.5 500.075,-472.5 506.075,-472.5"/>
<text text-anchor="middle" x="560.58" y="-585.3" font-family="Times,serif" font-size="14.00">Notification</text>
<polyline fill="none" stroke="black" points="494.075,-578.5 627.085,-578.5 "/>
<text text-anchor="start" x="502.075" y="-563.3" font-family="Times,serif" font-size="14.00">id :integer</text>
<text text-anchor="start" x="502.075" y="-549.3" font-family="Times,serif" font-size="14.00">user_id :integer</text>
<text text-anchor="start" x="502.075" y="-535.3" font-family="Times,serif" font-size="14.00">body :string</text>
<text text-anchor="start" x="502.075" y="-521.3" font-family="Times,serif" font-size="14.00">url :string</text>
<text text-anchor="start" x="502.075" y="-507.3" font-family="Times,serif" font-size="14.00">read_at :datetime</text>
<text text-anchor="start" x="502.075" y="-493.3" font-family="Times,serif" font-size="14.00">created_at :datetime</text>
<text text-anchor="start" x="502.075" y="-479.3" font-family="Times,serif" font-size="14.00">updated_at :datetime</text>
</g>
<!-- Offering&#45;&gt;Contract -->
<g id="edge12" class="edge"><title>Offering&#45;&gt;Contract</title>
<path fill="none" stroke="#512966" d="M300.325,-436.866C303.204,-430.064 306.124,-423.166 309.046,-416.262"/>
<ellipse fill="none" stroke="#512966" cx="298.701" cy="-440.705" rx="4.00002" ry="4.00002"/>
<polygon fill="#512966" stroke="#512966" points="309.13,-416.062 317.172,-408.607 311.079,-411.457 313.028,-406.853 313.028,-406.853 313.028,-406.853 311.079,-411.457 308.884,-405.099 309.13,-416.062 309.13,-416.062"/>
</g>
<!-- Offering&#45;&gt;Entrust -->
<g id="edge13" class="edge"><title>Offering&#45;&gt;Entrust</title>
<path fill="none" stroke="#590568" d="M332.04,-445.028C332.551,-444.681 333.065,-444.338 333.58,-444 383.804,-411.042 412.397,-438.448 463.58,-407 463.877,-406.817 464.175,-406.633 464.471,-406.448"/>
<ellipse fill="none" stroke="#590568" cx="328.73" cy="-447.431" rx="4.00002" ry="4.00002"/>
<polygon fill="#590568" stroke="#590568" points="464.651,-406.329 475.472,-404.551 468.818,-403.565 472.985,-400.801 472.985,-400.801 472.985,-400.801 468.818,-403.565 470.497,-397.051 464.651,-406.329 464.651,-406.329"/>
</g>
<!-- Offering&#45;&gt;Entry -->
<g id="edge11" class="edge"><title>Offering&#45;&gt;Entry</title>
<path fill="none" stroke="#954468" d="M215.607,-436.866C212.643,-430.064 209.638,-423.166 206.63,-416.262"/>
<ellipse fill="none" stroke="#954468" cx="217.286" cy="-440.721" rx="4.00002" ry="4.00002"/>
<polygon fill="#954468" stroke="#954468" points="206.525,-416.02 206.656,-405.055 204.528,-411.437 202.53,-406.853 202.53,-406.853 202.53,-406.853 204.528,-411.437 198.405,-408.65 206.525,-416.02 206.525,-416.02"/>
</g>
<!-- Relationship -->
<g id="node13" class="node"><title>Relationship</title>
<path fill="none" stroke="black" d="M657.075,-486.5C657.075,-486.5 766.085,-486.5 766.085,-486.5 772.085,-486.5 778.085,-492.5 778.085,-498.5 778.085,-498.5 778.085,-574.5 778.085,-574.5 778.085,-580.5 772.085,-586.5 766.085,-586.5 766.085,-586.5 657.075,-586.5 657.075,-586.5 651.075,-586.5 645.075,-580.5 645.075,-574.5 645.075,-574.5 645.075,-498.5 645.075,-498.5 645.075,-492.5 651.075,-486.5 657.075,-486.5"/>
<text text-anchor="middle" x="711.58" y="-571.3" font-family="Times,serif" font-size="14.00">Relationship</text>
<polyline fill="none" stroke="black" points="645.075,-564.5 778.085,-564.5 "/>
<text text-anchor="start" x="653.075" y="-549.3" font-family="Times,serif" font-size="14.00">id :integer</text>
<text text-anchor="start" x="653.075" y="-535.3" font-family="Times,serif" font-size="14.00">follower_id :integer</text>
<text text-anchor="start" x="653.075" y="-521.3" font-family="Times,serif" font-size="14.00">followed_id :integer</text>
<text text-anchor="start" x="653.075" y="-507.3" font-family="Times,serif" font-size="14.00">created_at :datetime</text>
<text text-anchor="start" x="653.075" y="-493.3" font-family="Times,serif" font-size="14.00">updated_at :datetime</text>
</g>
<!-- Talk -->
<g id="node14" class="node"><title>Talk</title>
<path fill="none" stroke="black" d="M590.075,-1082.5C590.075,-1082.5 699.085,-1082.5 699.085,-1082.5 705.085,-1082.5 711.085,-1088.5 711.085,-1094.5 711.085,-1094.5 711.085,-1212.5 711.085,-1212.5 711.085,-1218.5 705.085,-1224.5 699.085,-1224.5 699.085,-1224.5 590.075,-1224.5 590.075,-1224.5 584.075,-1224.5 578.075,-1218.5 578.075,-1212.5 578.075,-1212.5 578.075,-1094.5 578.075,-1094.5 578.075,-1088.5 584.075,-1082.5 590.075,-1082.5"/>
<text text-anchor="middle" x="644.58" y="-1209.3" font-family="Times,serif" font-size="14.00">Talk</text>
<polyline fill="none" stroke="black" points="578.075,-1202.5 711.085,-1202.5 "/>
<text text-anchor="start" x="586.075" y="-1187.3" font-family="Times,serif" font-size="14.00">id :integer</text>
<text text-anchor="start" x="586.075" y="-1173.3" font-family="Times,serif" font-size="14.00">body :text</text>
<text text-anchor="start" x="586.075" y="-1159.3" font-family="Times,serif" font-size="14.00">created_at :datetime</text>
<text text-anchor="start" x="586.075" y="-1145.3" font-family="Times,serif" font-size="14.00">updated_at :datetime</text>
<text text-anchor="start" x="586.075" y="-1131.3" font-family="Times,serif" font-size="14.00">sender_id :integer</text>
<text text-anchor="start" x="586.075" y="-1117.3" font-family="Times,serif" font-size="14.00">recepient_id :integer</text>
<text text-anchor="start" x="586.075" y="-1103.3" font-family="Times,serif" font-size="14.00">entry_id :integer</text>
<text text-anchor="start" x="586.075" y="-1089.3" font-family="Times,serif" font-size="14.00">type :string</text>
</g>
<!-- Task&#45;&gt;Contract -->
<g id="edge15" class="edge"><title>Task&#45;&gt;Contract</title>
<path fill="none" stroke="#06642a" d="M180.794,-445.446C181.388,-444.959 181.983,-444.477 182.58,-444 211.312,-421.053 227.177,-429.081 256.58,-407 257.078,-406.626 257.577,-406.249 258.074,-405.869"/>
<ellipse fill="none" stroke="#06642a" cx="177.532" cy="-448.248" rx="4.00002" ry="4.00002"/>
<polygon fill="#06642a" stroke="#06642a" points="258.254,-405.727 268.886,-403.043 262.173,-402.622 266.091,-399.516 266.091,-399.516 266.091,-399.516 262.173,-402.622 263.297,-395.99 258.254,-405.727 258.254,-405.727"/>
</g>
<!-- Task&#45;&gt;Entrust -->
<g id="edge16" class="edge"><title>Task&#45;&gt;Entrust</title>
<path fill="none" stroke="#0488c9" d="M180.971,-444.915C181.505,-444.605 182.041,-444.299 182.58,-444 237.624,-413.388 407.65,-435.96 463.58,-407 463.779,-406.897 463.978,-406.793 464.177,-406.689"/>
<ellipse fill="none" stroke="#0488c9" cx="177.541" cy="-447.094" rx="4.00002" ry="4.00002"/>
<polygon fill="#0488c9" stroke="#0488c9" points="464.317,-406.609 475.232,-405.558 468.659,-404.129 473.001,-401.65 473.001,-401.65 473.001,-401.65 468.659,-404.129 470.769,-397.742 464.317,-406.609 464.317,-406.609"/>
</g>
<!-- Task&#45;&gt;Entry -->
<g id="edge14" class="edge"><title>Task&#45;&gt;Entry</title>
<path fill="none" stroke="#0eb8b8" d="M126.517,-436.284C127.733,-429.914 128.965,-423.461 130.198,-417"/>
<ellipse fill="none" stroke="#0eb8b8" cx="125.721" cy="-440.459" rx="4.00001" ry="4.00001"/>
<polygon fill="#0eb8b8" stroke="#0eb8b8" points="130.26,-416.675 136.555,-407.697 131.198,-411.764 132.135,-406.853 132.135,-406.853 132.135,-406.853 131.198,-411.764 127.715,-406.009 130.26,-416.675 130.26,-416.675"/>
</g>
<!-- User&#45;&gt;Account -->
<g id="edge17" class="edge"><title>User&#45;&gt;Account</title>
<path fill="none" stroke="#8562b8" d="M506.153,-1039.73C503.933,-1059.63 501.814,-1078.64 499.97,-1095.18"/>
<ellipse fill="none" stroke="#8562b8" cx="506.598" cy="-1035.73" rx="4.00001" ry="4.00001"/>
<ellipse fill="#8562b8" stroke="#8562b8" cx="499.51" cy="-1099.31" rx="4.00001" ry="4.00001"/>
</g>
<!-- User&#45;&gt;Contract -->
<g id="edge22" class="edge"><title>User&#45;&gt;Contract</title>
<path fill="none" stroke="#3b0c18" d="M636.921,-831.33C730.277,-805.797 860.111,-755.209 932.58,-661 954.115,-633.004 995.168,-505.177 938.58,-444 866.837,-366.439 559.657,-453.077 464.58,-407 464.483,-406.953 464.386,-406.906 464.288,-406.858"/>
<ellipse fill="none" stroke="#3b0c18" cx="632.998" cy="-832.385" rx="4.00001" ry="4.00001"/>
<polygon fill="#3b0c18" stroke="#3b0c18" points="464.203,-406.812 457.52,-398.118 459.797,-404.448 455.392,-402.083 455.392,-402.083 455.392,-402.083 459.797,-404.448 453.264,-406.048 464.203,-406.812 464.203,-406.812"/>
</g>
<!-- User&#45;&gt;Entrust -->
<g id="edge23" class="edge"><title>User&#45;&gt;Entrust</title>
<path fill="none" stroke="#b8cf9e" d="M636.603,-810.183C765.141,-757.891 961.673,-676.111 971.58,-661 1024.46,-580.344 1026.69,-523.151 971.58,-444 904.514,-347.672 767.835,-313.265 672.106,-301.061"/>
<ellipse fill="none" stroke="#b8cf9e" cx="632.71" cy="-811.765" rx="4.00001" ry="4.00001"/>
<polygon fill="#b8cf9e" stroke="#b8cf9e" points="672.028,-301.052 662.643,-295.38 667.064,-300.449 662.101,-299.847 662.101,-299.847 662.101,-299.847 667.064,-300.449 661.559,-304.314 672.028,-301.052 672.028,-301.052"/>
</g>
<!-- User&#45;&gt;Entry -->
<g id="edge21" class="edge"><title>User&#45;&gt;Entry</title>
<path fill="none" stroke="#8e43c3" d="M417.475,-680.21C416.846,-679.802 416.215,-679.398 415.58,-679 385.836,-660.331 293.414,-665.451 258.58,-661 157.515,-648.085 98.4073,-705.909 31.58,-629 -22.3496,-566.935 3.98741,-521.454 31.58,-444 36.9332,-428.973 44.5159,-414.364 53.3135,-400.537"/>
<ellipse fill="none" stroke="#8e43c3" cx="420.802" cy="-682.502" rx="4.00002" ry="4.00002"/>
<polygon fill="#8e43c3" stroke="#8e43c3" points="53.4222,-400.373 62.6924,-394.515 56.1807,-396.203 58.9392,-392.032 58.9392,-392.032 58.9392,-392.032 56.1807,-396.203 55.1859,-389.55 53.4222,-400.373 53.4222,-400.373"/>
</g>
<!-- User&#45;&gt;Message -->
<g id="edge24" class="edge"><title>User&#45;&gt;Message</title>
<path fill="none" stroke="#1feb52" d="M634.835,-711.854C658.896,-687.345 685.928,-664.256 714.828,-647 743.427,-629.924 759.418,-646.788 787.58,-629 793.908,-625.003 799.953,-620.29 805.669,-615.147"/>
<ellipse fill="none" stroke="#1feb52" cx="631.888" cy="-714.899" rx="4.00002" ry="4.00002"/>
<polygon fill="#1feb52" stroke="#1feb52" points="806.028,-614.803 816.365,-611.144 809.642,-611.348 813.255,-607.892 813.255,-607.892 813.255,-607.892 809.642,-611.348 810.145,-604.64 806.028,-614.803 806.028,-614.803"/>
<text text-anchor="middle" x="764.956" y="-649.8" font-family="Times,serif" font-size="14.00">sended_messages</text>
</g>
<!-- User&#45;&gt;Message -->
<g id="edge25" class="edge"><title>User&#45;&gt;Message</title>
<path fill="none" stroke="#f9728b" d="M636.206,-801.405C695.435,-768.06 765.971,-720.158 813.58,-661 823.94,-648.127 832.338,-632.789 839.062,-617.373"/>
<ellipse fill="none" stroke="#f9728b" cx="632.536" cy="-803.451" rx="4.00002" ry="4.00002"/>
<polygon fill="#f9728b" stroke="#f9728b" points="839.207,-617.023 847.192,-609.508 841.121,-612.404 843.035,-607.785 843.035,-607.785 843.035,-607.785 841.121,-612.404 838.878,-606.063 839.207,-617.023 839.207,-617.023"/>
<text text-anchor="middle" x="875.222" y="-649.8" font-family="Times,serif" font-size="14.00">received_messages</text>
</g>
<!-- User&#45;&gt;Notification -->
<g id="edge32" class="edge"><title>User&#45;&gt;Notification</title>
<path fill="none" stroke="#3956eb" d="M524.601,-671.118C525.414,-662.952 526.399,-654.882 527.58,-647 529.362,-635.111 532.147,-622.721 535.361,-610.731"/>
<ellipse fill="none" stroke="#3956eb" cx="524.212" cy="-675.33" rx="4" ry="4"/>
<polygon fill="#3956eb" stroke="#3956eb" points="535.452,-610.404 542.482,-601.988 536.8,-605.589 538.148,-600.774 538.148,-600.774 538.148,-600.774 536.8,-605.589 533.815,-599.561 535.452,-610.404 535.452,-610.404"/>
</g>
<!-- User&#45;&gt;Offering -->
<g id="edge19" class="edge"><title>User&#45;&gt;Offering</title>
<path fill="none" stroke="#47d845" d="M418.219,-681.632C417.343,-680.746 416.463,-679.869 415.58,-679 385.151,-649.065 365.787,-657.013 333.58,-629 333.318,-628.773 333.057,-628.544 332.796,-628.315"/>
<ellipse fill="none" stroke="#47d845" cx="421.172" cy="-684.703" rx="4.00002" ry="4.00002"/>
<polygon fill="#47d845" stroke="#47d845" points="332.65,-628.181 328.331,-618.101 328.968,-624.798 325.286,-621.415 325.286,-621.415 325.286,-621.415 328.968,-624.798 322.242,-624.729 332.65,-628.181 332.65,-628.181"/>
</g>
<!-- User&#45;&gt;Relationship -->
<g id="edge28" class="edge"><title>User&#45;&gt;Relationship</title>
<path fill="none" stroke="#81ae86" d="M535.162,-672.12C539.866,-663.07 545.609,-654.601 552.58,-647 578.386,-618.861 603.983,-648.88 636.58,-629 650.957,-620.232 663.817,-607.696 674.658,-594.704"/>
<ellipse fill="none" stroke="#81ae86" cx="533.345" cy="-675.894" rx="4.00002" ry="4.00002"/>
<polygon fill="#81ae86" stroke="#81ae86" points="674.902,-594.399 684.659,-589.394 678.022,-590.492 681.143,-586.585 681.143,-586.585 681.143,-586.585 678.022,-590.492 677.627,-583.777 674.902,-594.399 674.902,-594.399"/>
</g>
<!-- User&#45;&gt;Relationship -->
<g id="edge29" class="edge"><title>User&#45;&gt;Relationship</title>
<path fill="none" stroke="#3f2629" d="M554.191,-671.78C559.421,-662.862 565.519,-654.511 572.621,-647 592.91,-625.543 611.867,-645.165 636.58,-629 650.388,-619.968 662.915,-607.596 673.605,-594.868"/>
<ellipse fill="none" stroke="#3f2629" cx="552.112" cy="-675.547" rx="4.00002" ry="4.00002"/>
<polygon fill="#3f2629" stroke="#3f2629" points="673.737,-594.704 683.52,-589.751 676.878,-590.814 680.019,-586.924 680.019,-586.924 680.019,-586.924 676.878,-590.814 676.518,-584.097 673.737,-594.704 673.737,-594.704"/>
<text text-anchor="middle" x="633.059" y="-649.8" font-family="Times,serif" font-size="14.00">reverse_relationships</text>
</g>
<!-- User&#45;&gt;Task -->
<g id="edge18" class="edge"><title>User&#45;&gt;Task</title>
<path fill="none" stroke="#342fd1" d="M417.786,-680.567C417.055,-680.038 416.319,-679.516 415.58,-679 393.864,-663.851 205.184,-642.79 182.58,-629 182.49,-628.945 182.399,-628.89 182.309,-628.834"/>
<ellipse fill="none" stroke="#342fd1" cx="421.082" cy="-683.074" rx="4.00002" ry="4.00002"/>
<polygon fill="#342fd1" stroke="#342fd1" points="182.372,-628.877 176.61,-619.547 178.23,-626.075 174.089,-623.274 174.089,-623.274 174.089,-623.274 178.23,-626.075 171.568,-627.002 182.372,-628.877 182.372,-628.877"/>
</g>
<!-- User&#45;&gt;User -->
<g id="edge26" class="edge"><title>User&#45;&gt;User</title>
<path fill="none" stroke="#334e10" d="M639.179,-861.217C644.033,-859.752 646.858,-857.846 646.858,-855.5 646.858,-853.154 644.033,-851.248 639.179,-849.783"/>
<polygon fill="#334e10" stroke="#334e10" points="639.029,-861.248 628.326,-858.86 634.132,-862.258 629.235,-863.268 629.235,-863.268 629.235,-863.268 634.132,-862.258 630.144,-867.675 639.029,-861.248 639.029,-861.248"/>
<polygon fill="#334e10" stroke="#334e10" points="639.029,-849.752 630.144,-843.325 634.132,-848.742 629.235,-847.732 629.235,-847.732 629.235,-847.732 634.132,-848.742 628.326,-852.14 639.029,-849.752 639.029,-849.752"/>
<text text-anchor="middle" x="667.851" y="-851.3" font-family="Times,serif" font-size="14.00">senders</text>
</g>
<!-- User&#45;&gt;User -->
<g id="edge27" class="edge"><title>User&#45;&gt;User</title>
<path fill="none" stroke="#675272" d="M639.252,-873.88C667.385,-872.372 688.844,-866.245 688.844,-855.5 688.844,-844.755 667.385,-838.628 639.252,-837.12"/>
<polygon fill="#675272" stroke="#675272" points="639.042,-873.887 628.897,-869.724 634.045,-874.054 629.048,-874.221 629.048,-874.221 629.048,-874.221 634.045,-874.054 629.198,-878.719 639.042,-873.887 639.042,-873.887"/>
<polygon fill="#675272" stroke="#675272" points="639.042,-837.113 629.198,-832.281 634.045,-836.946 629.048,-836.779 629.048,-836.779 629.048,-836.779 634.045,-836.946 628.897,-841.276 639.042,-837.113 639.042,-837.113"/>
<text text-anchor="middle" x="717.217" y="-851.3" font-family="Times,serif" font-size="14.00">recepients</text>
</g>
<!-- User&#45;&gt;User -->
<g id="edge30" class="edge"><title>User&#45;&gt;User</title>
<path fill="none" stroke="#a4cac4" d="M639.155,-883.27C693.952,-885.614 745.589,-876.358 745.589,-855.5 745.589,-834.642 693.952,-825.386 639.155,-827.73"/>
<polygon fill="#a4cac4" stroke="#a4cac4" points="638.883,-883.255 629.149,-878.204 633.891,-882.976 628.898,-882.697 628.898,-882.697 628.898,-882.697 633.891,-882.976 628.648,-887.19 638.883,-883.255 638.883,-883.255"/>
<polygon fill="#a4cac4" stroke="#a4cac4" points="638.883,-827.745 628.648,-823.81 633.891,-828.024 628.898,-828.303 628.898,-828.303 628.898,-828.303 633.891,-828.024 629.149,-832.796 638.883,-827.745 638.883,-827.745"/>
<text text-anchor="middle" x="788.358" y="-851.3" font-family="Times,serif" font-size="14.00">followed_users</text>
</g>
<!-- User&#45;&gt;User -->
<g id="edge31" class="edge"><title>User&#45;&gt;User</title>
<path fill="none" stroke="#54ea3a" d="M639.412,-889.761C727.978,-899.268 831.127,-887.847 831.127,-855.5 831.127,-823.153 727.978,-811.732 639.412,-821.239"/>
<polygon fill="#54ea3a" stroke="#54ea3a" points="639.176,-889.734 629.768,-884.099 634.21,-889.151 629.244,-888.569 629.244,-888.569 629.244,-888.569 634.21,-889.151 628.72,-893.038 639.176,-889.734 639.176,-889.734"/>
<polygon fill="#54ea3a" stroke="#54ea3a" points="639.176,-821.266 628.72,-817.962 634.21,-821.849 629.244,-822.431 629.244,-822.431 629.244,-822.431 634.21,-821.849 629.768,-826.901 639.176,-821.266 639.176,-821.266"/>
<text text-anchor="middle" x="857.565" y="-851.3" font-family="Times,serif" font-size="14.00">followers</text>
</g>
<!-- User&#45;&gt;Want -->
<g id="edge20" class="edge"><title>User&#45;&gt;Want</title>
<path fill="none" stroke="#3b2863" d="M459.057,-671.552C454.834,-660.113 450.676,-648.847 446.674,-638.001"/>
<ellipse fill="none" stroke="#3b2863" cx="460.535" cy="-675.558" rx="4.00001" ry="4.00001"/>
<polygon fill="#3b2863" stroke="#3b2863" points="446.661,-637.966 447.42,-627.027 444.929,-633.276 443.198,-628.585 443.198,-628.585 443.198,-628.585 444.929,-633.276 438.976,-630.143 446.661,-637.966 446.661,-637.966"/>
</g>
<!-- Want&#45;&gt;Contract -->
<g id="edge34" class="edge"><title>Want&#45;&gt;Contract</title>
<path fill="none" stroke="#65acb8" d="M389.407,-436.284C388.112,-429.914 386.8,-423.461 385.487,-417"/>
<ellipse fill="none" stroke="#65acb8" cx="390.258" cy="-440.468" rx="4.00001" ry="4.00001"/>
<polygon fill="#65acb8" stroke="#65acb8" points="385.416,-416.652 387.833,-405.956 384.42,-411.753 383.424,-406.853 383.424,-406.853 383.424,-406.853 384.42,-411.753 379.014,-407.749 385.416,-416.652 385.416,-416.652"/>
</g>
<!-- Want&#45;&gt;Entrust -->
<g id="edge35" class="edge"><title>Want&#45;&gt;Entrust</title>
<path fill="none" stroke="#0b6207" d="M473.863,-437.448C478.613,-430.203 483.436,-422.846 488.261,-415.487"/>
<ellipse fill="none" stroke="#0b6207" cx="471.506" cy="-441.043" rx="4.00002" ry="4.00002"/>
<polygon fill="#0b6207" stroke="#0b6207" points="488.438,-415.216 497.685,-409.32 491.18,-411.034 493.921,-406.853 493.921,-406.853 493.921,-406.853 491.18,-411.034 490.158,-404.386 488.438,-415.216 488.438,-415.216"/>
</g>
<!-- Want&#45;&gt;Entry -->
<g id="edge33" class="edge"><title>Want&#45;&gt;Entry</title>
<path fill="none" stroke="#9e0014" d="M336.377,-445.432C335.78,-444.95 335.181,-444.472 334.58,-444 304.727,-420.54 288.118,-429.561 257.58,-407 257.192,-406.714 256.805,-406.425 256.418,-406.136"/>
<ellipse fill="none" stroke="#9e0014" cx="339.656" cy="-448.212" rx="4.00002" ry="4.00002"/>
<polygon fill="#9e0014" stroke="#9e0014" points="256.224,-405.985 251.101,-396.29 252.28,-402.912 248.335,-399.84 248.335,-399.84 248.335,-399.84 252.28,-402.912 245.57,-403.39 256.224,-405.985 256.224,-405.985"/>
</g>
</g>
</svg>
