<?xml version="1.0" encoding="UTF-8" standalone="no"?>
<!DOCTYPE svg PUBLIC "-//W3C//DTD SVG 1.1//EN"
 "http://www.w3.org/Graphics/SVG/1.1/DTD/svg11.dtd">
<!-- Generated by graphviz version 2.38.0 (20140413.2041)
 -->
<!-- Title: models_diagram Pages: 1 -->
<svg width="1364pt" height="1373pt"
 viewBox="0.00 0.00 1364.19 1373.00" xmlns="http://www.w3.org/2000/svg" xmlns:xlink="http://www.w3.org/1999/xlink">
<g id="graph0" class="graph" transform="scale(1 1) rotate(0) translate(4 1369)">
<title>models_diagram</title>
<polygon fill="none" stroke="none" points="-4,4 -4,-1369 1360.19,-1369 1360.19,4 -4,4"/>
<!-- _diagram_info -->
<g id="node1" class="node"><title>_diagram_info</title>
<text text-anchor="start" x="8" y="-1210.6" font-family="Times,serif" font-size="13.00">Models diagram</text>
<text text-anchor="start" x="8" y="-1197.6" font-family="Times,serif" font-size="13.00">Date: Aug 31 2015 &#45; 04:07</text>
<text text-anchor="start" x="8" y="-1184.6" font-family="Times,serif" font-size="13.00">Migration version: 20150830162804</text>
<text text-anchor="start" x="8" y="-1171.6" font-family="Times,serif" font-size="13.00">Generated by RailRoady 1.3.1</text>
<text text-anchor="start" x="8" y="-1158.6" font-family="Times,serif" font-size="13.00">http://railroady.prestonlee.com</text>
</g>
<!-- Ability -->
<g id="node2" class="node"><title>Ability</title>
<polygon fill="none" stroke="black" points="225.853,-1166.5 225.853,-1210.5 281.522,-1210.5 281.522,-1166.5 225.853,-1166.5"/>
<text text-anchor="middle" x="253.688" y="-1195.3" font-family="Times,serif" font-size="14.00">Ability</text>
<polyline fill="none" stroke="black" points="225.853,-1188.5 281.522,-1188.5 "/>
<text text-anchor="middle" x="253.688" y="-1173.3" font-family="Times,serif" font-size="14.00"> </text>
</g>
<!-- Account -->
<g id="node3" class="node"><title>Account</title>
<path fill="none" stroke="black" d="M1022.18,-819.5C1022.18,-819.5 1131.19,-819.5 1131.19,-819.5 1137.19,-819.5 1143.19,-825.5 1143.19,-831.5 1143.19,-831.5 1143.19,-907.5 1143.19,-907.5 1143.19,-913.5 1137.19,-919.5 1131.19,-919.5 1131.19,-919.5 1022.18,-919.5 1022.18,-919.5 1016.18,-919.5 1010.18,-913.5 1010.18,-907.5 1010.18,-907.5 1010.18,-831.5 1010.18,-831.5 1010.18,-825.5 1016.18,-819.5 1022.18,-819.5"/>
<text text-anchor="middle" x="1076.69" y="-904.3" font-family="Times,serif" font-size="14.00">Account</text>
<polyline fill="none" stroke="black" points="1010.18,-897.5 1143.19,-897.5 "/>
<text text-anchor="start" x="1018.18" y="-882.3" font-family="Times,serif" font-size="14.00">id :integer</text>
<text text-anchor="start" x="1018.18" y="-868.3" font-family="Times,serif" font-size="14.00">user_id :integer</text>
<text text-anchor="start" x="1018.18" y="-854.3" font-family="Times,serif" font-size="14.00">balance :integer</text>
<text text-anchor="start" x="1018.18" y="-840.3" font-family="Times,serif" font-size="14.00">created_at :datetime</text>
<text text-anchor="start" x="1018.18" y="-826.3" font-family="Times,serif" font-size="14.00">updated_at :datetime</text>
</g>
<!-- Payment -->
<g id="node10" class="node"><title>Payment</title>
<path fill="none" stroke="black" d="M937.661,-528.5C937.661,-528.5 1119.71,-528.5 1119.71,-528.5 1125.71,-528.5 1131.71,-534.5 1131.71,-540.5 1131.71,-540.5 1131.71,-714.5 1131.71,-714.5 1131.71,-720.5 1125.71,-726.5 1119.71,-726.5 1119.71,-726.5 937.661,-726.5 937.661,-726.5 931.661,-726.5 925.661,-720.5 925.661,-714.5 925.661,-714.5 925.661,-540.5 925.661,-540.5 925.661,-534.5 931.661,-528.5 937.661,-528.5"/>
<text text-anchor="middle" x="1028.69" y="-711.3" font-family="Times,serif" font-size="14.00">Payment</text>
<polyline fill="none" stroke="black" points="925.661,-704.5 1131.71,-704.5 "/>
<text text-anchor="start" x="933.661" y="-689.3" font-family="Times,serif" font-size="14.00">id :integer</text>
<text text-anchor="start" x="933.661" y="-675.3" font-family="Times,serif" font-size="14.00">sender_id :integer</text>
<text text-anchor="start" x="933.661" y="-661.3" font-family="Times,serif" font-size="14.00">recepient_id :integer</text>
<text text-anchor="start" x="933.661" y="-647.3" font-family="Times,serif" font-size="14.00">subject :string</text>
<text text-anchor="start" x="933.661" y="-633.3" font-family="Times,serif" font-size="14.00">amount :integer</text>
<text text-anchor="start" x="933.661" y="-619.3" font-family="Times,serif" font-size="14.00">sender_balance_after :integer</text>
<text text-anchor="start" x="933.661" y="-605.3" font-family="Times,serif" font-size="14.00">comment :text</text>
<text text-anchor="start" x="933.661" y="-591.3" font-family="Times,serif" font-size="14.00">created_at :datetime</text>
<text text-anchor="start" x="933.661" y="-577.3" font-family="Times,serif" font-size="14.00">updated_at :datetime</text>
<text text-anchor="start" x="933.661" y="-563.3" font-family="Times,serif" font-size="14.00">sender_balance_before :integer</text>
<text text-anchor="start" x="933.661" y="-549.3" font-family="Times,serif" font-size="14.00">recepient_balance_before :integer</text>
<text text-anchor="start" x="933.661" y="-535.3" font-family="Times,serif" font-size="14.00">recepient_balance_after :integer</text>
</g>
<!-- Account&#45;&gt;Payment -->
<g id="edge1" class="edge"><title>Account&#45;&gt;Payment</title>
<path fill="none" stroke="#79065e" d="M1032.77,-812.463C1022.39,-796.121 1012.76,-777.625 1007.36,-759 1005.27,-751.795 1004.07,-744.302 1003.55,-736.713"/>
<ellipse fill="none" stroke="#79065e" cx="1035.07" cy="-815.981" rx="4.00002" ry="4.00002"/>
<polygon fill="#79065e" stroke="#79065e" points="1003.55,-736.693 1007.75,-726.563 1003.4,-731.696 1003.25,-726.698 1003.25,-726.698 1003.25,-726.698 1003.4,-731.696 998.75,-726.833 1003.55,-736.693 1003.55,-736.693"/>
<text text-anchor="middle" x="1036.85" y="-747.8" font-family="Times,serif" font-size="14.00">withdraws</text>
</g>
<!-- Account&#45;&gt;Payment -->
<g id="edge2" class="edge"><title>Account&#45;&gt;Payment</title>
<path fill="none" stroke="#ab7672" d="M1074.21,-811.269C1072.61,-790.281 1069.99,-766.426 1065.69,-745 1065.12,-742.172 1064.51,-739.315 1063.86,-736.442"/>
<ellipse fill="none" stroke="#ab7672" cx="1074.5" cy="-815.473" rx="4" ry="4"/>
<polygon fill="#ab7672" stroke="#ab7672" points="1063.84,-736.348 1065.89,-725.576 1062.67,-731.485 1061.51,-726.621 1061.51,-726.621 1061.51,-726.621 1062.67,-731.485 1057.14,-727.667 1063.84,-736.348 1063.84,-736.348"/>
<text text-anchor="middle" x="1091.63" y="-747.8" font-family="Times,serif" font-size="14.00">deposits</text>
</g>
<!-- Category -->
<g id="node4" class="node"><title>Category</title>
<path fill="none" stroke="black" d="M311.182,-1145.5C311.182,-1145.5 420.193,-1145.5 420.193,-1145.5 426.193,-1145.5 432.193,-1151.5 432.193,-1157.5 432.193,-1157.5 432.193,-1219.5 432.193,-1219.5 432.193,-1225.5 426.193,-1231.5 420.193,-1231.5 420.193,-1231.5 311.182,-1231.5 311.182,-1231.5 305.182,-1231.5 299.182,-1225.5 299.182,-1219.5 299.182,-1219.5 299.182,-1157.5 299.182,-1157.5 299.182,-1151.5 305.182,-1145.5 311.182,-1145.5"/>
<text text-anchor="middle" x="365.688" y="-1216.3" font-family="Times,serif" font-size="14.00">Category</text>
<polyline fill="none" stroke="black" points="299.182,-1209.5 432.193,-1209.5 "/>
<text text-anchor="start" x="307.182" y="-1194.3" font-family="Times,serif" font-size="14.00">id :integer</text>
<text text-anchor="start" x="307.182" y="-1180.3" font-family="Times,serif" font-size="14.00">name :string</text>
<text text-anchor="start" x="307.182" y="-1166.3" font-family="Times,serif" font-size="14.00">created_at :datetime</text>
<text text-anchor="start" x="307.182" y="-1152.3" font-family="Times,serif" font-size="14.00">updated_at :datetime</text>
</g>
<!-- Entry -->
<g id="node5" class="node"><title>Entry</title>
<path fill="none" stroke="black" d="M934.531,-180.5C934.531,-180.5 1122.84,-180.5 1122.84,-180.5 1128.84,-180.5 1134.84,-186.5 1134.84,-192.5 1134.84,-192.5 1134.84,-478.5 1134.84,-478.5 1134.84,-484.5 1128.84,-490.5 1122.84,-490.5 1122.84,-490.5 934.531,-490.5 934.531,-490.5 928.531,-490.5 922.531,-484.5 922.531,-478.5 922.531,-478.5 922.531,-192.5 922.531,-192.5 922.531,-186.5 928.531,-180.5 934.531,-180.5"/>
<text text-anchor="middle" x="1028.69" y="-475.3" font-family="Times,serif" font-size="14.00">Entry</text>
<polyline fill="none" stroke="black" points="922.531,-468.5 1134.84,-468.5 "/>
<text text-anchor="start" x="930.531" y="-453.3" font-family="Times,serif" font-size="14.00">id :integer</text>
<text text-anchor="start" x="930.531" y="-439.3" font-family="Times,serif" font-size="14.00">contractor_id :integer</text>
<text text-anchor="start" x="930.531" y="-425.3" font-family="Times,serif" font-size="14.00">owner_committed_at :datetime</text>
<text text-anchor="start" x="930.531" y="-411.3" font-family="Times,serif" font-size="14.00">paid_at :datetime</text>
<text text-anchor="start" x="930.531" y="-397.3" font-family="Times,serif" font-size="14.00">created_at :datetime</text>
<text text-anchor="start" x="930.531" y="-383.3" font-family="Times,serif" font-size="14.00">updated_at :datetime</text>
<text text-anchor="start" x="930.531" y="-369.3" font-family="Times,serif" font-size="14.00">expected_at :datetime</text>
<text text-anchor="start" x="930.531" y="-355.3" font-family="Times,serif" font-size="14.00">performed_at :datetime</text>
<text text-anchor="start" x="930.531" y="-341.3" font-family="Times,serif" font-size="14.00">owner_canceled_at :datetime</text>
<text text-anchor="start" x="930.531" y="-327.3" font-family="Times,serif" font-size="14.00">contractor_canceled_at :datetime</text>
<text text-anchor="start" x="930.531" y="-313.3" font-family="Times,serif" font-size="14.00">contractor_committed_at :datetime</text>
<text text-anchor="start" x="930.531" y="-299.3" font-family="Times,serif" font-size="14.00">price :integer</text>
<text text-anchor="start" x="930.531" y="-285.3" font-family="Times,serif" font-size="14.00">payment_id :integer</text>
<text text-anchor="start" x="930.531" y="-271.3" font-family="Times,serif" font-size="14.00">category_id :integer</text>
<text text-anchor="start" x="930.531" y="-257.3" font-family="Times,serif" font-size="14.00">closed_at :datetime</text>
<text text-anchor="start" x="930.531" y="-243.3" font-family="Times,serif" font-size="14.00">description :text</text>
<text text-anchor="start" x="930.531" y="-229.3" font-family="Times,serif" font-size="14.00">expired_at :datetime</text>
<text text-anchor="start" x="930.531" y="-215.3" font-family="Times,serif" font-size="14.00">prior_price :string</text>
<text text-anchor="start" x="930.531" y="-201.3" font-family="Times,serif" font-size="14.00">title :string</text>
<text text-anchor="start" x="930.531" y="-187.3" font-family="Times,serif" font-size="14.00">owner_id :integer</text>
</g>
<!-- Category&#45;&gt;Entry -->
<g id="edge6" class="edge"><title>Category&#45;&gt;Entry</title>
<path fill="none" stroke="#97d023" d="M349.355,-1137.61C336.291,-1101.25 315.995,-1051.63 290.688,-1012 274.596,-986.803 256.399,-989.912 245.688,-962 216.231,-885.236 204.18,-847.976 245.688,-777 390.655,-529.112 732.098,-409.939 912.429,-362.557"/>
<ellipse fill="none" stroke="#97d023" cx="350.695" cy="-1141.39" rx="4.00001" ry="4.00001"/>
<polygon fill="#97d023" stroke="#97d023" points="912.538,-362.528 923.348,-364.369 917.377,-361.271 922.216,-360.014 922.216,-360.014 922.216,-360.014 917.377,-361.271 921.085,-355.658 912.538,-362.528 912.538,-362.528"/>
</g>
<!-- Offering -->
<g id="node9" class="node"><title>Offering</title>
<path fill="none" stroke="black" d="M569.182,-777.5C569.182,-777.5 678.193,-777.5 678.193,-777.5 684.193,-777.5 690.193,-783.5 690.193,-789.5 690.193,-789.5 690.193,-949.5 690.193,-949.5 690.193,-955.5 684.193,-961.5 678.193,-961.5 678.193,-961.5 569.182,-961.5 569.182,-961.5 563.182,-961.5 557.182,-955.5 557.182,-949.5 557.182,-949.5 557.182,-789.5 557.182,-789.5 557.182,-783.5 563.182,-777.5 569.182,-777.5"/>
<text text-anchor="middle" x="623.688" y="-946.3" font-family="Times,serif" font-size="14.00">Offering</text>
<polyline fill="none" stroke="black" points="557.182,-939.5 690.193,-939.5 "/>
<text text-anchor="start" x="565.182" y="-924.3" font-family="Times,serif" font-size="14.00">id :integer</text>
<text text-anchor="start" x="565.182" y="-910.3" font-family="Times,serif" font-size="14.00">type :string</text>
<text text-anchor="start" x="565.182" y="-896.3" font-family="Times,serif" font-size="14.00">user_id :integer</text>
<text text-anchor="start" x="565.182" y="-882.3" font-family="Times,serif" font-size="14.00">title :string</text>
<text text-anchor="start" x="565.182" y="-868.3" font-family="Times,serif" font-size="14.00">category_id :integer</text>
<text text-anchor="start" x="565.182" y="-854.3" font-family="Times,serif" font-size="14.00">description :text</text>
<text text-anchor="start" x="565.182" y="-840.3" font-family="Times,serif" font-size="14.00">price :string</text>
<text text-anchor="start" x="565.182" y="-826.3" font-family="Times,serif" font-size="14.00">expired_at :datetime</text>
<text text-anchor="start" x="565.182" y="-812.3" font-family="Times,serif" font-size="14.00">created_at :datetime</text>
<text text-anchor="start" x="565.182" y="-798.3" font-family="Times,serif" font-size="14.00">updated_at :datetime</text>
<text text-anchor="start" x="565.182" y="-784.3" font-family="Times,serif" font-size="14.00">closed_at :datetime</text>
</g>
<!-- Category&#45;&gt;Offering -->
<g id="edge4" class="edge"><title>Category&#45;&gt;Offering</title>
<path fill="none" stroke="#158a68" d="M404.998,-1139.2C443.558,-1091.82 503.285,-1018.44 550.583,-960.322"/>
<ellipse fill="none" stroke="#158a68" cx="402.473" cy="-1142.3" rx="4.00002" ry="4.00002"/>
<polygon fill="#158a68" stroke="#158a68" points="550.859,-959.984 560.661,-955.069 554.015,-956.106 557.171,-952.228 557.171,-952.228 557.171,-952.228 554.015,-956.106 553.681,-949.387 550.859,-959.984 550.859,-959.984"/>
</g>
<!-- Task -->
<g id="node13" class="node"><title>Task</title>
<path fill="none" stroke="black" d="M418.182,-777.5C418.182,-777.5 527.193,-777.5 527.193,-777.5 533.193,-777.5 539.193,-783.5 539.193,-789.5 539.193,-789.5 539.193,-949.5 539.193,-949.5 539.193,-955.5 533.193,-961.5 527.193,-961.5 527.193,-961.5 418.182,-961.5 418.182,-961.5 412.182,-961.5 406.182,-955.5 406.182,-949.5 406.182,-949.5 406.182,-789.5 406.182,-789.5 406.182,-783.5 412.182,-777.5 418.182,-777.5"/>
<text text-anchor="middle" x="472.688" y="-946.3" font-family="Times,serif" font-size="14.00">Task</text>
<polyline fill="none" stroke="black" points="406.182,-939.5 539.193,-939.5 "/>
<text text-anchor="start" x="414.182" y="-924.3" font-family="Times,serif" font-size="14.00">id :integer</text>
<text text-anchor="start" x="414.182" y="-910.3" font-family="Times,serif" font-size="14.00">type :string</text>
<text text-anchor="start" x="414.182" y="-896.3" font-family="Times,serif" font-size="14.00">user_id :integer</text>
<text text-anchor="start" x="414.182" y="-882.3" font-family="Times,serif" font-size="14.00">title :string</text>
<text text-anchor="start" x="414.182" y="-868.3" font-family="Times,serif" font-size="14.00">category_id :integer</text>
<text text-anchor="start" x="414.182" y="-854.3" font-family="Times,serif" font-size="14.00">description :text</text>
<text text-anchor="start" x="414.182" y="-840.3" font-family="Times,serif" font-size="14.00">price :string</text>
<text text-anchor="start" x="414.182" y="-826.3" font-family="Times,serif" font-size="14.00">expired_at :datetime</text>
<text text-anchor="start" x="414.182" y="-812.3" font-family="Times,serif" font-size="14.00">created_at :datetime</text>
<text text-anchor="start" x="414.182" y="-798.3" font-family="Times,serif" font-size="14.00">updated_at :datetime</text>
<text text-anchor="start" x="414.182" y="-784.3" font-family="Times,serif" font-size="14.00">closed_at :datetime</text>
</g>
<!-- Category&#45;&gt;Task -->
<g id="edge3" class="edge"><title>Category&#45;&gt;Task</title>
<path fill="none" stroke="#5269ab" d="M382.47,-1137.78C397.488,-1093.29 419.963,-1026.7 438.724,-971.122"/>
<ellipse fill="none" stroke="#5269ab" cx="381.176" cy="-1141.61" rx="4.00001" ry="4.00001"/>
<polygon fill="#5269ab" stroke="#5269ab" points="438.742,-971.068 446.204,-963.032 440.341,-966.331 441.94,-961.593 441.94,-961.593 441.94,-961.593 440.341,-966.331 437.677,-960.154 438.742,-971.068 438.742,-971.068"/>
</g>
<!-- Want -->
<g id="node15" class="node"><title>Want</title>
<path fill="none" stroke="black" d="M267.182,-777.5C267.182,-777.5 376.193,-777.5 376.193,-777.5 382.193,-777.5 388.193,-783.5 388.193,-789.5 388.193,-789.5 388.193,-949.5 388.193,-949.5 388.193,-955.5 382.193,-961.5 376.193,-961.5 376.193,-961.5 267.182,-961.5 267.182,-961.5 261.182,-961.5 255.182,-955.5 255.182,-949.5 255.182,-949.5 255.182,-789.5 255.182,-789.5 255.182,-783.5 261.182,-777.5 267.182,-777.5"/>
<text text-anchor="middle" x="321.688" y="-946.3" font-family="Times,serif" font-size="14.00">Want</text>
<polyline fill="none" stroke="black" points="255.182,-939.5 388.193,-939.5 "/>
<text text-anchor="start" x="263.182" y="-924.3" font-family="Times,serif" font-size="14.00">id :integer</text>
<text text-anchor="start" x="263.182" y="-910.3" font-family="Times,serif" font-size="14.00">type :string</text>
<text text-anchor="start" x="263.182" y="-896.3" font-family="Times,serif" font-size="14.00">user_id :integer</text>
<text text-anchor="start" x="263.182" y="-882.3" font-family="Times,serif" font-size="14.00">title :string</text>
<text text-anchor="start" x="263.182" y="-868.3" font-family="Times,serif" font-size="14.00">category_id :integer</text>
<text text-anchor="start" x="263.182" y="-854.3" font-family="Times,serif" font-size="14.00">description :text</text>
<text text-anchor="start" x="263.182" y="-840.3" font-family="Times,serif" font-size="14.00">price :string</text>
<text text-anchor="start" x="263.182" y="-826.3" font-family="Times,serif" font-size="14.00">expired_at :datetime</text>
<text text-anchor="start" x="263.182" y="-812.3" font-family="Times,serif" font-size="14.00">created_at :datetime</text>
<text text-anchor="start" x="263.182" y="-798.3" font-family="Times,serif" font-size="14.00">updated_at :datetime</text>
<text text-anchor="start" x="263.182" y="-784.3" font-family="Times,serif" font-size="14.00">closed_at :datetime</text>
</g>
<!-- Category&#45;&gt;Want -->
<g id="edge5" class="edge"><title>Category&#45;&gt;Want</title>
<path fill="none" stroke="#055782" d="M358.706,-1137.2C352.555,-1092.88 343.407,-1026.98 335.744,-971.769"/>
<ellipse fill="none" stroke="#055782" cx="359.295" cy="-1141.44" rx="4.00001" ry="4.00001"/>
<polygon fill="#055782" stroke="#055782" points="335.707,-971.498 338.789,-960.975 335.019,-966.546 334.332,-961.593 334.332,-961.593 334.332,-961.593 335.019,-966.546 329.874,-962.212 335.707,-971.498 335.707,-971.498"/>
</g>
<!-- Negotiation -->
<g id="node7" class="node"><title>Negotiation</title>
<path fill="none" stroke="black" d="M974.182,-0.5C974.182,-0.5 1083.19,-0.5 1083.19,-0.5 1089.19,-0.5 1095.19,-6.5 1095.19,-12.5 1095.19,-12.5 1095.19,-130.5 1095.19,-130.5 1095.19,-136.5 1089.19,-142.5 1083.19,-142.5 1083.19,-142.5 974.182,-142.5 974.182,-142.5 968.182,-142.5 962.182,-136.5 962.182,-130.5 962.182,-130.5 962.182,-12.5 962.182,-12.5 962.182,-6.5 968.182,-0.5 974.182,-0.5"/>
<text text-anchor="middle" x="1028.69" y="-127.3" font-family="Times,serif" font-size="14.00">Negotiation</text>
<polyline fill="none" stroke="black" points="962.182,-120.5 1095.19,-120.5 "/>
<text text-anchor="start" x="970.182" y="-105.3" font-family="Times,serif" font-size="14.00">id :integer</text>
<text text-anchor="start" x="970.182" y="-91.3" font-family="Times,serif" font-size="14.00">body :text</text>
<text text-anchor="start" x="970.182" y="-77.3" font-family="Times,serif" font-size="14.00">created_at :datetime</text>
<text text-anchor="start" x="970.182" y="-63.3" font-family="Times,serif" font-size="14.00">updated_at :datetime</text>
<text text-anchor="start" x="970.182" y="-49.3" font-family="Times,serif" font-size="14.00">sender_id :integer</text>
<text text-anchor="start" x="970.182" y="-35.3" font-family="Times,serif" font-size="14.00">recepient_id :integer</text>
<text text-anchor="start" x="970.182" y="-21.3" font-family="Times,serif" font-size="14.00">entry_id :integer</text>
<text text-anchor="start" x="970.182" y="-7.3" font-family="Times,serif" font-size="14.00">type :string</text>
</g>
<!-- Entry&#45;&gt;Negotiation -->
<g id="edge7" class="edge"><title>Entry&#45;&gt;Negotiation</title>
<path fill="none" stroke="#ac118b" d="M1028.69,-172.022C1028.69,-165.531 1028.69,-159.15 1028.69,-152.948"/>
<ellipse fill="none" stroke="#ac118b" cx="1028.69" cy="-176.2" rx="4" ry="4"/>
<polygon fill="#ac118b" stroke="#ac118b" points="1028.69,-152.69 1033.19,-142.69 1028.69,-147.69 1028.69,-142.69 1028.69,-142.69 1028.69,-142.69 1028.69,-147.69 1024.19,-142.69 1028.69,-152.69 1028.69,-152.69"/>
</g>
<!-- Message -->
<g id="node6" class="node"><title>Message</title>
<path fill="none" stroke="black" d="M871.182,-798.5C871.182,-798.5 980.193,-798.5 980.193,-798.5 986.193,-798.5 992.193,-804.5 992.193,-810.5 992.193,-810.5 992.193,-928.5 992.193,-928.5 992.193,-934.5 986.193,-940.5 980.193,-940.5 980.193,-940.5 871.182,-940.5 871.182,-940.5 865.182,-940.5 859.182,-934.5 859.182,-928.5 859.182,-928.5 859.182,-810.5 859.182,-810.5 859.182,-804.5 865.182,-798.5 871.182,-798.5"/>
<text text-anchor="middle" x="925.688" y="-925.3" font-family="Times,serif" font-size="14.00">Message</text>
<polyline fill="none" stroke="black" points="859.182,-918.5 992.193,-918.5 "/>
<text text-anchor="start" x="867.182" y="-903.3" font-family="Times,serif" font-size="14.00">id :integer</text>
<text text-anchor="start" x="867.182" y="-889.3" font-family="Times,serif" font-size="14.00">body :text</text>
<text text-anchor="start" x="867.182" y="-875.3" font-family="Times,serif" font-size="14.00">created_at :datetime</text>
<text text-anchor="start" x="867.182" y="-861.3" font-family="Times,serif" font-size="14.00">updated_at :datetime</text>
<text text-anchor="start" x="867.182" y="-847.3" font-family="Times,serif" font-size="14.00">sender_id :integer</text>
<text text-anchor="start" x="867.182" y="-833.3" font-family="Times,serif" font-size="14.00">recepient_id :integer</text>
<text text-anchor="start" x="867.182" y="-819.3" font-family="Times,serif" font-size="14.00">entry_id :integer</text>
<text text-anchor="start" x="867.182" y="-805.3" font-family="Times,serif" font-size="14.00">type :string</text>
</g>
<!-- Notification -->
<g id="node8" class="node"><title>Notification</title>
<path fill="none" stroke="black" d="M1212.18,-805.5C1212.18,-805.5 1321.19,-805.5 1321.19,-805.5 1327.19,-805.5 1333.19,-811.5 1333.19,-817.5 1333.19,-817.5 1333.19,-921.5 1333.19,-921.5 1333.19,-927.5 1327.19,-933.5 1321.19,-933.5 1321.19,-933.5 1212.18,-933.5 1212.18,-933.5 1206.18,-933.5 1200.18,-927.5 1200.18,-921.5 1200.18,-921.5 1200.18,-817.5 1200.18,-817.5 1200.18,-811.5 1206.18,-805.5 1212.18,-805.5"/>
<text text-anchor="middle" x="1266.69" y="-918.3" font-family="Times,serif" font-size="14.00">Notification</text>
<polyline fill="none" stroke="black" points="1200.18,-911.5 1333.19,-911.5 "/>
<text text-anchor="start" x="1208.18" y="-896.3" font-family="Times,serif" font-size="14.00">id :integer</text>
<text text-anchor="start" x="1208.18" y="-882.3" font-family="Times,serif" font-size="14.00">user_id :integer</text>
<text text-anchor="start" x="1208.18" y="-868.3" font-family="Times,serif" font-size="14.00">body :string</text>
<text text-anchor="start" x="1208.18" y="-854.3" font-family="Times,serif" font-size="14.00">url :string</text>
<text text-anchor="start" x="1208.18" y="-840.3" font-family="Times,serif" font-size="14.00">read_at :datetime</text>
<text text-anchor="start" x="1208.18" y="-826.3" font-family="Times,serif" font-size="14.00">created_at :datetime</text>
<text text-anchor="start" x="1208.18" y="-812.3" font-family="Times,serif" font-size="14.00">updated_at :datetime</text>
</g>
<!-- Payment&#45;&gt;Entry -->
<g id="edge8" class="edge"><title>Payment&#45;&gt;Entry</title>
<path fill="none" stroke="#ce078c" d="M1028.69,-520.218C1028.69,-513.233 1028.69,-506.117 1028.69,-498.945"/>
<ellipse fill="none" stroke="#ce078c" cx="1028.69" cy="-524.319" rx="4" ry="4"/>
<ellipse fill="#ce078c" stroke="#ce078c" cx="1028.69" cy="-494.502" rx="4" ry="4"/>
</g>
<!-- Relationship -->
<g id="node11" class="node"><title>Relationship</title>
<path fill="none" stroke="black" d="M720.182,-819.5C720.182,-819.5 829.193,-819.5 829.193,-819.5 835.193,-819.5 841.193,-825.5 841.193,-831.5 841.193,-831.5 841.193,-907.5 841.193,-907.5 841.193,-913.5 835.193,-919.5 829.193,-919.5 829.193,-919.5 720.182,-919.5 720.182,-919.5 714.182,-919.5 708.182,-913.5 708.182,-907.5 708.182,-907.5 708.182,-831.5 708.182,-831.5 708.182,-825.5 714.182,-819.5 720.182,-819.5"/>
<text text-anchor="middle" x="774.688" y="-904.3" font-family="Times,serif" font-size="14.00">Relationship</text>
<polyline fill="none" stroke="black" points="708.182,-897.5 841.193,-897.5 "/>
<text text-anchor="start" x="716.182" y="-882.3" font-family="Times,serif" font-size="14.00">id :integer</text>
<text text-anchor="start" x="716.182" y="-868.3" font-family="Times,serif" font-size="14.00">follower_id :integer</text>
<text text-anchor="start" x="716.182" y="-854.3" font-family="Times,serif" font-size="14.00">followed_id :integer</text>
<text text-anchor="start" x="716.182" y="-840.3" font-family="Times,serif" font-size="14.00">created_at :datetime</text>
<text text-anchor="start" x="716.182" y="-826.3" font-family="Times,serif" font-size="14.00">updated_at :datetime</text>
</g>
<!-- Talk -->
<g id="node12" class="node"><title>Talk</title>
<path fill="none" stroke="black" d="M1235.18,-1117.5C1235.18,-1117.5 1344.19,-1117.5 1344.19,-1117.5 1350.19,-1117.5 1356.19,-1123.5 1356.19,-1129.5 1356.19,-1129.5 1356.19,-1247.5 1356.19,-1247.5 1356.19,-1253.5 1350.19,-1259.5 1344.19,-1259.5 1344.19,-1259.5 1235.18,-1259.5 1235.18,-1259.5 1229.18,-1259.5 1223.18,-1253.5 1223.18,-1247.5 1223.18,-1247.5 1223.18,-1129.5 1223.18,-1129.5 1223.18,-1123.5 1229.18,-1117.5 1235.18,-1117.5"/>
<text text-anchor="middle" x="1289.69" y="-1244.3" font-family="Times,serif" font-size="14.00">Talk</text>
<polyline fill="none" stroke="black" points="1223.18,-1237.5 1356.19,-1237.5 "/>
<text text-anchor="start" x="1231.18" y="-1222.3" font-family="Times,serif" font-size="14.00">id :integer</text>
<text text-anchor="start" x="1231.18" y="-1208.3" font-family="Times,serif" font-size="14.00">body :text</text>
<text text-anchor="start" x="1231.18" y="-1194.3" font-family="Times,serif" font-size="14.00">created_at :datetime</text>
<text text-anchor="start" x="1231.18" y="-1180.3" font-family="Times,serif" font-size="14.00">updated_at :datetime</text>
<text text-anchor="start" x="1231.18" y="-1166.3" font-family="Times,serif" font-size="14.00">sender_id :integer</text>
<text text-anchor="start" x="1231.18" y="-1152.3" font-family="Times,serif" font-size="14.00">recepient_id :integer</text>
<text text-anchor="start" x="1231.18" y="-1138.3" font-family="Times,serif" font-size="14.00">entry_id :integer</text>
<text text-anchor="start" x="1231.18" y="-1124.3" font-family="Times,serif" font-size="14.00">type :string</text>
</g>
<!-- User -->
<g id="node14" class="node"><title>User</title>
<path fill="none" stroke="black" d="M706.41,-1012.5C706.41,-1012.5 886.966,-1012.5 886.966,-1012.5 892.966,-1012.5 898.966,-1018.5 898.966,-1024.5 898.966,-1024.5 898.966,-1352.5 898.966,-1352.5 898.966,-1358.5 892.966,-1364.5 886.966,-1364.5 886.966,-1364.5 706.41,-1364.5 706.41,-1364.5 700.41,-1364.5 694.41,-1358.5 694.41,-1352.5 694.41,-1352.5 694.41,-1024.5 694.41,-1024.5 694.41,-1018.5 700.41,-1012.5 706.41,-1012.5"/>
<text text-anchor="middle" x="796.688" y="-1349.3" font-family="Times,serif" font-size="14.00">User</text>
<polyline fill="none" stroke="black" points="694.41,-1342.5 898.966,-1342.5 "/>
<text text-anchor="start" x="702.41" y="-1327.3" font-family="Times,serif" font-size="14.00">id :integer</text>
<text text-anchor="start" x="702.41" y="-1313.3" font-family="Times,serif" font-size="14.00">email :string</text>
<text text-anchor="start" x="702.41" y="-1299.3" font-family="Times,serif" font-size="14.00">encrypted_password :string</text>
<text text-anchor="start" x="702.41" y="-1285.3" font-family="Times,serif" font-size="14.00">reset_password_token :string</text>
<text text-anchor="start" x="702.41" y="-1271.3" font-family="Times,serif" font-size="14.00">reset_password_sent_at :datetime</text>
<text text-anchor="start" x="702.41" y="-1257.3" font-family="Times,serif" font-size="14.00">remember_created_at :datetime</text>
<text text-anchor="start" x="702.41" y="-1243.3" font-family="Times,serif" font-size="14.00">sign_in_count :integer</text>
<text text-anchor="start" x="702.41" y="-1229.3" font-family="Times,serif" font-size="14.00">current_sign_in_at :datetime</text>
<text text-anchor="start" x="702.41" y="-1215.3" font-family="Times,serif" font-size="14.00">last_sign_in_at :datetime</text>
<text text-anchor="start" x="702.41" y="-1201.3" font-family="Times,serif" font-size="14.00">current_sign_in_ip :string</text>
<text text-anchor="start" x="702.41" y="-1187.3" font-family="Times,serif" font-size="14.00">last_sign_in_ip :string</text>
<text text-anchor="start" x="702.41" y="-1173.3" font-family="Times,serif" font-size="14.00">confirmation_token :string</text>
<text text-anchor="start" x="702.41" y="-1159.3" font-family="Times,serif" font-size="14.00">confirmed_at :datetime</text>
<text text-anchor="start" x="702.41" y="-1145.3" font-family="Times,serif" font-size="14.00">confirmation_sent_at :datetime</text>
<text text-anchor="start" x="702.41" y="-1131.3" font-family="Times,serif" font-size="14.00">unconfirmed_email :string</text>
<text text-anchor="start" x="702.41" y="-1117.3" font-family="Times,serif" font-size="14.00">failed_attempts :integer</text>
<text text-anchor="start" x="702.41" y="-1103.3" font-family="Times,serif" font-size="14.00">unlock_token :string</text>
<text text-anchor="start" x="702.41" y="-1089.3" font-family="Times,serif" font-size="14.00">locked_at :datetime</text>
<text text-anchor="start" x="702.41" y="-1075.3" font-family="Times,serif" font-size="14.00">created_at :datetime</text>
<text text-anchor="start" x="702.41" y="-1061.3" font-family="Times,serif" font-size="14.00">updated_at :datetime</text>
<text text-anchor="start" x="702.41" y="-1047.3" font-family="Times,serif" font-size="14.00">name :string</text>
<text text-anchor="start" x="702.41" y="-1033.3" font-family="Times,serif" font-size="14.00">description :text</text>
<text text-anchor="start" x="702.41" y="-1019.3" font-family="Times,serif" font-size="14.00">admin :boolean</text>
</g>
<!-- User&#45;&gt;Account -->
<g id="edge9" class="edge"><title>User&#45;&gt;Account</title>
<path fill="none" stroke="#243016" d="M906.645,-1144.59C970.529,-1113.28 1045.54,-1063.98 1082.69,-994 1093.31,-973.989 1094.15,-949.488 1091.48,-927.599"/>
<ellipse fill="none" stroke="#243016" cx="902.914" cy="-1146.39" rx="4.00002" ry="4.00002"/>
<ellipse fill="#243016" stroke="#243016" cx="1090.91" cy="-923.626" rx="4.00001" ry="4.00001"/>
</g>
<!-- User&#45;&gt;Entry -->
<g id="edge13" class="edge"><title>User&#45;&gt;Entry</title>
<path fill="none" stroke="#11d998" d="M906.624,-1151.13C990.696,-1116.84 1100.73,-1056.42 1152.69,-962 1171.98,-926.947 1146.72,-548.322 1140.69,-528 1137.91,-518.654 1134.59,-509.284 1130.86,-499.987"/>
<ellipse fill="none" stroke="#11d998" cx="902.797" cy="-1152.67" rx="4.00001" ry="4.00001"/>
<polygon fill="#11d998" stroke="#11d998" points="1130.84,-499.947 1131.15,-488.985 1128.92,-495.332 1126.99,-490.717 1126.99,-490.717 1126.99,-490.717 1128.92,-495.332 1122.84,-492.448 1130.84,-499.947 1130.84,-499.947"/>
</g>
<!-- User&#45;&gt;Message -->
<g id="edge14" class="edge"><title>User&#45;&gt;Message</title>
<path fill="none" stroke="#a6781e" d="M905.047,-1098.23C933.532,-1068.39 960.513,-1032.75 975.688,-994 981.205,-979.912 980.638,-964.961 976.738,-950.508"/>
<ellipse fill="none" stroke="#a6781e" cx="902.118" cy="-1101.25" rx="4.00002" ry="4.00002"/>
<polygon fill="#a6781e" stroke="#a6781e" points="976.611,-950.115 977.821,-939.216 975.074,-945.357 973.538,-940.598 973.538,-940.598 973.538,-940.598 975.074,-945.357 969.256,-941.981 976.611,-950.115 976.611,-950.115"/>
<text text-anchor="middle" x="1029.06" y="-982.8" font-family="Times,serif" font-size="14.00">sended_messages</text>
</g>
<!-- User&#45;&gt;Message -->
<g id="edge15" class="edge"><title>User&#45;&gt;Message</title>
<path fill="none" stroke="#6b7afb" d="M854.186,-1004.53C857.502,-996.185 860.912,-987.973 864.405,-980 868.754,-970.069 873.729,-959.862 878.921,-949.86"/>
<ellipse fill="none" stroke="#6b7afb" cx="852.628" cy="-1008.5" rx="4.00001" ry="4.00001"/>
<polygon fill="#6b7afb" stroke="#6b7afb" points="879.065,-949.587 887.717,-942.849 881.402,-945.167 883.738,-940.746 883.738,-940.746 883.738,-940.746 881.402,-945.167 879.76,-938.643 879.065,-949.587 879.065,-949.587"/>
<text text-anchor="middle" x="918.329" y="-982.8" font-family="Times,serif" font-size="14.00">received_messages</text>
</g>
<!-- User&#45;&gt;Notification -->
<g id="edge22" class="edge"><title>User&#45;&gt;Notification</title>
<path fill="none" stroke="#db6e60" d="M906.997,-1150.68C990.38,-1118.85 1104.04,-1066.47 1185.69,-994 1202.23,-979.313 1216.83,-960.496 1228.91,-942.002"/>
<ellipse fill="none" stroke="#db6e60" cx="903.019" cy="-1152.19" rx="4.00001" ry="4.00001"/>
<polygon fill="#db6e60" stroke="#db6e60" points="1228.92,-941.986 1238.08,-935.956 1231.6,-937.765 1234.28,-933.544 1234.28,-933.544 1234.28,-933.544 1231.6,-937.765 1230.48,-931.132 1228.92,-941.986 1228.92,-941.986"/>
</g>
<!-- User&#45;&gt;Offering -->
<g id="edge11" class="edge"><title>User&#45;&gt;Offering</title>
<path fill="none" stroke="#e6811e" d="M697.068,-1004.96C690.638,-993.177 684.307,-981.577 678.221,-970.426"/>
<ellipse fill="none" stroke="#e6811e" cx="699.164" cy="-1008.8" rx="4.00002" ry="4.00002"/>
<polygon fill="#e6811e" stroke="#e6811e" points="678.187,-970.363 677.347,-959.429 675.792,-965.974 673.397,-961.585 673.397,-961.585 673.397,-961.585 675.792,-965.974 669.447,-963.741 678.187,-970.363 678.187,-970.363"/>
</g>
<!-- User&#45;&gt;Relationship -->
<g id="edge18" class="edge"><title>User&#45;&gt;Relationship</title>
<path fill="none" stroke="#b9d388" d="M709.143,-1004.25C708.262,-1000.83 707.442,-997.408 706.688,-994 701.6,-970.998 709.95,-947.834 722.353,-927.882"/>
<ellipse fill="none" stroke="#b9d388" cx="710.261" cy="-1008.39" rx="4.00001" ry="4.00001"/>
<polygon fill="#b9d388" stroke="#b9d388" points="722.361,-927.871 731.639,-922.026 725.125,-923.704 727.89,-919.538 727.89,-919.538 727.89,-919.538 725.125,-923.704 724.14,-917.05 722.361,-927.871 722.361,-927.871"/>
</g>
<!-- User&#45;&gt;Relationship -->
<g id="edge19" class="edge"><title>User&#45;&gt;Relationship</title>
<path fill="none" stroke="#67d798" d="M723.914,-1004.14C724.164,-996.026 725.063,-987.954 726.729,-980 730.32,-962.85 736.759,-945.101 743.776,-929.015"/>
<ellipse fill="none" stroke="#67d798" cx="723.895" cy="-1008.27" rx="4" ry="4"/>
<polygon fill="#67d798" stroke="#67d798" points="743.843,-928.867 752.059,-921.604 745.901,-924.31 747.958,-919.753 747.958,-919.753 747.958,-919.753 745.901,-924.31 743.857,-917.901 743.843,-928.867 743.843,-928.867"/>
<text text-anchor="middle" x="787.167" y="-982.8" font-family="Times,serif" font-size="14.00">reverse_relationships</text>
</g>
<!-- User&#45;&gt;Task -->
<g id="edge10" class="edge"><title>User&#45;&gt;Task</title>
<path fill="none" stroke="#6efd01" d="M688.152,-1095.49C643.261,-1055.85 591.558,-1008.09 547.688,-962 547.267,-961.558 546.847,-961.115 546.426,-960.669"/>
<ellipse fill="none" stroke="#6efd01" cx="691.154" cy="-1098.13" rx="4.00002" ry="4.00002"/>
<polygon fill="#6efd01" stroke="#6efd01" points="546.389,-960.629 542.892,-950.236 542.99,-956.962 539.591,-953.295 539.591,-953.295 539.591,-953.295 542.99,-956.962 536.291,-956.354 546.389,-960.629 546.389,-960.629"/>
</g>
<!-- User&#45;&gt;User -->
<g id="edge16" class="edge"><title>User&#45;&gt;User</title>
<path fill="none" stroke="#da3a3e" d="M909.287,-1194.22C914.141,-1192.75 916.966,-1190.85 916.966,-1188.5 916.966,-1186.15 914.141,-1184.25 909.287,-1182.78"/>
<polygon fill="#da3a3e" stroke="#da3a3e" points="909.137,-1194.25 898.434,-1191.86 904.24,-1195.26 899.343,-1196.27 899.343,-1196.27 899.343,-1196.27 904.24,-1195.26 900.252,-1200.67 909.137,-1194.25 909.137,-1194.25"/>
<polygon fill="#da3a3e" stroke="#da3a3e" points="909.137,-1182.75 900.252,-1176.33 904.24,-1181.74 899.343,-1180.73 899.343,-1180.73 899.343,-1180.73 904.24,-1181.74 898.434,-1185.14 909.137,-1182.75 909.137,-1182.75"/>
<text text-anchor="middle" x="937.959" y="-1184.3" font-family="Times,serif" font-size="14.00">senders</text>
</g>
<!-- User&#45;&gt;User -->
<g id="edge17" class="edge"><title>User&#45;&gt;User</title>
<path fill="none" stroke="#100f54" d="M909.36,-1206.88C937.492,-1205.37 958.952,-1199.24 958.952,-1188.5 958.952,-1177.76 937.492,-1171.63 909.36,-1170.12"/>
<polygon fill="#100f54" stroke="#100f54" points="909.15,-1206.89 899.005,-1202.72 904.153,-1207.05 899.155,-1207.22 899.155,-1207.22 899.155,-1207.22 904.153,-1207.05 899.306,-1211.72 909.15,-1206.89 909.15,-1206.89"/>
<polygon fill="#100f54" stroke="#100f54" points="909.15,-1170.11 899.306,-1165.28 904.153,-1169.95 899.155,-1169.78 899.155,-1169.78 899.155,-1169.78 904.153,-1169.95 899.005,-1174.28 909.15,-1170.11 909.15,-1170.11"/>
<text text-anchor="middle" x="987.324" y="-1184.3" font-family="Times,serif" font-size="14.00">recepients</text>
</g>
<!-- User&#45;&gt;User -->
<g id="edge20" class="edge"><title>User&#45;&gt;User</title>
<path fill="none" stroke="#20469d" d="M909.263,-1216.27C964.06,-1218.61 1015.7,-1209.36 1015.7,-1188.5 1015.7,-1167.64 964.06,-1158.39 909.263,-1160.73"/>
<polygon fill="#20469d" stroke="#20469d" points="908.991,-1216.25 899.257,-1211.2 903.998,-1215.98 899.006,-1215.7 899.006,-1215.7 899.006,-1215.7 903.998,-1215.98 898.755,-1220.19 908.991,-1216.25 908.991,-1216.25"/>
<polygon fill="#20469d" stroke="#20469d" points="908.991,-1160.75 898.755,-1156.81 903.998,-1161.02 899.006,-1161.3 899.006,-1161.3 899.006,-1161.3 903.998,-1161.02 899.257,-1165.8 908.991,-1160.75 908.991,-1160.75"/>
<text text-anchor="middle" x="1058.47" y="-1184.3" font-family="Times,serif" font-size="14.00">followed_users</text>
</g>
<!-- User&#45;&gt;User -->
<g id="edge21" class="edge"><title>User&#45;&gt;User</title>
<path fill="none" stroke="#ec60e5" d="M909.52,-1222.76C998.085,-1232.27 1101.24,-1220.85 1101.24,-1188.5 1101.24,-1156.15 998.085,-1144.73 909.52,-1154.24"/>
<polygon fill="#ec60e5" stroke="#ec60e5" points="909.284,-1222.73 899.876,-1217.1 904.318,-1222.15 899.352,-1221.57 899.352,-1221.57 899.352,-1221.57 904.318,-1222.15 898.828,-1226.04 909.284,-1222.73 909.284,-1222.73"/>
<polygon fill="#ec60e5" stroke="#ec60e5" points="909.284,-1154.27 898.828,-1150.96 904.318,-1154.85 899.352,-1155.43 899.352,-1155.43 899.352,-1155.43 904.318,-1154.85 899.876,-1159.9 909.284,-1154.27 909.284,-1154.27"/>
<text text-anchor="middle" x="1127.67" y="-1184.3" font-family="Times,serif" font-size="14.00">followers</text>
</g>
<!-- User&#45;&gt;Want -->
<g id="edge12" class="edge"><title>User&#45;&gt;Want</title>
<path fill="none" stroke="#dbfe66" d="M687.102,-1139.44C602.582,-1099.26 485.502,-1036.62 396.688,-962 396.422,-961.777 396.157,-961.553 395.892,-961.328"/>
<ellipse fill="none" stroke="#dbfe66" cx="690.792" cy="-1141.19" rx="4.00002" ry="4.00002"/>
<polygon fill="#dbfe66" stroke="#dbfe66" points="395.748,-961.199 391.284,-951.183 392.018,-957.869 388.288,-954.54 388.288,-954.54 388.288,-954.54 392.018,-957.869 385.291,-957.897 395.748,-961.199 395.748,-961.199"/>
</g>
</g>
</svg>
