<?xml version="1.0" encoding="UTF-8" standalone="no"?>
<!DOCTYPE svg PUBLIC "-//W3C//DTD SVG 1.1//EN"
 "http://www.w3.org/Graphics/SVG/1.1/DTD/svg11.dtd">
<!-- Generated by graphviz version 2.38.0 (20140413.2041)
 -->
<!-- Title: models_diagram Pages: 1 -->
<svg width="997pt" height="399pt"
 viewBox="0.00 0.00 996.87 399.00" xmlns="http://www.w3.org/2000/svg" xmlns:xlink="http://www.w3.org/1999/xlink">
<g id="graph0" class="graph" transform="scale(1 1) rotate(0) translate(4 395)">
<title>models_diagram</title>
<polygon fill="white" stroke="none" points="-4,4 -4,-395 992.869,-395 992.869,4 -4,4"/>
<!-- _diagram_info -->
<g id="node1" class="node"><title>_diagram_info</title>
<text text-anchor="start" x="512.127" y="-376.6" font-family="Times,serif" font-size="13.00">Models diagram</text>
<text text-anchor="start" x="512.127" y="-363.6" font-family="Times,serif" font-size="13.00">Date: Aug 17 2015 &#45; 12:21</text>
<text text-anchor="start" x="512.127" y="-350.6" font-family="Times,serif" font-size="13.00">Migration version: 20150813065851</text>
<text text-anchor="start" x="512.127" y="-337.6" font-family="Times,serif" font-size="13.00">Generated by RailRoady 1.3.0</text>
<text text-anchor="start" x="512.127" y="-324.6" font-family="Times,serif" font-size="13.00">http://railroady.prestonlee.com</text>
</g>
<!-- Ability -->
<g id="node2" class="node"><title>Ability</title>
<polygon fill="none" stroke="black" points="785.484,-372.5 730.145,-372.5 730.145,-336.5 785.484,-336.5 785.484,-372.5"/>
<text text-anchor="middle" x="757.814" y="-350.3" font-family="Times,serif" font-size="14.00">Ability</text>
</g>
<!-- Account -->
<g id="node3" class="node"><title>Account</title>
<ellipse fill="none" stroke="black" cx="843.814" cy="-354.5" rx="40.1317" ry="18"/>
<text text-anchor="middle" x="843.814" y="-350.3" font-family="Times,serif" font-size="14.00">Account</text>
</g>
<!-- Payment -->
<g id="node12" class="node"><title>Payment</title>
<ellipse fill="none" stroke="black" cx="947.814" cy="-250" rx="41.1093" ry="18"/>
<text text-anchor="middle" x="947.814" y="-245.8" font-family="Times,serif" font-size="14.00">Payment</text>
</g>
<!-- Account&#45;&gt;Payment -->
<g id="edge1" class="edge"><title>Account&#45;&gt;Payment</title>
<path fill="none" stroke="#190480" d="M851.771,-328.603C857.226,-314.696 865.641,-297.838 877.49,-286 885.773,-277.725 896.41,-271.064 906.889,-265.865"/>
<ellipse fill="none" stroke="#190480" cx="850.283" cy="-332.637" rx="4.00001" ry="4.00001"/>
<polygon fill="#190480" stroke="#190480" points="906.913,-265.854 917.879,-265.756 911.455,-263.761 915.996,-261.669 915.996,-261.669 915.996,-261.669 911.455,-263.761 914.112,-257.582 906.913,-265.854 906.913,-265.854"/>
<text text-anchor="middle" x="905.977" y="-288.8" font-family="Times,serif" font-size="14.00">withdraws</text>
</g>
<!-- Account&#45;&gt;Payment -->
<g id="edge2" class="edge"><title>Account&#45;&gt;Payment</title>
<path fill="none" stroke="#111a2c" d="M869.194,-333.416C876.581,-328.044 884.82,-322.49 892.814,-318 910.879,-307.855 922.353,-315.749 935.814,-300 941.038,-293.89 944.058,-285.862 945.784,-278.078"/>
<ellipse fill="none" stroke="#111a2c" cx="865.889" cy="-335.875" rx="4.00002" ry="4.00002"/>
<polygon fill="#111a2c" stroke="#111a2c" points="945.79,-278.039 951.825,-268.883 946.586,-273.103 947.383,-268.166 947.383,-268.166 947.383,-268.166 946.586,-273.103 942.94,-267.45 945.79,-278.039 945.79,-278.039"/>
<text text-anchor="middle" x="965.759" y="-288.8" font-family="Times,serif" font-size="14.00">deposits</text>
</g>
<!-- User -->
<g id="node16" class="node"><title>User</title>
<ellipse fill="none" stroke="black" cx="364.814" cy="-250" rx="27" ry="18"/>
<text text-anchor="middle" x="364.814" y="-245.8" font-family="Times,serif" font-size="14.00">User</text>
</g>
<!-- Account&#45;&gt;User -->
<g id="edge4" class="edge"><title>Account&#45;&gt;User</title>
<path fill="none" stroke="#0581b0" d="M818.859,-331.787C811.543,-326.466 803.235,-321.346 794.814,-318 737.211,-295.113 717.824,-309.136 656.518,-300 563.948,-286.206 455.337,-267.217 400.443,-257.422"/>
<polygon fill="#0581b0" stroke="#0581b0" points="819.026,-331.915 824.188,-341.59 822.983,-334.972 826.939,-338.029 826.939,-338.029 826.939,-338.029 822.983,-334.972 829.691,-334.468 819.026,-331.915 819.026,-331.915"/>
<polygon fill="#0581b0" stroke="#0581b0" points="400.361,-257.407 391.31,-251.217 395.439,-256.527 390.517,-255.646 390.517,-255.646 390.517,-255.646 395.439,-256.527 389.725,-260.076 400.361,-257.407 400.361,-257.407"/>
<text text-anchor="middle" x="682.463" y="-288.8" font-family="Times,serif" font-size="14.00">recepient</text>
</g>
<!-- Sender -->
<g id="node18" class="node"><title>Sender</title>
<ellipse fill="none" stroke="black" cx="853.814" cy="-250" rx="34.8285" ry="18"/>
<text text-anchor="middle" x="853.814" y="-245.8" font-family="Times,serif" font-size="14.00">Sender</text>
</g>
<!-- Account&#45;&gt;Sender -->
<g id="edge3" class="edge"><title>Account&#45;&gt;Sender</title>
<path fill="none" stroke="#257e54" d="M846.5,-325.974C847.946,-311.155 849.723,-292.94 851.163,-278.175"/>
<polygon fill="#257e54" stroke="#257e54" points="846.482,-326.16 841.032,-335.675 845.996,-331.136 845.511,-336.112 845.511,-336.112 845.511,-336.112 845.996,-331.136 849.99,-336.549 846.482,-326.16 846.482,-326.16"/>
<polygon fill="#257e54" stroke="#257e54" points="851.172,-278.084 856.622,-268.568 851.658,-273.107 852.143,-268.131 852.143,-268.131 852.143,-268.131 851.658,-273.107 847.664,-267.694 851.172,-278.084 851.172,-278.084"/>
</g>
<!-- Category -->
<g id="node4" class="node"><title>Category</title>
<ellipse fill="none" stroke="black" cx="758.814" cy="-250" rx="42.5456" ry="18"/>
<text text-anchor="middle" x="758.814" y="-245.8" font-family="Times,serif" font-size="14.00">Category</text>
</g>
<!-- Offering -->
<g id="node11" class="node"><title>Offering</title>
<ellipse fill="none" stroke="black" cx="749.814" cy="-164" rx="40.2968" ry="18"/>
<text text-anchor="middle" x="749.814" y="-159.8" font-family="Times,serif" font-size="14.00">Offering</text>
</g>
<!-- Category&#45;&gt;Offering -->
<g id="edge6" class="edge"><title>Category&#45;&gt;Offering</title>
<path fill="none" stroke="#30f32c" d="M765.801,-224.081C767.06,-216.324 767.506,-207.769 765.814,-200 765.153,-196.964 764.205,-193.877 763.095,-190.856"/>
<ellipse fill="none" stroke="#30f32c" cx="764.971" cy="-228.19" rx="4.00001" ry="4.00001"/>
<polygon fill="#30f32c" stroke="#30f32c" points="763.064,-190.785 763.294,-179.821 761.109,-186.183 759.153,-181.581 759.153,-181.581 759.153,-181.581 761.109,-186.183 755.011,-183.342 763.064,-190.785 763.064,-190.785"/>
</g>
<!-- Task -->
<g id="node15" class="node"><title>Task</title>
<ellipse fill="none" stroke="black" cx="664.814" cy="-164" rx="27" ry="18"/>
<text text-anchor="middle" x="664.814" y="-159.8" font-family="Times,serif" font-size="14.00">Task</text>
</g>
<!-- Category&#45;&gt;Task -->
<g id="edge5" class="edge"><title>Category&#45;&gt;Task</title>
<path fill="none" stroke="#3cbc82" d="M735.074,-227.785C720.564,-214.818 702.098,-198.318 687.74,-185.486"/>
<ellipse fill="none" stroke="#3cbc82" cx="738.151" cy="-230.535" rx="4.00002" ry="4.00002"/>
<polygon fill="#3cbc82" stroke="#3cbc82" points="687.693,-185.445 683.235,-175.426 683.965,-182.113 680.236,-178.781 680.236,-178.781 680.236,-178.781 683.965,-182.113 677.238,-182.137 687.693,-185.445 687.693,-185.445"/>
</g>
<!-- Want -->
<g id="node17" class="node"><title>Want</title>
<ellipse fill="none" stroke="black" cx="590.814" cy="-164" rx="28.6076" ry="18"/>
<text text-anchor="middle" x="590.814" y="-159.8" font-family="Times,serif" font-size="14.00">Want</text>
</g>
<!-- Category&#45;&gt;Want -->
<g id="edge7" class="edge"><title>Category&#45;&gt;Want</title>
<path fill="none" stroke="#0b2eaa" d="M724.886,-232.036C694.74,-216.963 651.045,-195.115 621.818,-180.502"/>
<ellipse fill="none" stroke="#0b2eaa" cx="728.617" cy="-233.901" rx="4.00002" ry="4.00002"/>
<polygon fill="#0b2eaa" stroke="#0b2eaa" points="621.446,-180.316 614.514,-171.819 616.974,-178.08 612.502,-175.844 612.502,-175.844 612.502,-175.844 616.974,-178.08 610.489,-179.869 621.446,-180.316 621.446,-180.316"/>
</g>
<!-- Contract -->
<g id="node5" class="node"><title>Contract</title>
<ellipse fill="none" stroke="black" cx="410.814" cy="-91" rx="40.6162" ry="18"/>
<text text-anchor="middle" x="410.814" y="-86.8" font-family="Times,serif" font-size="14.00">Contract</text>
</g>
<!-- Negotiation -->
<g id="node9" class="node"><title>Negotiation</title>
<ellipse fill="none" stroke="black" cx="604.814" cy="-18" rx="51.7174" ry="18"/>
<text text-anchor="middle" x="604.814" y="-13.8" font-family="Times,serif" font-size="14.00">Negotiation</text>
</g>
<!-- Contract&#45;&gt;Negotiation -->
<g id="edge8" class="edge"><title>Contract&#45;&gt;Negotiation</title>
<path fill="none" stroke="#6d405b" d="M448.842,-76.0828C481.008,-64.3107 527.118,-47.4353 560.861,-35.0862"/>
<ellipse fill="none" stroke="#6d405b" cx="444.883" cy="-77.5315" rx="4.00001" ry="4.00001"/>
<polygon fill="#6d405b" stroke="#6d405b" points="561.075,-35.0076 572.013,-35.7966 565.771,-33.2892 570.466,-31.5707 570.466,-31.5707 570.466,-31.5707 565.771,-33.2892 568.92,-27.3448 561.075,-35.0076 561.075,-35.0076"/>
</g>
<!-- Entrust -->
<g id="node6" class="node"><title>Entrust</title>
<ellipse fill="none" stroke="black" cx="604.814" cy="-91" rx="35.806" ry="18"/>
<text text-anchor="middle" x="604.814" y="-86.8" font-family="Times,serif" font-size="14.00">Entrust</text>
</g>
<!-- Entrust&#45;&gt;Negotiation -->
<g id="edge9" class="edge"><title>Entrust&#45;&gt;Negotiation</title>
<path fill="none" stroke="#074e39" d="M604.814,-64.791C604.814,-58.832 604.814,-52.4496 604.814,-46.3988"/>
<ellipse fill="none" stroke="#074e39" cx="604.815" cy="-68.8129" rx="4" ry="4"/>
<polygon fill="#074e39" stroke="#074e39" points="604.815,-46.0288 609.314,-36.0288 604.815,-41.0288 604.814,-36.0288 604.814,-36.0288 604.814,-36.0288 604.815,-41.0288 600.314,-36.0289 604.815,-46.0288 604.815,-46.0288"/>
</g>
<!-- Entry -->
<g id="node7" class="node"><title>Entry</title>
<ellipse fill="none" stroke="black" cx="723.814" cy="-91" rx="29.5104" ry="18"/>
<text text-anchor="middle" x="723.814" y="-86.8" font-family="Times,serif" font-size="14.00">Entry</text>
</g>
<!-- Entry&#45;&gt;Negotiation -->
<g id="edge10" class="edge"><title>Entry&#45;&gt;Negotiation</title>
<path fill="none" stroke="#bb5253" d="M696.321,-73.5963C679.119,-63.3331 656.836,-50.0381 638.566,-39.1375"/>
<ellipse fill="none" stroke="#bb5253" cx="699.923" cy="-75.7452" rx="4.00002" ry="4.00002"/>
<polygon fill="#bb5253" stroke="#bb5253" points="638.547,-39.1261 632.265,-30.1379 634.253,-36.5642 629.959,-34.0024 629.959,-34.0024 629.959,-34.0024 634.253,-36.5642 627.654,-37.8668 638.547,-39.1261 638.547,-39.1261"/>
</g>
<!-- Message -->
<g id="node8" class="node"><title>Message</title>
<ellipse fill="none" stroke="black" cx="63.8145" cy="-164" rx="41.1007" ry="18"/>
<text text-anchor="middle" x="63.8145" y="-159.8" font-family="Times,serif" font-size="14.00">Message</text>
</g>
<!-- Notification -->
<g id="node10" class="node"><title>Notification</title>
<ellipse fill="none" stroke="black" cx="364.814" cy="-164" rx="52.2106" ry="18"/>
<text text-anchor="middle" x="364.814" y="-159.8" font-family="Times,serif" font-size="14.00">Notification</text>
</g>
<!-- Offering&#45;&gt;Contract -->
<g id="edge12" class="edge"><title>Offering&#45;&gt;Contract</title>
<path fill="none" stroke="#26cd66" d="M712.203,-149.316C708.38,-148.117 704.535,-146.986 700.814,-146 616.987,-123.788 517.174,-107.334 459.199,-98.7393"/>
<ellipse fill="none" stroke="#26cd66" cx="716.172" cy="-150.611" rx="4.00001" ry="4.00001"/>
<polygon fill="#26cd66" stroke="#26cd66" points="459.116,-98.7272 449.874,-92.8242 454.169,-98.0019 449.222,-97.2766 449.222,-97.2766 449.222,-97.2766 454.169,-98.0019 448.569,-101.729 459.116,-98.7272 459.116,-98.7272"/>
</g>
<!-- Offering&#45;&gt;Entrust -->
<g id="edge13" class="edge"><title>Offering&#45;&gt;Entrust</title>
<path fill="none" stroke="#c354d3" d="M716.354,-146.616C693.03,-135.195 662.026,-120.014 638.626,-108.556"/>
<ellipse fill="none" stroke="#c354d3" cx="719.964" cy="-148.383" rx="4.00002" ry="4.00002"/>
<polygon fill="#c354d3" stroke="#c354d3" points="638.408,-108.449 631.406,-100.01 633.918,-106.251 629.427,-104.052 629.427,-104.052 629.427,-104.052 633.918,-106.251 627.448,-108.093 638.408,-108.449 638.408,-108.449"/>
</g>
<!-- Offering&#45;&gt;Entry -->
<g id="edge11" class="edge"><title>Offering&#45;&gt;Entry</title>
<path fill="none" stroke="#abda28" d="M740.881,-138.606C738.512,-132.136 735.942,-125.118 733.533,-118.539"/>
<ellipse fill="none" stroke="#abda28" cx="742.277" cy="-142.418" rx="4.00001" ry="4.00001"/>
<polygon fill="#abda28" stroke="#abda28" points="733.371,-118.095 734.157,-107.158 731.651,-113.4 729.932,-108.705 729.932,-108.705 729.932,-108.705 731.651,-113.4 725.706,-110.253 733.371,-118.095 733.371,-118.095"/>
</g>
<!-- Payment&#45;&gt;Entry -->
<g id="edge14" class="edge"><title>Payment&#45;&gt;Entry</title>
<path fill="none" stroke="#8e4e0e" d="M931.436,-225.729C911.051,-198.389 873.765,-153.418 831.814,-127 809.83,-113.156 781.853,-104.289 759.882,-98.9444"/>
<ellipse fill="none" stroke="#8e4e0e" cx="933.879" cy="-229.054" rx="4.00002" ry="4.00002"/>
<ellipse fill="#8e4e0e" stroke="#8e4e0e" cx="755.978" cy="-98.0374" rx="4.00001" ry="4.00001"/>
</g>
<!-- Relationship -->
<g id="node13" class="node"><title>Relationship</title>
<ellipse fill="none" stroke="black" cx="489.814" cy="-164" rx="54.6248" ry="18"/>
<text text-anchor="middle" x="489.814" y="-159.8" font-family="Times,serif" font-size="14.00">Relationship</text>
</g>
<!-- Talk -->
<g id="node14" class="node"><title>Talk</title>
<ellipse fill="none" stroke="black" cx="928.814" cy="-354.5" rx="27" ry="18"/>
<text text-anchor="middle" x="928.814" y="-350.3" font-family="Times,serif" font-size="14.00">Talk</text>
</g>
<!-- Task&#45;&gt;Contract -->
<g id="edge16" class="edge"><title>Task&#45;&gt;Contract</title>
<path fill="none" stroke="#10adc2" d="M636.54,-149.012C633.955,-147.927 631.354,-146.904 628.814,-146 571.222,-125.498 502.404,-109.854 457.713,-100.807"/>
<ellipse fill="none" stroke="#10adc2" cx="640.514" cy="-150.774" rx="4.00002" ry="4.00002"/>
<polygon fill="#10adc2" stroke="#10adc2" points="457.532,-100.771 448.606,-94.401 452.629,-99.7926 447.725,-98.814 447.725,-98.814 447.725,-98.814 452.629,-99.7926 446.845,-103.227 457.532,-100.771 457.532,-100.771"/>
</g>
<!-- Task&#45;&gt;Entrust -->
<g id="edge17" class="edge"><title>Task&#45;&gt;Entrust</title>
<path fill="none" stroke="#04fd6c" d="M646.681,-141.543C639.779,-133.375 631.878,-124.025 624.813,-115.664"/>
<ellipse fill="none" stroke="#04fd6c" cx="649.508" cy="-144.888" rx="4.00002" ry="4.00002"/>
<polygon fill="#04fd6c" stroke="#04fd6c" points="624.809,-115.66 621.792,-105.118 621.582,-111.841 618.354,-108.022 618.354,-108.022 618.354,-108.022 621.582,-111.841 614.917,-110.927 624.809,-115.66 624.809,-115.66"/>
</g>
<!-- Task&#45;&gt;Entry -->
<g id="edge15" class="edge"><title>Task&#45;&gt;Entry</title>
<path fill="none" stroke="#0f2fd9" d="M682.466,-141.758C689.394,-133.421 697.369,-123.825 704.454,-115.298"/>
<ellipse fill="none" stroke="#0f2fd9" cx="679.883" cy="-144.866" rx="4.00002" ry="4.00002"/>
<polygon fill="#0f2fd9" stroke="#0f2fd9" points="704.521,-115.218 714.373,-110.402 707.717,-111.372 710.912,-107.526 710.912,-107.526 710.912,-107.526 707.717,-111.372 707.451,-104.65 704.521,-115.218 704.521,-115.218"/>
</g>
<!-- User&#45;&gt;Account -->
<g id="edge18" class="edge"><title>User&#45;&gt;Account</title>
<path fill="none" stroke="#0f9d32" d="M400.244,-251.701C463.012,-253.584 597.526,-260.517 707.814,-286 747.956,-295.275 758.457,-298.621 794.814,-318 803.048,-322.388 811.466,-328.005 818.949,-333.468"/>
<ellipse fill="none" stroke="#0f9d32" cx="395.872" cy="-251.579" rx="4" ry="4"/>
<ellipse fill="#0f9d32" stroke="#0f9d32" cx="822.328" cy="-336.003" rx="4.00002" ry="4.00002"/>
</g>
<!-- User&#45;&gt;Contract -->
<g id="edge23" class="edge"><title>User&#45;&gt;Contract</title>
<path fill="none" stroke="#e7c7f1" d="M329.862,-245.725C308.998,-241.765 284.059,-233.064 270.814,-214 253.571,-189.18 253.716,-170.921 270.814,-146 291.029,-116.537 329.769,-103.144 361.382,-97.0591"/>
<ellipse fill="none" stroke="#e7c7f1" cx="333.972" cy="-246.409" rx="4.00001" ry="4.00001"/>
<polygon fill="#e7c7f1" stroke="#e7c7f1" points="361.51,-97.037 372.131,-99.7629 366.436,-96.183 371.363,-95.329 371.363,-95.329 371.363,-95.329 366.436,-96.183 370.594,-90.8951 361.51,-97.037 361.51,-97.037"/>
</g>
<!-- User&#45;&gt;Entrust -->
<g id="edge24" class="edge"><title>User&#45;&gt;Entrust</title>
<path fill="none" stroke="#67c2b1" d="M340.943,-230.97C315.332,-209.467 281.195,-173.039 303.814,-146 320.115,-126.514 480.308,-105.979 560.109,-96.8572"/>
<ellipse fill="none" stroke="#67c2b1" cx="344.131" cy="-233.572" rx="4.00002" ry="4.00002"/>
<polygon fill="#67c2b1" stroke="#67c2b1" points="560.414,-96.8227 570.857,-100.17 565.383,-96.2606 570.351,-95.6986 570.351,-95.6986 570.351,-95.6986 565.383,-96.2606 569.845,-91.2271 560.414,-96.8227 560.414,-96.8227"/>
</g>
<!-- User&#45;&gt;Entry -->
<g id="edge22" class="edge"><title>User&#45;&gt;Entry</title>
<path fill="none" stroke="#9144ac" d="M399.955,-249.304C494.203,-249.28 748.84,-243.426 798.814,-182 808.912,-169.589 806.109,-160.24 798.814,-146 789.948,-128.691 772.664,-115.667 756.921,-106.751"/>
<ellipse fill="none" stroke="#9144ac" cx="395.869" cy="-249.298" rx="4" ry="4"/>
<polygon fill="#9144ac" stroke="#9144ac" points="756.742,-106.656 750.012,-97.9977 752.324,-104.315 747.905,-101.974 747.905,-101.974 747.905,-101.974 752.324,-104.315 745.799,-105.951 756.742,-106.656 756.742,-106.656"/>
</g>
<!-- User&#45;&gt;Message -->
<g id="edge25" class="edge"><title>User&#45;&gt;Message</title>
<path fill="none" stroke="#0299ce" d="M329.441,-248.211C242.844,-245.914 25.6779,-237.814 4.0625,-214 -7.22451,-201.565 6.81376,-189.575 24.1088,-180.568"/>
<ellipse fill="none" stroke="#0299ce" cx="333.647" cy="-248.319" rx="4" ry="4"/>
<polygon fill="#0299ce" stroke="#0299ce" points="24.3167,-180.468 35.2793,-180.2 28.8248,-178.306 33.333,-176.143 33.333,-176.143 33.333,-176.143 28.8248,-178.306 31.3867,-172.086 24.3167,-180.468 24.3167,-180.468"/>
<text text-anchor="middle" x="54.1904" y="-202.8" font-family="Times,serif" font-size="14.00">sended_messages</text>
</g>
<!-- User&#45;&gt;Message -->
<g id="edge26" class="edge"><title>User&#45;&gt;Message</title>
<path fill="none" stroke="#0d0831" d="M329.521,-249.479C281.426,-248.899 193.511,-243.396 125.531,-214 117.501,-210.528 102.09,-198.294 88.6773,-186.921"/>
<ellipse fill="none" stroke="#0d0831" cx="333.741" cy="-249.507" rx="4" ry="4"/>
<polygon fill="#0d0831" stroke="#0d0831" points="88.6676,-186.912 84.0143,-176.983 84.8748,-183.654 81.082,-180.396 81.082,-180.396 81.082,-180.396 84.8748,-183.654 78.1497,-183.81 88.6676,-186.912 88.6676,-186.912"/>
<text text-anchor="middle" x="179.456" y="-202.8" font-family="Times,serif" font-size="14.00">received_messages</text>
</g>
<!-- User&#45;&gt;Notification -->
<g id="edge33" class="edge"><title>User&#45;&gt;Notification</title>
<path fill="none" stroke="#32d6a2" d="M364.814,-223.257C364.814,-213.441 364.814,-202.226 364.814,-192.273"/>
<ellipse fill="none" stroke="#32d6a2" cx="364.815" cy="-227.595" rx="4" ry="4"/>
<polygon fill="#32d6a2" stroke="#32d6a2" points="364.815,-192.095 369.314,-182.095 364.815,-187.095 364.814,-182.095 364.814,-182.095 364.814,-182.095 364.815,-187.095 360.314,-182.095 364.815,-192.095 364.815,-192.095"/>
</g>
<!-- User&#45;&gt;Offering -->
<g id="edge20" class="edge"><title>User&#45;&gt;Offering</title>
<path fill="none" stroke="#e14034" d="M399.864,-246.042C447.45,-241.554 534.925,-231.623 607.814,-214 650.302,-203.728 659.499,-196.275 700.814,-182 703.567,-181.049 706.406,-180.067 709.266,-179.077"/>
<ellipse fill="none" stroke="#e14034" cx="395.719" cy="-246.425" rx="4" ry="4"/>
<polygon fill="#e14034" stroke="#e14034" points="709.526,-178.987 720.448,-179.965 714.25,-177.35 718.975,-175.713 718.975,-175.713 718.975,-175.713 714.25,-177.35 717.502,-171.461 709.526,-178.987 709.526,-178.987"/>
</g>
<!-- User&#45;&gt;Relationship -->
<g id="edge29" class="edge"><title>User&#45;&gt;Relationship</title>
<path fill="none" stroke="#19800c" d="M384.095,-228.088C393.396,-218.75 405.068,-208.06 416.814,-200 426.131,-193.607 436.795,-187.778 447.041,-182.789"/>
<ellipse fill="none" stroke="#19800c" cx="381.14" cy="-231.122" rx="4.00002" ry="4.00002"/>
<polygon fill="#19800c" stroke="#19800c" points="447.231,-182.7 458.195,-182.525 451.757,-180.575 456.283,-178.451 456.283,-178.451 456.283,-178.451 451.757,-180.575 454.371,-174.377 447.231,-182.7 447.231,-182.7"/>
</g>
<!-- User&#45;&gt;Relationship -->
<g id="edge30" class="edge"><title>User&#45;&gt;Relationship</title>
<path fill="none" stroke="#33199b" d="M390.148,-231.976C409.818,-218.758 437.201,-200.356 458.289,-186.185"/>
<ellipse fill="none" stroke="#33199b" cx="386.579" cy="-234.374" rx="4.00002" ry="4.00002"/>
<polygon fill="#33199b" stroke="#33199b" points="458.31,-186.171 469.12,-184.329 462.46,-183.383 466.61,-180.594 466.61,-180.594 466.61,-180.594 462.46,-183.383 464.1,-176.859 458.31,-186.171 458.31,-186.171"/>
<text text-anchor="middle" x="494.294" y="-202.8" font-family="Times,serif" font-size="14.00">reverse_relationships</text>
</g>
<!-- User&#45;&gt;Task -->
<g id="edge19" class="edge"><title>User&#45;&gt;Task</title>
<path fill="none" stroke="#14e50f" d="M399.782,-247.092C442.947,-243.882 518.091,-235.48 578.814,-214 600.001,-206.505 621.985,-193.88 638.423,-183.322"/>
<ellipse fill="none" stroke="#14e50f" cx="395.579" cy="-247.387" rx="4" ry="4"/>
<polygon fill="#14e50f" stroke="#14e50f" points="638.59,-183.212 649.417,-181.474 642.767,-180.464 646.944,-177.715 646.944,-177.715 646.944,-177.715 642.767,-180.464 644.47,-173.956 638.59,-183.212 638.59,-183.212"/>
</g>
<!-- User&#45;&gt;User -->
<g id="edge27" class="edge"><title>User&#45;&gt;User</title>
<path fill="none" stroke="#b16119" d="M402.325,-251.697C406.853,-251.39 409.814,-250.825 409.814,-250 409.814,-249.175 406.853,-248.61 402.325,-248.303"/>
<polygon fill="#b16119" stroke="#b16119" points="402.052,-251.704 391.937,-247.468 397.053,-251.835 392.055,-251.967 392.055,-251.967 392.055,-251.967 397.053,-251.835 392.173,-256.465 402.052,-251.704 402.052,-251.704"/>
<polygon fill="#b16119" stroke="#b16119" points="402.052,-248.296 392.173,-243.535 397.053,-248.165 392.055,-248.033 392.055,-248.033 392.055,-248.033 397.053,-248.165 391.937,-252.532 402.052,-248.296 402.052,-248.296"/>
<text text-anchor="middle" x="430.808" y="-245.8" font-family="Times,serif" font-size="14.00">senders</text>
</g>
<!-- User&#45;&gt;User -->
<g id="edge28" class="edge"><title>User&#45;&gt;User</title>
<path fill="none" stroke="#e298b9" d="M401.91,-253.703C426.266,-254.5 451.801,-253.266 451.801,-250 451.801,-246.734 426.266,-245.5 401.91,-246.297"/>
<polygon fill="#e298b9" stroke="#e298b9" points="401.612,-253.689 391.826,-248.741 396.617,-253.463 391.622,-253.237 391.622,-253.237 391.622,-253.237 396.617,-253.463 391.418,-257.732 401.612,-253.689 401.612,-253.689"/>
<polygon fill="#e298b9" stroke="#e298b9" points="401.612,-246.311 391.418,-242.268 396.617,-246.537 391.622,-246.763 391.622,-246.763 391.622,-246.763 396.617,-246.537 391.826,-251.259 401.612,-246.311 401.612,-246.311"/>
<text text-anchor="middle" x="480.173" y="-245.8" font-family="Times,serif" font-size="14.00">recepients</text>
</g>
<!-- User&#45;&gt;User -->
<g id="edge31" class="edge"><title>User&#45;&gt;User</title>
<path fill="none" stroke="#d427cb" d="M401.501,-254.611C445.636,-257.318 508.546,-255.781 508.546,-250 508.546,-244.219 445.636,-242.682 401.501,-245.389"/>
<polygon fill="#d427cb" stroke="#d427cb" points="401.264,-254.594 391.612,-249.39 396.277,-254.236 391.29,-253.878 391.29,-253.878 391.29,-253.878 396.277,-254.236 390.968,-258.367 401.264,-254.594 401.264,-254.594"/>
<polygon fill="#d427cb" stroke="#d427cb" points="401.264,-245.406 390.968,-241.633 396.277,-245.764 391.29,-246.122 391.29,-246.122 391.29,-246.122 396.277,-245.764 391.612,-250.61 401.264,-245.406 401.264,-245.406"/>
<text text-anchor="middle" x="551.315" y="-245.8" font-family="Times,serif" font-size="14.00">followed_users</text>
</g>
<!-- User&#45;&gt;User -->
<g id="edge32" class="edge"><title>User&#45;&gt;User</title>
<path fill="none" stroke="#8d9bf7" d="M401.57,-255.058C468.77,-260.076 594.084,-258.39 594.084,-250 594.084,-241.61 468.77,-239.924 401.57,-244.942"/>
<polygon fill="#8d9bf7" stroke="#8d9bf7" points="401.277,-255.033 391.689,-249.711 396.294,-254.614 391.312,-254.195 391.312,-254.195 391.312,-254.195 396.294,-254.614 390.935,-258.679 401.277,-255.033 401.277,-255.033"/>
<polygon fill="#8d9bf7" stroke="#8d9bf7" points="401.277,-244.967 390.935,-241.321 396.294,-245.386 391.312,-245.805 391.312,-245.805 391.312,-245.805 396.294,-245.386 391.689,-250.289 401.277,-244.967 401.277,-244.967"/>
<text text-anchor="middle" x="620.522" y="-245.8" font-family="Times,serif" font-size="14.00">followers</text>
</g>
<!-- User&#45;&gt;Want -->
<g id="edge21" class="edge"><title>User&#45;&gt;Want</title>
<path fill="none" stroke="#06b251" d="M399.657,-245.941C447.978,-241.156 532.281,-230.683 557.814,-214 566.608,-208.254 573.648,-199.263 578.929,-190.542"/>
<ellipse fill="none" stroke="#06b251" cx="395.632" cy="-246.33" rx="4" ry="4"/>
<polygon fill="#06b251" stroke="#06b251" points="578.974,-190.461 587.739,-183.87 581.385,-186.081 583.796,-181.7 583.796,-181.7 583.796,-181.7 581.385,-186.081 579.854,-179.53 578.974,-190.461 578.974,-190.461"/>
</g>
<!-- Want&#45;&gt;Contract -->
<g id="edge35" class="edge"><title>Want&#45;&gt;Contract</title>
<path fill="none" stroke="#1b34aa" d="M561.645,-148.591C559.035,-147.61 556.401,-146.726 553.814,-146 520.64,-136.693 422.72,-153.739 399.814,-128 397.35,-125.231 396.518,-121.922 396.715,-118.448"/>
<ellipse fill="none" stroke="#1b34aa" cx="565.635" cy="-150.234" rx="4.00001" ry="4.00001"/>
<polygon fill="#1b34aa" stroke="#1b34aa" points="396.796,-118.16 403.831,-109.748 398.147,-113.346 399.499,-108.532 399.499,-108.532 399.499,-108.532 398.147,-113.346 395.166,-107.316 396.796,-118.16 396.796,-118.16"/>
</g>
<!-- Want&#45;&gt;Entrust -->
<g id="edge36" class="edge"><title>Want&#45;&gt;Entrust</title>
<path fill="none" stroke="#16b0f3" d="M595.785,-137.791C596.99,-131.683 598.282,-125.13 599.501,-118.946"/>
<ellipse fill="none" stroke="#16b0f3" cx="594.977" cy="-141.888" rx="4.00001" ry="4.00001"/>
<polygon fill="#16b0f3" stroke="#16b0f3" points="599.522,-118.84 605.872,-109.899 600.489,-113.934 601.457,-109.029 601.457,-109.029 601.457,-109.029 600.489,-113.934 597.042,-108.158 599.522,-118.84 599.522,-118.84"/>
</g>
<!-- Want&#45;&gt;Entry -->
<g id="edge34" class="edge"><title>Want&#45;&gt;Entry</title>
<path fill="none" stroke="#195079" d="M619.204,-147.845C640.864,-136.282 670.668,-120.371 692.924,-108.49"/>
<ellipse fill="none" stroke="#195079" cx="615.417" cy="-149.866" rx="4.00002" ry="4.00002"/>
<polygon fill="#195079" stroke="#195079" points="693.133,-108.379 704.074,-107.639 697.544,-106.024 701.955,-103.67 701.955,-103.67 701.955,-103.67 697.544,-106.024 699.835,-99.6998 693.133,-108.379 693.133,-108.379"/>
</g>
</g>
</svg>
