<?xml version="1.0" encoding="UTF-8" standalone="no"?>
<!DOCTYPE svg PUBLIC "-//W3C//DTD SVG 1.1//EN"
 "http://www.w3.org/Graphics/SVG/1.1/DTD/svg11.dtd">
<!-- Generated by graphviz version 2.38.0 (20140413.2041)
 -->
<!-- Title: models_diagram Pages: 1 -->
<svg width="1087pt" height="399pt"
 viewBox="0.00 0.00 1087.04 399.00" xmlns="http://www.w3.org/2000/svg" xmlns:xlink="http://www.w3.org/1999/xlink">
<g id="graph0" class="graph" transform="scale(1 1) rotate(0) translate(4 395)">
<title>models_diagram</title>
<polygon fill="none" stroke="none" points="-4,4 -4,-395 1083.04,-395 1083.04,4 -4,4"/>
<!-- _diagram_info -->
<g id="node1" class="node"><title>_diagram_info</title>
<text text-anchor="start" x="8" y="-376.6" font-family="Times,serif" font-size="13.00">Models diagram</text>
<text text-anchor="start" x="8" y="-363.6" font-family="Times,serif" font-size="13.00">Date: Sep 15 2015 &#45; 10:08</text>
<text text-anchor="start" x="8" y="-350.6" font-family="Times,serif" font-size="13.00">Migration version: 20150909010032</text>
<text text-anchor="start" x="8" y="-337.6" font-family="Times,serif" font-size="13.00">Generated by RailRoady 1.3.1</text>
<text text-anchor="start" x="8" y="-324.6" font-family="Times,serif" font-size="13.00">http://railroady.prestonlee.com</text>
</g>
<!-- Ability -->
<g id="node2" class="node"><title>Ability</title>
<polygon fill="none" stroke="black" points="281.358,-372.5 226.018,-372.5 226.018,-336.5 281.358,-336.5 281.358,-372.5"/>
<text text-anchor="middle" x="253.688" y="-350.3" font-family="Times,serif" font-size="14.00">Ability</text>
</g>
<!-- Account -->
<g id="node3" class="node"><title>Account</title>
<ellipse fill="none" stroke="black" cx="878.688" cy="-250" rx="40.1317" ry="18"/>
<text text-anchor="middle" x="878.688" y="-245.8" font-family="Times,serif" font-size="14.00">Account</text>
</g>
<!-- Payment -->
<g id="node10" class="node"><title>Payment</title>
<ellipse fill="none" stroke="black" cx="840.688" cy="-164" rx="41.1093" ry="18"/>
<text text-anchor="middle" x="840.688" y="-159.8" font-family="Times,serif" font-size="14.00">Payment</text>
</g>
<!-- Account&#45;&gt;Payment -->
<g id="edge1" class="edge"><title>Account&#45;&gt;Payment</title>
<path fill="none" stroke="#18a345" d="M834.869,-239.027C821.858,-233.803 809.042,-225.904 801.364,-214 795.019,-204.163 800.903,-193.963 809.879,-185.433"/>
<ellipse fill="none" stroke="#18a345" cx="838.756" cy="-240.438" rx="4.00001" ry="4.00001"/>
<polygon fill="#18a345" stroke="#18a345" points="809.903,-185.413 820.457,-182.437 813.734,-182.201 817.566,-178.989 817.566,-178.989 817.566,-178.989 813.734,-182.201 814.675,-175.54 809.903,-185.413 809.903,-185.413"/>
<text text-anchor="middle" x="830.85" y="-202.8" font-family="Times,serif" font-size="14.00">withdraws</text>
</g>
<!-- Account&#45;&gt;Payment -->
<g id="edge2" class="edge"><title>Account&#45;&gt;Payment</title>
<path fill="none" stroke="#f972a2" d="M869.869,-224.443C866.848,-216.549 863.31,-207.824 859.688,-200 858.264,-196.926 856.69,-193.746 855.074,-190.614"/>
<ellipse fill="none" stroke="#f972a2" cx="871.297" cy="-228.251" rx="4.00001" ry="4.00001"/>
<polygon fill="#f972a2" stroke="#f972a2" points="854.924,-190.334 854.182,-179.393 852.569,-185.924 850.213,-181.513 850.213,-181.513 850.213,-181.513 852.569,-185.924 846.244,-183.633 854.924,-190.334 854.924,-190.334"/>
<text text-anchor="middle" x="888.633" y="-202.8" font-family="Times,serif" font-size="14.00">deposits</text>
</g>
<!-- Category -->
<g id="node4" class="node"><title>Category</title>
<ellipse fill="none" stroke="black" cx="341.688" cy="-354.5" rx="42.5456" ry="18"/>
<text text-anchor="middle" x="341.688" y="-350.3" font-family="Times,serif" font-size="14.00">Category</text>
</g>
<!-- Entry -->
<g id="node5" class="node"><title>Entry</title>
<ellipse fill="none" stroke="black" cx="840.688" cy="-91" rx="29.5104" ry="18"/>
<text text-anchor="middle" x="840.688" y="-86.8" font-family="Times,serif" font-size="14.00">Entry</text>
</g>
<!-- Category&#45;&gt;Entry -->
<g id="edge6" class="edge"><title>Category&#45;&gt;Entry</title>
<path fill="none" stroke="#33fc01" d="M317.326,-331.989C291.379,-306.466 257.166,-263.42 281.688,-232 346.675,-148.73 684.772,-107.579 801.224,-95.717"/>
<ellipse fill="none" stroke="#33fc01" cx="320.482" cy="-335.009" rx="4.00002" ry="4.00002"/>
<polygon fill="#33fc01" stroke="#33fc01" points="801.517,-95.6878 811.915,-99.169 806.492,-95.1896 811.467,-94.6914 811.467,-94.6914 811.467,-94.6914 806.492,-95.1896 811.019,-90.2137 801.517,-95.6878 801.517,-95.6878"/>
</g>
<!-- Offering -->
<g id="node9" class="node"><title>Offering</title>
<ellipse fill="none" stroke="black" cx="478.688" cy="-250" rx="40.2968" ry="18"/>
<text text-anchor="middle" x="478.688" y="-245.8" font-family="Times,serif" font-size="14.00">Offering</text>
</g>
<!-- Category&#45;&gt;Offering -->
<g id="edge4" class="edge"><title>Category&#45;&gt;Offering</title>
<path fill="none" stroke="#78756e" d="M368.03,-333.792C391.73,-316.06 426.447,-290.085 450.654,-271.974"/>
<ellipse fill="none" stroke="#78756e" cx="364.812" cy="-336.199" rx="4.00002" ry="4.00002"/>
<polygon fill="#78756e" stroke="#78756e" points="450.736,-271.913 461.439,-269.526 454.739,-268.918 458.743,-265.922 458.743,-265.922 458.743,-265.922 454.739,-268.918 456.047,-262.319 450.736,-271.913 450.736,-271.913"/>
</g>
<!-- Task -->
<g id="node13" class="node"><title>Task</title>
<ellipse fill="none" stroke="black" cx="393.688" cy="-250" rx="27" ry="18"/>
<text text-anchor="middle" x="393.688" y="-245.8" font-family="Times,serif" font-size="14.00">Task</text>
</g>
<!-- Category&#45;&gt;Task -->
<g id="edge3" class="edge"><title>Category&#45;&gt;Task</title>
<path fill="none" stroke="#a02685" d="M353.932,-329.365C362.049,-313.365 372.678,-292.413 380.904,-276.199"/>
<ellipse fill="none" stroke="#a02685" cx="352.084" cy="-333.007" rx="4.00002" ry="4.00002"/>
<polygon fill="#a02685" stroke="#a02685" points="380.908,-276.191 389.445,-269.309 383.17,-271.732 385.432,-267.273 385.432,-267.273 385.432,-267.273 383.17,-271.732 381.419,-265.237 380.908,-276.191 380.908,-276.191"/>
</g>
<!-- Want -->
<g id="node15" class="node"><title>Want</title>
<ellipse fill="none" stroke="black" cx="319.688" cy="-250" rx="28.6076" ry="18"/>
<text text-anchor="middle" x="319.688" y="-245.8" font-family="Times,serif" font-size="14.00">Want</text>
</g>
<!-- Category&#45;&gt;Want -->
<g id="edge5" class="edge"><title>Category&#45;&gt;Want</title>
<path fill="none" stroke="#2e5cdf" d="M336.272,-328.269C333.01,-313.07 328.856,-293.715 325.521,-278.179"/>
<ellipse fill="none" stroke="#2e5cdf" cx="337.116" cy="-332.201" rx="4.00001" ry="4.00001"/>
<polygon fill="#2e5cdf" stroke="#2e5cdf" points="325.463,-277.908 327.764,-267.187 324.414,-273.02 323.365,-268.131 323.365,-268.131 323.365,-268.131 324.414,-273.02 318.965,-269.075 325.463,-277.908 325.463,-277.908"/>
</g>
<!-- Negotiation -->
<g id="node7" class="node"><title>Negotiation</title>
<ellipse fill="none" stroke="black" cx="840.688" cy="-18" rx="51.7174" ry="18"/>
<text text-anchor="middle" x="840.688" y="-13.8" font-family="Times,serif" font-size="14.00">Negotiation</text>
</g>
<!-- Entry&#45;&gt;Negotiation -->
<g id="edge7" class="edge"><title>Entry&#45;&gt;Negotiation</title>
<path fill="none" stroke="#cd4e2a" d="M840.688,-64.791C840.688,-58.832 840.688,-52.4496 840.688,-46.3988"/>
<ellipse fill="none" stroke="#cd4e2a" cx="840.688" cy="-68.8129" rx="4" ry="4"/>
<polygon fill="#cd4e2a" stroke="#cd4e2a" points="840.688,-46.0288 845.188,-36.0288 840.688,-41.0288 840.688,-36.0288 840.688,-36.0288 840.688,-36.0288 840.688,-41.0288 836.188,-36.0289 840.688,-46.0288 840.688,-46.0288"/>
</g>
<!-- Message -->
<g id="node6" class="node"><title>Message</title>
<ellipse fill="none" stroke="black" cx="759.688" cy="-250" rx="41.1007" ry="18"/>
<text text-anchor="middle" x="759.688" y="-245.8" font-family="Times,serif" font-size="14.00">Message</text>
</g>
<!-- Notification -->
<g id="node8" class="node"><title>Notification</title>
<ellipse fill="none" stroke="black" cx="1026.69" cy="-250" rx="52.2106" ry="18"/>
<text text-anchor="middle" x="1026.69" y="-245.8" font-family="Times,serif" font-size="14.00">Notification</text>
</g>
<!-- Payment&#45;&gt;Entry -->
<g id="edge8" class="edge"><title>Payment&#45;&gt;Entry</title>
<path fill="none" stroke="#5d0a16" d="M840.688,-137.791C840.688,-131.087 840.688,-123.847 840.688,-117.147"/>
<ellipse fill="none" stroke="#5d0a16" cx="840.688" cy="-141.813" rx="4" ry="4"/>
<ellipse fill="#5d0a16" stroke="#5d0a16" cx="840.688" cy="-113.029" rx="4" ry="4"/>
</g>
<!-- Relationship -->
<g id="node11" class="node"><title>Relationship</title>
<ellipse fill="none" stroke="black" cx="591.688" cy="-250" rx="54.6248" ry="18"/>
<text text-anchor="middle" x="591.688" y="-245.8" font-family="Times,serif" font-size="14.00">Relationship</text>
</g>
<!-- Talk -->
<g id="node12" class="node"><title>Talk</title>
<ellipse fill="none" stroke="black" cx="984.688" cy="-354.5" rx="27" ry="18"/>
<text text-anchor="middle" x="984.688" y="-350.3" font-family="Times,serif" font-size="14.00">Talk</text>
</g>
<!-- User -->
<g id="node14" class="node"><title>User</title>
<ellipse fill="none" stroke="black" cx="606.688" cy="-354.5" rx="27" ry="18"/>
<text text-anchor="middle" x="606.688" y="-350.3" font-family="Times,serif" font-size="14.00">User</text>
</g>
<!-- User&#45;&gt;Account -->
<g id="edge9" class="edge"><title>User&#45;&gt;Account</title>
<path fill="none" stroke="#0481d0" d="M641.719,-352.316C710.907,-349.163 861.137,-338 892.688,-300 898.545,-292.945 897.365,-283.572 893.886,-274.913"/>
<ellipse fill="none" stroke="#0481d0" cx="637.693" cy="-352.49" rx="4" ry="4"/>
<ellipse fill="#0481d0" stroke="#0481d0" cx="892.088" cy="-271.17" rx="4.00002" ry="4.00002"/>
</g>
<!-- User&#45;&gt;Entry -->
<g id="edge13" class="edge"><title>User&#45;&gt;Entry</title>
<path fill="none" stroke="#4475bf" d="M641.747,-351.052C712.005,-345.555 866.971,-330.276 909.688,-300 965.952,-260.122 929.072,-203.294 890.688,-146 883.021,-134.556 872.944,-123.174 863.846,-113.831"/>
<ellipse fill="none" stroke="#4475bf" cx="637.6" cy="-351.369" rx="4" ry="4"/>
<polygon fill="#4475bf" stroke="#4475bf" points="863.586,-113.571 859.688,-103.321 860.047,-110.038 856.509,-106.506 856.509,-106.506 856.509,-106.506 860.047,-110.038 853.33,-109.69 863.586,-113.571 863.586,-113.571"/>
</g>
<!-- User&#45;&gt;Message -->
<g id="edge14" class="edge"><title>User&#45;&gt;Message</title>
<path fill="none" stroke="#4b7825" d="M641.005,-348.178C687.952,-340.117 768.37,-323.251 785.688,-300 791.469,-292.238 788.704,-283.019 783.212,-274.682"/>
<ellipse fill="none" stroke="#4b7825" cx="636.877" cy="-348.872" rx="4.00001" ry="4.00001"/>
<polygon fill="#4b7825" stroke="#4b7825" points="783.165,-274.622 780.579,-263.965 780.096,-270.674 777.026,-266.727 777.026,-266.727 777.026,-266.727 780.096,-270.674 773.474,-269.489 783.165,-274.622 783.165,-274.622"/>
<text text-anchor="middle" x="839.064" y="-288.8" font-family="Times,serif" font-size="14.00">sended_messages</text>
</g>
<!-- User&#45;&gt;Message -->
<g id="edge15" class="edge"><title>User&#45;&gt;Message</title>
<path fill="none" stroke="#27ee26" d="M624.22,-332.015C636.942,-317.507 655.223,-298.749 674.405,-286 687.508,-277.29 703.125,-270.108 717.393,-264.565"/>
<ellipse fill="none" stroke="#27ee26" cx="621.389" cy="-335.311" rx="4.00002" ry="4.00002"/>
<polygon fill="#27ee26" stroke="#27ee26" points="717.634,-264.476 728.575,-265.209 722.32,-262.733 727.007,-260.991 727.007,-260.991 727.007,-260.991 722.32,-262.733 725.439,-256.773 717.634,-264.476 717.634,-264.476"/>
<text text-anchor="middle" x="728.329" y="-288.8" font-family="Times,serif" font-size="14.00">received_messages</text>
</g>
<!-- User&#45;&gt;Notification -->
<g id="edge22" class="edge"><title>User&#45;&gt;Notification</title>
<path fill="none" stroke="#625fed" d="M642.44,-353.724C708.08,-352.936 851.121,-345.591 960.688,-300 975.782,-293.719 990.584,-283.247 1002.33,-273.592"/>
<ellipse fill="none" stroke="#625fed" cx="638.076" cy="-353.761" rx="4" ry="4"/>
<polygon fill="#625fed" stroke="#625fed" points="1002.34,-273.59 1012.86,-270.524 1006.14,-270.345 1009.94,-267.1 1009.94,-267.1 1009.94,-267.1 1006.14,-270.345 1007.02,-263.677 1002.34,-273.59 1002.34,-273.59"/>
</g>
<!-- User&#45;&gt;Offering -->
<g id="edge11" class="edge"><title>User&#45;&gt;Offering</title>
<path fill="none" stroke="#fad101" d="M576.331,-341.21C556.126,-331.984 529.869,-317.882 510.688,-300 503.56,-293.355 497.282,-284.812 492.217,-276.726"/>
<ellipse fill="none" stroke="#fad101" cx="580.096" cy="-342.882" rx="4.00002" ry="4.00002"/>
<polygon fill="#fad101" stroke="#fad101" points="492.104,-276.534 490.912,-265.633 489.569,-272.224 487.033,-267.915 487.033,-267.915 487.033,-267.915 489.569,-272.224 483.155,-270.197 492.104,-276.534 492.104,-276.534"/>
</g>
<!-- User&#45;&gt;Relationship -->
<g id="edge18" class="edge"><title>User&#45;&gt;Relationship</title>
<path fill="none" stroke="#5dba0c" d="M574.606,-343.677C554.072,-335.534 529.041,-321.715 516.688,-300 507.944,-284.631 521.757,-273.249 539.816,-265.344"/>
<ellipse fill="none" stroke="#5dba0c" cx="578.474" cy="-345.123" rx="4.00001" ry="4.00001"/>
<polygon fill="#5dba0c" stroke="#5dba0c" points="540.241,-265.177 551.194,-265.713 544.896,-263.351 549.55,-261.524 549.55,-261.524 549.55,-261.524 544.896,-263.351 547.906,-257.335 540.241,-265.177 540.241,-265.177"/>
</g>
<!-- User&#45;&gt;Relationship -->
<g id="edge19" class="edge"><title>User&#45;&gt;Relationship</title>
<path fill="none" stroke="#9f5c33" d="M577.61,-339.555C562.434,-330.571 545.286,-317.317 536.729,-300 530.896,-288.196 538.653,-277.958 550.009,-269.938"/>
<ellipse fill="none" stroke="#9f5c33" cx="581.367" cy="-341.664" rx="4.00002" ry="4.00002"/>
<polygon fill="#9f5c33" stroke="#9f5c33" points="550.275,-269.772 561.145,-268.321 554.524,-267.135 558.772,-264.498 558.772,-264.498 558.772,-264.498 554.524,-267.135 556.398,-260.675 550.275,-269.772 550.275,-269.772"/>
<text text-anchor="middle" x="597.167" y="-288.8" font-family="Times,serif" font-size="14.00">reverse_relationships</text>
</g>
<!-- User&#45;&gt;Task -->
<g id="edge10" class="edge"><title>User&#45;&gt;Task</title>
<path fill="none" stroke="#3e5997" d="M578.121,-339.753C538.075,-320.482 465.544,-285.579 424.382,-265.771"/>
<ellipse fill="none" stroke="#3e5997" cx="581.881" cy="-341.563" rx="4.00002" ry="4.00002"/>
<polygon fill="#3e5997" stroke="#3e5997" points="424.131,-265.65 417.071,-257.259 419.626,-263.482 415.12,-261.314 415.12,-261.314 415.12,-261.314 419.626,-263.482 413.169,-265.369 424.131,-265.65 424.131,-265.65"/>
</g>
<!-- User&#45;&gt;User -->
<g id="edge16" class="edge"><title>User&#45;&gt;User</title>
<path fill="none" stroke="#d56f18" d="M643.631,-356.976C648.477,-356.552 651.688,-355.727 651.688,-354.5 651.688,-353.273 648.477,-352.448 643.631,-352.024"/>
<polygon fill="#d56f18" stroke="#d56f18" points="643.477,-356.981 633.336,-352.809 638.48,-357.144 633.483,-357.306 633.483,-357.306 633.483,-357.306 638.48,-357.144 633.629,-361.804 643.477,-356.981 643.477,-356.981"/>
<polygon fill="#d56f18" stroke="#d56f18" points="643.477,-352.019 633.629,-347.196 638.48,-351.856 633.483,-351.694 633.483,-351.694 633.483,-351.694 638.48,-351.856 633.336,-356.191 643.477,-352.019 643.477,-352.019"/>
<text text-anchor="middle" x="672.681" y="-350.3" font-family="Times,serif" font-size="14.00">senders</text>
</g>
<!-- User&#45;&gt;User -->
<g id="edge17" class="edge"><title>User&#45;&gt;User</title>
<path fill="none" stroke="#02116a" d="M643.054,-359.755C667.627,-360.964 693.674,-359.212 693.674,-354.5 693.674,-349.788 667.627,-348.036 643.054,-349.245"/>
<polygon fill="#02116a" stroke="#02116a" points="643.031,-359.753 633.354,-354.596 638.042,-359.42 633.054,-359.086 633.054,-359.086 633.054,-359.086 638.042,-359.42 632.753,-363.576 643.031,-359.753 643.031,-359.753"/>
<polygon fill="#02116a" stroke="#02116a" points="643.031,-349.247 632.753,-345.424 638.042,-349.58 633.054,-349.914 633.054,-349.914 633.054,-349.914 638.042,-349.58 633.354,-354.404 643.031,-349.247 643.031,-349.247"/>
<text text-anchor="middle" x="722.047" y="-350.3" font-family="Times,serif" font-size="14.00">recepients</text>
</g>
<!-- User&#45;&gt;User -->
<g id="edge20" class="edge"><title>User&#45;&gt;User</title>
<path fill="none" stroke="#e7a22c" d="M642.723,-361.03C686.888,-364.976 750.419,-362.799 750.419,-354.5 750.419,-346.201 686.888,-344.024 642.723,-347.97"/>
<polygon fill="#e7a22c" stroke="#e7a22c" points="642.463,-361.003 632.985,-355.487 637.49,-360.483 632.517,-359.963 632.517,-359.963 632.517,-359.963 637.49,-360.483 632.049,-364.439 642.463,-361.003 642.463,-361.003"/>
<polygon fill="#e7a22c" stroke="#e7a22c" points="642.463,-347.997 632.049,-344.561 637.49,-348.517 632.517,-349.037 632.517,-349.037 632.517,-349.037 637.49,-348.517 632.985,-353.513 642.463,-347.997 642.463,-347.997"/>
<text text-anchor="middle" x="793.188" y="-350.3" font-family="Times,serif" font-size="14.00">followed_users</text>
</g>
<!-- User&#45;&gt;User -->
<g id="edge21" class="edge"><title>User&#45;&gt;User</title>
<path fill="none" stroke="#175718" d="M642.512,-361.625C709.477,-368.916 835.957,-366.541 835.957,-354.5 835.957,-342.459 709.477,-340.084 642.512,-347.375"/>
<polygon fill="#175718" stroke="#175718" points="642.229,-361.591 632.852,-355.906 637.266,-360.981 632.304,-360.372 632.304,-360.372 632.304,-360.372 637.266,-360.981 631.755,-364.838 642.229,-361.591 642.229,-361.591"/>
<polygon fill="#175718" stroke="#175718" points="642.229,-347.409 631.755,-344.162 637.266,-348.019 632.304,-348.628 632.304,-348.628 632.304,-348.628 637.266,-348.019 632.852,-353.094 642.229,-347.409 642.229,-347.409"/>
<text text-anchor="middle" x="862.395" y="-350.3" font-family="Times,serif" font-size="14.00">followers</text>
</g>
<!-- User&#45;&gt;Want -->
<g id="edge12" class="edge"><title>User&#45;&gt;Want</title>
<path fill="none" stroke="#ef152d" d="M574.933,-343.608C527.282,-328.537 434.658,-298.361 357.688,-268 355.612,-267.181 353.484,-266.313 351.347,-265.418"/>
<ellipse fill="none" stroke="#ef152d" cx="578.924" cy="-344.866" rx="4.00001" ry="4.00001"/>
<polygon fill="#ef152d" stroke="#ef152d" points="351.232,-265.369 343.834,-257.274 346.641,-263.387 342.051,-261.405 342.051,-261.405 342.051,-261.405 346.641,-263.387 340.267,-265.537 351.232,-265.369 351.232,-265.369"/>
</g>
</g>
</svg>
