<?xml version="1.0" encoding="UTF-8" standalone="no"?>
<!DOCTYPE svg PUBLIC "-//W3C//DTD SVG 1.1//EN"
 "http://www.w3.org/Graphics/SVG/1.1/DTD/svg11.dtd">
<!-- Generated by graphviz version 2.38.0 (20140413.2041)
 -->
<!-- Title: models_diagram Pages: 1 -->
<svg width="835pt" height="399pt"
 viewBox="0.00 0.00 835.05 399.00" xmlns="http://www.w3.org/2000/svg" xmlns:xlink="http://www.w3.org/1999/xlink">
<g id="graph0" class="graph" transform="scale(1 1) rotate(0) translate(4 395)">
<title>models_diagram</title>
<polygon fill="white" stroke="none" points="-4,4 -4,-395 831.049,-395 831.049,4 -4,4"/>
<!-- _diagram_info -->
<g id="node1" class="node"><title>_diagram_info</title>
<text text-anchor="start" x="8" y="-376.6" font-family="Times,serif" font-size="13.00">Models diagram</text>
<text text-anchor="start" x="8" y="-363.6" font-family="Times,serif" font-size="13.00">Date: Aug 12 2015 &#45; 16:01</text>
<text text-anchor="start" x="8" y="-350.6" font-family="Times,serif" font-size="13.00">Migration version: 20150812051658</text>
<text text-anchor="start" x="8" y="-337.6" font-family="Times,serif" font-size="13.00">Generated by RailRoady 1.3.0</text>
<text text-anchor="start" x="8" y="-324.6" font-family="Times,serif" font-size="13.00">http://railroady.prestonlee.com</text>
</g>
<!-- Ability -->
<g id="node2" class="node"><title>Ability</title>
<polygon fill="none" stroke="black" points="281.358,-372.5 226.018,-372.5 226.018,-336.5 281.358,-336.5 281.358,-372.5"/>
<text text-anchor="middle" x="253.688" y="-350.3" font-family="Times,serif" font-size="14.00">Ability</text>
</g>
<!-- Account -->
<g id="node3" class="node"><title>Account</title>
<ellipse fill="none" stroke="black" cx="339.688" cy="-354.5" rx="40.1317" ry="18"/>
<text text-anchor="middle" x="339.688" y="-350.3" font-family="Times,serif" font-size="14.00">Account</text>
</g>
<!-- Payment -->
<g id="node12" class="node"><title>Payment</title>
<ellipse fill="none" stroke="black" cx="182.688" cy="-250" rx="41.1093" ry="18"/>
<text text-anchor="middle" x="182.688" y="-245.8" font-family="Times,serif" font-size="14.00">Payment</text>
</g>
<!-- Account&#45;&gt;Payment -->
<g id="edge1" class="edge"><title>Account&#45;&gt;Payment</title>
<path fill="none" stroke="#bebf24" d="M313.422,-333.942C306.134,-328.66 298.167,-323.02 290.688,-318 265.68,-301.215 236.635,-283.281 214.969,-270.196"/>
<ellipse fill="none" stroke="#bebf24" cx="316.66" cy="-336.305" rx="4.00002" ry="4.00002"/>
<polygon fill="#bebf24" stroke="#bebf24" points="214.738,-270.057 208.488,-261.046 210.453,-267.479 206.168,-264.902 206.168,-264.902 206.168,-264.902 210.453,-267.479 203.849,-268.758 214.738,-270.057 214.738,-270.057"/>
<text text-anchor="middle" x="290.85" y="-288.8" font-family="Times,serif" font-size="14.00">withdraws</text>
</g>
<!-- Account&#45;&gt;Payment -->
<g id="edge2" class="edge"><title>Account&#45;&gt;Payment</title>
<path fill="none" stroke="#40ac2a" d="M315.653,-332.824C308.086,-327.244 299.416,-321.726 290.688,-318 249.602,-300.459 223.446,-331.529 191.798,-300 186.087,-294.31 183.326,-286.271 182.124,-278.347"/>
<ellipse fill="none" stroke="#40ac2a" cx="319.093" cy="-335.475" rx="4.00002" ry="4.00002"/>
<polygon fill="#40ac2a" stroke="#40ac2a" points="182.111,-278.172 185.812,-267.85 181.719,-273.188 181.326,-268.203 181.326,-268.203 181.326,-268.203 181.719,-273.188 176.84,-268.556 182.111,-278.172 182.111,-278.172"/>
<text text-anchor="middle" x="215.633" y="-288.8" font-family="Times,serif" font-size="14.00">deposits</text>
</g>
<!-- User -->
<g id="node16" class="node"><title>User</title>
<ellipse fill="none" stroke="black" cx="372.688" cy="-250" rx="27" ry="18"/>
<text text-anchor="middle" x="372.688" y="-245.8" font-family="Times,serif" font-size="14.00">User</text>
</g>
<!-- Account&#45;&gt;User -->
<g id="edge4" class="edge"><title>Account&#45;&gt;User</title>
<path fill="none" stroke="#6b3d6c" d="M348.249,-326.908C353.118,-311.785 359.198,-292.9 364.075,-277.75"/>
<polygon fill="#6b3d6c" stroke="#6b3d6c" points="348.202,-327.055 340.854,-335.195 346.669,-331.815 345.137,-336.574 345.137,-336.574 345.137,-336.574 346.669,-331.815 349.421,-337.953 348.202,-327.055 348.202,-327.055"/>
<polygon fill="#6b3d6c" stroke="#6b3d6c" points="364.166,-277.47 371.514,-269.33 365.698,-272.71 367.23,-267.951 367.23,-267.951 367.23,-267.951 365.698,-272.71 362.947,-266.572 364.166,-277.47 364.166,-277.47"/>
<text text-anchor="middle" x="387.336" y="-288.8" font-family="Times,serif" font-size="14.00">recepient</text>
</g>
<!-- Sender -->
<g id="node18" class="node"><title>Sender</title>
<ellipse fill="none" stroke="black" cx="758.688" cy="-250" rx="34.8285" ry="18"/>
<text text-anchor="middle" x="758.688" y="-245.8" font-family="Times,serif" font-size="14.00">Sender</text>
</g>
<!-- Account&#45;&gt;Sender -->
<g id="edge3" class="edge"><title>Account&#45;&gt;Sender</title>
<path fill="none" stroke="#42866a" d="M364.694,-331.913C372.01,-326.593 380.306,-321.441 388.688,-318 524.287,-262.328 573.048,-305.746 714.688,-268 717.341,-267.293 720.054,-266.479 722.766,-265.599"/>
<polygon fill="#42866a" stroke="#42866a" points="364.53,-332.039 353.862,-334.577 360.569,-335.09 356.608,-338.142 356.608,-338.142 356.608,-338.142 360.569,-335.09 359.355,-341.707 364.53,-332.039 364.53,-332.039"/>
<polygon fill="#42866a" stroke="#42866a" points="723.035,-265.505 733.961,-266.44 727.753,-263.849 732.471,-262.194 732.471,-262.194 732.471,-262.194 727.753,-263.849 730.981,-257.947 723.035,-265.505 723.035,-265.505"/>
</g>
<!-- Category -->
<g id="node4" class="node"><title>Category</title>
<ellipse fill="none" stroke="black" cx="284.688" cy="-250" rx="42.5456" ry="18"/>
<text text-anchor="middle" x="284.688" y="-245.8" font-family="Times,serif" font-size="14.00">Category</text>
</g>
<!-- Offering -->
<g id="node11" class="node"><title>Offering</title>
<ellipse fill="none" stroke="black" cx="259.688" cy="-164" rx="40.2968" ry="18"/>
<text text-anchor="middle" x="259.688" y="-159.8" font-family="Times,serif" font-size="14.00">Offering</text>
</g>
<!-- Category&#45;&gt;Offering -->
<g id="edge6" class="edge"><title>Category&#45;&gt;Offering</title>
<path fill="none" stroke="#aeb611" d="M276.795,-224.169C275.737,-220.756 274.676,-217.294 273.688,-214 271.57,-206.94 269.348,-199.285 267.314,-192.171"/>
<ellipse fill="none" stroke="#aeb611" cx="278.032" cy="-228.12" rx="4.00001" ry="4.00001"/>
<polygon fill="#aeb611" stroke="#aeb611" points="267.233,-191.886 268.831,-181.038 265.867,-187.077 264.502,-182.267 264.502,-182.267 264.502,-182.267 265.867,-187.077 260.173,-183.496 267.233,-191.886 267.233,-191.886"/>
</g>
<!-- Task -->
<g id="node15" class="node"><title>Task</title>
<ellipse fill="none" stroke="black" cx="174.688" cy="-164" rx="27" ry="18"/>
<text text-anchor="middle" x="174.688" y="-159.8" font-family="Times,serif" font-size="14.00">Task</text>
</g>
<!-- Category&#45;&gt;Task -->
<g id="edge5" class="edge"><title>Category&#45;&gt;Task</title>
<path fill="none" stroke="#2f006d" d="M245.781,-234.513C234.125,-229.112 221.773,-222.248 211.688,-214 203.359,-207.188 195.846,-198.13 189.8,-189.656"/>
<ellipse fill="none" stroke="#2f006d" cx="249.652" cy="-236.229" rx="4.00002" ry="4.00002"/>
<polygon fill="#2f006d" stroke="#2f006d" points="189.656,-189.443 187.787,-178.637 186.857,-185.299 184.058,-181.156 184.058,-181.156 184.058,-181.156 186.857,-185.299 180.329,-183.675 189.656,-189.443 189.656,-189.443"/>
</g>
<!-- Want -->
<g id="node17" class="node"><title>Want</title>
<ellipse fill="none" stroke="black" cx="346.688" cy="-164" rx="28.6076" ry="18"/>
<text text-anchor="middle" x="346.688" y="-159.8" font-family="Times,serif" font-size="14.00">Want</text>
</g>
<!-- Category&#45;&gt;Want -->
<g id="edge7" class="edge"><title>Category&#45;&gt;Want</title>
<path fill="none" stroke="#4b5f41" d="M301.887,-225.698C310.32,-214.273 320.465,-200.527 328.967,-189.008"/>
<ellipse fill="none" stroke="#4b5f41" cx="299.312" cy="-229.186" rx="4.00002" ry="4.00002"/>
<polygon fill="#4b5f41" stroke="#4b5f41" points="329.155,-188.755 338.714,-183.381 332.124,-184.732 335.093,-180.709 335.093,-180.709 335.093,-180.709 332.124,-184.732 331.472,-178.037 329.155,-188.755 329.155,-188.755"/>
</g>
<!-- Contract -->
<g id="node5" class="node"><title>Contract</title>
<ellipse fill="none" stroke="black" cx="291.688" cy="-91" rx="40.6162" ry="18"/>
<text text-anchor="middle" x="291.688" y="-86.8" font-family="Times,serif" font-size="14.00">Contract</text>
</g>
<!-- Negotiation -->
<g id="node9" class="node"><title>Negotiation</title>
<ellipse fill="none" stroke="black" cx="291.688" cy="-18" rx="51.7174" ry="18"/>
<text text-anchor="middle" x="291.688" y="-13.8" font-family="Times,serif" font-size="14.00">Negotiation</text>
</g>
<!-- Contract&#45;&gt;Negotiation -->
<g id="edge8" class="edge"><title>Contract&#45;&gt;Negotiation</title>
<path fill="none" stroke="#0850ed" d="M291.688,-64.791C291.688,-58.832 291.688,-52.4496 291.688,-46.3988"/>
<ellipse fill="none" stroke="#0850ed" cx="291.688" cy="-68.8129" rx="4" ry="4"/>
<polygon fill="#0850ed" stroke="#0850ed" points="291.688,-46.0288 296.188,-36.0288 291.688,-41.0288 291.688,-36.0288 291.688,-36.0288 291.688,-36.0288 291.688,-41.0288 287.188,-36.0289 291.688,-46.0288 291.688,-46.0288"/>
</g>
<!-- Entrust -->
<g id="node6" class="node"><title>Entrust</title>
<ellipse fill="none" stroke="black" cx="385.688" cy="-91" rx="35.806" ry="18"/>
<text text-anchor="middle" x="385.688" y="-86.8" font-family="Times,serif" font-size="14.00">Entrust</text>
</g>
<!-- Entrust&#45;&gt;Negotiation -->
<g id="edge9" class="edge"><title>Entrust&#45;&gt;Negotiation</title>
<path fill="none" stroke="#07547a" d="M360.061,-70.644C347.871,-61.436 333.242,-50.3869 320.65,-40.8758"/>
<ellipse fill="none" stroke="#07547a" cx="363.474" cy="-73.2212" rx="4.00002" ry="4.00002"/>
<polygon fill="#07547a" stroke="#07547a" points="320.292,-40.6057 315.025,-30.9877 316.303,-37.5921 312.313,-34.5785 312.313,-34.5785 312.313,-34.5785 316.303,-37.5921 309.601,-38.1693 320.292,-40.6057 320.292,-40.6057"/>
</g>
<!-- Entry -->
<g id="node7" class="node"><title>Entry</title>
<ellipse fill="none" stroke="black" cx="203.688" cy="-91" rx="29.5104" ry="18"/>
<text text-anchor="middle" x="203.688" y="-86.8" font-family="Times,serif" font-size="14.00">Entry</text>
</g>
<!-- Entry&#45;&gt;Negotiation -->
<g id="edge10" class="edge"><title>Entry&#45;&gt;Negotiation</title>
<path fill="none" stroke="#af92cf" d="M227.631,-70.6825C238.996,-61.5125 252.633,-50.5098 264.398,-41.0175"/>
<ellipse fill="none" stroke="#af92cf" cx="224.187" cy="-73.461" rx="4.00002" ry="4.00002"/>
<polygon fill="#af92cf" stroke="#af92cf" points="264.411,-41.0076 275.019,-38.2305 268.302,-37.8679 272.194,-34.7283 272.194,-34.7283 272.194,-34.7283 268.302,-37.8679 269.368,-31.226 264.411,-41.0076 264.411,-41.0076"/>
</g>
<!-- Message -->
<g id="node8" class="node"><title>Message</title>
<ellipse fill="none" stroke="black" cx="684.688" cy="-164" rx="41.1007" ry="18"/>
<text text-anchor="middle" x="684.688" y="-159.8" font-family="Times,serif" font-size="14.00">Message</text>
</g>
<!-- Notification -->
<g id="node10" class="node"><title>Notification</title>
<ellipse fill="none" stroke="black" cx="445.688" cy="-164" rx="52.2106" ry="18"/>
<text text-anchor="middle" x="445.688" y="-159.8" font-family="Times,serif" font-size="14.00">Notification</text>
</g>
<!-- Offering&#45;&gt;Contract -->
<g id="edge12" class="edge"><title>Offering&#45;&gt;Contract</title>
<path fill="none" stroke="#93433c" d="M270.682,-138.606C273.668,-131.982 276.912,-124.783 279.938,-118.07"/>
<ellipse fill="none" stroke="#93433c" cx="268.915" cy="-142.527" rx="4.00002" ry="4.00002"/>
<polygon fill="#93433c" stroke="#93433c" points="280.05,-117.822 288.261,-110.554 282.104,-113.264 284.159,-108.705 284.159,-108.705 284.159,-108.705 282.104,-113.264 280.056,-106.856 280.05,-117.822 280.05,-117.822"/>
</g>
<!-- Offering&#45;&gt;Entrust -->
<g id="edge13" class="edge"><title>Offering&#45;&gt;Entrust</title>
<path fill="none" stroke="#9f6ec2" d="M290.923,-145.399C310.109,-134.588 334.617,-120.778 353.903,-109.91"/>
<ellipse fill="none" stroke="#9f6ec2" cx="287.169" cy="-147.515" rx="4.00002" ry="4.00002"/>
<polygon fill="#9f6ec2" stroke="#9f6ec2" points="353.919,-109.901 364.84,-108.913 358.275,-107.447 362.631,-104.992 362.631,-104.992 362.631,-104.992 358.275,-107.447 360.422,-101.072 353.919,-109.901 353.919,-109.901"/>
</g>
<!-- Offering&#45;&gt;Entry -->
<g id="edge11" class="edge"><title>Offering&#45;&gt;Entry</title>
<path fill="none" stroke="#9850c0" d="M241.934,-140.491C235.657,-132.532 228.582,-123.562 222.24,-115.521"/>
<ellipse fill="none" stroke="#9850c0" cx="244.503" cy="-143.748" rx="4.00002" ry="4.00002"/>
<polygon fill="#9850c0" stroke="#9850c0" points="222.153,-115.411 219.493,-104.773 219.056,-111.485 215.96,-107.559 215.96,-107.559 215.96,-107.559 219.056,-111.485 212.427,-110.346 222.153,-115.411 222.153,-115.411"/>
</g>
<!-- Relationship -->
<g id="node13" class="node"><title>Relationship</title>
<ellipse fill="none" stroke="black" cx="570.688" cy="-164" rx="54.6248" ry="18"/>
<text text-anchor="middle" x="570.688" y="-159.8" font-family="Times,serif" font-size="14.00">Relationship</text>
</g>
<!-- Talk -->
<g id="node14" class="node"><title>Talk</title>
<ellipse fill="none" stroke="black" cx="424.688" cy="-354.5" rx="27" ry="18"/>
<text text-anchor="middle" x="424.688" y="-350.3" font-family="Times,serif" font-size="14.00">Talk</text>
</g>
<!-- Task&#45;&gt;Contract -->
<g id="edge15" class="edge"><title>Task&#45;&gt;Contract</title>
<path fill="none" stroke="#2e6a53" d="M200.868,-147.113C218.37,-136.492 241.499,-122.457 260.035,-111.208"/>
<ellipse fill="none" stroke="#2e6a53" cx="197.428" cy="-149.201" rx="4.00002" ry="4.00002"/>
<polygon fill="#2e6a53" stroke="#2e6a53" points="260.172,-111.125 271.055,-109.784 264.446,-108.531 268.721,-105.937 268.721,-105.937 268.721,-105.937 264.446,-108.531 266.386,-102.09 260.172,-111.125 260.172,-111.125"/>
</g>
<!-- Task&#45;&gt;Entrust -->
<g id="edge16" class="edge"><title>Task&#45;&gt;Entrust</title>
<path fill="none" stroke="#a97fb0" d="M203.192,-149.016C205.705,-147.943 208.228,-146.921 210.688,-146 267.347,-124.788 284.297,-128.145 341.688,-109 344.067,-108.206 346.506,-107.359 348.958,-106.483"/>
<ellipse fill="none" stroke="#a97fb0" cx="199.409" cy="-150.706" rx="4.00002" ry="4.00002"/>
<polygon fill="#a97fb0" stroke="#a97fb0" points="348.988,-106.472 359.928,-107.231 353.679,-104.74 358.37,-103.009 358.37,-103.009 358.37,-103.009 353.679,-104.74 356.812,-98.7875 348.988,-106.472 348.988,-106.472"/>
</g>
<!-- Task&#45;&gt;Entry -->
<g id="edge14" class="edge"><title>Task&#45;&gt;Entry</title>
<path fill="none" stroke="#3b59a3" d="M182.438,-138.322C183.775,-134.501 185.212,-130.622 186.688,-127 187.937,-123.935 189.331,-120.761 190.768,-117.631"/>
<ellipse fill="none" stroke="#3b59a3" cx="181.133" cy="-142.194" rx="4.00001" ry="4.00001"/>
<polygon fill="#3b59a3" stroke="#3b59a3" points="190.802,-117.559 199.17,-110.472 192.956,-113.046 195.109,-108.534 195.109,-108.534 195.109,-108.534 192.956,-113.046 191.048,-106.596 190.802,-117.559 190.802,-117.559"/>
</g>
<!-- User&#45;&gt;Account -->
<g id="edge17" class="edge"><title>User&#45;&gt;Account</title>
<path fill="none" stroke="#760434" d="M358.928,-274.103C356.972,-277.988 355.136,-282.044 353.688,-286 348.693,-299.645 345.287,-315.529 343.086,-328.459"/>
<ellipse fill="none" stroke="#760434" cx="360.883" cy="-270.446" rx="4.00002" ry="4.00002"/>
<ellipse fill="#760434" stroke="#760434" cx="342.438" cy="-332.527" rx="4.00001" ry="4.00001"/>
</g>
<!-- User&#45;&gt;Contract -->
<g id="edge22" class="edge"><title>User&#45;&gt;Contract</title>
<path fill="none" stroke="#a96012" d="M407.497,-247.292C504.068,-242.386 769.087,-227.725 781.688,-214 785.896,-209.416 783.869,-205.828 781.688,-200 770.536,-170.201 762.996,-160.526 734.688,-146 656.447,-105.851 426.626,-127.658 340.688,-109 337.476,-108.303 334.184,-107.459 330.9,-106.524"/>
<ellipse fill="none" stroke="#a96012" cx="403.488" cy="-247.494" rx="4" ry="4"/>
<polygon fill="#a96012" stroke="#a96012" points="330.711,-106.465 322.492,-99.2053 325.935,-104.984 321.16,-103.503 321.16,-103.503 321.16,-103.503 325.935,-104.984 319.827,-107.802 330.711,-106.465 330.711,-106.465"/>
</g>
<!-- User&#45;&gt;Entrust -->
<g id="edge23" class="edge"><title>User&#45;&gt;Entrust</title>
<path fill="none" stroke="#a29bcc" d="M407.838,-247.507C510.065,-242.996 800.922,-228.899 814.688,-214 829.783,-197.663 836.312,-178.103 798.688,-146 744.341,-99.6287 527.845,-92.6701 431.886,-91.9087"/>
<ellipse fill="none" stroke="#a29bcc" cx="403.67" cy="-247.689" rx="4" ry="4"/>
<polygon fill="#a29bcc" stroke="#a29bcc" points="431.617,-91.9072 421.644,-87.3475 426.617,-91.8773 421.617,-91.8474 421.617,-91.8474 421.617,-91.8474 426.617,-91.8773 421.59,-96.3473 431.617,-91.9072 431.617,-91.9072"/>
</g>
<!-- User&#45;&gt;Entry -->
<g id="edge21" class="edge"><title>User&#45;&gt;Entry</title>
<path fill="none" stroke="#5c1db1" d="M344.444,-234.925C341.852,-233.859 339.241,-232.864 336.688,-232 250.71,-202.921 193.512,-254.333 138.688,-182 129.023,-169.249 131.89,-160.484 138.688,-146 145.948,-130.53 160.059,-117.958 173.283,-108.849"/>
<ellipse fill="none" stroke="#5c1db1" cx="348.422" cy="-236.671" rx="4.00002" ry="4.00002"/>
<polygon fill="#5c1db1" stroke="#5c1db1" points="173.365,-108.796 184.206,-107.148 177.564,-106.082 181.764,-103.368 181.764,-103.368 181.764,-103.368 177.564,-106.082 179.321,-99.589 173.365,-108.796 173.365,-108.796"/>
</g>
<!-- User&#45;&gt;Message -->
<g id="edge24" class="edge"><title>User&#45;&gt;Message</title>
<path fill="none" stroke="#cb45cb" d="M407.428,-245.05C441.505,-240.391 494.491,-231.03 537.688,-214 548.909,-209.576 549.783,-204.593 560.936,-200 592.134,-187.15 602.294,-191.44 634.688,-182 637.813,-181.089 641.032,-180.104 644.26,-179.083"/>
<ellipse fill="none" stroke="#cb45cb" cx="403.155" cy="-245.612" rx="4.00001" ry="4.00001"/>
<polygon fill="#cb45cb" stroke="#cb45cb" points="644.375,-179.046 655.277,-180.228 649.13,-177.497 653.884,-175.949 653.884,-175.949 653.884,-175.949 649.13,-177.497 652.49,-171.67 644.375,-179.046 644.375,-179.046"/>
<text text-anchor="middle" x="610.064" y="-202.8" font-family="Times,serif" font-size="14.00">sended_messages</text>
</g>
<!-- User&#45;&gt;Message -->
<g id="edge25" class="edge"><title>User&#45;&gt;Message</title>
<path fill="none" stroke="#f60c69" d="M408.312,-248.74C475.965,-247.597 619.843,-241.859 659.688,-214 667.422,-208.593 672.91,-200.059 676.734,-191.619"/>
<ellipse fill="none" stroke="#f60c69" cx="404.064" cy="-248.803" rx="4" ry="4"/>
<polygon fill="#f60c69" stroke="#f60c69" points="676.735,-191.614 684.566,-183.938 678.555,-186.957 680.375,-182.3 680.375,-182.3 680.375,-182.3 678.555,-186.957 676.183,-180.662 676.735,-191.614 676.735,-191.614"/>
<text text-anchor="middle" x="724.329" y="-202.8" font-family="Times,serif" font-size="14.00">received_messages</text>
</g>
<!-- User&#45;&gt;Notification -->
<g id="edge32" class="edge"><title>User&#45;&gt;Notification</title>
<path fill="none" stroke="#ab9726" d="M368.214,-223.688C368.03,-215.577 369.262,-206.914 373.688,-200 379.139,-191.484 387.306,-184.981 396.206,-180.036"/>
<ellipse fill="none" stroke="#ab9726" cx="368.535" cy="-227.857" rx="4" ry="4"/>
<polygon fill="#ab9726" stroke="#ab9726" points="396.296,-179.992 407.256,-179.634 400.786,-177.792 405.276,-175.592 405.276,-175.592 405.276,-175.592 400.786,-177.792 403.297,-171.551 396.296,-179.992 396.296,-179.992"/>
</g>
<!-- User&#45;&gt;Offering -->
<g id="edge19" class="edge"><title>User&#45;&gt;Offering</title>
<path fill="none" stroke="#3b1787" d="M348.408,-230.952C330.565,-217.687 306.281,-199.636 287.63,-185.771"/>
<ellipse fill="none" stroke="#3b1787" cx="351.821" cy="-233.489" rx="4.00002" ry="4.00002"/>
<polygon fill="#3b1787" stroke="#3b1787" points="287.526,-185.694 282.185,-176.116 283.513,-182.711 279.5,-179.728 279.5,-179.728 279.5,-179.728 283.513,-182.711 276.815,-183.339 287.526,-185.694 287.526,-185.694"/>
</g>
<!-- User&#45;&gt;Relationship -->
<g id="edge28" class="edge"><title>User&#45;&gt;Relationship</title>
<path fill="none" stroke="#6cf888" d="M380.567,-224.182C384.613,-215.247 390.467,-205.919 398.688,-200 438.178,-171.565 459.119,-192.258 506.688,-182 511.292,-181.007 516.061,-179.897 520.826,-178.732"/>
<ellipse fill="none" stroke="#6cf888" cx="378.967" cy="-228.132" rx="4.00001" ry="4.00001"/>
<polygon fill="#6cf888" stroke="#6cf888" points="520.845,-178.727 531.642,-180.648 525.694,-177.505 530.542,-176.284 530.542,-176.284 530.542,-176.284 525.694,-177.505 529.443,-171.92 520.845,-178.727 520.845,-178.727"/>
</g>
<!-- User&#45;&gt;Relationship -->
<g id="edge29" class="edge"><title>User&#45;&gt;Relationship</title>
<path fill="none" stroke="#902a53" d="M388.458,-226.83C396.458,-217.165 406.97,-206.565 418.729,-200 453.57,-180.549 467.842,-191.126 506.688,-182 511.087,-180.966 515.645,-179.849 520.209,-178.699"/>
<ellipse fill="none" stroke="#902a53" cx="385.817" cy="-230.172" rx="4.00002" ry="4.00002"/>
<polygon fill="#902a53" stroke="#902a53" points="520.463,-178.634 531.268,-180.505 525.306,-177.39 530.149,-176.146 530.149,-176.146 530.149,-176.146 525.306,-177.39 529.029,-171.788 520.463,-178.634 520.463,-178.634"/>
<text text-anchor="middle" x="479.167" y="-202.8" font-family="Times,serif" font-size="14.00">reverse_relationships</text>
</g>
<!-- User&#45;&gt;Task -->
<g id="edge18" class="edge"><title>User&#45;&gt;Task</title>
<path fill="none" stroke="#97f689" d="M344.073,-235.287C341.584,-234.155 339.097,-233.046 336.688,-232 281.42,-208.014 265.955,-205.986 210.688,-182 208.881,-181.216 207.03,-180.395 205.167,-179.557"/>
<ellipse fill="none" stroke="#97f689" cx="347.839" cy="-237.028" rx="4.00002" ry="4.00002"/>
<polygon fill="#97f689" stroke="#97f689" points="204.99,-179.475 197.788,-171.205 200.448,-177.384 195.906,-175.293 195.906,-175.293 195.906,-175.293 200.448,-177.384 194.024,-179.381 204.99,-179.475 204.99,-179.475"/>
</g>
<!-- User&#45;&gt;User -->
<g id="edge26" class="edge"><title>User&#45;&gt;User</title>
<path fill="none" stroke="#d0d662" d="M410.198,-251.697C414.726,-251.39 417.688,-250.825 417.688,-250 417.688,-249.175 414.726,-248.61 410.198,-248.303"/>
<polygon fill="#d0d662" stroke="#d0d662" points="409.925,-251.704 399.81,-247.468 404.927,-251.835 399.929,-251.967 399.929,-251.967 399.929,-251.967 404.927,-251.835 400.047,-256.465 409.925,-251.704 409.925,-251.704"/>
<polygon fill="#d0d662" stroke="#d0d662" points="409.925,-248.296 400.047,-243.535 404.927,-248.165 399.929,-248.033 399.929,-248.033 399.929,-248.033 404.927,-248.165 399.81,-252.532 409.925,-248.296 409.925,-248.296"/>
<text text-anchor="middle" x="438.681" y="-245.8" font-family="Times,serif" font-size="14.00">senders</text>
</g>
<!-- User&#45;&gt;User -->
<g id="edge27" class="edge"><title>User&#45;&gt;User</title>
<path fill="none" stroke="#049899" d="M409.783,-253.703C434.139,-254.5 459.674,-253.266 459.674,-250 459.674,-246.734 434.139,-245.5 409.783,-246.297"/>
<polygon fill="#049899" stroke="#049899" points="409.485,-253.689 399.699,-248.741 404.49,-253.463 399.495,-253.237 399.495,-253.237 399.495,-253.237 404.49,-253.463 399.291,-257.732 409.485,-253.689 409.485,-253.689"/>
<polygon fill="#049899" stroke="#049899" points="409.485,-246.311 399.291,-242.268 404.49,-246.537 399.495,-246.763 399.495,-246.763 399.495,-246.763 404.49,-246.537 399.699,-251.259 409.485,-246.311 409.485,-246.311"/>
<text text-anchor="middle" x="488.047" y="-245.8" font-family="Times,serif" font-size="14.00">recepients</text>
</g>
<!-- User&#45;&gt;User -->
<g id="edge30" class="edge"><title>User&#45;&gt;User</title>
<path fill="none" stroke="#8e9364" d="M409.374,-254.611C453.51,-257.318 516.419,-255.781 516.419,-250 516.419,-244.219 453.51,-242.682 409.374,-245.389"/>
<polygon fill="#8e9364" stroke="#8e9364" points="409.138,-254.594 399.486,-249.39 404.151,-254.236 399.163,-253.878 399.163,-253.878 399.163,-253.878 404.151,-254.236 398.841,-258.367 409.138,-254.594 409.138,-254.594"/>
<polygon fill="#8e9364" stroke="#8e9364" points="409.138,-245.406 398.841,-241.633 404.151,-245.764 399.163,-246.122 399.163,-246.122 399.163,-246.122 404.151,-245.764 399.486,-250.61 409.138,-245.406 409.138,-245.406"/>
<text text-anchor="middle" x="559.188" y="-245.8" font-family="Times,serif" font-size="14.00">followed_users</text>
</g>
<!-- User&#45;&gt;User -->
<g id="edge31" class="edge"><title>User&#45;&gt;User</title>
<path fill="none" stroke="#8fb3f1" d="M409.443,-255.058C476.643,-260.076 601.957,-258.39 601.957,-250 601.957,-241.61 476.643,-239.924 409.443,-244.942"/>
<polygon fill="#8fb3f1" stroke="#8fb3f1" points="409.15,-255.033 399.563,-249.711 404.168,-254.614 399.185,-254.195 399.185,-254.195 399.185,-254.195 404.168,-254.614 398.808,-258.679 409.15,-255.033 409.15,-255.033"/>
<polygon fill="#8fb3f1" stroke="#8fb3f1" points="409.15,-244.967 398.808,-241.321 404.168,-245.386 399.185,-245.805 399.185,-245.805 399.185,-245.805 404.168,-245.386 399.563,-250.289 409.15,-244.967 409.15,-244.967"/>
<text text-anchor="middle" x="628.395" y="-245.8" font-family="Times,serif" font-size="14.00">followers</text>
</g>
<!-- User&#45;&gt;Want -->
<g id="edge20" class="edge"><title>User&#45;&gt;Want</title>
<path fill="none" stroke="#03d5a4" d="M355.108,-227.279C352.514,-223.085 350.206,-218.569 348.688,-214 346.414,-207.16 345.425,-199.486 345.121,-192.277"/>
<ellipse fill="none" stroke="#03d5a4" cx="357.41" cy="-230.673" rx="4.00002" ry="4.00002"/>
<polygon fill="#03d5a4" stroke="#03d5a4" points="345.12,-192.199 349.593,-182.186 345.107,-187.199 345.093,-182.199 345.093,-182.199 345.093,-182.199 345.107,-187.199 340.593,-182.211 345.12,-192.199 345.12,-192.199"/>
</g>
<!-- Want&#45;&gt;Contract -->
<g id="edge34" class="edge"><title>Want&#45;&gt;Contract</title>
<path fill="none" stroke="#46b334" d="M329.635,-140.986C323.577,-133.166 316.725,-124.32 310.526,-116.319"/>
<ellipse fill="none" stroke="#46b334" cx="332.304" cy="-144.432" rx="4.00002" ry="4.00002"/>
<polygon fill="#46b334" stroke="#46b334" points="310.488,-116.27 307.922,-105.608 307.426,-112.317 304.364,-108.364 304.364,-108.364 304.364,-108.364 307.426,-112.317 300.807,-111.12 310.488,-116.27 310.488,-116.27"/>
</g>
<!-- Want&#45;&gt;Entrust -->
<g id="edge35" class="edge"><title>Want&#45;&gt;Entrust</title>
<path fill="none" stroke="#1e29df" d="M359.733,-139.251C363.493,-132.406 367.613,-124.904 371.442,-117.934"/>
<ellipse fill="none" stroke="#1e29df" cx="357.659" cy="-143.027" rx="4.00002" ry="4.00002"/>
<polygon fill="#1e29df" stroke="#1e29df" points="371.606,-117.636 380.365,-111.038 374.013,-113.253 376.421,-108.871 376.421,-108.871 376.421,-108.871 374.013,-113.253 372.476,-106.704 371.606,-117.636 371.606,-117.636"/>
</g>
<!-- Want&#45;&gt;Entry -->
<g id="edge33" class="edge"><title>Want&#45;&gt;Entry</title>
<path fill="none" stroke="#fce3b5" d="M317.695,-148.605C293.796,-136.739 259.949,-119.934 235.347,-107.719"/>
<ellipse fill="none" stroke="#fce3b5" cx="321.386" cy="-150.438" rx="4.00002" ry="4.00002"/>
<polygon fill="#fce3b5" stroke="#fce3b5" points="235.04,-107.566 228.084,-99.0888 230.561,-105.343 226.083,-103.119 226.083,-103.119 226.083,-103.119 230.561,-105.343 224.082,-107.15 235.04,-107.566 235.04,-107.566"/>
</g>
</g>
</svg>
